<?xml version="1.0" encoding="UTF-8" standalone="no"?>
<!-- Created with Inkscape (http://www.inkscape.org/) -->

<svg
   xmlns:dc="http://purl.org/dc/elements/1.1/"
   xmlns:cc="http://creativecommons.org/ns#"
   xmlns:rdf="http://www.w3.org/1999/02/22-rdf-syntax-ns#"
   xmlns:svg="http://www.w3.org/2000/svg"
   xmlns="http://www.w3.org/2000/svg"
   xmlns:sodipodi="http://sodipodi.sourceforge.net/DTD/sodipodi-0.dtd"
   xmlns:inkscape="http://www.inkscape.org/namespaces/inkscape"
   width="258"
   height="116"
   viewBox="0 0 68.262498 30.691668"
   version="1.1"
   id="svg2529"
   inkscape:version="0.92.4 (5da689c313, 2019-01-14)"
   sodipodi:docname="logo-tech-sass.svg">
  <defs
     id="defs2523">
	
</defs>
  <sodipodi:namedview
     id="base"
     pagecolor="#ffffff"
     bordercolor="#666666"
     borderopacity="1.0"
     inkscape:pageopacity="0.0"
     inkscape:pageshadow="2"
     inkscape:zoom="1"
     inkscape:cx="-92.051652"
     inkscape:cy="152.59259"
     inkscape:document-units="mm"
     inkscape:current-layer="g4313"
     showgrid="false"
     units="px"
     inkscape:window-width="1920"
     inkscape:window-height="1001"
     inkscape:window-x="-9"
     inkscape:window-y="-9"
     inkscape:window-maximized="1" />
  <metadata
     id="metadata2526">
    <rdf:RDF>
      <cc:Work
         rdf:about="">
        <dc:format>image/svg+xml</dc:format>
        <dc:type
           rdf:resource="http://purl.org/dc/dcmitype/StillImage" />
        <dc:title></dc:title>
      </cc:Work>
    </rdf:RDF>
  </metadata>
  <g
     inkscape:label="Capa 1"
     inkscape:groupmode="layer"
     id="layer1"
     transform="translate(0,-266.3083)">
    <g
       id="g3515"
       transform="matrix(0.26458333,0,0,0.26458333,-71.437499,217.83016)">
      <g
         id="Layer_1">
</g>
      <g
         style="fill:#000000"
         id="g3488">
		
		
		
		
		
		
		
		
	<g
   id="XMLID_141_"
   transform="matrix(0.25895832,0,0,0.28257554,7.682284,122.89296)">
  <g
     id="g10"
     transform="matrix(4.8270317,0,0,-4.423596,-875.64812,-0.3668976)"
     style="fill:#000000">
    <g
       id="g12"
       transform="scale(0.1)"
       style="fill:#000000">
      <g
         id="g4114"
         transform="matrix(8,0,0,-7.9999999,-1905.7778,1784.6666)">
        <g
           id="g4191"
           transform="matrix(0.02646191,0,0,0.05673299,735.10381,298.96037)">
	<g
   id="g4171"
   transform="matrix(1.6124745,0,0,1,0.00490742,0)">
		
		
		
		
	<g
   id="g4313"
   transform="matrix(8.7885498,0,0,5.0951399,-3815.5814,1102.6765)">
  <path
     id="path4255"
     d="m 882.66668,-58.810785 c 0,5.66527 -0.20154,11.26321 -0.60518,16.79383 -0.30826,4.37823 -0.74768,8.70346 -1.30516,12.97713 -11.27072,87.10263 -71.19517,153.580385 -143.423,153.580385 -36.79033,0 -70.38278,-17.24219 -95.98529,-45.680975 -9.46142,-10.49973 -17.83172,-22.5336 -24.86676,-35.79434 -15.46494,-29.13425 -24.48128,-64.18014 -24.48128,-101.87603 0,-101.262235 65.06789,-183.351365 145.33333,-183.351365 80.26544,0 145.33334,82.08913 145.33334,183.351365 z"
     style="fill:#f2f2f2;stroke-width:0.63765347"
     inkscape:connector-curvature="0" />
  <path
     id="path4257"
     d="m 845.63336,-38.058425 c -4.40769,2.10281 -4.22943,2.14006 -6.56101,-3.21796 -2.97763,-6.82482 -4.56153,-14.00203 -4.69835,-21.80735 -0.11297,-6.69805 1.34036,-12.92412 3.16781,-19.0313 1.45901,-4.85666 -0.43884,-6.57057 -3.77299,-7.01247 -2.42638,-0.31442 -4.92941,-0.28434 -7.36148,0.0301 -6.3237,0.81577 -6.94647,1.50405 -8.62519,9.24993 -0.99633,4.59525 -1.79168,9.22773 -3.44656,13.59021 -4.08125,10.73894 -8.72,21.08182 -13.47739,31.3495 -0.8544,1.84855 -1.56006,3.83892 -2.76417,5.41817 -3.44656,-6.51112 -4.74548,-13.70265 -5.03614,-21.24655 -0.29067,-7.4465 1.51862,-14.36873 3.5056,-21.21648 0.67046,-2.30478 0.11297,-3.73435 -1.46525,-4.72989 -0.69999,-0.44119 -1.48286,-0.85301 -2.24813,-0.92821 -4.05741,-0.40395 -8.1029,-0.3445 -12.05983,1.05498 -1.77977,0.62096 -2.94243,1.87864 -3.33983,4.40044 -0.77094,4.93186 -1.97506,9.7212 -3.60097,14.33148 -4.50818,12.76727 -8.98683,25.55675 -13.48932,38.3319 -3.91492,11.0984799 -7.77079,22.2263299 -12.40954,32.88363 -0.32643,0.75561 -0.59893,2.06557 -1.41757,1.80343 -0.83055,-0.26213 -0.53988,-1.54917 -0.57565,-2.43227 -0.26683,-6.2862301 1.0917,-12.28096014 2.24813,-18.2828501 1.83313,-9.4970299 3.83771,-18.9489299 5.78381,-28.4158799 0.55748,-2.71661 -0.3798,-4.54296 -2.16524,-5.84504 -2.56832,-1.86359 -5.12528,-1.95312 -7.90705,0.6582 0.3798,-3.86183 0.54557,-7.25168 0.415,-10.64154 -0.29634,-7.55823 -3.073,-12.47505 -7.90704,-13.61312 -3.52944,-0.83081 -6.86927,0.46411 -10.02516,2.34991 -7.3558,4.39327 -13.26961,11.01612 -18.24104,19.0535 -0.58133,0.93538 -1.16834,1.79627 -2.01082,2.37211 -9.33086,6.41371 -18.65604,12.82743 -27.96304,19.30059 -1.02018,0.71837 -1.67872,0.51639 -2.41447,-0.47915 -4.68643,-6.33851 -10.12565,-11.56975 -15.51206,-16.87548 -7.52781,-7.42359 -15.31621,-14.45826 -21.81192,-23.40882 -3.79627,-5.2384 -6.96408,-10.97887 -8.54799,-17.90827 -2.58648,-11.33054 -0.6523,-21.882555 3.65434,-31.910295 5.09575,-11.86198 12.65308,-21.02167 20.98704,-29.17937 13.23442,-12.94704 27.74958,-23.22975 43.04819,-31.69328 17.13174,-9.46695 34.90385,-15.56624 53.83238,-14.64591 7.49829,0.36671 14.77631,2.00541 21.45597,6.6379 4.72787,3.27812 7.85992,8.01517 8.74384,14.96748 1.03834,8.14195 -0.51037,15.66365 -3.37503,22.79573 -6.40034,15.93294 -16.57367,27.21836 -28.5983,36.05647 -10.01324,7.356265 -20.81503,12.026715 -32.24641,14.473305 -6.31746,1.35436 -12.65875,2.17014 -19.01198,0.95042 -7.29051,-1.39949 -14.02921,-4.47492 -19.01766,-11.884185 -0.57566,-0.85301 -1.30517,-1.44461 -2.2839,-0.84585 -1.00256,0.6138 -0.92536,1.73611 -0.83055,2.81402 0.071,0.740565 0.23162,1.489015 0.43884,2.193055 1.33468,4.54296 3.83203,7.97005 6.75629,10.96384 7.60503,7.80532 16.61569,10.09578 26.07712,10.32784 9.25989,0.23205 18.37729,-1.2498 27.39988,-3.97357 20.35234,-6.13654 37.40119,-18.73192 49.84649,-40.315105 7.43868,-12.90192 12.14896,-27.12095 11.7334,-43.39052 -0.26683,-10.31998 -3.01964,-19.43527 -8.98115,-26.84381 -7.08897,-8.7937 -15.88561,-13.21633 -25.32376,-15.87278 -10.51169,-2.94866 -21.12954,-3.36765 -31.85469,-1.75115 -9.33085,1.40665 -18.44825,3.81672 -27.32266,7.67068 -13.57846,5.90448 -26.69365,13.15617 -39.24568,21.97208 -12.8603,9.02504 -24.97974,19.36076 -35.60951,32.30708 -9.40806,11.45731 -17.49336,24.09781 -22.04922,39.79082 -1.94554,6.72026 -3.34551,13.628165 -2.04035,20.894895 1.67304,9.3545 5.32681,17.45204 10.13189,24.75602 7.26667,11.06124 16.18253,19.77186 25.37713,28.09358 7.38532,6.69018 15.11467,12.78231 22.20932,19.97384 2.01083,2.03548 1.9989,2.03548 -0.36787,3.5997 -2.76417,1.8184699 -5.55844,3.5696199 -8.27492,5.5076999 -10.95563,7.81392 -21.54396,16.2853301 -30.18732,28.0577701 -4.25327,5.79992 -7.14234,12.31105 -8.48838,19.53982 7.03504,13.26146 15.40534,25.29532 24.86676,35.79434 16.14109,-1.58642 28.49726,-12.18356 37.62657,-29.71009 4.40769,-8.46424 6.47188,-18.04292 7.24908,-28.14658 0.68238,-8.90543 -0.0358,-17.5272401 -2.11188,-26.0287301 -0.36163,-1.49689 -1.70824,-2.9859 -1.18027,-4.30303 0.49221,-1.2125499 1.97563,-1.8263499 3.06676,-2.6191999 4.40145,-3.22584 8.81481,-6.40584 13.34683,-9.69112 0.19586,1.22759 -0.18394,1.94596 -0.34971,2.72377 -2.5984,12.0266999 -4.40769,24.1500899 -2.43206,36.64807 1.22795,7.78312 3.27454,15.1093 7.16562,21.55309 4.00404,6.63073 12.94375,5.87441 16.57367,-0.17977 3.44656,-5.74763 5.73045,-12.22867 8.10914,-18.67963 1.30517,-3.53238 2.50303,-7.12421 3.74915,-10.6945401 -0.23163,4.2958601 -0.2197,8.4864401 -0.0948,12.6627001 0.12433,4.11609 0.64662,8.17991 2.34293,11.81685 2.04035,4.37035 5.87863,5.64307 9.44384,3.30749 3.76106,-2.46235 6.3237,-6.51829 8.31635,-10.91872 8.54799,-18.9260101 16.47887,-38.25669 23.04556,-58.44038 1.39996,-4.28799 2.8357,-8.56881 4.41961,-13.33595 0.24297,1.56422 0.40364,2.5218 0.55181,3.4801 1.45901,9.61664 4.05741,18.71688 7.81848,27.27065 0.80671,1.83351 0.71758,3.09835 -0.30259,4.8566599 -3.46416,5.94961 -7.26099,11.54756 -11.00389,17.20495 -3.14397,4.7599701 -6.50764,9.3100901 -9.16509,14.5485001 -2.38437,4.71485 -1.01449,9.54143 2.95436,10.61217 1.22171,0.32946 2.50927,0.42687 3.76106,0.40395 6.93456,-0.10457 13.33491,-2.71661 19.29698,-6.99743 8.02569,-5.76984 12.78366,-14.22692 12.56396,-26.26795014 -0.10106,-5.47833996 -1.27565,-10.73894986 -3.02532,-15.76104986 -0.38548,-1.11515 -0.40364,-1.92304 0.17201,-2.97087 5.55843,-10.0435 10.46968,-20.57259 14.9841,-31.40895 0.80103,-1.908 1.3642,-4.02656 2.65744,-5.88944 0.17202,0.75561 0.30827,1.22759 0.38547,1.7139 1.43574,8.98064 3.36935,17.75859 6.99984,25.77376 0.99633,2.19306 0.49846,3.30749 -0.87767,4.7743 -4.7398,5.08155 -8.7376,11.00824 -11.87589,17.7965399 -2.44398,5.28352996 -4.11702,10.92588 -4.09886,17.1154201 0.0176,6.88499 4.19367,10.94092 9.5148,9.32442 5.54651,-1.67666 10.68937,-4.52792 15.30428,-8.78583 10.05468,-9.2871701 13.00279,-19.0835801 9.85314,-32.75615 -1.23363,-5.38093 -1.21035,-5.29069 3.06676,-6.92223 9.3547,-3.56246 18.84565,-3.71214 28.38428,-1.75114 1.07979,0.22417 2.14764,0.47914 3.20301,0.77064 0.55749,-4.27294 0.99634,-8.59889 1.30517,-12.97712 -12.20233,-3.763 -24.38705,-1.80988 -36.42871,3.95996 z M 647.9681,58.219665 c -2.71081,1.21255 -5.52834,1.72894 -8.41173,1.4446 -3.58906,-0.35954 -5.8667,-3.55458 -6.09833,-8.35967 -0.26114,-5.53779 1.03834,-10.53698 2.96003,-15.40152 3.49368,-8.83094 9.36038,-14.82496 15.3463,-20.70724 5.81901,-5.7247201 12.07175,-10.6121801 18.39488,-15.36427014 1.91602,-1.43672996 1.94554,-1.42168996 2.38437,1.45965004 0.56942,3.69711 1.07979,7.40138 0.8896,10.7618601 0.49902,20.1529 -11.1038,39.75287 -25.46512,46.16659 z m 87.06943,-101.62178 c -1.00825,8.49433 -3.20925,16.58399 -5.55219,24.57625 -3.19165,10.9115499 -6.29985,21.8746699 -10.31583,32.36724 -0.91969,2.41723 -1.88649,4.81942 -3.37502,6.78758 -1.40565,1.8636 -2.65177,1.64658 -3.62425,-0.62884 -1.89842,-4.44555 -1.66112,-9.39174 -1.96938,-12.9842801 0.0891,-18.0207199 4.88229,-32.7489899 12.77741,-45.9875299 2.20668,-3.68923 5.02422,-6.69017 8.75576,-7.89557 2.53255,-0.81433 3.7009,0.47271 3.3035,3.76515 z M 790.3238,9.9495549 c -2.70512,5.8973201 -6.60244,10.1853101 -11.38368,13.2385401 -0.51037,0.32158 -1.16834,0.89025 -1.63103,0.13465 -0.43883,-0.71121 0.26683,-1.18248 0.58701,-1.63154 4.75172,-6.54837 9.44383,-13.1490201 13.67326,-20.2510201 0.0653,-0.11244 0.22538,-0.12749 0.58701,-0.32158 -0.0414,3.286 -0.61086,6.1745 -1.83257,8.83095 z m 32.80957,-0.25426 c -0.70566,0.4189901 -1.5243,1.2046801 -2.21236,0.5314301 -0.75902,-0.7405701 -0.457,-2.0505301 -0.22538,-3.0532301 1.07979,-4.57232 2.53312,-8.95055 4.53769,-13.0294 1.6844,-3.43498 3.773,-6.4359199 6.06824,-9.2348999 0.92537,-1.12231 1.34036,-0.98766 1.65487,0.62884 0.32643,1.65375 0.35595,3.30749 0.3798,4.9913099 -0.059,9.21268996 -3.76674,15.34207 -10.20286,19.16595 z"
     style="fill:#000000;stroke-width:0.63765347"
     inkscape:connector-curvature="0" />
  <g
     id="g4259">
</g>
  <g
     id="g4261">
</g>
  <g
     id="g4263">
</g>
  <g
     id="g4265">
</g>
  <g
     id="g4267">
</g>
  <g
     id="g4269">
</g>
  <g
     id="g4271">
</g>
  <g
     id="g4273">
</g>
  <g
     id="g4275">
</g>
  <g
     id="g4277">
</g>
  <g
     id="g4279">
</g>
  <g
     id="g4281">
</g>
  <g
     id="g4283">
</g>
  <g
     id="g4285">
</g>
  <g
     id="g4287">
</g>
</g>
</g>

	
</g>
      </g>
    </g>
  </g>
</g>
</g>
    </g>
  </g>
  <style
     id="style3681"
     type="text/css">
	.st0{fill:#27245D;}
	.st1{fill:#E2066F;}
	.st2{fill:#A0DBE8;}
	.st3{fill:#525353;}
	.st4{fill:#AA9678;}
	.st5{fill:#C0B098;}
	.st6{fill:#786453;}
	.st7{fill:#8B7460;}
	.st8{fill:none;}
	.st9{fill:#FFFFFF;}
	.st10{fill:#BBBCBD;}
	.st11{fill:#676A6A;}
	.st12{fill:#909393;}
	.st13{fill:#E2DDDB;}
	.st14{fill:#FBB040;}
	.st15{fill:#9F2255;}
</style>
  <style
     id="style4157"
     type="text/css">
	.st0{fill:#EA4335;}
	.st1{fill:#4285F4;}
	.st2{fill:#34A853;}
	.st3{fill:#FBBC05;}
	.st4{fill:#5F6368;}
</style>
</svg>
