<?xml version="1.0" encoding="UTF-8" standalone="no"?>
<!-- Created with Inkscape (http://www.inkscape.org/) -->

<svg
   xmlns:dc="http://purl.org/dc/elements/1.1/"
   xmlns:cc="http://creativecommons.org/ns#"
   xmlns:rdf="http://www.w3.org/1999/02/22-rdf-syntax-ns#"
   xmlns:svg="http://www.w3.org/2000/svg"
   xmlns="http://www.w3.org/2000/svg"
   xmlns:sodipodi="http://sodipodi.sourceforge.net/DTD/sodipodi-0.dtd"
   xmlns:inkscape="http://www.inkscape.org/namespaces/inkscape"
   width="258"
   height="116"
   viewBox="0 0 68.262498 30.691668"
   version="1.1"
   id="svg2529"
   inkscape:version="0.92.4 (5da689c313, 2019-01-14)"
   sodipodi:docname="logo-tech-github.svg">
  <defs
     id="defs2523">
	
</defs>
  <sodipodi:namedview
     id="base"
     pagecolor="#ffffff"
     bordercolor="#666666"
     borderopacity="1.0"
     inkscape:pageopacity="0.0"
     inkscape:pageshadow="2"
     inkscape:zoom="1"
     inkscape:cx="-92.051652"
     inkscape:cy="152.59259"
     inkscape:document-units="mm"
     inkscape:current-layer="g4519"
     showgrid="false"
     units="px"
     inkscape:window-width="1920"
     inkscape:window-height="1001"
     inkscape:window-x="-9"
     inkscape:window-y="-9"
     inkscape:window-maximized="1" />
  <metadata
     id="metadata2526">
    <rdf:RDF>
      <cc:Work
         rdf:about="">
        <dc:format>image/svg+xml</dc:format>
        <dc:type
           rdf:resource="http://purl.org/dc/dcmitype/StillImage" />
        <dc:title></dc:title>
      </cc:Work>
    </rdf:RDF>
  </metadata>
  <g
     inkscape:label="Capa 1"
     inkscape:groupmode="layer"
     id="layer1"
     transform="translate(0,-266.3083)">
    <g
       id="g3515"
       transform="matrix(0.26458333,0,0,0.26458333,-71.437499,217.83016)">
      <g
         id="Layer_1">
</g>
      <g
         style="fill:#000000"
         id="g3488">
		
		
		
		
		
		
		
		
	<g
   id="XMLID_141_"
   transform="matrix(0.25895832,0,0,0.28257554,7.682284,122.89296)">
  <g
     id="g10"
     transform="matrix(4.8270317,0,0,-4.423596,-875.64812,-0.3668976)"
     style="fill:#000000">
    <g
       id="g12"
       transform="scale(0.1)"
       style="fill:#000000">
      <g
         id="g4114"
         transform="matrix(8,0,0,-7.9999999,-1905.7778,1784.6666)">
        <g
           id="g4191"
           transform="matrix(0.02646191,0,0,0.05673299,735.10381,298.96037)">
	<g
   id="g4171"
   transform="matrix(1.6124745,0,0,1,0.00490742,0)">
		
		
		
		
	<g
   id="g4313"
   transform="matrix(8.7885498,0,0,5.0951399,-3815.5814,1102.6765)">
  <g
     id="g4259">
</g>
  <g
     id="g4261">
</g>
  <g
     id="g4263">
</g>
  <g
     id="g4265">
</g>
  <g
     id="g4267">
</g>
  <g
     id="g4269">
</g>
  <g
     id="g4271">
</g>
  <g
     id="g4273">
</g>
  <g
     id="g4275">
</g>
  <g
     id="g4277">
</g>
  <g
     id="g4279">
</g>
  <g
     id="g4281">
</g>
  <g
     id="g4283">
</g>
  <g
     id="g4285">
</g>
  <g
     id="g4287">
</g>
  <g
     id="g4519"
     transform="matrix(2.6666667,0,0,3.4594592,-373.71578,-630.83236)">
    <g
       id="g4462">
</g>
    <g
       id="g4464">
</g>
    <g
       id="g4466">
</g>
    <g
       id="g4468">
</g>
    <g
       id="g4470">
</g>
    <g
       id="g4472">
</g>
    <path
       id="path4727"
       d="m 424.64341,117.013 c -26.24375,0 -47.5,21.04485 -47.5,47.00017 0,20.76983 13.60875,38.38293 32.47813,44.59275 2.375,0.44242 3.24582,-1.01237 3.24582,-2.25993 0,-1.11601 -0.0396,-4.07344 -0.0594,-7.99146 -13.21293,2.83388 -15.99958,-6.30547 -15.99958,-6.30547 -2.16125,-5.42464 -5.28438,-6.87545 -5.28438,-6.87545 -4.30272,-2.9136 0.3325,-2.85382 0.3325,-2.85382 4.76978,0.32683 7.27541,4.84271 7.27541,4.84271 4.23542,7.18634 11.11897,5.10975 13.83437,3.91004 0.4275,-3.04114 1.65063,-5.10975 3.00835,-6.28556 -10.54897,-1.1758 -21.63625,-5.21736 -21.63625,-23.22506 0,-5.12968 1.84062,-9.32271 4.88853,-12.61097 -0.53438,-1.18775 -2.1375,-5.96669 0.41562,-12.43957 0,0 3.97813,-1.2595 13.0625,4.81879 3.8,-1.04426 7.8375,-1.56243 11.875,-1.58634 4.0375,0.0239 8.075,0.54208 11.875,1.58634 9.025,-6.07829 13.00313,-4.81879 13.00313,-4.81879 2.55312,6.47288 0.95,11.25182 0.475,12.43957 3.02812,3.28826 4.86875,7.48129 4.86875,12.61097 0,18.05552 -11.10313,22.02933 -21.67188,23.18521 1.6625,1.41096 3.20625,4.29267 3.20625,8.69693 0,6.28954 -0.0594,11.3435 -0.0594,12.87006 0,1.2316 0.83125,2.70235 3.26562,2.23201 19.00398,-6.16996 32.60085,-23.79502 32.60085,-44.53296 0,-25.95532 -21.26812,-47.00017 -47.5,-47.00017 z"
       inkscape:connector-curvature="0"
       style="fill:#212121;stroke-width:3.97202635" />
  </g>
</g>
</g>

	
</g>
      </g>
    </g>
  </g>
</g>
</g>
    </g>
  </g>
  <style
     id="style3681"
     type="text/css">
	.st0{fill:#27245D;}
	.st1{fill:#E2066F;}
	.st2{fill:#A0DBE8;}
	.st3{fill:#525353;}
	.st4{fill:#AA9678;}
	.st5{fill:#C0B098;}
	.st6{fill:#786453;}
	.st7{fill:#8B7460;}
	.st8{fill:none;}
	.st9{fill:#FFFFFF;}
	.st10{fill:#BBBCBD;}
	.st11{fill:#676A6A;}
	.st12{fill:#909393;}
	.st13{fill:#E2DDDB;}
	.st14{fill:#FBB040;}
	.st15{fill:#9F2255;}
</style>
  <style
     id="style4157"
     type="text/css">
	.st0{fill:#EA4335;}
	.st1{fill:#4285F4;}
	.st2{fill:#34A853;}
	.st3{fill:#FBBC05;}
	.st4{fill:#5F6368;}
</style>
</svg>
