<?xml version="1.0" encoding="UTF-8" standalone="no"?>
<!-- Created with Inkscape (http://www.inkscape.org/) -->

<svg
   xmlns:dc="http://purl.org/dc/elements/1.1/"
   xmlns:cc="http://creativecommons.org/ns#"
   xmlns:rdf="http://www.w3.org/1999/02/22-rdf-syntax-ns#"
   xmlns:svg="http://www.w3.org/2000/svg"
   xmlns="http://www.w3.org/2000/svg"
   xmlns:sodipodi="http://sodipodi.sourceforge.net/DTD/sodipodi-0.dtd"
   xmlns:inkscape="http://www.inkscape.org/namespaces/inkscape"
   width="258"
   height="116"
   viewBox="0 0 68.262498 30.691668"
   version="1.1"
   id="svg2529"
   inkscape:version="0.92.4 (5da689c313, 2019-01-14)"
   sodipodi:docname="logo-tech-jquery.svg">
  <defs
     id="defs2523">
	
</defs>
  <sodipodi:namedview
     id="base"
     pagecolor="#ffffff"
     bordercolor="#666666"
     borderopacity="1.0"
     inkscape:pageopacity="0.0"
     inkscape:pageshadow="2"
     inkscape:zoom="1"
     inkscape:cx="-92.051652"
     inkscape:cy="152.59259"
     inkscape:document-units="mm"
     inkscape:current-layer="g4519"
     showgrid="false"
     units="px"
     inkscape:window-width="1920"
     inkscape:window-height="1001"
     inkscape:window-x="-9"
     inkscape:window-y="-9"
     inkscape:window-maximized="1" />
  <metadata
     id="metadata2526">
    <rdf:RDF>
      <cc:Work
         rdf:about="">
        <dc:format>image/svg+xml</dc:format>
        <dc:type
           rdf:resource="http://purl.org/dc/dcmitype/StillImage" />
        <dc:title></dc:title>
      </cc:Work>
    </rdf:RDF>
  </metadata>
  <g
     inkscape:label="Capa 1"
     inkscape:groupmode="layer"
     id="layer1"
     transform="translate(0,-266.3083)">
    <g
       id="g3515"
       transform="matrix(0.26458333,0,0,0.26458333,-71.437499,217.83016)">
      <g
         id="Layer_1">
</g>
      <g
         style="fill:#000000"
         id="g3488">
		
		
		
		
		
		
		
		
	<g
   id="XMLID_141_"
   transform="matrix(0.25895832,0,0,0.28257554,7.682284,122.89296)">
  <g
     id="g10"
     transform="matrix(4.8270317,0,0,-4.423596,-875.64812,-0.3668976)"
     style="fill:#000000">
    <g
       id="g12"
       transform="scale(0.1)"
       style="fill:#000000">
      <g
         id="g4114"
         transform="matrix(8,0,0,-7.9999999,-1905.7778,1784.6666)">
        <g
           id="g4191"
           transform="matrix(0.02646191,0,0,0.05673299,735.10381,298.96037)">
	<g
   id="g4171"
   transform="matrix(1.6124745,0,0,1,0.00490742,0)">
		
		
		
		
	<g
   id="g4313"
   transform="matrix(8.7885498,0,0,5.0951399,-3815.5814,1102.6765)">
  <g
     id="g4259">
</g>
  <g
     id="g4261">
</g>
  <g
     id="g4263">
</g>
  <g
     id="g4265">
</g>
  <g
     id="g4267">
</g>
  <g
     id="g4269">
</g>
  <g
     id="g4271">
</g>
  <g
     id="g4273">
</g>
  <g
     id="g4275">
</g>
  <g
     id="g4277">
</g>
  <g
     id="g4279">
</g>
  <g
     id="g4281">
</g>
  <g
     id="g4283">
</g>
  <g
     id="g4285">
</g>
  <g
     id="g4287">
</g>
  <g
     id="g4519"
     transform="matrix(2.6666667,0,0,3.4594592,-373.71578,-630.83236)">
    <g
       id="g4434"
       style="fill:#333333"
       transform="matrix(0.87781302,0,0,0.9009901,303.00151,132)">
	<g
   id="g4432"
   style="fill:#333333">
		<path
   id="path4398"
   d="m 107.2,63 c 0,0.6 -0.1,1.2 -0.1,1.9 l 2.5,-4.5 -0.3,-1.5 2.5,-0.4 0.9,6.3 1.1,-3.9 c 0.1,-0.4 0.1,-0.7 0.1,-1 0,-0.3 0,-0.6 -0.1,-1 l 2.6,-0.5 c 0.1,0.5 0.2,1 0.1,1.5 0,0.6 -0.2,1.3 -0.6,2.4 l -2.1,5.7 h -3.1 L 110,63.8 107.6,68 h -3 c 0.1,-3.9 0,-6.4 -0.3,-9 l 2.6,-0.4 c 0.3,1.3 0.4,2.8 0.3,4.4 z"
   inkscape:connector-curvature="0"
   style="fill:#333333" />

		<path
   id="path4400"
   d="m 123.4,60.8 c -1.2,0.6 -1.7,0.9 -2.8,1.6 l -1.2,5.5 h -2.7 l 1.9,-9.1 2.4,-0.4 -0.1,1.3 c 0.9,-0.5 1.7,-0.9 2.5,-1.3 z"
   inkscape:connector-curvature="0"
   style="fill:#333333" />

		<path
   id="path4402"
   d="m 125,58.8 2.8,-0.4 -2,9.5 h -2.7 z m 0.9,-4.1 2.8,-0.4 -0.6,2.9 -2.8,0.4 z"
   inkscape:connector-curvature="0"
   style="fill:#333333" />

		<path
   id="path4404"
   d="m 132.8,60.7 -1,4.6 c 0,0.1 0,0.2 0,0.2 0,0.1 0.1,0.2 0.3,0.2 0.5,0 1,-0.2 1.5,-0.4 l 0.5,1.9 c -0.8,0.4 -1.9,0.8 -3,0.8 -1.4,0 -2.1,-0.7 -2,-1.8 0,-0.1 0,-0.3 0.1,-0.4 l 1.1,-5.2 h -1.4 l 0.5,-2.2 h 1.4 l 0.5,-2.2 2.8,-0.4 -0.5,2.6 h 2.2 l -0.6,2.2 h -2.4 z"
   inkscape:connector-curvature="0"
   style="fill:#333333" />

		<path
   id="path4406"
   d="m 136,61.9 c 0.5,-2.1 1.5,-3.5 4.4,-3.5 1.8,0 3.1,0.8 3,2.3 -0.1,1.8 -1,2.7 -3.3,3.3 -1.1,0.3 -1.2,0.3 -2,0.6 l -0.1,0.6 c -0.1,0.3 0,0.7 0.5,0.7 1,0 2.4,-0.5 3.7,-1 l 0.4,1.9 c -1.2,0.7 -3,1.3 -4.6,1.3 -1.9,0 -2.7,-0.8 -2.7,-2.4 0,-0.3 0.1,-0.7 0.2,-1.1 z m 4.9,-0.9 c 0,-0.3 -0.3,-0.5 -0.8,-0.5 -1,0 -1.3,0.6 -1.4,1.3 l -0.1,0.7 c 0.5,-0.1 0.7,-0.2 1.2,-0.3 0.7,-0.3 1.1,-0.6 1.1,-1.2 z"
   inkscape:connector-curvature="0"
   style="fill:#333333" />

		<path
   id="path4408"
   d="m 150.4,54.8 2.8,-0.4 -2.8,13.5 h -2.7 z"
   inkscape:connector-curvature="0"
   style="fill:#333333" />

		<path
   id="path4410"
   d="m 153.5,61.9 c 0.5,-2.1 1.5,-3.5 4.4,-3.5 1.8,0 3.1,0.8 3,2.3 -0.1,1.8 -1,2.7 -3.3,3.3 -1.1,0.3 -1.2,0.3 -2,0.6 l -0.1,0.6 c -0.1,0.3 0,0.7 0.5,0.7 1,0 2.4,-0.5 3.7,-1 l 0.4,1.9 c -1.2,0.7 -3,1.3 -4.6,1.3 -1.9,0 -2.7,-0.8 -2.7,-2.4 0,-0.3 0.1,-0.7 0.2,-1.1 z m 4.9,-0.9 c 0,-0.3 -0.3,-0.5 -0.8,-0.5 -1,0 -1.3,0.6 -1.4,1.3 l -0.1,0.7 c 0.5,-0.1 0.7,-0.2 1.2,-0.3 0.7,-0.3 1.1,-0.6 1.1,-1.2 z"
   inkscape:connector-curvature="0"
   style="fill:#333333" />

		<path
   id="path4412"
   d="m 161.2,67.5 0.6,-2 c 0.7,0.2 1.5,0.5 2.5,0.5 0.9,0 1,-0.3 1.1,-0.7 0.1,-0.4 -0.2,-0.6 -1.2,-1.2 -1.9,-1 -2,-1.7 -1.7,-3.1 0.4,-2 1,-2.5 3.6,-2.5 0.9,0 2,0.2 2.8,0.4 l -0.5,2 c -0.7,-0.2 -1.7,-0.3 -2.3,-0.3 -0.8,0 -0.9,0.1 -1,0.6 -0.1,0.4 0,0.5 0.9,1 2.1,1.1 2.4,1.5 2.1,3 -0.5,2.1 -1.1,2.9 -3.9,2.9 -1,0 -2.2,-0.3 -3,-0.6 z"
   inkscape:connector-curvature="0"
   style="fill:#333333" />

		<path
   id="path4414"
   d="m 168.9,67.5 0.6,-2 c 0.7,0.2 1.5,0.5 2.5,0.5 0.9,0 1,-0.3 1.1,-0.7 0.1,-0.4 -0.2,-0.6 -1.2,-1.2 -1.9,-1 -2,-1.7 -1.7,-3.1 0.4,-2 1,-2.5 3.6,-2.5 0.9,0 2,0.2 2.8,0.4 l -0.5,2 c -0.7,-0.2 -1.7,-0.3 -2.3,-0.3 -0.8,0 -0.9,0.1 -1,0.6 -0.1,0.4 0,0.5 0.9,1 2.1,1.1 2.4,1.5 2.1,3 -0.5,2.1 -1.1,2.9 -3.9,2.9 -1,0 -2.2,-0.3 -3,-0.6 z"
   inkscape:connector-curvature="0"
   style="fill:#333333" />

		<path
   id="path4416"
   d="m 176.3,70 1.5,-2.1 h -1 l 0.7,-3.2 h 2.7 l -0.7,3.4 -2.2,2.6 z"
   inkscape:connector-curvature="0"
   style="fill:#333333" />

		<path
   id="path4418"
   d="m 191,67.9 v -0.8 c -0.7,0.6 -1.7,1 -3,1 -2,0 -2.5,-1.2 -2,-3.3 l 0.5,-2.5 c 0.5,-2.2 1.1,-3.9 5,-3.9 0.3,0 0.9,0 1.1,0.1 l 0.8,-3.7 2.8,-0.4 -2.8,13.5 z m -2.5,-2.8 c -0.1,0.5 0,0.7 0.5,0.7 1,0 1.7,-0.5 2.2,-1 l 0.9,-4.1 c -0.3,-0.1 -0.7,-0.1 -1,-0.1 -1.4,0 -1.7,0.7 -1.9,1.6 z"
   inkscape:connector-curvature="0"
   style="fill:#333333" />

		<path
   id="path4420"
   d="m 195.8,65 c 0,-0.2 0,-0.4 0.1,-0.7 l 0.5,-2.2 c 0.5,-2.4 1.7,-3.8 5,-3.8 2.5,0 3.6,1.4 3.5,3.1 0,0.2 0,0.4 -0.1,0.7 l -0.5,2.2 c -0.5,2.2 -1.6,3.8 -5,3.8 -2.4,0 -3.6,-1.4 -3.5,-3.1 z m 6.3,-3.3 c 0,-0.7 -0.4,-1.1 -1.3,-1.1 -1,0 -1.6,0.5 -1.8,1.4 l -0.5,2.3 c 0,0.1 0,0.3 -0.1,0.4 0,0.7 0.4,1.1 1.3,1.1 1,0 1.6,-0.5 1.8,-1.4 l 0.5,-2.3 c 0.1,-0.2 0.1,-0.3 0.1,-0.4 z"
   inkscape:connector-curvature="0"
   style="fill:#333333" />

		<path
   id="path4422"
   d="m 221.3,61.6 c 0,-0.1 0,-0.2 0,-0.3 0,-0.2 -0.1,-0.3 -0.4,-0.3 -0.5,0 -1.7,0.5 -2.5,0.9 l -1.3,6 h -2.7 l 1.3,-6.3 c 0,-0.1 0,-0.2 0,-0.3 0,-0.2 -0.1,-0.3 -0.4,-0.3 -0.5,0 -1.7,0.5 -2.4,0.9 l -1.3,6 h -2.7 l 1.9,-9.1 2.4,-0.4 -0.1,1 c 1.5,-0.7 2.6,-1.1 3.7,-1.1 0.9,0 1.4,0.4 1.6,1.1 1.4,-0.8 2.7,-1.1 3.8,-1.1 1.2,0 1.7,0.7 1.6,1.9 0,0.3 0,0.7 -0.1,1.1 l -1.4,6.5 H 220 Z"
   inkscape:connector-curvature="0"
   style="fill:#333333" />

		<path
   id="path4424"
   d="m 225.1,65 c 0,-0.2 0,-0.4 0.1,-0.7 l 0.5,-2.2 c 0.5,-2.4 1.7,-3.8 5,-3.8 2.5,0 3.6,1.4 3.5,3.1 0,0.2 0,0.4 -0.1,0.7 l -0.5,2.2 c -0.5,2.2 -1.6,3.8 -5,3.8 -2.4,0 -3.6,-1.4 -3.5,-3.1 z m 6.3,-3.3 c 0,-0.7 -0.4,-1.1 -1.3,-1.1 -1,0 -1.6,0.5 -1.8,1.4 l -0.5,2.3 c 0,0.1 0,0.3 -0.1,0.4 0,0.7 0.4,1.1 1.3,1.1 1,0 1.6,-0.5 1.8,-1.4 l 0.5,-2.3 c 0.1,-0.2 0.1,-0.3 0.1,-0.4 z"
   inkscape:connector-curvature="0"
   style="fill:#333333" />

		<path
   id="path4426"
   d="m 241.2,60.8 c -1.2,0.6 -1.7,0.9 -2.8,1.6 l -1.2,5.5 h -2.7 l 1.9,-9.1 2.4,-0.4 -0.1,1.3 c 0.9,-0.5 1.7,-0.9 2.5,-1.3 z"
   inkscape:connector-curvature="0"
   style="fill:#333333" />

		<path
   id="path4428"
   d="m 241.9,61.9 c 0.5,-2.1 1.5,-3.5 4.4,-3.5 1.8,0 3.1,0.8 3,2.3 -0.1,1.8 -1,2.7 -3.3,3.3 -1.1,0.3 -1.2,0.3 -2,0.6 l -0.1,0.6 c -0.1,0.3 0,0.7 0.5,0.7 1,0 2.4,-0.5 3.7,-1 l 0.4,1.9 c -1.2,0.7 -3,1.3 -4.6,1.3 -1.9,0 -2.7,-0.8 -2.7,-2.4 0,-0.3 0.1,-0.7 0.2,-1.1 z m 4.9,-0.9 c 0,-0.3 -0.3,-0.5 -0.8,-0.5 -1,0 -1.3,0.6 -1.4,1.3 l -0.1,0.7 c 0.5,-0.1 0.7,-0.2 1.2,-0.3 0.7,-0.3 1,-0.6 1.1,-1.2 z"
   inkscape:connector-curvature="0"
   style="fill:#333333" />

		<path
   id="path4430"
   d="m 250.4,64.7 h 2.7 l -0.7,3.2 h -2.7 z"
   inkscape:connector-curvature="0"
   style="fill:#333333" />

	</g>

</g>
    <path
       id="path4436"
       d="m 305.89829,144.07326 c -4.03794,5.85644 -3.51125,13.60496 -0.4389,19.82179 0,0.1802 0.0878,0.36039 0.17556,0.54059 0,0.0901 0.0878,0.1802 0.17557,0.2703 0,0.0901 0.0878,0.0901 0.0878,0.1802 0.0878,0.0901 0.0878,0.18019 0.17556,0.2703 0.0878,0.1802 0.17557,0.36039 0.26335,0.54059 0.0878,0.0901 0.0878,0.18019 0.17556,0.2703 0.0878,0.1802 0.26334,0.3604 0.35113,0.5406 0.0878,0.0901 0.0878,0.18018 0.17556,0.27029 0.17556,0.27029 0.35113,0.45049 0.52669,0.72079 0,0 0,0 0,0 0,0 0.0878,0.0901 0.0878,0.0901 0.17557,0.1802 0.26334,0.45049 0.43891,0.63069 0.0878,0.0901 0.0878,0.1802 0.17556,0.1802 0.17556,0.1802 0.26335,0.3604 0.43891,0.5406 0.0878,0.0901 0.0878,0.0901 0.17556,0.18019 0.17557,0.2703 0.35113,0.4505 0.61447,0.6307 0,0 0,0 0,0 0,0 0,0 0,0 0.17556,0.18019 0.35112,0.45049 0.61447,0.63069 0.0878,0.0901 0.0878,0.0901 0.17556,0.1802 0.17557,0.18019 0.26334,0.2703 0.4389,0.45049 0.0878,0.0901 0.0878,0.0901 0.17557,0.1802 0.17556,0.18019 0.43891,0.36039 0.61447,0.6307 0,0 0,0 0,0 0,0 0.0878,0.0901 0.0878,0.0901 0.17556,0.1802 0.35112,0.3604 0.61447,0.5406 0.0878,0.0901 0.17556,0.0901 0.26334,0.1802 0.17556,0.0901 0.35112,0.27029 0.52669,0.3604 0.0878,0.0901 0.17556,0.0901 0.26334,0.18018 0.17557,0.1802 0.35113,0.27031 0.52669,0.3604 0.0878,0.0901 0.0878,0.0901 0.17556,0.1802 0,0 0,0 0.0878,0 0.17556,0.0901 0.35113,0.2703 0.52669,0.3604 0.0878,0.0901 0.17556,0.0901 0.26335,0.1802 0.26334,0.1802 0.52668,0.36039 0.79002,0.54059 0.0878,0 0.17557,0.0901 0.26335,0.0901 0.17556,0.0901 0.4389,0.2703 0.61447,0.3604 0.0878,0.0901 0.26334,0.0901 0.35112,0.18019 0.17556,0.0901 0.26335,0.1802 0.43891,0.2703 0,0 0.0878,0 0.0878,0.0901 0.0878,0 0.0878,0.0901 0.17556,0.0901 0.26335,0.0901 0.43891,0.2703 0.70225,0.3604 0.0878,0 0.0878,0 0.17556,0.0901 0.26335,0.0901 0.52669,0.2703 0.79004,0.3604 0.0878,0 0.0878,0.0901 0.17556,0.0901 0.26335,0.0901 0.52669,0.1802 0.79004,0.2703 0,0 0.0878,0 0.0878,0 0.26335,0.0901 0.61448,0.18019 0.87782,0.2703 0.0878,0 0.17556,0.0901 0.17556,0.0901 0.26335,0.0901 0.61447,0.1802 0.87781,0.2703 19.31189,3.60396 24.92989,-11.89307 24.92989,-11.89307 -4.74019,6.30693 -13.07941,7.92871 -21.06751,6.12673 -0.26334,-0.0901 -0.61447,-0.1802 -0.87782,-0.27029 -0.0878,0 -0.17556,0 -0.17556,-0.0901 -0.26334,-0.0901 -0.61446,-0.1802 -0.87781,-0.2703 0,0 -0.0878,0 -0.0878,-0.0901 -0.26335,-0.0901 -0.52668,-0.1802 -0.79003,-0.2703 -0.0878,0 -0.17557,-0.0901 -0.17557,-0.0901 -0.26333,-0.0901 -0.52668,-0.2703 -0.79002,-0.3604 -0.0878,0 -0.0878,-0.0901 -0.17556,-0.0901 -0.26335,-0.0901 -0.43892,-0.1802 -0.70226,-0.3604 -0.0878,0 -0.0878,-0.0901 -0.17556,-0.0901 -0.17556,-0.0901 -0.35112,-0.18019 -0.52669,-0.27029 -0.0878,-0.0901 -0.26334,-0.0901 -0.35112,-0.1802 -0.17556,-0.0901 -0.43891,-0.2703 -0.61447,-0.36039 -0.0878,-0.0901 -0.17557,-0.0901 -0.17557,-0.0901 -0.26335,-0.1802 -0.52668,-0.36039 -0.79003,-0.54059 -0.0878,-0.0901 -0.17557,-0.0901 -0.26334,-0.18019 -0.17556,-0.0901 -0.43891,-0.27031 -0.61448,-0.3604 -0.0878,-0.0901 -0.0878,-0.0901 -0.17556,-0.1802 -0.17556,-0.0901 -0.35112,-0.27029 -0.52669,-0.45049 -0.0878,-0.0901 -0.17556,-0.0901 -0.26333,-0.1802 -0.17557,-0.0901 -0.35113,-0.27031 -0.52669,-0.3604 -0.0878,-0.0901 -0.17556,-0.0901 -0.26335,-0.1802 -0.17556,-0.1802 -0.4389,-0.3604 -0.61446,-0.5406 0,0 -0.0878,0 -0.0878,-0.0901 -0.17556,-0.1802 -0.4389,-0.4505 -0.61446,-0.63069 -0.0878,-0.0901 -0.0878,-0.0901 -0.17557,-0.1802 -0.17556,-0.1802 -0.35112,-0.2703 -0.43891,-0.4505 -0.0878,-0.0901 -0.0878,-0.0901 -0.17556,-0.1802 -0.17556,-0.18019 -0.35113,-0.45049 -0.61446,-0.63069 0,0 0,0 0,0 -0.17557,-0.1802 -0.35113,-0.45049 -0.61448,-0.72079 -0.0878,-0.0901 -0.0878,-0.0901 -0.17556,-0.1802 -0.17556,-0.1802 -0.26334,-0.36039 -0.4389,-0.54059 -0.0878,-0.0901 -0.0878,-0.0901 -0.17556,-0.1802 -0.26335,-0.0901 -0.43892,-0.3604 -0.61448,-0.5406 -4.38906,-6.12673 -5.96912,-14.68613 -2.45787,-21.62376"
       inkscape:connector-curvature="0"
       style="fill:#999999;stroke-width:0.88932604" />
    <path
       id="path4438"
       d="m 318.27546,139.11782 c -2.89678,4.32475 -2.72122,10.00099 -0.43891,14.50594 0.35113,0.7208 0.79003,1.53169 1.31672,2.16238 0.43891,0.63069 0.87782,1.35149 1.49228,1.89208 0.17557,0.2703 0.43892,0.45049 0.61448,0.72079 0.0878,0.0901 0.0878,0.0901 0.17556,0.1802 0.17556,0.18019 0.4389,0.45049 0.70225,0.63069 0,0 0,0 0,0 0,0 0,0 0,0 0.26334,0.2703 0.52669,0.4505 0.79003,0.6307 0.0878,0.0901 0.0878,0.0901 0.17556,0.1802 0.26335,0.18019 0.52669,0.45049 0.79004,0.63069 0,0 0,0 0,0 0.0878,0.0901 0.26333,0.1802 0.35112,0.27029 0.0878,0 0.0878,0.0901 0.17556,0.0901 0.17557,0.0901 0.43891,0.27029 0.61447,0.36038 0,0 0.0878,0 0.0878,0.0901 0.17557,0.0901 0.35113,0.1802 0.52669,0.27029 0.0878,0 0.0878,0.0901 0.17556,0.0901 0.0878,0.0901 0.26334,0.0901 0.35113,0.18019 0,0 0,0 0.0878,0 0.26335,0.0901 0.52669,0.2703 0.79004,0.36039 0.0878,0 0.0878,0.0901 0.17556,0.0901 0.17556,0.0901 0.4389,0.1802 0.61447,0.27029 0.0878,0 0.17556,0.0901 0.26334,0.0901 0.17557,0.0901 0.35113,0.1802 0.61447,0.1802 0.0878,0 0.17556,0.0901 0.26335,0.0901 0.26334,0.0901 0.52669,0.1802 0.87781,0.27029 14.92283,2.52278 18.34629,-9.28019 18.34629,-9.28019 -3.07234,4.59505 -9.12925,6.75743 -15.53729,5.04554 -0.26334,-0.0901 -0.52669,-0.1802 -0.87781,-0.27029 -0.0878,0 -0.17556,-0.0901 -0.26334,-0.0901 -0.17557,-0.0901 -0.43891,-0.0901 -0.61447,-0.1802 -0.0878,0 -0.17557,-0.0901 -0.26335,-0.0901 -0.17557,-0.0901 -0.4389,-0.1802 -0.61447,-0.2703 -0.0878,0 -0.0878,-0.0901 -0.17556,-0.0901 -0.26335,-0.0901 -0.52669,-0.27029 -0.79004,-0.36039 -0.0878,-0.0901 -0.26334,-0.1802 -0.35112,-0.1802 -0.0878,0 -0.17556,-0.0901 -0.26334,-0.0901 -0.17556,-0.0901 -0.35113,-0.1802 -0.52669,-0.2703 0,0 -0.0878,0 -0.0878,-0.0901 -0.17557,-0.0901 -0.4389,-0.2703 -0.61447,-0.36039 -0.0878,0 -0.0878,-0.0901 -0.17556,-0.0901 -0.0878,-0.0901 -0.26335,-0.1802 -0.35112,-0.2703 -0.26335,-0.1802 -0.52669,-0.3604 -0.79004,-0.63069 -0.0878,-0.0901 -0.0878,-0.0901 -0.17556,-0.1802 -2.809,-2.25247 -5.00353,-5.40594 -6.05691,-8.9198 -1.14116,-3.69406 -0.87782,-7.74852 1.05338,-11.08218"
       inkscape:connector-curvature="0"
       style="fill:#999999;stroke-width:0.88932604" />
    <path
       id="path4440"
       d="m 328.72143,135.42376 c -1.66784,2.61288 -1.8434,5.76634 -0.70225,8.6495 1.22894,3.06337 3.7746,5.40595 6.75916,6.48713 0.0878,0.0901 0.26335,0.0901 0.35113,0.0901 0.0878,0 0.0878,0 0.17556,0.0901 0.17556,0.0901 0.35113,0.0901 0.52669,0.1802 8.25145,1.62178 10.44597,-4.32475 11.06045,-5.22574 -1.93119,2.88317 -5.26689,3.60396 -9.30483,2.61287 -0.35112,-0.0901 -0.70225,-0.1802 -0.96559,-0.27029 -0.35112,-0.1802 -0.79003,-0.2703 -1.14116,-0.4505 -0.70225,-0.3604 -1.4045,-0.81089 -2.01896,-1.26139 -3.59904,-2.79306 -5.88135,-8.19901 -3.51126,-12.52376"
       inkscape:connector-curvature="0"
       style="fill:#999999;stroke-width:0.88932604" />
    <path
       id="path4442"
       d="m 519.82133,147.49703 0.35113,1.44158 c 0.0878,0.3604 -0.17557,0.7208 -0.52669,0.7208"
       inkscape:connector-curvature="0"
       style="fill:#333333;stroke-width:0.88932604" />
    <path
       id="path4444"
       d="m 493.83807,145.06435 c -0.0878,0.3604 -0.17557,0.901 -0.26335,1.17129 l -2.89678,13.69505 2.98456,-14.41584 z"
       inkscape:connector-curvature="0"
       style="fill:#333333;stroke-width:0.88932604" />
    <polygon
       id="polygon4446"
       points="120,24.7 118.2,31.1 "
       style="fill:#333333"
       transform="matrix(0.87781302,0,0,0.9009901,303.00151,132)" />
    <path
       id="path4448"
       d="m 520.17246,148.93861 -0.79004,-3.60395 c -0.61447,-2.61287 -2.45788,-3.78416 -6.58359,-3.78416 h -17.3807 c -0.43891,0 -0.79004,0.18019 -0.87781,0.63069 l -6.5836,32.07525 c -0.0878,0.45049 -0.0878,0.72079 -0.0878,0.90099 0.0878,0.18019 0.79003,0.18019 1.22894,0.18019 h 6.0569 c 0.43891,0 1.14116,0 1.31672,-0.0901 0.26334,-0.0901 0.35113,-0.72079 0.43891,-1.08119 l 2.10675,-11.26237 2.63344,-12.52377 c 0.0878,-0.36038 0.43891,-0.72078 0.87782,-0.72078 h 17.20513 c 0.26334,0 0.52668,-0.3604 0.43891,-0.7208"
       inkscape:connector-curvature="0"
       style="fill:#333333;stroke-width:0.88932604" />
    <path
       id="path4450"
       d="m 544.66343,135.87426 c -0.4389,0 -7.63696,0 -7.63696,0 -0.43891,0 -0.87781,0.45049 -1.14116,0.81089 l -13.43054,20.18217 c -0.26335,0.3604 -0.52669,0.3604 -0.61448,-0.0901 l -0.96558,-4.41485 c -0.0878,-0.3604 -0.52669,-0.7208 -0.87782,-0.7208 h -8.60257 c -0.4389,0 -0.61447,0.3604 -0.52669,0.7208 l 3.86239,13.87524 c 0.0878,0.3604 0.0878,1.0812 0,1.44158 l -1.84341,7.02773 c -0.0878,0.3604 0.17556,0.54059 0.52668,0.54059 h 8.51479 c 0.4389,0 0.79003,-0.0901 0.87781,-0.54059 l 1.84341,-7.11782 c 0.0878,-0.3604 0.35113,-0.901 0.61447,-1.26138 l 21.85754,-29.73268 c 0.26335,-0.36039 0.17556,-0.72079 -0.17556,-0.72079 z"
       inkscape:connector-curvature="0"
       style="fill:#333333;stroke-width:0.88932604" />
    <path
       id="path4452"
       d="m 454.95095,141.5505 h -7.81254 c -0.43891,0 -0.79003,0.18019 -0.87781,0.54059 l -2.54566,12.34356 -2.54565,11.80297 c -0.0878,0.3604 -0.43891,0.3604 -0.87782,0.3604 h -5.09132 c -5.09131,0 -4.47684,-3.24357 -3.42346,-8.19901 0,-0.0901 3.2479,-16.30792 3.2479,-16.30792 0.0878,-0.3604 -0.17556,-0.54059 -0.61447,-0.54059 h -7.37363 c -0.4389,0 -0.79003,0.18019 -0.87781,0.54059 l -2.98457,16.30792 c -1.49227,8.8297 -1.49227,16.57822 8.42701,16.84852 0.17557,0 15.71285,0 15.71285,0 0.43891,0 0.79003,-0.1802 0.87782,-0.5406 l 3.42347,-16.39802 3.33569,-16.39802 c 0,0 0.17556,-0.36039 0,-0.36039 z"
       inkscape:connector-curvature="0"
       style="fill:#333333;stroke-width:0.88932604" />
    <path
       id="path4454"
       d="m 377.52783,141.5505 h -8.33921 c -0.43891,0 -0.79004,0.0901 -0.87781,0.54059 l -1.49229,6.66732 c -0.0878,0.3604 0.17556,0.7208 0.61446,0.7208 h 7.9881 c 0.43892,0 0.79004,-0.3604 0.87782,-0.81089 l 1.4045,-6.75743 c 0,0 0.17556,-0.36039 -0.17557,-0.36039 z"
       inkscape:connector-curvature="0"
       style="fill:#333333;stroke-width:0.88932604" />
    <path
       id="path4456"
       d="m 366.9063,151.64159 c -0.43891,0 -0.79003,0.36039 -0.87782,0.72079 l -1.14115,5.13564 -2.54566,11.80297 c 0,0 -1.31671,6.21683 -1.49228,6.66733 0,0 -1.14116,4.50495 -3.7746,4.32475 -1.22893,-0.0901 -2.63343,-0.36039 -2.63343,-0.36039 v 0 c -0.79004,-0.27031 -0.79004,0.54059 -0.87782,0.99108 l -1.66785,7.29802 c -0.0878,0.3604 0.17557,0.7208 0.52669,0.81089 0,0 3.59904,0.5406 6.1447,0.5406 h 0.4389 c 6.23248,0 9.56817,-3.78416 11.67492,-14.05545 l 2.45787,-11.98317 2.28231,-11.08218 c 0.0878,-0.36039 -0.17556,-0.81088 -0.52668,-0.81088"
       inkscape:connector-curvature="0"
       style="fill:#333333;stroke-width:0.88932604" />
    <path
       id="path4458"
       d="m 474.61395,141.46039 c -14.045,0 -17.38069,8.9198 -19.2241,17.65941 -1.8434,9.00991 -1.66784,16.12773 12.81608,16.12773 h 0.52668 c 5.79357,0 12.72829,0 12.72829,0 0.35113,0 0.79003,-0.3604 0.87781,-0.81089 l 1.40451,-5.67624 c 0.0878,-0.3604 -0.17557,-0.5406 -0.61448,-0.5406 h -13.07941 c -4.74019,0 -6.40803,-1.53169 -6.23247,-4.86535 0,-0.36039 0.4389,-1.35148 0.79003,-1.35148 h 20.10191 c 0.87782,0 0.87782,-0.54059 0.87782,-0.54059 2.19453,-9.3703 2.28232,-20.00199 -10.97267,-20.00199 m 3.68683,14.14555 c 0,0.45049 -1.4045,0.3604 -1.4045,0.3604 l -10.88489,-0.0901 c -0.35113,0 -0.52669,-0.54058 -0.52669,-0.90098 0,0 0,-0.45049 0.0878,-0.5406 0.87781,-2.97326 3.33569,-4.68515 7.37362,-4.68515 4.47685,0 5.44244,2.25248 5.44244,4.86535"
       inkscape:connector-curvature="0"
       style="fill:#333333;stroke-width:0.88932604" />
    <path
       id="path4460"
       d="m 414.04486,165.96733 c 0,0 3.95016,-9.82079 4.82797,-15.40694 C 420.10177,142.99208 416.41496,132 402.1066,132 c -14.13279,0 -20.27748,10.45148 -22.64758,21.89406 -2.37009,11.44258 0.70226,21.44356 14.83505,21.35347 h 21.50642 c 0.43891,0 0.79003,-0.3604 0.87781,-0.7208 l 1.84341,-7.11782 c 0.0878,-0.3604 -0.17556,-0.7208 -0.52669,-0.7208 h -1.75562 -1.75564 c -0.35112,0 -0.52669,-0.27029 -0.52669,-0.54058 0.0878,0 0.0878,-0.0901 0.0878,-0.1802 m -7.37363,-5.94653 -1.58006,5.67623 c -0.0878,0.36039 -0.52669,0.6307 -0.9656,0.6307 h -8.33922 c -6.32025,0 -7.90032,-5.04555 -6.32025,-12.52377 1.58006,-7.65841 4.56462,-12.34357 10.7971,-12.88416 8.51478,-0.63069 10.27041,5.49604 8.16366,12.61387 z"
       inkscape:connector-curvature="0"
       style="fill:#333333;stroke-width:0.88932604" />
    <g
       id="g4462">
</g>
    <g
       id="g4464">
</g>
    <g
       id="g4466">
</g>
    <g
       id="g4468">
</g>
    <g
       id="g4470">
</g>
    <g
       id="g4472">
</g>
  </g>
</g>
</g>

	
</g>
      </g>
    </g>
  </g>
</g>
</g>
    </g>
  </g>
  <style
     id="style3681"
     type="text/css">
	.st0{fill:#27245D;}
	.st1{fill:#E2066F;}
	.st2{fill:#A0DBE8;}
	.st3{fill:#525353;}
	.st4{fill:#AA9678;}
	.st5{fill:#C0B098;}
	.st6{fill:#786453;}
	.st7{fill:#8B7460;}
	.st8{fill:none;}
	.st9{fill:#FFFFFF;}
	.st10{fill:#BBBCBD;}
	.st11{fill:#676A6A;}
	.st12{fill:#909393;}
	.st13{fill:#E2DDDB;}
	.st14{fill:#FBB040;}
	.st15{fill:#9F2255;}
</style>
  <style
     id="style4157"
     type="text/css">
	.st0{fill:#EA4335;}
	.st1{fill:#4285F4;}
	.st2{fill:#34A853;}
	.st3{fill:#FBBC05;}
	.st4{fill:#5F6368;}
</style>
</svg>
