<?xml version="1.0" encoding="UTF-8" standalone="no"?>
<!-- Created with Inkscape (http://www.inkscape.org/) -->

<svg
   xmlns:dc="http://purl.org/dc/elements/1.1/"
   xmlns:cc="http://creativecommons.org/ns#"
   xmlns:rdf="http://www.w3.org/1999/02/22-rdf-syntax-ns#"
   xmlns:svg="http://www.w3.org/2000/svg"
   xmlns="http://www.w3.org/2000/svg"
   xmlns:sodipodi="http://sodipodi.sourceforge.net/DTD/sodipodi-0.dtd"
   xmlns:inkscape="http://www.inkscape.org/namespaces/inkscape"
   width="258"
   height="116"
   viewBox="0 0 68.262498 30.691668"
   version="1.1"
   id="svg2529"
   inkscape:version="0.92.4 (5da689c313, 2019-01-14)"
   sodipodi:docname="logo-tech-prestashop.svg">
  <defs
     id="defs2523">
	
</defs>
  <sodipodi:namedview
     id="base"
     pagecolor="#ffffff"
     bordercolor="#666666"
     borderopacity="1.0"
     inkscape:pageopacity="0.0"
     inkscape:pageshadow="2"
     inkscape:zoom="1.08"
     inkscape:cx="-92.051652"
     inkscape:cy="152.59259"
     inkscape:document-units="mm"
     inkscape:current-layer="XMLID_141_"
     showgrid="false"
     units="px"
     inkscape:window-width="1920"
     inkscape:window-height="1001"
     inkscape:window-x="-9"
     inkscape:window-y="-9"
     inkscape:window-maximized="1" />
  <metadata
     id="metadata2526">
    <rdf:RDF>
      <cc:Work
         rdf:about="">
        <dc:format>image/svg+xml</dc:format>
        <dc:type
           rdf:resource="http://purl.org/dc/dcmitype/StillImage" />
        <dc:title></dc:title>
      </cc:Work>
    </rdf:RDF>
  </metadata>
  <g
     inkscape:label="Capa 1"
     inkscape:groupmode="layer"
     id="layer1"
     transform="translate(0,-266.3083)">
    <g
       id="g3515"
       transform="matrix(0.26458333,0,0,0.26458333,-71.437499,217.83016)">
      <g
         id="Layer_1">
</g>
      <g
         style="fill:#000000"
         id="g3488">
		
		
		
		
		
		
		
		
	<g
   id="XMLID_141_"
   transform="matrix(0.25895832,0,0,0.28257554,7.682284,122.89296)">
  <g
     id="XMLID_142_"
     transform="matrix(1.0870261,0,0,1.5435899,1436.0663,-145.52628)">
    <path
       id="XMLID_160_"
       d="m 106.3,383.4 c -0.1,-0.4 -0.1,-1 -0.1,-1.8 0,-5.1 1.7,-9.1 5.1,-11.9 3.4,-2.9 7.1,-4.3 11.2,-4.3 5.4,0 9.2,2 11.3,6.1 z m 39.4,-7.2 c -0.1,-6 -2.3,-10.9 -6.8,-14.7 -4.5,-3.8 -10.1,-5.6 -16.9,-5.6 -4.3,0 -8.4,0.9 -12.2,2.8 -3.9,1.9 -7.1,4.8 -9.7,8.9 -2.6,4 -3.9,8.6 -3.9,13.9 0,7.6 2.5,13.8 7.5,18.4 5,4.7 11.1,7 18.1,7 8,0 15,-3 20.9,-9.1 l -6.1,-6.8 c -3.6,4.3 -8.2,6.5 -13.7,6.5 -5.6,0 -10,-2 -13.2,-6 l 36.1,-15.2 z"
       class="st0"
       inkscape:connector-curvature="0"
       style="fill:#000000" />
    <path
       id="XMLID_138_"
       d="m 84.2,358.9 c -2.9,2 -5.2,4.5 -6.8,7.6 v -10 H 66.9 v 49.6 h 10.4 v -21.2 c 0,-5.6 1.3,-10.2 3.9,-13.5 2.6,-3.4 6.5,-5 11.6,-5 h 0.6 l -0.1,-10.5 c -3.1,0 -6.2,1 -9.1,3"
       class="st0"
       inkscape:connector-curvature="0"
       style="fill:#000000" />
    <path
       id="XMLID_137_"
       d="m 183,380.9 c -1.7,-1.1 -3.2,-2 -4.7,-2.6 -1.5,-0.6 -3,-1.2 -4.5,-1.7 -1.6,-0.5 -3.3,-1 -5.4,-1.5 -2,-0.5 -3.6,-1 -4.7,-1.6 -1.6,-0.7 -2.4,-1.9 -2.4,-3.5 0,-1.8 0.8,-3.2 2.3,-4.1 1.6,-0.9 3.6,-1.4 6.1,-1.4 4.7,0 9.1,1.3 13.1,4 l 3.9,-7.7 c -5.1,-3.4 -10.5,-5 -16.2,-5 -5.7,0 -10.4,1.4 -13.9,4.1 -3.6,2.8 -5.4,6.4 -5.4,11 0,6.5 5.2,11.2 15.5,14 0.2,0.1 0.6,0.2 1.1,0.4 6.6,2 9.9,4.2 9.9,6.7 0,1.7 -0.7,3.1 -2,4.1 -1.4,1.1 -3.2,1.6 -5.6,1.6 -5.4,0 -11,-2.2 -16.8,-6.5 l -5,8.1 c 3,2.4 6.4,4.2 10.3,5.5 3.9,1.3 7.6,2 11.2,2 5.3,0 9.7,-1.4 13.1,-4.2 3.4,-2.8 5.1,-6.6 5.1,-11.3 0.1,-4.7 -1.6,-8.1 -5,-10.4"
       class="st0"
       inkscape:connector-curvature="0"
       style="fill:#000000" />
    <path
       id="XMLID_155_"
       d="m 45,373.6 c -2.2,2.3 -6.4,3.5 -12.4,3.5 H 19.8 V 351 H 31 c 6,0 10.3,0.9 13.1,2.8 2.8,1.9 4.2,5 4.2,9.5 0,4.6 -1.1,8 -3.3,10.3 m 7.8,-26.9 C 48.3,342.9 41.1,341 31.2,341 H 8.8 v 65.1 h 11 V 387 h 11.6 c 9.6,0 16.7,-1.8 21.3,-5.5 4.6,-3.7 6.9,-9.4 6.9,-17.3 0,-7.8 -2.3,-13.7 -6.8,-17.5"
       class="st0"
       inkscape:connector-curvature="0"
       style="fill:#000000" />
    <path
       id="XMLID_134_"
       d="m 212.5,397.9 c -2.2,0 -4,-0.7 -5.2,-2.1 -1.2,-1.4 -1.9,-3.3 -1.9,-5.6 V 365 h 13 v -8.4 h -13 V 341 H 195 v 48.8 c 0,5.2 1.6,9.4 4.7,12.4 3.1,3.1 6.9,4.6 11.4,4.6 4.4,0 8.5,-1.6 12.2,-4.9 l -4.3,-7.4 c -2.1,2.3 -4.3,3.4 -6.5,3.4"
       class="st0"
       inkscape:connector-curvature="0"
       style="fill:#000000" />
    <path
       id="XMLID_151_"
       d="m 260.2,393.2 c -2.9,3 -6.3,4.5 -10.4,4.5 -4.1,0 -7.7,-1.5 -10.7,-4.5 -3,-3 -4.6,-6.8 -4.6,-11.6 0,-4.8 1.5,-8.7 4.5,-11.9 3,-3.2 6.5,-4.8 10.7,-4.8 4.2,0 7.7,1.6 10.5,4.8 2.9,3.2 4.3,7.1 4.3,11.8 0,4.8 -1.4,8.7 -4.3,11.7 m 4.1,-28 c -4.2,-6.2 -9.6,-9.3 -16.1,-9.3 -6.5,0 -12.2,2.3 -17,6.9 -4.8,4.6 -7.2,10.7 -7.2,18.4 0,7.7 2.3,13.9 7,18.6 4.7,4.7 10.1,7.1 16.4,7.1 3.1,0 6.2,-0.8 9.3,-2.3 3.1,-1.5 5.6,-3.7 7.6,-6.6 v 8.1 h 10.4 v -49.6 h -10.4 z"
       class="st0"
       inkscape:connector-curvature="0"
       style="fill:#000000" />
    <path
       id="XMLID_148_"
       d="m 429.4,393.1 c -3,3 -6.7,4.5 -11.2,4.5 -4.5,0 -8.3,-1.5 -11.2,-4.5 -3,-3 -4.4,-6.9 -4.4,-11.7 0,-4.8 1.5,-8.7 4.4,-11.7 2.9,-3 6.7,-4.5 11.2,-4.5 4.5,0 8.3,1.5 11.2,4.5 2.9,3 4.4,6.9 4.4,11.7 0,4.8 -1.4,8.7 -4.4,11.7 m -11.2,-37.2 c -7.5,0 -13.7,2.5 -18.6,7.4 -5,4.9 -7.5,11 -7.5,18.1 0,7.1 2.5,13.2 7.5,18.1 5,4.9 11.2,7.4 18.6,7.4 7.4,0 13.7,-2.5 18.6,-7.4 5,-4.9 7.5,-11 7.5,-18.1 0,-7.1 -2.5,-13.2 -7.5,-18.1 -5,-5 -11.2,-7.4 -18.6,-7.4"
       class="st1"
       inkscape:connector-curvature="0"
       style="fill:#4d4d4d" />
    <path
       id="XMLID_145_"
       d="m 486.1,393.1 c -3,3 -6.6,4.5 -10.7,4.5 -4.1,0 -7.6,-1.5 -10.4,-4.5 -2.9,-3 -4.3,-6.9 -4.3,-11.6 0,-4.7 1.4,-8.6 4.3,-11.8 2.9,-3.1 6.4,-4.7 10.5,-4.7 4.2,0 7.7,1.6 10.7,4.7 3,3.1 4.5,7.1 4.5,11.8 -0.1,4.8 -1.6,8.6 -4.6,11.6 m 7.9,-30.3 c -4.7,-4.6 -10.4,-6.9 -17,-6.9 -6.6,0 -12,3.1 -16.1,9.4 v -8.7 h -10.4 v 67.6 h 10.4 v -25.5 c 5,5.5 10.6,8.2 16.8,8.2 6.2,0 11.7,-2.4 16.4,-7.2 4.7,-4.8 7,-11 7,-18.6 0,-7.6 -2.4,-13.8 -7.1,-18.3"
       class="st1"
       inkscape:connector-curvature="0"
       style="fill:#4d4d4d" />
    <path
       id="XMLID_127_"
       d="m 367.8,355.9 c -3.5,0 -6.7,0.9 -9.7,2.6 -3,1.7 -5.3,4.1 -6.8,7.2 v -28.5 h -10.4 v 69 h 10.4 v -26.8 c 0,-4.6 1.3,-8.1 4,-10.5 2.7,-2.4 5.8,-3.6 9.4,-3.6 7.6,0 11.4,4.6 11.4,13.7 v 27.2 h 10.4 v -30.4 c 0,-6.5 -1.7,-11.4 -5.2,-14.8 -3.4,-3.4 -7.9,-5.1 -13.5,-5.1"
       class="st1"
       inkscape:connector-curvature="0"
       style="fill:#4d4d4d" />
    <path
       id="XMLID_126_"
       d="m 328.4,374.9 c -3.4,-2.9 -8.4,-5.2 -15.1,-6.8 -6.7,-1.6 -11,-3.1 -13.1,-4.5 -2,-1.4 -3.1,-3.4 -3.1,-6.1 0,-2.6 1,-4.6 3.1,-5.9 2,-1.3 4.7,-2 7.9,-2 3.2,0 6.4,0.6 9.7,1.7 3.3,1.1 5.9,2.5 7.8,4.3 l 5.9,-8.3 c -3,-2.5 -6.5,-4.4 -10.6,-5.8 -4.1,-1.4 -8.2,-2 -12.4,-2 -6.5,0 -11.9,1.6 -16.3,4.9 -4.4,3.3 -6.6,7.9 -6.6,13.9 0,6 1.9,10.5 5.8,13.4 1.9,1.6 4.1,2.8 6.6,3.8 2.5,1 6.1,2 10.9,3.2 4.8,1.1 8.1,2.4 10.1,3.8 2,1.4 2.9,3.4 2.9,5.9 0,2.5 -1,4.5 -3.1,6.1 -2.1,1.5 -4.9,2.3 -8.4,2.3 -7.1,0 -13.9,-2.9 -20.5,-8.6 l -6.9,8.3 c 7.9,7 16.9,10.5 27.1,10.5 7,0 12.6,-1.8 16.9,-5.3 4.3,-3.5 6.4,-8.1 6.4,-13.8 0,-5.7 -1.6,-10.1 -5,-13"
       class="st1"
       inkscape:connector-curvature="0"
       style="fill:#4d4d4d" />
  </g>
  <g
     id="g3821"
     transform="matrix(1.1547354,0,0,1.0981712,929.45286,241.37908)">
    <path
       id="XMLID_125_"
       d="m 202.1,241.7 c 2.4,-1.1 4.8,-2 7.3,-3 2.8,-1 5.6,-2 8.4,-2.9 3.5,-1.1 7.1,-2 10.7,-2.8 4.9,-1 9.8,-1.8 14.7,-2.3 -2.8,8.7 -5.8,17.4 -9.2,26 0.1,1.7 0.2,3.3 0.3,5 6.7,-1.3 13.6,-2 20.7,-2 7.1,0 14,0.7 20.7,2 0,-1.7 0.1,-3.4 0.3,-5 -3.3,-8.6 -6.4,-17.3 -9.2,-26 4.9,0.5 9.9,1.2 14.7,2.3 3.6,0.8 7.1,1.7 10.7,2.8 2.8,0.9 5.6,1.8 8.4,2.9 2.5,0.9 4.9,1.9 7.3,3 17,7.6 32.5,18.8 45.2,33.4 C 385,247.6 405.2,206.9 405.2,161.4 405.2,78.5 338,11.2 255,11.2 c -82.9,0 -150.2,67.2 -150.2,150.2 0,45.4 20.2,86.1 52.1,113.7 12.7,-14.6 28.2,-25.8 45.2,-33.4 z"
       class="st2"
       inkscape:connector-curvature="0"
       style="fill:#cccccc" />
    <path
       id="XMLID_124_"
       d="m 212,268.9 c 7,-3.1 14.5,-5.5 22.2,-7 0,-1.7 -0.1,-3.4 -0.3,-5 3.3,-8.6 6.4,-17.3 9.2,-26 -4.9,0.5 -9.9,1.2 -14.7,2.3 -3.6,0.8 -7.1,1.7 -10.7,2.8 -2.8,0.9 -5.6,1.8 -8.4,2.9 l 10.9,2.7 z"
       class="st3"
       inkscape:connector-curvature="0"
       style="fill:#525353" />
    <path
       id="XMLID_123_"
       d="m 186.2,285 c 0.3,-2.8 0.4,-5.6 0.4,-8.5 0,-1.7 1.4,-3.1 3.1,-3.1 h 2.7 l 9.6,-31.8 c -17,7.6 -32.5,18.8 -45.2,33.4 7,6.1 14.6,11.5 22.6,16.2 2.3,-2.1 4.5,-4.2 6.8,-6.2 z"
       class="st3"
       inkscape:connector-curvature="0"
       style="fill:#525353" />
    <path
       id="XMLID_122_"
       d="m 307.8,241.7 9.6,31.8 h 2.7 c 1.7,0 3.1,1.4 3.1,3.1 0,2.9 0.2,5.7 0.4,8.5 2.3,2 4.6,4 6.7,6.2 8.1,-4.7 15.6,-10.1 22.6,-16.2 -12.6,-14.6 -28.1,-25.8 -45.1,-33.4 z"
       class="st3"
       inkscape:connector-curvature="0"
       style="fill:#525353" />
    <path
       id="XMLID_121_"
       d="m 289.5,241.4 10.9,-2.7 c -2.8,-1 -5.6,-2 -8.4,-2.9 -3.5,-1.1 -7.1,-2 -10.7,-2.8 -4.9,-1 -9.8,-1.8 -14.7,-2.3 2.8,8.7 5.8,17.4 9.2,26 -0.1,1.7 -0.2,3.3 -0.3,5 7.8,1.5 15.2,3.9 22.2,7 z"
       class="st3"
       inkscape:connector-curvature="0"
       style="fill:#525353" />
    <path
       id="XMLID_120_"
       d="m 254.9,273.5 h 21.2 c -0.4,-3.9 -0.6,-7.8 -0.5,-11.6 -6.7,-1.3 -13.6,-2 -20.7,-2 -7.1,0 -14,0.7 -20.7,2 0.1,3.9 -0.1,7.7 -0.5,11.6 z"
       inkscape:connector-curvature="0" />
    <path
       id="XMLID_119_"
       d="m 179.5,291.2 c 1.7,1 3.5,2 5.3,3 0.6,-3 1.1,-6.1 1.4,-9.2 -2.3,2 -4.5,4.1 -6.7,6.2 z"
       inkscape:connector-curvature="0" />
    <path
       id="XMLID_118_"
       d="m 210.6,273.5 h 23.2 c 0.4,-3.9 0.6,-7.8 0.5,-11.6 -7.8,1.5 -15.2,3.9 -22.2,7 z"
       inkscape:connector-curvature="0" />
    <path
       id="XMLID_117_"
       d="m 323.7,285 c 0.3,3.1 0.8,6.2 1.4,9.2 1.8,-0.9 3.5,-1.9 5.3,-3 -2.2,-2.1 -4.4,-4.2 -6.7,-6.2 z"
       inkscape:connector-curvature="0" />
    <path
       id="XMLID_116_"
       d="m 299.3,273.5 -1.4,-4.6 c -7,-3.1 -14.5,-5.5 -22.2,-7 -0.1,3.9 0.1,7.7 0.5,11.6 z"
       inkscape:connector-curvature="0" />
    <path
       id="XMLID_115_"
       d="m 210.6,273.5 1.4,-4.6 8.3,-27.5 -10.9,-2.7 c -2.5,0.9 -4.9,1.9 -7.3,3 l -9.6,31.8 h 10.3 z"
       class="st4"
       inkscape:connector-curvature="0"
       style="fill:#1a1a1a" />
    <path
       id="XMLID_114_"
       d="m 297.9,268.9 1.4,4.6 h 7.8 10.3 l -9.6,-31.8 c -2.4,-1.1 -4.8,-2 -7.3,-3 l -10.9,2.7 z"
       class="st4"
       inkscape:connector-curvature="0"
       style="fill:#1a1a1a" />
    <path
       id="XMLID_113_"
       d="m 192.8,279.9 c 0.1,-0.1 0.2,-0.1 0.3,-0.2 h -0.3 c 0,0 0,0.1 0,0.2 z"
       class="st5"
       inkscape:connector-curvature="0"
       style="fill:#c0b098" />
    <path
       id="XMLID_112_"
       d="m 254.9,279.7 h -22.1 -24.1 -15.6 c -0.1,0.1 -0.2,0.1 -0.3,0.2 -0.2,5.9 -1,11.6 -2.3,17.2 19.5,9.3 41.3,14.5 64.4,14.5 z"
       class="st5"
       inkscape:connector-curvature="0"
       style="fill:#b3b3b3" />
    <path
       id="XMLID_111_"
       d="m 317.1,279.7 h -0.3 c 0.1,0.1 0.2,0.1 0.3,0.2 0,-0.1 0,-0.2 0,-0.2 z"
       class="st4"
       inkscape:connector-curvature="0"
       style="fill:#aa9678" />
    <path
       id="XMLID_110_"
       d="M 316.8,279.7 H 301.2 277 254.9 v 0 31.9 c 23,0 44.9,-5.2 64.4,-14.5 -1.3,-5.6 -2.1,-11.4 -2.3,-17.2 0,-0.1 -0.1,-0.2 -0.2,-0.2 z"
       class="st4"
       inkscape:connector-curvature="0"
       style="fill:#999999" />
    <rect
       y="276.60001"
       x="254.89999"
       width="0"
       id="XMLID_109_"
       height="3.0999999"
       class="st6"
       style="fill:#786453" />
    <path
       id="XMLID_108_"
       d="m 323.7,285 c -0.3,-2.8 -0.4,-5.6 -0.4,-8.5 0,-1.7 -1.4,-3.1 -3.1,-3.1 h -2.7 -10.5 -7.8 -23.2 -21.2 -21.2 -23.2 -7.8 -10.3 -2.7 c -1.7,0 -3.1,1.4 -3.1,3.1 0,2.9 -0.2,5.7 -0.4,8.5 -0.3,3.1 -0.8,6.2 -1.4,9.2 1.9,1 3.8,2 5.7,2.9 1.3,-5.6 2.1,-11.4 2.3,-17.2 0,-0.1 0,-0.1 0,-0.2 h 0.3 15.6 24.1 22.1 v 0 h 22.2 24.1 15.6 0.3 c 0,0.1 0,0.1 0,0.2 0.2,5.9 1,11.6 2.3,17.2 1.9,-0.9 3.8,-1.9 5.7,-2.9 -0.6,-3 -1,-6.1 -1.3,-9.2 z"
       class="st7"
       inkscape:connector-curvature="0"
       style="fill:#1a1a1a" />
    <g
       id="g3819">
      <path
         id="XMLID_107_"
         d="m 305.5,138.6 v 0 c 0,0 0,0 0,0 1.9,5.4 4,10.9 5.1,16.5 0,0.4 -0.1,0.8 -0.1,1.2 -0.1,0.6 -0.2,1.1 -0.3,1.6 0.2,-0.7 0.3,-1.6 0.5,-2.6 -1.1,-5.7 -3.3,-11.2 -5.2,-16.7 0,0 0,0 0,0 0,0 0,0 0,0 z"
         class="st8"
         inkscape:connector-curvature="0"
         style="fill:none" />
      <path
         id="XMLID_106_"
         d="m 349.2,172.6 c -0.1,0 -0.2,0.1 -0.3,0.1 0.1,-0.1 0.2,-0.1 0.3,-0.1 z"
         class="st8"
         inkscape:connector-curvature="0"
         style="fill:none" />
      <path
         id="XMLID_105_"
         d="m 350.2,171.8 c -0.1,0.1 -0.2,0.2 -0.3,0.3 0.1,-0.1 0.2,-0.2 0.3,-0.3 z"
         class="st8"
         inkscape:connector-curvature="0"
         style="fill:none" />
      <path
         id="XMLID_104_"
         d="m 301,134.7 c -3.5,-2.9 -7.1,-5.6 -10.9,-7.9 v 0 c 3.8,2.3 7.4,4.9 10.9,7.9 z"
         class="st8"
         inkscape:connector-curvature="0"
         style="fill:none" />
      <path
         id="XMLID_103_"
         d="m 335.8,170.6 c 0,0.1 0,0.1 0,0 0,0.1 0,0.1 0,0 z"
         class="st8"
         inkscape:connector-curvature="0"
         style="fill:none" />
      <path
         id="XMLID_102_"
         d="m 342.1,178.6 c 0.1,0.1 0.2,0.3 0.3,0.4 0,-0.2 -0.2,-0.3 -0.3,-0.4 z"
         class="st8"
         inkscape:connector-curvature="0"
         style="fill:none" />
      <path
         id="XMLID_101_"
         d="m 310.1,158.2 c -0.1,0.5 -0.2,0.9 -0.3,1.2 0.1,-0.4 0.2,-0.8 0.3,-1.2 z"
         class="st8"
         inkscape:connector-curvature="0"
         style="fill:none" />
      <path
         id="XMLID_100_"
         d="m 295.4,213 c -2.3,3.8 -3.8,7.5 -4.6,10.9 0.8,-3.5 2.3,-7.1 4.6,-10.9 0.8,-1.3 1.5,-2.5 2.2,-3.7 -0.7,1.1 -1.4,2.4 -2.2,3.7 0,-0.1 0,-0.1 0,0 z"
         class="st8"
         inkscape:connector-curvature="0"
         style="fill:none" />
      <path
         id="XMLID_99_"
         d="m 305.5,138.6 c 0.1,-0.3 0.3,-0.5 0.4,-0.8 v 0 c -0.2,0.3 -0.3,0.5 -0.4,0.8 0.9,0.8 1.8,1.6 2.7,2.4 -0.9,-0.8 -1.8,-1.6 -2.7,-2.4 z"
         class="st8"
         inkscape:connector-curvature="0"
         style="fill:none" />
      <path
         id="XMLID_98_"
         d="m 275.7,158.3 c 0,0 0,0 0,0 0,0 0,0 0,0 z"
         class="st8"
         inkscape:connector-curvature="0"
         style="fill:none" />
      <path
         id="XMLID_97_"
         d="M 274.6,155.8 Z"
         class="st8"
         inkscape:connector-curvature="0"
         style="fill:none" />
      <path
         id="XMLID_96_"
         d="m 284.7,123.7 c -0.2,-0.1 -0.4,-0.2 -0.5,-0.3 0.2,0.1 0.3,0.2 0.5,0.3 z"
         class="st8"
         inkscape:connector-curvature="0"
         style="fill:none" />
      <path
         id="XMLID_95_"
         d="m 285.5,124.1 c -0.2,-0.1 -0.4,-0.3 -0.6,-0.4 0.1,0.2 0.4,0.3 0.6,0.4 z"
         class="st8"
         inkscape:connector-curvature="0"
         style="fill:none" />
      <path
         id="XMLID_94_"
         d="m 290.4,136.2 c 0,0.4 0,0.7 0,1.1 0,-0.4 0,-0.7 0,-1.1 z"
         class="st8"
         inkscape:connector-curvature="0"
         style="fill:none" />
      <path
         id="XMLID_93_"
         d="m 275.2,157 c 0,0 0,0 0,0 0,0 0,0 0,0 z"
         class="st8"
         inkscape:connector-curvature="0"
         style="fill:none" />
      <path
         id="XMLID_92_"
         d="m 348.3,186.5 c 0.2,0.2 0.4,0.5 0.6,0.7 -0.2,-0.2 -0.4,-0.5 -0.6,-0.7 z"
         class="st8"
         inkscape:connector-curvature="0"
         style="fill:none" />
      <path
         id="XMLID_91_"
         d="m 290.4,140.9 c 0,1.6 -0.1,3.2 -0.2,4.7 0.1,-1.5 0.2,-3.1 0.2,-4.7 z"
         class="st8"
         inkscape:connector-curvature="0"
         style="fill:none" />
      <path
         id="XMLID_90_"
         d="m 276.1,159.7 c 0,0 0,0 0,0 0,0 0,0 0,0 z"
         class="st8"
         inkscape:connector-curvature="0"
         style="fill:none" />
      <path
         id="XMLID_89_"
         d="m 289.8,126.6 c -0.5,-0.3 -2,-1.1 -3.3,-1.9 1.3,0.7 2.7,1.5 3.3,1.9 z"
         class="st8"
         inkscape:connector-curvature="0"
         style="fill:none" />
      <path
         id="XMLID_88_"
         d="m 286.4,124.6 c -0.3,-0.2 -0.6,-0.4 -0.9,-0.5 0.3,0.2 0.6,0.4 0.9,0.5 z"
         class="st8"
         inkscape:connector-curvature="0"
         style="fill:none" />
      <path
         id="XMLID_87_"
         d="m 290,126.7 v 0 c 0,0 0,0 0,0 0,0 0,0 0,0 z"
         class="st8"
         inkscape:connector-curvature="0"
         style="fill:none" />
      <path
         id="XMLID_86_"
         d="m 353.3,163.2 c 0,-0.1 0,-0.2 0,-0.3 0,0 0,0 0,0 0,0 0,0 0,0 0,-0.1 0,-0.2 0,-0.3 0,0.1 0,0.2 0,0.4 0,-0.1 0,0.1 0,0.2 z"
         class="st8"
         inkscape:connector-curvature="0"
         style="fill:none" />
      <path
         id="XMLID_85_"
         d="m 328.7,162.3 c 0.1,0.2 0.3,0.3 0.4,0.5 0,0 0,0 0,0 v 0 c 0,-0.1 -0.2,-0.3 -0.4,-0.5 z"
         class="st8"
         inkscape:connector-curvature="0"
         style="fill:none" />
      <path
         id="XMLID_84_"
         d="m 308.2,141 c 2,1.8 4,3.7 5.9,5.6 -2,-1.9 -3.9,-3.8 -5.9,-5.6 z"
         class="st8"
         inkscape:connector-curvature="0"
         style="fill:none" />
      <path
         id="XMLID_83_"
         d="m 347.3,152.4 c 0.4,0 0.7,0.1 1.1,0.2 -0.4,-0.1 -0.8,-0.2 -1.1,-0.2 z"
         class="st8"
         inkscape:connector-curvature="0"
         style="fill:none" />
      <path
         id="XMLID_82_"
         d="m 341.5,159.9 c 0,0.2 -0.1,0.3 -0.1,0.5 0,-0.2 0.1,-0.3 0.1,-0.5 z"
         class="st8"
         inkscape:connector-curvature="0"
         style="fill:none" />
      <path
         id="XMLID_81_"
         d="m 348.7,152.7 c 0.2,0.1 0.5,0.2 0.7,0.4 -0.2,-0.1 -0.5,-0.3 -0.7,-0.4 z"
         class="st8"
         inkscape:connector-curvature="0"
         style="fill:none" />
      <path
         id="XMLID_80_"
         d="m 351,154.7 c 0.1,0.1 0.2,0.2 0.2,0.3 -0.1,-0.1 -0.1,-0.2 -0.2,-0.3 z"
         class="st8"
         inkscape:connector-curvature="0"
         style="fill:none" />
      <path
         id="XMLID_79_"
         d="m 353.2,160.6 c 0,0 0,0 0,0 0,-0.1 0,-0.1 0,-0.2 0,0.1 0,0.2 0,0.2 0,0 0,0 0,0 z"
         class="st8"
         inkscape:connector-curvature="0"
         style="fill:none" />
      <path
         id="XMLID_78_"
         d="m 353.2,165 c 0,0 0,0 0,0 0,-0.1 0,-0.1 0,0 0,0 0,0.1 0,0.1 0,0 0,0 0,-0.1 z"
         class="st8"
         inkscape:connector-curvature="0"
         style="fill:none" />
      <path
         id="XMLID_77_"
         d="m 343.3,155 c 0.1,-0.1 0.2,-0.2 0.2,-0.3 0,0.1 -0.1,0.2 -0.2,0.3 z"
         class="st8"
         inkscape:connector-curvature="0"
         style="fill:none" />
      <path
         id="XMLID_76_"
         d="m 346.2,152.6 c 0.3,-0.1 0.7,-0.2 1.1,-0.2 -0.4,0 -0.8,0.1 -1.1,0.2 z"
         class="st8"
         inkscape:connector-curvature="0"
         style="fill:none" />
      <path
         id="XMLID_75_"
         d="m 319.5,152.2 c -0.9,-1 -1.9,-1.9 -2.8,-2.9 1,0.9 1.9,1.9 2.8,2.9 z"
         class="st8"
         inkscape:connector-curvature="0"
         style="fill:none" />
      <path
         id="XMLID_74_"
         d="m 347.3,119.6 v 0 c 0,0 0,0 0,0 v 13.9 L 342,158 c 0,0.1 0,0.1 0,0.2 0,0 0,-0.1 0,-0.1 v 0 0 l 5.3,-24.5 z"
         class="st8"
         inkscape:connector-curvature="0"
         style="fill:none" />
      <path
         id="XMLID_73_"
         d="m 324.5,157.5 c -0.5,-0.5 -1,-1.1 -1.5,-1.6 0.6,0.6 1,1.1 1.5,1.6 z"
         class="st8"
         inkscape:connector-curvature="0"
         style="fill:none" />
      <path
         id="XMLID_72_"
         d="m 352.6,158.1 c 0.1,0.2 0.1,0.4 0.2,0.6 0,0 0,0 0,0 0,-0.3 -0.1,-0.4 -0.2,-0.6 z"
         class="st8"
         inkscape:connector-curvature="0"
         style="fill:none" />
      <path
         id="XMLID_71_"
         d="m 341.2,162.7 v 0 c 0,-0.1 0,-0.2 0,-0.3 0.1,0.2 0,0.2 0,0.3 z"
         class="st8"
         inkscape:connector-curvature="0"
         style="fill:none" />
      <path
         id="XMLID_70_"
         d="m 345.2,153.1 c 0.2,-0.2 0.5,-0.3 0.7,-0.4 -0.3,0.1 -0.5,0.3 -0.7,0.4 z"
         class="st8"
         inkscape:connector-curvature="0"
         style="fill:none" />
      <path
         id="XMLID_69_"
         d="m 344.1,154 c 0.2,-0.3 0.5,-0.5 0.8,-0.7 -0.3,0.2 -0.6,0.5 -0.8,0.7 z"
         class="st8"
         inkscape:connector-curvature="0"
         style="fill:none" />
      <path
         id="XMLID_68_"
         d="m 352.8,166.9 c 0,0 0,0 0,0 -0.1,0.5 -0.3,1 -0.5,1.5 0.2,-0.4 0.4,-0.9 0.5,-1.5 z"
         class="st8"
         inkscape:connector-curvature="0"
         style="fill:none" />
      <path
         id="XMLID_67_"
         d="m 169.8,158.1 c 0.2,-0.3 0.5,-0.7 0.7,-1 -0.2,0.4 -0.5,0.7 -0.7,1 z"
         class="st8"
         inkscape:connector-curvature="0"
         style="fill:none" />
      <path
         id="XMLID_66_"
         d="m 349.7,153.3 c 0.3,0.2 0.5,0.5 0.8,0.7 -0.3,-0.2 -0.5,-0.5 -0.8,-0.7 z"
         class="st8"
         inkscape:connector-curvature="0"
         style="fill:none" />
      <path
         id="XMLID_65_"
         d="m 174.1,151.9 c 0.1,-0.1 0.2,-0.3 0.3,-0.4 -0.1,0.1 -0.2,0.2 -0.3,0.4 z"
         class="st8"
         inkscape:connector-curvature="0"
         style="fill:none" />
      <path
         id="XMLID_64_"
         d="m 276.4,162.7 v 0 c 0,0 0,0 0,0 v 0 0 -0.1 c 0,0 0,0 0,0.1 z"
         class="st8"
         inkscape:connector-curvature="0"
         style="fill:none" />
      <path
         id="XMLID_63_"
         d="m 163.3,170.1 c -0.3,0.5 -0.5,1.1 -0.8,1.6 0.3,-0.5 0.5,-1 0.8,-1.6 z"
         class="st8"
         inkscape:connector-curvature="0"
         style="fill:none" />
      <path
         id="XMLID_62_"
         d="m 160,177.8 c 0,0.1 -0.1,0.2 -0.1,0.3 0,-0.1 0.1,-0.2 0.1,-0.3 z"
         class="st8"
         inkscape:connector-curvature="0"
         style="fill:none" />
      <path
         id="XMLID_61_"
         d="m 351,123.2 c 0,0 0,0 0,0 v 0 c 0,0 0,0 0,0 z"
         class="st8"
         inkscape:connector-curvature="0"
         style="fill:none" />
      <path
         id="XMLID_60_"
         d="M 189.7,135.1 Z"
         class="st8"
         inkscape:connector-curvature="0"
         style="fill:none" />
      <path
         id="XMLID_59_"
         d="m 183.8,140.5 c 0.3,-0.3 0.6,-0.6 0.9,-0.9 -0.3,0.3 -0.6,0.6 -0.9,0.9 z"
         class="st8"
         inkscape:connector-curvature="0"
         style="fill:none" />
      <path
         id="XMLID_58_"
         d="m 178.5,146.3 c 0.3,-0.4 0.6,-0.7 0.9,-1.1 -0.3,0.4 -0.6,0.7 -0.9,1.1 z"
         class="st8"
         inkscape:connector-curvature="0"
         style="fill:none" />
      <polygon
         points="347.3,133.6 352.6,158.1 "
         id="XMLID_57_"
         class="st8"
         style="fill:none" />
      <path
         id="XMLID_56_"
         d="m 259.4,176.6 c -0.1,0 -0.2,-0.1 -0.3,-0.1 0.1,0.1 0.2,0.1 0.3,0.1 z"
         class="st8"
         inkscape:connector-curvature="0"
         style="fill:none" />
      <path
         id="XMLID_55_"
         d="m 260.8,176.8 c -0.1,0 -0.2,0 -0.3,-0.1 0.1,0.1 0.2,0.1 0.3,0.1 z"
         class="st8"
         inkscape:connector-curvature="0"
         style="fill:none" />
      <path
         id="XMLID_54_"
         d="m 166.6,163.6 c -0.3,0.6 -0.7,1.2 -1,1.9 0.3,-0.6 0.6,-1.2 1,-1.9 z"
         class="st8"
         inkscape:connector-curvature="0"
         style="fill:none" />
      <path
         id="XMLID_53_"
         d="m 255.4,175.1 c 0,0 0,0 0,0 0,0 0,0 0,0 z"
         class="st8"
         inkscape:connector-curvature="0"
         style="fill:none" />
      <path
         id="XMLID_52_"
         d="m 258,176.2 c -0.1,0 -0.1,0 -0.2,-0.1 0.1,0.1 0.1,0.1 0.2,0.1 z"
         class="st8"
         inkscape:connector-curvature="0"
         style="fill:none" />
      <path
         id="XMLID_51_"
         d="m 256.6,175.7 c 0,0 0,0 0,0 0,0 0,0 0,0 z"
         class="st8"
         inkscape:connector-curvature="0"
         style="fill:none" />
      <path
         id="XMLID_50_"
         d="m 249.2,168.1 c 0,0 0,0 0,0 0,0 0,0 0,0 z"
         class="st8"
         inkscape:connector-curvature="0"
         style="fill:none" />
      <path
         id="XMLID_49_"
         d="m 248.5,159.5 c 0,0.1 -0.1,0.2 -0.1,0.3 0.1,-0.1 0.1,-0.2 0.1,-0.3 z"
         class="st8"
         inkscape:connector-curvature="0"
         style="fill:none" />
      <path
         id="XMLID_48_"
         d="m 250,155.8 c 0,0 0,0 0,0 0,0 0,0 0,0 z"
         class="st8"
         inkscape:connector-curvature="0"
         style="fill:none" />
      <path
         id="XMLID_47_"
         d="m 254.7,150.9 c 0,0 0,0 0,0 0,0 0,0 0,0 z"
         class="st8"
         inkscape:connector-curvature="0"
         style="fill:none" />
      <path
         id="XMLID_46_"
         d="m 248.9,158.2 c 0,0.1 -0.1,0.1 -0.1,0.2 0,0 0.1,-0.1 0.1,-0.2 z"
         class="st8"
         inkscape:connector-curvature="0"
         style="fill:none" />
      <path
         id="XMLID_45_"
         d="m 249.4,157 c 0,0 0,0.1 -0.1,0.1 0,0 0.1,-0.1 0.1,-0.1 z"
         class="st8"
         inkscape:connector-curvature="0"
         style="fill:none" />
      <path
         id="XMLID_44_"
         d="m 265.1,148.9 c -0.1,0 -0.1,0 0,0 -0.1,0 -0.1,0 0,0 z"
         class="st8"
         inkscape:connector-curvature="0"
         style="fill:none" />
      <path
         id="XMLID_43_"
         d="m 267.6,149.7 c 0,0 0,0 0,0 0,0 0,0 0,0 z"
         class="st8"
         inkscape:connector-curvature="0"
         style="fill:none" />
      <path
         id="XMLID_42_"
         d="m 257,149.6 c 0,0 0,0 0,0 0,0 0,0 0,0 z"
         class="st8"
         inkscape:connector-curvature="0"
         style="fill:none" />
      <path
         id="XMLID_41_"
         d="m 259.6,148.9 c 0,0 -0.1,0 0,0 -0.1,0 0,0 0,0 z"
         class="st8"
         inkscape:connector-curvature="0"
         style="fill:none" />
      <path
         id="XMLID_40_"
         d="m 276.3,161.1 c 0,0 0,0 0,0 0,0 0,0 0,0 z"
         class="st8"
         inkscape:connector-curvature="0"
         style="fill:none" />
      <path
         id="XMLID_39_"
         d="m 262.4,117.2 c 0,-0.2 0,-0.4 0,-0.6 0,0.2 0,0.4 0,0.6 z"
         class="st8"
         inkscape:connector-curvature="0"
         style="fill:none" />
      <path
         id="XMLID_38_"
         d="m 262.4,116.3 c 0,-0.1 0,-0.3 0,-0.4 0,0.1 0,0.2 0,0.4 z"
         class="st8"
         inkscape:connector-curvature="0"
         style="fill:none" />
      <path
         id="XMLID_37_"
         d="m 262.4,115.7 c 0,-0.1 0,-0.1 0,0 0,-0.1 0,-0.1 0,0 z"
         class="st8"
         inkscape:connector-curvature="0"
         style="fill:none" />
      <path
         id="XMLID_36_"
         d="m 262.4,119.1 v -0.2 -0.6 c 0,-0.2 0,-0.4 0,-0.6 0,0.4 0,0.9 0,1.4 z"
         class="st8"
         inkscape:connector-curvature="0"
         style="fill:none" />
      <path
         id="XMLID_35_"
         d="m 351.4,170.3 c -0.2,0.2 -0.3,0.5 -0.5,0.7 0.2,-0.2 0.4,-0.5 0.5,-0.7 z"
         class="st8"
         inkscape:connector-curvature="0"
         style="fill:none" />
      <path
         id="XMLID_34_"
         d="m 248.3,161 c 0,0.1 0,0.2 -0.1,0.3 0,-0.1 0,-0.2 0.1,-0.3 z"
         class="st8"
         inkscape:connector-curvature="0"
         style="fill:none" />
      <path
         id="XMLID_33_"
         d="m 248.4,165.5 c 0,0 0,0 0,0 0,0 0,0 0,0 z"
         class="st8"
         inkscape:connector-curvature="0"
         style="fill:none" />
      <path
         id="XMLID_32_"
         d="m 352.2,168.8 c -0.1,0.3 -0.3,0.7 -0.5,1 0.2,-0.3 0.3,-0.6 0.5,-1 z"
         class="st8"
         inkscape:connector-curvature="0"
         style="fill:none" />
      <path
         id="XMLID_31_"
         d="m 297.9,252 c -0.5,-0.5 -0.9,-1.1 -1.4,-1.7 0.5,0.7 1,1.2 1.4,1.7 z"
         class="st3"
         inkscape:connector-curvature="0"
         style="fill:#525353" />
      <path
         id="XMLID_30_"
         d="m 301.4,255.5 c 0,0 0,0 0,0 0,0 0,0 0,0 0,0 -1.5,-1.2 -3.5,-3.4 v 0 c 2,2.2 3.5,3.4 3.5,3.4 z"
         class="st4"
         inkscape:connector-curvature="0"
         style="fill:#aa9678" />
      <circle
         transform="matrix(0.9968,-0.0797015,0.0797015,0.9968,-8.4294,28.0575)"
         id="XMLID_29_"
         cy="119.6"
         cx="347.29999"
         class="st9"
         r="0"
         style="fill:#ffffff" />
      <path
         id="XMLID_28_"
         d="m 353.3,162.8 c 0,0 0,0 0,0 v 0 c 0,0 0,0 0,0 z"
         class="st9"
         inkscape:connector-curvature="0"
         style="fill:#ffffff" />
      <path
         id="XMLID_27_"
         d="m 354.9,128 v 0 0 c 0,0 0,-0.1 0,0 v 0 c -1.3,-1.8 -2.6,-3.4 -3.9,-4.8 0,0 0,0 0,0 0,0 0,0 0,0 0,0 0,0 0,0 v 0 c -0.6,-0.7 -1.2,-1.3 -1.8,-1.9 -0.2,-0.2 -0.5,-0.4 -0.7,-0.6 -0.4,-0.4 -0.8,-0.7 -1.2,-1 v 0 14 l 5.3,24.5 v 0 c 0.1,0.2 0.1,0.4 0.2,0.6 l 3.7,4.2 v 0 h 3.9 c 0,-0.4 0,-0.7 0,-1.1 v 0 c 0,-11.6 -1.9,-22.7 -5.3,-33.1 v 0 c -0.1,-0.4 -0.1,-0.6 -0.2,-0.8 z"
         class="st10"
         inkscape:connector-curvature="0"
         style="fill:#bbbcbd" />
      <path
         id="XMLID_26_"
         d="m 353.3,162.8 c 0,0 0,0 0,0 0,0 0,0 0,0 z"
         class="st10"
         inkscape:connector-curvature="0"
         style="fill:#bbbcbd" />
      <path
         id="XMLID_25_"
         d="m 353.2,160.5 c 0,0 0,0.1 0,0.1 0,0 0,0 0,0.1 0,0 0,0 0,0 0.1,0.6 0.1,1.2 0.1,1.8 0,0.1 0,0.2 0,0.3 0,0 0,0 0,0 0,0 0,0 0,0 0,0.1 0,0.2 0,0.3 0,0.6 0,1.2 -0.1,1.7 0,0 0,0 0,0 0,0 0,0.1 0,0.1 0,0 0,0.1 0,0.1 -0.1,0.6 -0.2,1.2 -0.3,1.8 0,0 0,0 0,0 v 0 0 c 0,0 0,0 0,0 v 0 l 3.7,-4.1 -3.7,-4.2 c 0,0 0,0 0,0 0.1,0.7 0.2,1.3 0.3,2 z"
         class="st11"
         inkscape:connector-curvature="0"
         style="fill:#676a6a" />
      <path
         id="path3795"
         d="m 353.1,165.2 c 0,-0.1 0,-0.1 0,-0.2 0.1,-0.6 0.1,-1.2 0.1,-1.7 0,-0.1 0,-0.3 0,-0.4 0,-0.1 0,-0.2 0,-0.4 0,-0.6 0,-1.2 -0.1,-1.8 0,-0.1 0,-0.1 0,-0.2 -0.1,-0.6 -0.2,-1.2 -0.3,-1.8 -0.1,-0.2 -0.1,-0.4 -0.2,-0.6 -0.4,-1.2 -0.8,-2.2 -1.4,-3.1 -0.1,-0.1 -0.2,-0.2 -0.2,-0.3 -0.2,-0.2 -0.3,-0.4 -0.5,-0.6 -0.2,-0.3 -0.5,-0.5 -0.8,-0.7 -0.1,-0.1 -0.2,-0.1 -0.3,-0.2 -0.2,-0.2 -0.5,-0.3 -0.7,-0.4 -0.1,0 -0.2,-0.1 -0.3,-0.1 -0.3,-0.1 -0.7,-0.2 -1.1,-0.2 -0.4,0 -0.7,0.1 -1.1,0.2 -0.1,0 -0.2,0.1 -0.3,0.1 -0.2,0.1 -0.5,0.2 -0.7,0.4 -0.1,0.1 -0.2,0.1 -0.3,0.2 -0.3,0.2 -0.5,0.5 -0.8,0.7 -0.2,0.2 -0.3,0.4 -0.5,0.6 -0.1,0.1 -0.2,0.2 -0.2,0.3 -0.6,0.9 -1.1,1.9 -1.4,3.1 0,0 0,0.1 0,0.1 -0.2,0.5 -0.3,1.1 -0.4,1.7 0,0.2 -0.1,0.3 -0.1,0.5 -0.1,0.7 -0.1,1.3 -0.2,2 0,0.1 0,0.2 0,0.3 v 0 c 0,5.7 2.7,10.4 6,10.4 0.6,0 1.1,-0.2 1.7,-0.4 0.1,0 0.2,-0.1 0.3,-0.1 0.2,-0.1 0.4,-0.3 0.6,-0.4 0.1,-0.1 0.2,-0.2 0.3,-0.3 0.3,-0.2 0.5,-0.5 0.8,-0.8 0.2,-0.2 0.3,-0.4 0.5,-0.7 0.1,-0.2 0.2,-0.3 0.3,-0.5 0.2,-0.3 0.3,-0.6 0.5,-1 0.1,-0.1 0.1,-0.2 0.2,-0.4 0.2,-0.5 0.3,-1 0.5,-1.5 0,-0.6 0.1,-1.2 0.1,-1.8 z m -5.6,-3.8 c -1.3,0 -2.3,-1.7 -2.3,-3.9 0,-2.1 1,-3.9 2.3,-3.9 1.3,0 2.3,1.7 2.3,3.9 0,2.2 -1.1,3.9 -2.3,3.9 z"
         inkscape:connector-curvature="0" />
      <ellipse
         ry="3.9000001"
         rx="2.3"
         id="XMLID_22_"
         cy="157.5"
         cx="347.5"
         class="st9"
         style="fill:#ffffff" />
      <path
         id="XMLID_21_"
         d="m 341.9,158.1 v 0 c 0.4,-1.2 0.8,-2.2 1.4,-3.1 0.1,-0.1 0.2,-0.2 0.2,-0.3 0.2,-0.2 0.3,-0.4 0.5,-0.6 0.2,-0.3 0.5,-0.5 0.8,-0.7 0.1,-0.1 0.2,-0.1 0.3,-0.2 0.2,-0.2 0.5,-0.3 0.7,-0.4 0.1,0 0.2,-0.1 0.3,-0.1 0.3,-0.1 0.7,-0.2 1.1,-0.2 0.4,0 0.7,0.1 1.1,0.2 0.1,0 0.2,0.1 0.3,0.1 0.2,0.1 0.5,0.2 0.7,0.4 0.1,0.1 0.2,0.1 0.3,0.2 0.3,0.2 0.5,0.5 0.8,0.7 0.2,0.2 0.3,0.4 0.5,0.6 0.1,0.1 0.2,0.2 0.2,0.3 0.6,0.9 1.1,1.9 1.4,3.1 v 0 0 l -5.3,-24.5 z"
         class="st12"
         inkscape:connector-curvature="0"
         style="fill:#909393" />
      <path
         id="path3799"
         d="m 276.4,162.6 c 0,-0.5 0,-1 -0.1,-1.5 0,0 0,0 0,0 -0.1,-0.5 -0.1,-0.9 -0.2,-1.4 0,0 0,0 0,0 -0.1,-0.5 -0.2,-0.9 -0.4,-1.3 0,0 0,0 0,0 -0.1,-0.4 -0.3,-0.9 -0.5,-1.3 0,0 0,0 0,0 -0.2,-0.4 -0.4,-0.8 -0.6,-1.2 v 0 c -0.7,-1.2 -1.5,-2.3 -2.5,-3.2 -1.3,-1.2 -2.8,-2.2 -4.4,-2.9 0,0 0,0 0,0 -0.8,-0.3 -1.7,-0.6 -2.5,-0.8 0,0 0,0 -0.1,0 -0.9,-0.2 -1.8,-0.3 -2.7,-0.3 -0.9,0 -1.8,0.1 -2.7,0.3 0,0 -0.1,0 -0.1,0 -0.9,0.2 -1.7,0.4 -2.5,0.7 0,0 0,0 -0.1,0 -0.8,0.3 -1.6,0.7 -2.3,1.2 0,0 0,0 0,0 -0.7,0.5 -1.4,1 -2,1.6 v 0 h -0.1 c -1,1 -1.9,2.1 -2.6,3.3 0,0 0,0 0,0 -0.2,0.4 -0.4,0.8 -0.6,1.2 0,0 0,0.1 -0.1,0.1 -0.2,0.4 -0.3,0.7 -0.4,1.1 0,0.1 -0.1,0.1 -0.1,0.2 -0.1,0.4 -0.2,0.7 -0.3,1.1 0,0.1 -0.1,0.2 -0.1,0.3 -0.1,0.4 -0.1,0.7 -0.2,1.1 0,0.1 0,0.2 -0.1,0.3 0,0.5 -0.1,1 -0.1,1.5 0,0.9 0.1,1.8 0.3,2.7 0,0 0,0 0,0.1 0.2,0.9 0.4,1.7 0.8,2.6 0,0 0,0 0,0 0.7,1.6 1.7,3.1 2.9,4.4 1,1 2.1,1.9 3.3,2.6 0,0 0,0 0,0 0.4,0.2 0.8,0.4 1.2,0.6 0,0 0.1,0 0.1,0 0.4,0.2 0.8,0.3 1.1,0.4 0.1,0 0.1,0 0.2,0.1 0.4,0.1 0.7,0.2 1.1,0.3 0.1,0 0.2,0.1 0.3,0.1 0.4,0.1 0.7,0.1 1.1,0.2 0.1,0 0.2,0 0.3,0.1 0.5,0 1,0.1 1.5,0.1 2,0 3.8,-0.4 5.5,-1.1 0.8,-0.4 1.6,-0.8 2.4,-1.3 1.5,-1 2.8,-2.3 3.8,-3.8 0.5,-0.8 0.9,-1.6 1.3,-2.4 0.7,-1.7 1.1,-3.6 1.1,-5.5 0,0 0,-0.1 0,-0.1 v 0 c 0.1,-0.2 0.1,-0.2 0.1,-0.2 z m -14.1,-1.7 c -2.9,0 -5.3,-2.4 -5.3,-5.3 0,-2.9 2.4,-5.3 5.3,-5.3 2.9,0 5.3,2.4 5.3,5.3 0,2.9 -2.4,5.3 -5.3,5.3 z"
         inkscape:connector-curvature="0" />
      <circle
         r="5.3000002"
         id="XMLID_18_"
         cy="155.60001"
         cx="262.29999"
         class="st9"
         style="fill:#ffffff" />
      <path
         id="XMLID_17_"
         d="m 252.5,152.5 v 0 0 0 0 l 9.8,-29.9 c 0,0 0,-1.8 0,-3.5 0,-0.5 0,-1 0,-1.4 0,-0.2 0,-0.3 0,-0.4 0,-0.2 0,-0.4 0,-0.6 0,-0.1 0,-0.3 0,-0.4 0,-0.1 0,-0.3 0,-0.4 0,-0.1 0,-0.2 0,-0.2 0,-0.1 0,-0.1 0,-0.1 -5.4,-1.1 -11,-1.7 -16.7,-1.7 -1.9,0 -3.8,0.1 -5.7,0.2 -0.3,0 -0.5,0 -0.8,0.1 -9.8,0.7 -19.4,3.3 -28.3,7.4 -7.6,3.5 -14.8,8.1 -21.1,13.5 v 0 c 0,0 0,0 0,0 -1.7,1.5 -3.4,3 -5,4.6 -0.3,0.3 -0.6,0.6 -0.9,0.9 -1.5,1.5 -3,3.1 -4.4,4.7 -0.3,0.4 -0.6,0.7 -0.9,1.1 -1.4,1.7 -2.8,3.4 -4.1,5.1 -0.1,0.1 -0.2,0.3 -0.3,0.4 -1.2,1.7 -2.4,3.4 -3.6,5.2 -0.2,0.3 -0.5,0.7 -0.7,1 -0.9,1.5 -1.8,3 -2.6,4.5 h 44.3 0.1 z"
         class="st10"
         inkscape:connector-curvature="0"
         style="fill:#bbbcbd" />
      <path
         id="XMLID_16_"
         d="m 290,149.2 c 0.1,-1.2 0.2,-2.3 0.2,-3.5 0.1,-1.6 0.1,-3.1 0.2,-4.7 0,-1.2 0,-2.4 0,-3.7 0,-0.4 0,-0.7 0,-1.1 0,-3.2 -0.2,-6.3 -0.3,-9.5 v 0 0 c 0,0 0,0 0,0 0,0 0,0 0,0 0,0 -0.1,0 -0.1,-0.1 0,0 -0.1,0 -0.1,-0.1 -0.6,-0.3 -2,-1.1 -3.3,-1.9 0,0 -0.1,0 -0.1,0 -0.3,-0.2 -0.6,-0.4 -0.9,-0.5 0,0 0,0 0,0 -0.2,-0.1 -0.4,-0.3 -0.6,-0.4 0,0 -0.1,-0.1 -0.1,-0.1 -0.2,-0.1 -0.4,-0.2 -0.5,-0.3 -2,-1.1 -4.1,-2 -6.2,-2.9 -5,-2.1 -11.8,-4 -15.7,-4.9 v 2.7 0.6 0.2 c 0,1.8 0,3.5 0,3.5 l 9.7,29.8 v 0 c 1,0.9 1.9,2 2.5,3.2 v 0 c 0.2,0.4 0.4,0.8 0.6,1.2 0,0 0,0 0,0 0.2,0.4 0.4,0.8 0.5,1.3 0,0 0,0 0,0 0.1,0.4 0.3,0.9 0.4,1.3 0,0 0,0 0,0 0.1,0.5 0.2,0.9 0.2,1.4 0,0 0,0 0,0 0.1,0.5 0.1,1 0.1,1.5 v 0 0.1 h 11.8 c 0.8,-4.3 1.4,-8.7 1.7,-13.1 0,0.2 0,0.1 0,0 z"
         class="st13"
         inkscape:connector-curvature="0"
         style="fill:#e2dddb" />
      <path
         id="XMLID_15_"
         d="m 305.5,138.6 c 0,0 0,0 0,0 0,0 0,0 0,0 z"
         class="st14"
         inkscape:connector-curvature="0"
         style="fill:#fbb040" />
      <path
         id="XMLID_14_"
         d="m 276.5,205.2 c 2.7,-2.7 5.2,-5.2 7.6,-7.7 1.4,-1.5 2.8,-3 4.2,-4.4 9.9,-10.7 17.1,-20.8 21.5,-33.7 0.1,-0.3 0.2,-0.7 0.3,-1.2 0,-0.1 0,-0.1 0,-0.2 0.1,-0.5 0.2,-1 0.3,-1.6 0,-0.4 0.1,-0.8 0.1,-1.2 -1.1,-5.6 -3.2,-11.1 -5.1,-16.5 0,0 0,0 0,0.1 0,0 0,0 -0.1,-0.1 -0.4,-0.3 -0.7,-0.7 -1.1,-1 -1.1,-1 -2.2,-2 -3.4,-3 -3.5,-2.9 -7.1,-5.6 -10.9,-7.9 v 0 c 0.2,3.2 0.3,6.3 0.3,9.5 0,0.4 0,0.7 0,1.1 0,1.2 0,2.4 0,3.7 0,1.6 -0.1,3.2 -0.2,4.7 -0.1,1.2 -0.1,2.3 -0.2,3.5 0,0.1 0,0.2 0,0.4 -0.4,4.4 -0.9,8.8 -1.7,13.1 l -1.4,6.6 c -2.9,11.8 -8.8,22.4 -13.6,33.4 -1.3,2.9 -2.5,5.9 -3.6,8.9 -0.1,0.3 -0.2,0.6 -0.3,0.9 1.5,-1.6 2.9,-3 3.9,-4 1.3,-1.3 2.3,-2.4 3.4,-3.4 z"
         class="st14"
         inkscape:connector-curvature="0"
         style="fill:#cccccc" />
      <path
         id="XMLID_13_"
         d="m 252.6,152.5 v 0 c 0.6,-0.6 1.3,-1.1 2,-1.6 0,0 0,0 0,0 0.7,-0.5 1.5,-0.9 2.3,-1.2 0,0 0,0 0.1,0 0.8,-0.3 1.6,-0.6 2.5,-0.7 0,0 0.1,0 0.1,0 0.9,-0.2 1.8,-0.3 2.7,-0.3 0.9,0 1.8,0.1 2.7,0.3 0,0 0,0 0.1,0 0.9,0.2 1.7,0.4 2.5,0.8 0,0 0,0 0,0 1.6,0.7 3.1,1.6 4.4,2.9 v 0 l -9.7,-29.8 z"
         class="st12"
         inkscape:connector-curvature="0"
         style="fill:#909393" />
      <path
         id="XMLID_12_"
         d="m 249.2,168.1 c -0.3,-0.8 -0.6,-1.7 -0.8,-2.6 0,0 0,0 0,-0.1 -0.2,-0.9 -0.3,-1.8 -0.3,-2.7 0,-0.5 0,-1 0.1,-1.5 0,-0.1 0,-0.2 0.1,-0.3 0,-0.4 0.1,-0.7 0.2,-1.1 0,-0.1 0.1,-0.2 0.1,-0.3 0.1,-0.4 0.2,-0.7 0.3,-1.1 0,-0.1 0.1,-0.1 0.1,-0.2 0.1,-0.4 0.3,-0.8 0.4,-1.1 0,0 0,-0.1 0.1,-0.1 0.2,-0.4 0.4,-0.8 0.6,-1.2 0,0 0,0 0,0 0.7,-1.2 1.6,-2.3 2.6,-3.3 v 0 l -41,10.1 h -0.1 l 40.6,9.9 c -1.3,-1.2 -2.3,-2.7 -3,-4.4 0,0 0,0 0,0 z"
         class="st11"
         inkscape:connector-curvature="0"
         style="fill:#676a6a" />
      <path
         id="XMLID_11_"
         d="m 341.4,160.4 c 0,-0.2 0.1,-0.4 0.1,-0.5 0.1,-0.6 0.2,-1.2 0.4,-1.7 0,-0.1 0,-0.1 0,-0.2 l 5.3,-24.5 v -14 c -4.4,-3.6 -9,-5.6 -13.9,-5.6 -6.2,0 -11.9,3.4 -16.2,7.6 -4.7,4.6 -8.3,10.4 -11.3,16.2 -0.1,0.3 -0.3,0.5 -0.4,0.8 0.9,0.8 1.8,1.6 2.7,2.4 2,1.8 4,3.7 5.9,5.6 0.9,0.9 1.8,1.8 2.7,2.7 0.9,1 1.9,1.9 2.8,2.9 1.2,1.3 2.4,2.5 3.5,3.8 0.5,0.5 1,1.1 1.5,1.6 1.4,1.6 2.8,3.1 4.2,4.7 v 0 c 0.2,0.2 0.4,0.4 0.5,0.5 h 12.1 c 0,-0.1 0,-0.2 0,-0.3 0,-0.6 0,-1.3 0.1,-2 z"
         class="st13"
         inkscape:connector-curvature="0"
         style="fill:#e2dddb" />
      <path
         id="XMLID_10_"
         d="m 305.5,138.6 c 0,0 0,0 0,0 v 0 c 0,0 0,0 0,0 0,0.1 0,0.1 0,0 0,0.1 0,0.1 0,0 z"
         class="st13"
         inkscape:connector-curvature="0"
         style="fill:#e2dddb" />
      <path
         id="XMLID_9_"
         d="m 159.9,178.1 c 0,-0.1 0.1,-0.2 0.1,-0.3 0.8,-2 1.6,-4 2.5,-6 0.2,-0.6 0.5,-1.1 0.8,-1.6 0.7,-1.6 1.5,-3.1 2.3,-4.6 0.3,-0.6 0.6,-1.2 1,-1.9 0.2,-0.3 0.4,-0.7 0.6,-1 0.9,-1.5 1.7,-3 2.6,-4.5 0.2,-0.3 0.5,-0.7 0.7,-1 1.1,-1.8 2.3,-3.5 3.6,-5.2 0.1,-0.1 0.2,-0.3 0.3,-0.4 1.3,-1.8 2.7,-3.5 4.1,-5.1 0.3,-0.4 0.6,-0.7 0.9,-1.1 1.4,-1.6 2.9,-3.2 4.4,-4.7 0.3,-0.3 0.6,-0.6 0.9,-0.9 1.6,-1.6 3.2,-3.1 5,-4.6 0,0 0,0 0,0 6.7,-22.6 27.4,-39.1 51.8,-39.1 9.8,0 19.6,2.8 28,8 8.6,5.3 15.6,13 20.1,21.9 0,0 0,0.1 0.1,0.1 0.1,0.2 0.2,0.4 0.4,0.7 v 0 0 c 0,0 0,0 0,0 0,0 0,0 0,0 3.8,2.3 7.4,5 10.9,7.9 1.2,1 2.3,2 3.4,3 0.4,0.3 0.7,0.7 1.1,1 0,0 0,0 0,0 0,0 0,0 0,0 0.1,-0.3 0.2,-0.5 0.4,-0.8 3.4,-21.7 13,-37.4 24.3,-37.4 8.5,0 16.1,8.9 20.7,22.6 v 0.1 c 0,0 0,0 0,0 1.3,1.4 2.6,3 3.9,4.7 v 0 c 0,0 0,0.1 0.1,0.1 v 0 0 c 0.1,0.2 0.1,0.4 0.2,0.6 v 0 l -0.2,-0.7 C 340.8,86.3 301.5,56.3 255.1,56.3 c -58.2,0 -105.3,47.1 -105.3,105.3 0,11.5 1.8,22.5 5.2,32.8 0,0 0,0 0,-0.1 0.7,-3.1 1.5,-6.2 2.4,-9.2 0.8,-2.4 1.6,-4.7 2.5,-7 z"
         class="st3"
         inkscape:connector-curvature="0"
         style="fill:#525353" />
      <path
         id="XMLID_8_"
         d="m 356.5,162.8 -3.7,4.1 v 0 c 0,0 0,0 0,0 -0.1,0.5 -0.3,1 -0.5,1.5 0,0.1 -0.1,0.2 -0.2,0.4 -0.1,0.3 -0.3,0.7 -0.5,1 -0.1,0.2 -0.2,0.3 -0.3,0.5 -0.2,0.2 -0.3,0.5 -0.5,0.7 -0.2,0.3 -0.5,0.6 -0.8,0.8 -0.1,0.1 -0.2,0.2 -0.3,0.3 -0.2,0.2 -0.4,0.3 -0.6,0.4 -0.1,0 -0.2,0.1 -0.3,0.1 -0.5,0.3 -1.1,0.4 -1.7,0.4 -3.3,0 -6,-4.6 -6,-10.4 v 0 0 H 329 v 0 c 0,0 0,0 0,0 2.3,2.6 4.5,5.2 6.6,7.9 0,0 0.1,0.1 0.1,0.1 2.1,2.6 4.2,5.2 6.3,7.8 0.1,0.1 0.2,0.3 0.3,0.4 2,2.5 3.9,5 5.8,7.5 0.2,0.2 0.4,0.5 0.6,0.7 2,2.7 4,5.4 6,8 0,0 0,0 0,0.1 3.5,-10.3 5.4,-21.2 5.5,-32.6 v 0 z"
         class="st9"
         inkscape:connector-curvature="0"
         style="fill:#ffffff" />
      <path
         id="XMLID_7_"
         d="m 239.1,114.1 c 0.3,0 0.5,0 0.8,-0.1 1.9,-0.1 3.8,-0.2 5.7,-0.2 5.7,0 11.3,0.6 16.7,1.7 0,0 0,0 0,0.1 0,0 0,0.1 0,0.2 0,0.1 0,0.2 0,0.4 0,0.1 0,0.2 0,0.4 0,0.2 0,0.4 0,0.6 0,0.1 0,0.3 0,0.4 0,0.2 0,0.4 0,0.6 v -2.7 c 3.8,0.9 10.6,2.8 15.7,4.9 2.1,0.9 4.2,1.9 6.2,2.9 0.1,0 0.3,0.1 0.5,0.3 0,0 0.1,0 0.1,0.1 0.2,0.1 0.4,0.2 0.6,0.4 0,0 0,0 0,0 0.3,0.2 0.6,0.3 0.9,0.5 0,0 0.1,0 0.1,0 1.3,0.7 2.7,1.6 3.3,1.9 0.1,0 0.1,0.1 0.1,0.1 0,0 0.1,0.1 0.1,0.1 v 0 c -0.1,-0.2 -0.2,-0.4 -0.4,-0.7 0,0 0,-0.1 -0.1,-0.1 -4.5,-9 -11.6,-16.7 -20.1,-21.9 -8.4,-5.1 -18.2,-8 -28,-8 -24.4,0 -45.1,16.5 -51.8,39.1 6.4,-5.5 13.5,-10.1 21.1,-13.5 9.1,-4.2 18.8,-6.7 28.5,-7.5 z"
         inkscape:connector-curvature="0" />
      <line
         y2="118.9"
         y1="118.3"
         x2="262.39999"
         x1="262.39999"
         id="XMLID_6_"
         class="st8"
         style="fill:none" />
      <path
         id="XMLID_5_"
         d="m 317.2,121.6 c 4.3,-4.2 10,-7.6 16.2,-7.6 4.9,0 9.6,2 13.9,5.6 0,0 0,0 0,0 v 0 0 c 0.4,0.3 0.8,0.7 1.2,1 0.2,0.2 0.5,0.4 0.7,0.6 0.6,0.6 1.2,1.2 1.8,1.9 v 0 c 0,0 0,0 0,0 0,0 0,0 0,0 v 0 -0.1 c -4.7,-13.7 -12.2,-22.6 -20.7,-22.6 -11.3,0 -20.9,15.6 -24.3,37.4 v 0 c 2.8,-5.8 6.5,-11.6 11.2,-16.2 z"
         inkscape:connector-curvature="0" />
      <path
         id="XMLID_4_"
         d="m 217.4,259.9 c 1,0.4 1.9,0.7 2.9,1 10.9,3.8 22.6,5.9 34.8,5.9 13.9,0 27.2,-2.7 39.3,-7.6 0.6,-0.3 1.3,-0.5 1.9,-0.8 1,-0.4 2.1,-0.9 3.1,-1.4 0.9,-0.4 1.8,-0.8 2.7,-1.3 -0.2,0 -0.4,0.1 -0.6,0.1 v 0 c -3.8,0.4 -7.5,0.5 -11.2,-0.1 -21.7,-3.1 -26.5,-13.6 -25.8,-24.4 -1.6,-0.9 -3.1,-1.9 -4.8,-3.1 -16.7,-12.1 -26.6,-25 -26.6,-25 0,0 12.9,9.9 32.1,17.4 0.4,0.2 0.8,0.3 1.2,0.5 0.9,-3.1 2,-6.1 2.9,-8.7 v 0 c 0.1,-0.3 0.2,-0.6 0.3,-0.9 1.1,-3 2.3,-6 3.6,-8.9 4.8,-11 10.7,-21.7 13.6,-33.4 l 1.4,-6.6 h -11.8 v 0 0 c 0,0 0,0 0,0 v 0 0 c 0,0 0,0.1 0,0.1 0,2 -0.4,3.8 -1.1,5.5 -0.4,0.8 -0.8,1.7 -1.3,2.4 -1,1.5 -2.3,2.8 -3.8,3.8 -0.8,0.5 -1.6,0.9 -2.4,1.3 -1.7,0.7 -3.6,1.1 -5.5,1.1 -0.5,0 -1,0 -1.5,-0.1 -0.1,0 -0.2,0 -0.3,-0.1 -0.4,0 -0.7,-0.1 -1.1,-0.2 -0.1,0 -0.2,-0.1 -0.3,-0.1 -0.4,-0.1 -0.7,-0.2 -1.1,-0.3 -0.1,0 -0.1,0 -0.2,-0.1 -0.4,-0.1 -0.8,-0.3 -1.1,-0.4 0,0 -0.1,0 -0.1,0 -0.4,-0.2 -0.8,-0.4 -1.2,-0.6 0,0 0,0 0,0 -1.2,-0.7 -2.3,-1.5 -3.3,-2.6 l -40.6,-9.9 h -44.3 c -0.2,0.3 -0.4,0.7 -0.6,1 -0.3,0.6 -0.7,1.2 -1,1.9 -0.8,1.5 -1.6,3.1 -2.3,4.6 -0.3,0.5 -0.5,1.1 -0.8,1.6 -0.9,2 -1.7,4 -2.5,6 0,0.1 -0.1,0.2 -0.1,0.3 -0.9,2.3 -1.7,4.7 -2.4,7.1 -0.9,3 -1.7,6.1 -2.4,9.2 7,21.3 20.5,39.6 38.3,52.4 0.5,0.4 1.1,0.7 1.6,1.1 3,2.1 6.1,4.1 9.3,5.8 4.2,2.6 8.6,4.7 13.1,6.5 z"
         class="st9"
         inkscape:connector-curvature="0"
         style="fill:#ffffff" />
      <path
         id="XMLID_3_"
         d="m 290.1,227.1 c -0.2,1.1 -0.3,2.2 -0.3,3.3 -0.1,1.9 0.1,3.8 0.4,5.5 0.2,1.2 0.4,2.3 0.7,3.4 0.5,1.6 1,3.1 1.7,4.5 0.7,1.4 1.4,2.7 2.1,3.8 0.2,0.4 0.5,0.8 0.7,1.1 0.4,0.5 0.7,1 1.1,1.5 0.5,0.6 1,1.2 1.4,1.7 1.9,2.2 3.5,3.4 3.5,3.4 0,0 0,0 0,0.1 0,0.1 0,0.2 0.1,0.3 v 0 c 0.2,0 0.4,-0.1 0.6,-0.1 4.7,-0.6 9.4,-1.9 14.1,-3.5 2.4,-0.9 4.8,-1.8 7.1,-2.8 0.7,-0.3 1.4,-0.7 2.1,-1 24.1,-11.7 44.3,-32.3 44.3,-32.3 -30.2,14.9 -59.9,14.3 -79.6,11.1 z"
         class="st15"
         inkscape:connector-curvature="0"
         style="fill:#666666" />
      <path
         id="XMLID_2_"
         d="m 348.3,186.5 c -1.9,-2.5 -3.9,-5 -5.8,-7.5 -0.1,-0.1 -0.2,-0.3 -0.3,-0.4 -2.1,-2.6 -4.2,-5.2 -6.3,-7.8 0,0 -0.1,-0.1 -0.1,-0.1 -2.2,-2.7 -4.4,-5.3 -6.6,-7.9 -0.1,-0.2 -0.3,-0.3 -0.4,-0.5 -1.4,-1.6 -2.8,-3.1 -4.2,-4.7 -0.5,-0.5 -1,-1.1 -1.5,-1.6 -1.2,-1.3 -2.3,-2.5 -3.5,-3.8 -0.9,-1 -1.9,-1.9 -2.8,-2.9 -0.9,-0.9 -1.8,-1.8 -2.7,-2.7 -1.9,-1.9 -3.9,-3.8 -5.9,-5.6 -0.9,-0.8 -1.8,-1.6 -2.7,-2.4 0,0 0,0 0,0 1.9,5.5 4.1,11 5.2,16.7 0.3,1.5 0.5,2.9 0.7,4.3 2.7,19.7 -3.7,32.6 -13.7,49.6 -0.7,1.2 -1.5,2.5 -2.2,3.7 -2.3,3.8 -3.8,7.5 -4.6,10.9 -0.3,1.1 -0.5,2.2 -0.7,3.3 19.7,3.2 49.3,3.8 79.6,-11.1 0,0 -5.9,-8.7 -14.9,-20.7 -2,-2.7 -4,-5.4 -6,-8 -0.2,-0.3 -0.4,-0.6 -0.6,-0.8 z"
         class="st1"
         inkscape:connector-curvature="0"
         style="fill:#333333" />
      <path
         id="XMLID_1_"
         d="m 301.4,255.5 c 0,0 -1.5,-1.2 -3.5,-3.4 -0.5,-0.5 -0.9,-1.1 -1.4,-1.7 -0.4,-0.5 -0.7,-1 -1.1,-1.5 -0.2,-0.4 -0.5,-0.7 -0.7,-1.1 -0.7,-1.2 -1.4,-2.4 -2.1,-3.8 -0.6,-1.4 -1.2,-2.9 -1.7,-4.5 -0.3,-1.1 -0.6,-2.2 -0.7,-3.4 -0.3,-1.7 -0.4,-3.6 -0.4,-5.5 0,-1.1 0.1,-2.2 0.3,-3.3 0.2,-1.1 0.4,-2.2 0.7,-3.3 0.9,-3.4 2.3,-7 4.6,-10.9 0,0 0,0 0,0 0.7,-1.3 1.5,-2.5 2.2,-3.7 10,-17 16.4,-29.8 13.7,-49.6 -0.2,-1.4 -0.4,-2.9 -0.7,-4.3 -0.1,1 -0.3,1.9 -0.5,2.6 0,0.1 0,0.1 0,0.2 -0.1,0.5 -0.2,0.9 -0.3,1.2 -4.4,12.9 -11.6,23 -21.5,33.7 -1.3,1.5 -2.7,2.9 -4.2,4.4 -2.4,2.5 -5,5.1 -7.6,7.7 -1.1,1.1 -2.2,2.1 -3.3,3.2 -1,1 -2.4,2.4 -3.9,4 v 0 c -0.9,2.6 -2,5.6 -2.9,8.7 -0.4,-0.2 -0.8,-0.3 -1.2,-0.5 -19.2,-7.4 -32.1,-17.4 -32.1,-17.4 0,0 9.9,12.9 26.6,25 1.6,1.2 3.2,2.2 4.8,3.1 -0.7,10.9 4.1,21.3 25.8,24.4 3.7,0.5 7.4,0.5 11.2,0.1 0,-0.2 -0.1,-0.3 -0.1,-0.4 0,0 0,0 0,0 z"
         inkscape:connector-curvature="0" />
    </g>
  </g>
</g>
</g>
    </g>
  </g>
  <style
     id="style3681"
     type="text/css">
	.st0{fill:#27245D;}
	.st1{fill:#E2066F;}
	.st2{fill:#A0DBE8;}
	.st3{fill:#525353;}
	.st4{fill:#AA9678;}
	.st5{fill:#C0B098;}
	.st6{fill:#786453;}
	.st7{fill:#8B7460;}
	.st8{fill:none;}
	.st9{fill:#FFFFFF;}
	.st10{fill:#BBBCBD;}
	.st11{fill:#676A6A;}
	.st12{fill:#909393;}
	.st13{fill:#E2DDDB;}
	.st14{fill:#FBB040;}
	.st15{fill:#9F2255;}
</style>
</svg>
