<?xml version="1.0" encoding="UTF-8" standalone="no"?>
<!-- Created with Inkscape (http://www.inkscape.org/) -->

<svg
   xmlns:dc="http://purl.org/dc/elements/1.1/"
   xmlns:cc="http://creativecommons.org/ns#"
   xmlns:rdf="http://www.w3.org/1999/02/22-rdf-syntax-ns#"
   xmlns:svg="http://www.w3.org/2000/svg"
   xmlns="http://www.w3.org/2000/svg"
   xmlns:sodipodi="http://sodipodi.sourceforge.net/DTD/sodipodi-0.dtd"
   xmlns:inkscape="http://www.inkscape.org/namespaces/inkscape"
   width="258"
   height="116"
   viewBox="0 0 68.262498 30.691668"
   version="1.1"
   id="svg2529"
   inkscape:version="0.92.4 (5da689c313, 2019-01-14)"
   sodipodi:docname="logo-tech-wordpress.svg">
  <defs
     id="defs2523">
	
</defs>
  <sodipodi:namedview
     id="base"
     pagecolor="#ffffff"
     bordercolor="#666666"
     borderopacity="1.0"
     inkscape:pageopacity="0.0"
     inkscape:pageshadow="2"
     inkscape:zoom="1.08"
     inkscape:cx="-53.340292"
     inkscape:cy="115.55556"
     inkscape:document-units="mm"
     inkscape:current-layer="g3488"
     showgrid="false"
     units="px"
     inkscape:window-width="1920"
     inkscape:window-height="1001"
     inkscape:window-x="-9"
     inkscape:window-y="-9"
     inkscape:window-maximized="1" />
  <metadata
     id="metadata2526">
    <rdf:RDF>
      <cc:Work
         rdf:about="">
        <dc:format>image/svg+xml</dc:format>
        <dc:type
           rdf:resource="http://purl.org/dc/dcmitype/StillImage" />
        <dc:title></dc:title>
      </cc:Work>
    </rdf:RDF>
  </metadata>
  <g
     inkscape:label="Capa 1"
     inkscape:groupmode="layer"
     id="layer1"
     transform="translate(0,-266.3083)">
    <g
       id="g3515"
       transform="matrix(0.26458333,0,0,0.26458333,-71.437499,217.83016)">
      <g
         id="Layer_1">
</g>
      <g
         style="fill:#000000"
         id="g3488">
		<path
   style="fill:#000000;stroke-width:0.56913161"
   inkscape:connector-curvature="0"
   d="m 385.23797,269.36752 h -12.33506 v 1.25873 c 3.85829,0 4.47862,0.79542 4.47862,5.50212 v 8.48513 c 0,4.70614 -0.61974,5.56799 -4.47862,5.56799 -2.96235,-0.39744 -4.96142,-1.92242 -7.71776,-4.83899 l -3.1695,-3.314 c 4.27204,-0.73012 6.54558,-3.31457 6.54558,-6.23169 0,-3.64502 -3.23797,-6.42929 -9.30251,-6.42929 h -12.1279 v 1.25873 c 3.8583,0 4.47862,0.79542 4.47862,5.50212 v 8.48513 c 0,4.70614 -0.62032,5.56799 -4.47862,5.56799 v 1.25929 h 13.71266 v -1.25929 c -3.85831,0 -4.47862,-0.86185 -4.47862,-5.56799 v -2.38573 h 1.171 l 7.64929,9.21301 h 20.05282 c 9.85378,0 14.12639,-5.03715 14.12639,-11.07012 0,-6.03186 -4.27203,-11.00314 -14.12639,-11.00314 z m -28.87253,10.80386 v -8.81501 h 2.82481 c 3.10045,0 4.4792,2.05471 4.4792,4.44099 0,2.32042 -1.37875,4.37458 -4.4792,4.37458 h -2.82481 z m 29.07969,9.21468 h -0.4828 c -2.48012,0 -2.82481,-0.59615 -2.82481,-3.64557 v -14.38412 c 0,0 3.03198,0 3.30761,0 7.16649,0 8.47503,5.03715 8.47503,8.94842 0,4.043 -1.30911,9.08127 -8.47503,9.08127 z"
   id="path3462" />

		<path
   style="fill:#000000;stroke-width:0.56913161"
   inkscape:connector-curvature="0"
   d="m 308.74977,282.62521 4.75484,-13.52339 c 1.37875,-3.91072 0.75843,-5.03716 -3.65172,-5.03716 v -1.32627 h 12.95481 v 1.32627 c -4.34109,0 -5.37458,0.99415 -7.09744,5.83314 l -7.85644,22.66997 h -0.89537 l -7.02955,-20.7481 -7.16591,20.7481 h -0.89596 l -7.6487,-22.66997 c -1.65381,-4.83899 -2.75634,-5.83314 -6.75333,-5.83314 v -1.32627 h 15.29799 v 1.32627 c -4.06604,0 -5.16916,0.92772 -3.72136,5.03716 l 4.61673,13.52339 6.95992,-19.88682 h 1.30969 z"
   id="path3464" />

		<path
   style="fill:#000000;stroke-width:0.56913161"
   inkscape:connector-curvature="0"
   d="m 332.17809,292.30208 c -7.57964,0 -13.7817,-5.36873 -13.7817,-11.93198 0,-6.49572 6.20264,-11.86556 13.7817,-11.86556 7.58024,0 13.78172,5.36984 13.78172,11.86556 0,6.56325 -6.20148,11.93198 -13.78172,11.93198 z m 0,-21.74114 c -6.33899,0 -8.54466,5.50101 -8.54466,9.80972 0,4.37569 2.20567,9.81083 8.54466,9.81083 6.40923,0 8.6143,-5.43514 8.6143,-9.81083 0,-4.30871 -2.20507,-9.80972 -8.6143,-9.80972 z"
   id="path3466" />

		<path
   style="fill:#000000;stroke-width:0.56913161"
   inkscape:connector-curvature="0"
   d="m 416.38405,290.11507 v 1.32571 h -15.78019 v -1.32571 c 4.61729,0 5.44421,-1.12644 5.44421,-7.75612 V 271.7538 c 0,-6.62968 -0.82692,-7.68969 -5.44421,-7.68969 v -1.32627 h 14.26392 c 7.09744,0 11.02653,3.51328 11.02653,8.22053 0,4.57386 -3.92909,8.153 -11.02653,8.153 h -3.92793 v 3.24702 c 0,6.63024 0.82689,7.75668 5.4442,7.75668 z m -1.51627,-24.99095 h -3.92793 v 11.53454 h 3.92793 c 3.85945,0 5.65079,-2.585 5.65079,-5.70029 0,-3.18171 -1.79134,-5.83425 -5.65079,-5.83425 z"
   id="path3468" />

		<path
   style="fill:#000000;stroke-width:0.56913161"
   inkscape:connector-curvature="0"
   d="m 473.23375,285.21021 -0.34469,1.19286 c -0.61973,2.18756 -1.37875,2.98299 -6.27111,2.98299 h -0.965 c -3.58268,0 -4.203,-0.79543 -4.203,-5.50157 v -3.04885 c 5.37517,0 5.7889,0.46329 5.7889,3.91071 h 1.30913 v -9.87726 h -1.30913 c 0,3.44685 -0.41373,3.91071 -5.7889,3.91071 v -7.42343 h 3.78925 c 4.89353,0 5.65079,0.79542 6.27111,2.983 l 0.34528,1.25872 h 1.10195 l -0.48163,-6.23057 h -20.25999 v 1.25873 c 3.8583,0 4.4792,0.79542 4.4792,5.50212 v 8.48513 c 0,4.30535 -0.5269,5.38993 -3.56931,5.54454 -2.89156,-0.42478 -4.8767,-1.94196 -7.593,-4.81554 l -3.17009,-3.314 c 4.27261,-0.73012 6.54675,-3.31457 6.54675,-6.23169 0,-3.64502 -3.23855,-6.42929 -9.30251,-6.42929 h -12.1279 v 1.25873 c 3.8583,0 4.47862,0.79542 4.47862,5.50212 v 8.48513 c 0,4.70614 -0.61975,5.56799 -4.47862,5.56799 v 1.25929 h 13.71323 v -1.25929 c -3.8583,0 -4.4792,-0.86185 -4.4792,-5.56799 v -2.38573 h 1.17159 l 7.6487,9.21301 h 28.32127 l 0.41375,-6.23002 h -1.03465 z m -36.52124,-5.03883 v -8.81501 h 2.82482 c 3.10102,0 4.47979,2.05471 4.47979,4.44099 0,2.32042 -1.37877,4.37458 -4.47979,4.37458 h -2.82482 z"
   id="path3470" />

		<path
   style="fill:#000000;stroke-width:0.56913161"
   inkscape:connector-curvature="0"
   d="m 487.22204,292.30208 c -2.75634,0 -5.16858,-1.39159 -6.20205,-2.254 -0.3447,0.33213 -0.96443,1.32627 -1.10196,2.254 h -1.3097 v -9.14658 h 1.37817 c 0.55185,4.37456 3.72077,6.95957 7.78681,6.95957 2.20508,0 3.99698,-1.19287 3.99698,-3.18116 0,-1.72315 -1.58474,-3.04942 -4.41013,-4.3087 l -3.92795,-1.78957 c -2.75692,-1.26041 -4.82388,-3.44798 -4.82388,-6.36399 0,-3.18171 3.10103,-5.899 7.37366,-5.899 2.27412,0 4.20298,0.79542 5.37515,1.72314 0.3441,-0.26514 0.68879,-0.9947 0.89596,-1.79068 h 1.30911 v 7.82254 h -1.44723 c -0.48279,-3.11584 -2.27412,-5.70084 -5.92584,-5.70084 -1.92944,0 -3.72193,1.06057 -3.72193,2.7184 0,1.72315 1.44723,2.65087 4.75541,4.10943 l 3.78925,1.78958 c 3.30818,1.52443 4.61673,3.97826 4.61673,5.96654 0,4.1753 -3.78983,7.09132 -8.40656,7.09132 z"
   id="path3472" />

		<path
   style="fill:#000000;stroke-width:0.56913161"
   inkscape:connector-curvature="0"
   d="m 508.44588,292.30208 c -2.75693,0 -5.16916,-1.39159 -6.20206,-2.254 -0.34469,0.33213 -0.96443,1.32627 -1.10196,2.254 h -1.3097 v -9.14658 h 1.37817 c 0.55128,4.37456 3.72078,6.95957 7.78682,6.95957 2.20507,0 3.99699,-1.19287 3.99699,-3.18116 0,-1.72315 -1.58476,-3.04942 -4.41074,-4.3087 l -3.92792,-1.78957 c -2.75635,-1.26041 -4.8239,-3.44798 -4.8239,-6.36399 0,-3.18171 3.10103,-5.899 7.37365,-5.899 2.27413,0 4.20299,0.79542 5.37516,1.72314 0.3441,-0.26514 0.68879,-0.9947 0.89479,-1.79068 h 1.30971 v 7.82254 h -1.44665 c -0.48279,-3.11584 -2.27413,-5.70084 -5.92585,-5.70084 -1.92944,0 -3.72194,1.06057 -3.72194,2.7184 0,1.72315 1.44723,2.65087 4.75543,4.10943 l 3.78923,1.78958 c 3.30821,1.52443 4.61673,3.97826 4.61673,5.96654 0,4.1753 -3.78981,7.09132 -8.40596,7.09132 z"
   id="path3474" />

		<g
   style="fill:#000000"
   id="g3486"
   transform="matrix(0.58028252,0,0,0.55819495,361.46509,186.11111)">
			<path
   style="fill:#000000"
   inkscape:connector-curvature="0"
   d="m 8.708,61.26 c 0,20.802 12.089,38.779 29.619,47.298 L 13.258,39.872 c -2.916,6.536 -4.55,13.769 -4.55,21.388 z"
   id="path3476" />

			<path
   style="fill:#000000"
   inkscape:connector-curvature="0"
   d="m 96.74,58.608 c 0,-6.495 -2.333,-10.993 -4.334,-14.494 -2.664,-4.329 -5.161,-7.995 -5.161,-12.324 0,-4.831 3.664,-9.328 8.825,-9.328 0.233,0 0.454,0.029 0.681,0.042 C 87.401,13.938 74.944,8.708 61.262,8.708 c -18.36,0 -34.513,9.42 -43.91,23.688 1.233,0.037 2.395,0.063 3.382,0.063 5.497,0 14.006,-0.667 14.006,-0.667 2.833,-0.167 3.167,3.994 0.337,4.329 0,0 -2.847,0.335 -6.015,0.501 L 48.2,93.547 59.701,59.054 51.513,36.62 c -2.83,-0.166 -5.511,-0.501 -5.511,-0.501 -2.832,-0.166 -2.5,-4.496 0.332,-4.329 0,0 8.679,0.667 13.843,0.667 5.496,0 14.006,-0.667 14.006,-0.667 2.835,-0.167 3.168,3.994 0.337,4.329 0,0 -2.853,0.335 -6.015,0.501 l 18.992,56.494 5.242,-17.517 c 2.272,-7.269 4.001,-12.49 4.001,-16.989 z"
   id="path3478" />

			<path
   style="fill:#000000"
   inkscape:connector-curvature="0"
   d="m 62.184,65.857 -15.768,45.819 c 4.708,1.384 9.687,2.141 14.846,2.141 6.12,0 11.989,-1.058 17.452,-2.979 -0.141,-0.225 -0.269,-0.464 -0.374,-0.724 z"
   id="path3480" />

			<path
   style="fill:#000000"
   inkscape:connector-curvature="0"
   d="m 107.376,36.046 c 0.226,1.674 0.354,3.471 0.354,5.404 0,5.333 -0.996,11.328 -3.996,18.824 l -16.053,46.413 c 15.624,-9.111 26.133,-26.038 26.133,-45.426 0.001,-9.137 -2.333,-17.729 -6.438,-25.215 z"
   id="path3482" />

			<path
   style="fill:#000000"
   inkscape:connector-curvature="0"
   d="M 61.262,0 C 27.483,0 0,27.481 0,61.26 c 0,33.783 27.483,61.263 61.262,61.263 33.778,0 61.265,-27.48 61.265,-61.263 C 122.526,27.481 95.04,0 61.262,0 Z m 0,119.715 c -32.23,0 -58.453,-26.223 -58.453,-58.455 0,-32.23 26.222,-58.451 58.453,-58.451 32.229,0 58.45,26.221 58.45,58.451 0,32.232 -26.221,58.455 -58.45,58.455 z"
   id="path3484" />

		</g>

	</g>
    </g>
  </g>
</svg>
