<?xml version="1.0" encoding="UTF-8" standalone="no"?>
<!-- Created with Inkscape (http://www.inkscape.org/) -->

<svg
   xmlns:dc="http://purl.org/dc/elements/1.1/"
   xmlns:cc="http://creativecommons.org/ns#"
   xmlns:rdf="http://www.w3.org/1999/02/22-rdf-syntax-ns#"
   xmlns:svg="http://www.w3.org/2000/svg"
   xmlns="http://www.w3.org/2000/svg"
   xmlns:sodipodi="http://sodipodi.sourceforge.net/DTD/sodipodi-0.dtd"
   xmlns:inkscape="http://www.inkscape.org/namespaces/inkscape"
   width="128"
   height="128"
   viewBox="0 0 33.866666 33.866668"
   version="1.1"
   id="svg8"
   inkscape:version="0.92.4 (5da689c313, 2019-01-14)"
   sodipodi:docname="services-botton-10-google-shopping.svg">
  <defs
     id="defs2" />
  <sodipodi:namedview
     id="base"
     pagecolor="#ffffff"
     bordercolor="#666666"
     borderopacity="1.0"
     inkscape:pageopacity="0.0"
     inkscape:pageshadow="2"
     inkscape:zoom="1.63"
     inkscape:cx="-31.096343"
     inkscape:cy="91.336241"
     inkscape:document-units="mm"
     inkscape:current-layer="layer2"
     showgrid="false"
     units="px"
     inkscape:window-width="1920"
     inkscape:window-height="1001"
     inkscape:window-x="-9"
     inkscape:window-y="-9"
     inkscape:window-maximized="1" />
  <metadata
     id="metadata5">
    <rdf:RDF>
      <cc:Work
         rdf:about="">
        <dc:format>image/svg+xml</dc:format>
        <dc:type
           rdf:resource="http://purl.org/dc/dcmitype/StillImage" />
        <dc:title></dc:title>
      </cc:Work>
    </rdf:RDF>
  </metadata>
  <g
     inkscape:groupmode="layer"
     id="layer2"
     inkscape:label="Capa 2">
    <g
       id="g2038"
       transform="matrix(0.05876029,0,0,0.06140282,2.0528603,1.3490557)">
      <path
         id="path1956"
         d="M 473.061,252.448 V 442.83 c 0,15.943 -12.905,28.86 -28.86,28.86 H 67.787 c -15.943,0 -28.86,-12.918 -28.86,-28.86 V 252.448 c 8.988,5.318 19.476,8.368 30.67,8.368 15.248,0 29.282,-5.69 39.981,-15.162 10.699,-9.459 18.038,-22.724 19.885,-37.848 l 2.058,-16.91 c -0.298,2.541 -0.459,5.083 -0.459,7.575 0,33.931 27.584,62.345 62.469,62.345 34.501,0 62.469,-27.968 62.469,-62.457 0,34.489 27.955,62.457 62.457,62.457 34.91,0 62.481,-28.414 62.481,-62.37 0,-2.467 -0.149,-4.959 -0.459,-7.488 l 2.058,16.848 c 1.847,15.124 9.186,28.389 19.873,37.848 10.699,9.471 24.745,15.162 39.981,15.162 11.194,0 21.682,-3.049 30.67,-8.368 z"
         style="fill:#518ef8"
         inkscape:connector-curvature="0" />
      <g
         id="g1962">
	<path
   id="path1958"
   d="m 380.479,190.959 c 0.31,2.529 0.459,5.021 0.459,7.488 0,33.956 -27.571,62.37 -62.481,62.37 C 283.956,260.817 256,232.849 256,198.36 V 40.309 h 106.119 l 18.348,150.488 c 0.012,0.05 0.012,0.112 0.012,0.162 z"
   style="fill:#acd1fc"
   inkscape:connector-curvature="0" />

	<path
   id="path1960"
   d="m 149.868,40.309 -18.335,150.488 c 0,0.037 -0.012,0.062 -0.012,0.099 l -2.058,16.91 c -1.847,15.124 -9.186,28.389 -19.885,37.848 -10.699,9.471 -24.732,15.162 -39.981,15.162 -11.195,0 -21.683,-3.05 -30.67,-8.368 v -0.012 C 21.187,241.948 9.298,222.621 9.298,200.517 v -4.475 L 54.77,40.309 c 0,0 95.098,0 95.098,0 z"
   style="fill:#acd1fc"
   inkscape:connector-curvature="0" />

</g>
      <g
         id="g1970">
	<path
   id="path1964"
   d="m 473.061,252.448 c -8.988,5.318 -19.476,8.368 -30.67,8.368 -15.236,0 -29.282,-5.69 -39.981,-15.162 -10.686,-9.459 -18.025,-22.724 -19.873,-37.848 l -2.058,-16.848 c 0,-0.05 0,-0.112 -0.012,-0.161 L 362.119,40.309 h 95.098 l 45.485,155.732 v 4.475 c 0,22.105 -11.901,41.432 -29.641,51.932 z"
   style="fill:#3a5bbc"
   inkscape:connector-curvature="0" />

	<path
   id="path1966"
   d="M 256,40.309 V 198.36 c 0,34.489 -27.968,62.457 -62.469,62.457 -34.885,0 -62.469,-28.414 -62.469,-62.345 0,-2.492 0.161,-5.033 0.459,-7.575 0,-0.037 0.012,-0.062 0.012,-0.099 L 149.868,40.31 H 256 Z"
   style="fill:#3a5bbc"
   inkscape:connector-curvature="0" />

	<path
   id="path1968"
   d="m 473.061,252.448 v 28.922 c -8.988,5.318 -19.476,8.368 -30.67,8.368 -15.236,0 -29.282,-5.69 -39.981,-15.162 -10.686,-9.459 -18.025,-22.724 -19.873,-37.848 l -2.058,-16.848 c 0.31,2.529 0.459,5.021 0.459,7.488 0,33.956 -27.571,62.37 -62.481,62.37 -34.501,0 -62.457,-27.968 -62.457,-62.457 0,34.489 -27.968,62.457 -62.469,62.457 -34.885,0 -62.469,-28.414 -62.469,-62.345 0,-2.492 0.161,-5.033 0.459,-7.575 l -2.058,16.91 c -1.847,15.124 -9.186,28.389 -19.885,37.848 -10.699,9.471 -24.732,15.162 -39.981,15.162 -11.195,0 -21.683,-3.05 -30.67,-8.368 v -28.922 c 8.988,5.318 19.476,8.368 30.67,8.368 15.248,0 29.282,-5.69 39.981,-15.162 10.699,-9.459 18.038,-22.724 19.885,-37.848 l 2.058,-16.91 c -0.298,2.541 -0.459,5.083 -0.459,7.575 0,33.931 27.584,62.345 62.469,62.345 34.501,0 62.469,-27.968 62.469,-62.457 0,34.489 27.955,62.457 62.457,62.457 34.91,0 62.481,-28.414 62.481,-62.37 0,-2.467 -0.149,-4.959 -0.459,-7.488 l 2.058,16.848 c 1.847,15.124 9.186,28.389 19.873,37.848 10.699,9.471 24.745,15.162 39.981,15.162 11.194,0 21.682,-3.049 30.67,-8.368 z"
   style="fill:#3a5bbc"
   inkscape:connector-curvature="0" />

</g>
      <path
         id="path1972"
         d="M 511.627,193.434 466.142,37.702 c -1.158,-3.966 -4.794,-6.691 -8.925,-6.691 H 362.119 256 149.868 54.77 c -4.132,0 -7.767,2.726 -8.925,6.692 L 0.373,193.436 C 0.125,194.282 0,195.16 0,196.041 v 4.475 c 0,22.671 11.232,44.022 29.629,56.963 v 185.35 c 0,21.04 17.118,38.158 38.158,38.158 H 444.2 c 21.04,0 38.158,-17.118 38.158,-38.158 V 257.49 C 500.763,244.535 512,223.179 512,200.517 v -4.475 c 0,-0.882 -0.125,-1.76 -0.373,-2.608 z M 265.298,49.607 h 88.588 l 17.327,142.123 c 0.01,0.119 0.022,0.238 0.036,0.357 v 0 l 10e-4,0.009 c 0.258,2.106 0.389,4.242 0.389,6.352 0,29.263 -23.858,53.072 -53.184,53.072 -29.312,0 -53.159,-23.847 -53.159,-53.159 z m -107.195,0 h 88.6 V 198.36 c 0,29.312 -23.852,53.159 -53.171,53.159 -29.318,0 -53.171,-23.796 -53.171,-53.047 0,-2.052 0.131,-4.221 0.389,-6.446 l 0.001,-0.005 v 0 c 0.004,-0.032 0.009,-0.064 0.012,-0.098 z M 18.596,200.517 v -3.145 L 61.741,49.607 h 77.628 l -17.063,140.046 c -0.005,0.04 -0.01,0.081 -0.015,0.12 h -10e-4 l -2.057,16.905 c -1.514,12.393 -7.485,23.762 -16.818,32.014 -9.344,8.27 -21.354,12.826 -33.818,12.826 -9.148,0 -18.117,-2.446 -25.936,-7.073 L 43.659,244.43 C 28.2,235.292 18.596,218.465 18.596,200.517 Z M 444.2,462.393 H 67.787 C 57,462.393 48.224,453.617 48.224,442.83 V 266.753 c 6.869,2.212 14.079,3.361 21.373,3.361 17.009,0 33.397,-6.215 46.14,-17.494 6.213,-5.494 11.327,-12.005 15.184,-19.192 12.3,21.868 35.748,36.687 62.61,36.687 26.76,0 50.13,-14.73 62.468,-36.496 12.336,21.766 35.702,36.496 62.458,36.496 26.863,0 50.314,-14.819 62.618,-36.693 3.854,7.187 8.963,13.699 15.173,19.194 12.745,11.284 29.133,17.497 46.143,17.497 7.293,0 14.503,-1.15 21.373,-3.361 V 442.83 c -0.001,10.787 -8.777,19.563 -19.564,19.563 z m 49.204,-261.876 c 0,17.941 -9.61,34.774 -25.078,43.93 -7.819,4.627 -16.787,7.073 -25.935,7.073 -12.465,0 -24.474,-4.555 -33.818,-12.826 -9.324,-8.254 -15.293,-19.623 -16.807,-32.014 l -2.026,-16.585 c -0.016,-0.203 -0.038,-0.404 -0.067,-0.604 L 372.62,49.607 h 77.627 l 43.158,147.765 v 3.145 z"
         style="fill:#333333"
         inkscape:connector-curvature="0" />
      <path
         id="path1974"
         d="m 380.033,438.603 c -34.192,0 -62.01,-27.818 -62.01,-62.01 0,-34.192 27.818,-62.01 62.01,-62.01 16.57,0 32.144,6.449 43.853,18.157 3.631,3.631 3.631,9.519 0,13.148 -3.631,3.631 -9.518,3.631 -13.148,0 -8.197,-8.197 -19.101,-12.711 -30.704,-12.711 -23.939,0 -43.415,19.475 -43.415,43.415 0,23.94 19.476,43.415 43.415,43.415 20.748,0 38.143,-14.631 42.412,-34.117 h -42.413 c -5.135,0 -9.298,-4.163 -9.298,-9.298 0,-5.135 4.163,-9.298 9.298,-9.298 h 52.712 c 5.135,0 9.298,4.163 9.298,9.298 0,34.193 -27.818,62.011 -62.01,62.011 z"
         style="fill:#ffffff"
         inkscape:connector-curvature="0" />
      <g
         id="g1976">
</g>
      <g
         id="g1978">
</g>
      <g
         id="g1980">
</g>
      <g
         id="g1982">
</g>
      <g
         id="g1984">
</g>
      <g
         id="g1986">
</g>
      <g
         id="g1988">
</g>
      <g
         id="g1990">
</g>
      <g
         id="g1992">
</g>
      <g
         id="g1994">
</g>
      <g
         id="g1996">
</g>
      <g
         id="g1998">
</g>
      <g
         id="g2000">
</g>
      <g
         id="g2002">
</g>
      <g
         id="g2004">
</g>
    </g>
  </g>
</svg>
