<?xml version="1.0" encoding="UTF-8" standalone="no"?>
<!-- Created with Inkscape (http://www.inkscape.org/) -->

<svg
   xmlns:dc="http://purl.org/dc/elements/1.1/"
   xmlns:cc="http://creativecommons.org/ns#"
   xmlns:rdf="http://www.w3.org/1999/02/22-rdf-syntax-ns#"
   xmlns:svg="http://www.w3.org/2000/svg"
   xmlns="http://www.w3.org/2000/svg"
   xmlns:sodipodi="http://sodipodi.sourceforge.net/DTD/sodipodi-0.dtd"
   xmlns:inkscape="http://www.inkscape.org/namespaces/inkscape"
   width="128"
   height="128"
   viewBox="0 0 33.866666 33.866668"
   version="1.1"
   id="svg8"
   inkscape:version="0.92.4 (5da689c313, 2019-01-14)"
   sodipodi:docname="services-botton-8-google-ads.svg">
  <defs
     id="defs2" />
  <sodipodi:namedview
     id="base"
     pagecolor="#ffffff"
     bordercolor="#666666"
     borderopacity="1.0"
     inkscape:pageopacity="0.0"
     inkscape:pageshadow="2"
     inkscape:zoom="1.63"
     inkscape:cx="-31.096343"
     inkscape:cy="91.336241"
     inkscape:document-units="mm"
     inkscape:current-layer="layer2"
     showgrid="false"
     units="px"
     inkscape:window-width="1920"
     inkscape:window-height="1001"
     inkscape:window-x="-9"
     inkscape:window-y="-9"
     inkscape:window-maximized="1" />
  <metadata
     id="metadata5">
    <rdf:RDF>
      <cc:Work
         rdf:about="">
        <dc:format>image/svg+xml</dc:format>
        <dc:type
           rdf:resource="http://purl.org/dc/dcmitype/StillImage" />
        <dc:title></dc:title>
      </cc:Work>
    </rdf:RDF>
  </metadata>
  <g
     inkscape:groupmode="layer"
     id="layer2"
     inkscape:label="Capa 2">
    <g
       id="g2285"
       transform="matrix(0.05026887,0,0,0.0526909,4.339306,3.2007737)">
      <path
         id="path2224"
         d="M 335.069,17.877 256,243.062 178.676,463.232 c -6.489,18.51 -23.965,30.893 -43.587,30.893 H 9.694 L 176.919,17.877 Z"
         style="fill:#518ef8"
         inkscape:connector-curvature="0" />
      <path
         id="path2226"
         d="M 335.069,17.877 502.306,494.125 H 376.898 c -19.622,0 -37.098,-12.383 -43.587,-30.88 L 256,243.062 Z"
         style="fill:#28b446"
         inkscape:connector-curvature="0" />
      <path
         id="path2228"
         d="M 511.453,490.913 344.216,14.665 344.202,14.67 c -0.296,-0.841 -0.695,-1.653 -1.223,-2.399 -1.817,-2.565 -4.767,-4.089 -7.909,-4.089 H 176.92 c -4.117,0 -7.783,2.599 -9.146,6.482 L 0.548,490.913 c -1.042,2.965 -0.58,6.252 1.237,8.817 1.817,2.565 4.767,4.089 7.909,4.089 H 135.09 c 23.705,0 44.897,-15.023 52.733,-37.376 l 68.176,-194.124 68.163,194.133 c 7.841,22.349 29.034,37.365 52.736,37.365 h 125.409 c 3.144,0 6.092,-1.524 7.909,-4.089 1.817,-2.564 2.278,-5.85 1.237,-8.815 z M 169.526,460.024 C 164.41,474.621 150.57,484.43 135.088,484.43 H 23.373 L 183.789,27.571 H 321.39 L 246.853,239.85 Z m 207.372,24.406 c -15.48,0 -29.321,-9.803 -34.441,-24.398 L 266.275,243.062 335.07,47.137 488.626,484.43 Z"
         style="fill:#333333"
         inkscape:connector-curvature="0" />
      <g
         id="g2230">
</g>
      <g
         id="g2232">
</g>
      <g
         id="g2234">
</g>
      <g
         id="g2236">
</g>
      <g
         id="g2238">
</g>
      <g
         id="g2240">
</g>
      <g
         id="g2242">
</g>
      <g
         id="g2244">
</g>
      <g
         id="g2246">
</g>
      <g
         id="g2248">
</g>
      <g
         id="g2250">
</g>
      <g
         id="g2252">
</g>
      <g
         id="g2254">
</g>
      <g
         id="g2256">
</g>
      <g
         id="g2258">
</g>
    </g>
  </g>
</svg>
