<?xml version="1.0" encoding="UTF-8" standalone="no"?>
<!-- Created with Inkscape (http://www.inkscape.org/) -->

<svg
   xmlns:dc="http://purl.org/dc/elements/1.1/"
   xmlns:cc="http://creativecommons.org/ns#"
   xmlns:rdf="http://www.w3.org/1999/02/22-rdf-syntax-ns#"
   xmlns:svg="http://www.w3.org/2000/svg"
   xmlns="http://www.w3.org/2000/svg"
   xmlns:sodipodi="http://sodipodi.sourceforge.net/DTD/sodipodi-0.dtd"
   xmlns:inkscape="http://www.inkscape.org/namespaces/inkscape"
   width="128"
   height="128"
   viewBox="0 0 33.866666 33.866668"
   version="1.1"
   id="svg8"
   inkscape:version="0.92.4 (5da689c313, 2019-01-14)"
   sodipodi:docname="services-botton-3-ecommerce.svg">
  <defs
     id="defs2" />
  <sodipodi:namedview
     id="base"
     pagecolor="#ffffff"
     bordercolor="#666666"
     borderopacity="1.0"
     inkscape:pageopacity="0.0"
     inkscape:pageshadow="2"
     inkscape:zoom="1.63"
     inkscape:cx="-31.096343"
     inkscape:cy="91.336241"
     inkscape:document-units="mm"
     inkscape:current-layer="g1113"
     showgrid="false"
     units="px"
     inkscape:window-width="1920"
     inkscape:window-height="1001"
     inkscape:window-x="-9"
     inkscape:window-y="-9"
     inkscape:window-maximized="1" />
  <metadata
     id="metadata5">
    <rdf:RDF>
      <cc:Work
         rdf:about="">
        <dc:format>image/svg+xml</dc:format>
        <dc:type
           rdf:resource="http://purl.org/dc/dcmitype/StillImage" />
        <dc:title></dc:title>
      </cc:Work>
    </rdf:RDF>
  </metadata>
  <g
     inkscape:groupmode="layer"
     id="layer2"
     inkscape:label="Capa 2">
    <g
       id="g1113"
       transform="matrix(0.05756056,0,0,0.06047823,-47.205814,10.502556)">
      <path
         id="path1016"
         d="m 1180.4261,259.20028 h -40.081 l -4.128,16.511 c -2.285,9.141 -10.498,15.554 -19.92,15.554 -9.422,0 -17.636,-6.413 -19.92,-15.554 l -4.128,-16.511 h -40.081 l -8.016,64.129 h 144.29 z"
         style="fill:#dbd9dc"
         inkscape:connector-curvature="0" />
      <g
         id="g1022"
         transform="translate(860.29717,-138.08372)">
	<path
   id="path1018"
   d="m 269.355,424.339 h 54.156 l -3.382,-27.054 h -40.081 l -4.127,16.511 c -1.06,4.236 -3.43,7.845 -6.566,10.543 z"
   style="fill:#c9c6ca"
   inkscape:connector-curvature="0" />

	<path
   id="path1020"
   d="m 231.952,397.284 h -40.081 l -3.382,27.054 h 54.156 c -3.136,-2.698 -5.506,-6.307 -6.566,-10.544 z"
   style="fill:#c9c6ca"
   inkscape:connector-curvature="0" />

</g>
      <path
         id="path1038"
         d="M 1340.7481,-98.002727 H 891.84617 c -17.397,0 -31.549,14.152 -31.549,31.548 V 238.15828 c 0,17.396 14.152,31.548 31.549,31.548 h 151.82593 l -6.141,49.129 h -25.444 c -4.1429,0 -7.4999,3.358 -7.4999,7.5 0,4.142 3.357,7.5 7.4999,7.5 h 208.42 c 4.143,0 7.5,-3.358 7.5,-7.5 0,-4.142 -3.357,-7.5 -7.5,-7.5 h -25.443 l -6.142,-49.129 h 151.826 c 17.396,0 31.549,-14.152 31.549,-31.548 V -66.454727 c 0,-17.396 -14.152,-31.548 -31.549,-31.548 z m -160.802,416.838007 h -127.298 l 6.142,-49.129 h 27.603 l 2.708,10.83 c 3.126,12.503 14.31,21.234 27.197,21.234 12.887,0 24.071,-8.731 27.197,-21.234 l 2.708,-10.83 h 27.603 z m -78.092,-49.129 h 28.885 l -1.798,7.192 c -1.453,5.813 -6.652,9.872 -12.645,9.872 -5.993,0 -11.191,-4.06 -12.645,-9.872 z m 255.443,-31.548 c 0,9.125 -7.424,16.548 -16.549,16.548 H 891.84617 c -9.125,0 -16.549,-7.423 -16.549,-16.548 V -66.454727 c 0,-9.125 7.424,-16.548 16.549,-16.548 h 448.90193 c 9.125,0 16.549,7.423 16.549,16.548 z"
         inkscape:connector-curvature="0" />
      <g
         id="g1046">
</g>
      <g
         id="g1048">
</g>
      <g
         id="g1050">
</g>
      <g
         id="g1052">
</g>
      <g
         id="g1054">
</g>
      <g
         id="g1056">
</g>
      <g
         id="g1058">
</g>
      <g
         id="g1060">
</g>
      <g
         id="g1062">
</g>
      <g
         id="g1064">
</g>
      <g
         id="g1066">
</g>
      <g
         id="g1068">
</g>
      <g
         id="g1070">
</g>
      <g
         id="g1072">
</g>
      <g
         id="g1074">
</g>
    </g>
    <g
       id="g1349"
       transform="matrix(0.05537989,0,0,0.04902629,2.7260917,3.0340701)">
      <path
         id="path1210"
         d="M 480.452,47.581 H 31.548 C 18.267,47.581 7.5,58.347 7.5,71.629 v 40.081 h 497 V 71.629 c 0,-13.282 -10.767,-24.048 -24.048,-24.048 z"
         style="fill:#dbd9dc"
         inkscape:connector-curvature="0" />
      <path
         id="path1212"
         d="M 480.452,464.419 H 31.548 C 18.266,464.419 7.5,453.652 7.5,440.371 V 111.71 h 497 v 328.661 c 0,13.282 -10.767,24.048 -24.048,24.048 z"
         style="fill:#ffffff"
         inkscape:connector-curvature="0" />
      <rect
         id="rect1214"
         height="128.25999"
         width="192.39"
         style="fill:#ffedb1"
         y="223.94"
         x="63.610001" />
      <g
         id="g1220">
	<rect
   id="rect1216"
   height="88.18"
   width="48.099998"
   style="fill:#ffffff"
   y="223.94"
   x="95.68" />

	<rect
   id="rect1218"
   height="88.18"
   width="48.099998"
   style="fill:#ffffff"
   y="223.94"
   x="175.84" />

</g>
      <path
         id="path1222"
         d="M 448.387,199.887 H 320.129 c -4.427,0 -8.016,-3.589 -8.016,-8.016 v -24.048 c 0,-4.427 3.589,-8.016 8.016,-8.016 h 128.258 c 4.427,0 8.016,3.589 8.016,8.016 v 24.048 c 0,4.427 -3.589,8.016 -8.016,8.016 z"
         style="fill:#e6646e"
         inkscape:connector-curvature="0" />
      <path
         id="path1224"
         d="m 416.323,264.016 h -96.194 c -4.427,0 -8.016,-3.589 -8.016,-8.016 v -16.032 c 0,-4.427 3.589,-8.016 8.016,-8.016 h 96.194 c 4.427,0 8.016,3.589 8.016,8.016 V 256 c 0,4.427 -3.589,8.016 -8.016,8.016 z"
         style="fill:#ffe17d"
         inkscape:connector-curvature="0" />
      <path
         id="path1226"
         d="M 227.509,159.806 H 92.104 c -2.764,0 -5.333,1.424 -6.798,3.768 L 47.58,223.935 v 2.42 c 0,15.192 11.376,28.81 26.547,29.604 16.18,0.847 29.565,-12.022 29.565,-28.017 0,15.495 12.561,28.056 28.056,28.056 15.495,0 28.056,-12.561 28.056,-28.056 0,15.495 12.561,28.056 28.056,28.056 15.495,0 28.056,-12.561 28.056,-28.056 0,15.995 13.385,28.864 29.565,28.017 15.172,-0.795 26.548,-14.412 26.547,-29.604 v -2.42 l -37.726,-60.361 c -1.46,-2.344 -4.029,-3.768 -6.793,-3.768 z"
         style="fill:#e6646e"
         inkscape:connector-curvature="0" />
      <path
         id="path1228"
         d="m 70.613,255.564 c 12.65,2.194 24.106,-4.093 29.621,-14.111 1.54,-2.799 5.543,-2.411 7.125,0.364 4.828,8.471 13.942,14.183 24.391,14.183 10.527,0 19.7,-5.798 24.5,-14.375 1.61,-2.878 5.502,-2.878 7.113,0 4.8,8.577 13.973,14.375 24.5,14.375 10.449,0 19.563,-5.712 24.392,-14.183 1.582,-2.775 5.584,-3.163 7.125,-0.364 5.514,10.018 16.971,16.305 29.621,14.111 13.686,-2.374 23.032,-15.318 23.032,-29.208 v -2.42 H 47.581 v 2.42 c 0,13.89 9.346,26.834 23.032,29.208 z"
         style="fill:#dc4655"
         inkscape:connector-curvature="0" />
      <path
         id="path1230"
         d="m 39.564,72.146 h -0.08 c -4.142,0 -7.46,3.357 -7.46,7.5 0,4.143 3.398,7.5 7.54,7.5 4.142,0 7.5,-3.357 7.5,-7.5 0,-4.143 -3.357,-7.5 -7.5,-7.5 z"
         inkscape:connector-curvature="0" />
      <path
         id="path1232"
         d="m 87.661,72.146 h -0.08 c -4.142,0 -7.46,3.357 -7.46,7.5 0,4.143 3.398,7.5 7.54,7.5 4.142,0 7.5,-3.357 7.5,-7.5 0,-4.143 -3.358,-7.5 -7.5,-7.5 z"
         inkscape:connector-curvature="0" />
      <path
         id="path1234"
         d="m 63.613,72.146 h -0.08 c -4.142,0 -7.46,3.357 -7.46,7.5 0,4.143 3.398,7.5 7.54,7.5 4.142,0 7.5,-3.357 7.5,-7.5 0,-4.143 -3.358,-7.5 -7.5,-7.5 z"
         inkscape:connector-curvature="0" />
      <path
         id="path1236"
         d="m 479.936,79.646 c 0,-4.143 -3.358,-7.5 -7.5,-7.5 h -72.145 c -4.142,0 -7.5,3.357 -7.5,7.5 0,4.143 3.358,7.5 7.5,7.5 h 72.145 c 4.142,0 7.5,-3.358 7.5,-7.5 z"
         inkscape:connector-curvature="0" />
      <path
         id="path1238"
         d="m 368.226,72.146 h -248.5 c -4.142,0 -7.5,3.357 -7.5,7.5 0,4.143 3.358,7.5 7.5,7.5 h 248.5 c 4.142,0 7.5,-3.357 7.5,-7.5 0,-4.143 -3.358,-7.5 -7.5,-7.5 z"
         inkscape:connector-curvature="0" />
      <path
         id="path1240"
         d="M 480.452,40.081 H 31.548 C 14.152,40.081 0,54.233 0,71.629 v 368.742 c 0,17.396 14.152,31.548 31.548,31.548 h 448.903 c 17.396,0 31.548,-14.152 31.548,-31.548 V 71.629 C 512,54.233 497.848,40.081 480.452,40.081 Z m 0,416.838 H 31.548 C 22.423,456.919 15,449.495 15,440.371 V 119.21 h 425.375 c 4.142,0 7.5,-3.357 7.5,-7.5 0,-4.143 -3.358,-7.5 -7.5,-7.5 H 15 V 71.629 c 0,-9.124 7.423,-16.548 16.548,-16.548 h 448.903 c 9.125,0 16.548,7.424 16.548,16.548 v 32.581 h -24.565 c -4.142,0 -7.5,3.357 -7.5,7.5 0,4.143 3.358,7.5 7.5,7.5 H 497 v 321.161 c 0,9.124 -7.423,16.548 -16.548,16.548 z"
         inkscape:connector-curvature="0" />
      <path
         id="path1242"
         d="m 279.532,227.943 v -4.008 c 0,-1.405 -0.395,-2.783 -1.14,-3.975 l -40.081,-64.129 c -1.371,-2.193 -3.774,-3.525 -6.36,-3.525 H 87.661 c -2.586,0 -4.989,1.332 -6.36,3.525 L 41.22,219.96 c -0.745,1.191 -1.14,2.569 -1.14,3.975 v 4.008 c 0,12.399 6.383,23.33 16.032,29.695 v 87.055 h -0.516 c -4.142,0 -7.5,3.357 -7.5,7.5 0,4.143 3.358,7.5 7.5,7.5 h 208.419 c 4.142,0 7.5,-3.357 7.5,-7.5 0,-4.143 -3.358,-7.5 -7.5,-7.5 H 263.5 v -87.055 c 9.649,-6.365 16.032,-17.295 16.032,-29.695 z M 91.818,167.307 H 227.795 L 258.5,216.436 H 61.113 Z m 91.521,95.899 c 1.483,0.189 2.991,0.294 4.524,0.294 11.389,0 21.544,-5.383 28.057,-13.737 0.163,0.21 0.347,0.402 0.516,0.607 v 54.244 h -33.097 z m -15.713,-31.77 H 208.1 c -1.666,9.674 -10.095,17.064 -20.237,17.064 -10.142,0 -18.571,-7.39 -20.237,-17.064 z M 131.75,248.5 c -10.142,0 -18.571,-7.39 -20.237,-17.064 h 40.474 C 150.321,241.11 141.892,248.5 131.75,248.5 Z m 4.524,14.706 v 41.408 H 103.177 V 250.37 c 0.169,-0.205 0.353,-0.397 0.516,-0.607 6.512,8.354 16.668,13.737 28.057,13.737 1.533,0 3.042,-0.105 4.524,-0.294 z M 55.4,231.436 H 95.874 C 94.208,241.11 85.779,248.5 75.637,248.5 65.495,248.5 57.066,241.11 55.4,231.436 Z M 248.5,344.693 H 71.113 v -81.491 c 1.483,0.189 2.991,0.298 4.524,0.298 4.413,0 8.637,-0.817 12.54,-2.293 v 50.906 c 0,4.143 3.358,7.5 7.5,7.5 h 48.097 c 4.142,0 7.5,-3.357 7.5,-7.5 V 257.64 c 3.255,-2.147 6.141,-4.809 8.532,-7.877 2.391,3.068 5.278,5.73 8.532,7.877 v 54.473 c 0,4.143 3.358,7.5 7.5,7.5 h 48.097 c 4.142,0 7.5,-3.357 7.5,-7.5 v -50.906 c 3.903,1.476 8.127,2.293 12.54,2.293 1.534,0 3.041,-0.109 4.524,-0.298 v 81.491 z M 243.976,248.5 c -10.142,0 -18.571,-7.39 -20.237,-17.064 h 40.474 c -1.666,9.674 -10.095,17.064 -20.237,17.064 z"
         inkscape:connector-curvature="0" />
      <path
         id="path1244"
         d="M 448.387,152.307 H 320.129 c -8.556,0 -15.516,6.96 -15.516,15.516 v 24.049 c 0,8.556 6.96,15.516 15.516,15.516 h 128.258 c 8.556,0 15.516,-6.96 15.516,-15.516 v -24.049 c 0,-8.556 -6.96,-15.516 -15.516,-15.516 z m 0.516,39.564 c 0,0.284 -0.231,0.516 -0.516,0.516 H 320.129 c -0.285,0 -0.516,-0.231 -0.516,-0.516 v -24.049 c 0,-0.284 0.231,-0.516 0.516,-0.516 h 128.258 c 0.285,0 0.516,0.231 0.516,0.516 z"
         inkscape:connector-curvature="0" />
      <path
         id="path1246"
         d="m 320.129,271.517 h 96.194 c 8.556,0 15.516,-6.961 15.516,-15.517 v -16.032 c 0,-8.556 -6.96,-15.517 -15.516,-15.517 h -96.194 c -8.556,0 -15.516,6.961 -15.516,15.517 V 256 c 0,8.556 6.96,15.517 15.516,15.517 z m -0.516,-31.549 c 0,-0.285 0.231,-0.517 0.516,-0.517 h 96.194 c 0.285,0 0.516,0.231 0.516,0.517 V 256 c 0,0.285 -0.231,0.517 -0.516,0.517 h -96.194 c -0.285,0 -0.516,-0.231 -0.516,-0.517 z"
         inkscape:connector-curvature="0" />
      <path
         id="path1248"
         d="m 312.113,311.596 h 16.032 c 4.142,0 7.5,-3.357 7.5,-7.5 0,-4.143 -3.358,-7.5 -7.5,-7.5 h -16.032 c -4.142,0 -7.5,3.357 -7.5,7.5 0,4.143 3.358,7.5 7.5,7.5 z"
         inkscape:connector-curvature="0" />
      <path
         id="path1250"
         d="m 431.839,304.096 c 0,-4.143 -3.358,-7.5 -7.5,-7.5 H 360.21 c -4.142,0 -7.5,3.357 -7.5,7.5 0,4.143 3.358,7.5 7.5,7.5 h 64.129 c 4.142,0 7.5,-3.357 7.5,-7.5 z"
         inkscape:connector-curvature="0" />
      <path
         id="path1252"
         d="m 360.209,328.661 c -4.142,0 -7.5,3.357 -7.5,7.5 0,4.143 3.358,7.5 7.5,7.5 h 48.097 c 4.142,0 7.5,-3.357 7.5,-7.5 0,-4.143 -3.358,-7.5 -7.5,-7.5 z"
         inkscape:connector-curvature="0" />
      <path
         id="path1254"
         d="m 183.855,408.822 h -72.146 c -4.142,0 -7.5,3.357 -7.5,7.5 0,4.143 3.358,7.5 7.5,7.5 h 72.146 c 4.142,0 7.5,-3.357 7.5,-7.5 0,-4.143 -3.358,-7.5 -7.5,-7.5 z"
         inkscape:connector-curvature="0" />
      <path
         id="path1256"
         d="m 215.919,376.758 h -104.21 c -4.142,0 -7.5,3.357 -7.5,7.5 0,4.143 3.358,7.5 7.5,7.5 h 104.21 c 4.142,0 7.5,-3.357 7.5,-7.5 0,-4.143 -3.357,-7.5 -7.5,-7.5 z"
         inkscape:connector-curvature="0" />
      <path
         id="path1258"
         d="m 456.403,376.758 h -144.29 c -4.142,0 -7.5,3.357 -7.5,7.5 0,4.143 3.358,7.5 7.5,7.5 h 144.291 c 4.142,0 7.5,-3.357 7.5,-7.5 0,-4.143 -3.359,-7.5 -7.501,-7.5 z"
         inkscape:connector-curvature="0" />
      <path
         id="path1260"
         d="m 456.403,408.822 h -144.29 c -4.142,0 -7.5,3.357 -7.5,7.5 0,4.143 3.358,7.5 7.5,7.5 h 144.291 c 4.142,0 7.5,-3.357 7.5,-7.5 0,-4.143 -3.359,-7.5 -7.501,-7.5 z"
         inkscape:connector-curvature="0" />
      <path
         id="path1262"
         d="M 79.645,376.758 H 63.613 c -4.142,0 -7.5,3.357 -7.5,7.5 0,4.143 3.358,7.5 7.5,7.5 h 16.032 c 4.142,0 7.5,-3.357 7.5,-7.5 0,-4.143 -3.358,-7.5 -7.5,-7.5 z"
         inkscape:connector-curvature="0" />
      <path
         id="path1264"
         d="M 79.645,408.822 H 63.613 c -4.142,0 -7.5,3.357 -7.5,7.5 0,4.143 3.358,7.5 7.5,7.5 h 16.032 c 4.142,0 7.5,-3.357 7.5,-7.5 0,-4.143 -3.358,-7.5 -7.5,-7.5 z"
         inkscape:connector-curvature="0" />
      <path
         id="path1266"
         d="m 312.113,343.661 h 16.032 c 4.142,0 7.5,-3.357 7.5,-7.5 0,-4.143 -3.358,-7.5 -7.5,-7.5 h -16.032 c -4.142,0 -7.5,3.357 -7.5,7.5 0,4.143 3.358,7.5 7.5,7.5 z"
         inkscape:connector-curvature="0" />
      <g
         id="g1268">
</g>
      <g
         id="g1270">
</g>
      <g
         id="g1272">
</g>
      <g
         id="g1274">
</g>
      <g
         id="g1276">
</g>
      <g
         id="g1278">
</g>
      <g
         id="g1280">
</g>
      <g
         id="g1282">
</g>
      <g
         id="g1284">
</g>
      <g
         id="g1286">
</g>
      <g
         id="g1288">
</g>
      <g
         id="g1290">
</g>
      <g
         id="g1292">
</g>
      <g
         id="g1294">
</g>
      <g
         id="g1296">
</g>
    </g>
  </g>
</svg>
