<?xml version="1.0" encoding="UTF-8" standalone="no"?>
<!-- Created with Inkscape (http://www.inkscape.org/) -->

<svg
   xmlns:dc="http://purl.org/dc/elements/1.1/"
   xmlns:cc="http://creativecommons.org/ns#"
   xmlns:rdf="http://www.w3.org/1999/02/22-rdf-syntax-ns#"
   xmlns:svg="http://www.w3.org/2000/svg"
   xmlns="http://www.w3.org/2000/svg"
   xmlns:sodipodi="http://sodipodi.sourceforge.net/DTD/sodipodi-0.dtd"
   xmlns:inkscape="http://www.inkscape.org/namespaces/inkscape"
   width="128"
   height="128"
   viewBox="0 0 33.866666 33.866668"
   version="1.1"
   id="svg8"
   inkscape:version="0.92.4 (5da689c313, 2019-01-14)"
   sodipodi:docname="services-botton-5-outsorcing-ecommerce.svg">
  <defs
     id="defs2" />
  <sodipodi:namedview
     id="base"
     pagecolor="#ffffff"
     bordercolor="#666666"
     borderopacity="1.0"
     inkscape:pageopacity="0.0"
     inkscape:pageshadow="2"
     inkscape:zoom="1.63"
     inkscape:cx="-31.096343"
     inkscape:cy="91.336241"
     inkscape:document-units="mm"
     inkscape:current-layer="layer2"
     showgrid="false"
     units="px"
     inkscape:window-width="1920"
     inkscape:window-height="1001"
     inkscape:window-x="-9"
     inkscape:window-y="-9"
     inkscape:window-maximized="1" />
  <metadata
     id="metadata5">
    <rdf:RDF>
      <cc:Work
         rdf:about="">
        <dc:format>image/svg+xml</dc:format>
        <dc:type
           rdf:resource="http://purl.org/dc/dcmitype/StillImage" />
        <dc:title></dc:title>
      </cc:Work>
    </rdf:RDF>
  </metadata>
  <g
     inkscape:groupmode="layer"
     id="layer2"
     inkscape:label="Capa 2">
    <g
       id="g1897"
       transform="matrix(0.43186012,0,0,0.41667674,3.3263099,3.6236567)">
      <path
         id="path1845"
         d="m 15,50 h 14 v 4 H 15 Z"
         inkscape:connector-curvature="0"
         style="fill:#aab2bd" />
      <path
         id="path1847"
         d="M 33.12,54.88 C 33.66,55.42 34,56.17 34,57 c 0,0.55 -0.45,1 -1,1 H 11 c -0.55,0 -1,-0.45 -1,-1 0,-1.66 1.34,-3 3,-3 h 2 14 2 c 0.83,0 1.58,0.34 2.12,0.88 z"
         inkscape:connector-curvature="0"
         style="fill:#aab2bd" />
      <path
         id="path1849"
         d="M 38,50 H 6 C 3.791,50 2,48.209 2,46 V 26 c 0,-2.209 1.791,-4 4,-4 h 32 c 2.209,0 4,1.791 4,4 v 20 c 0,2.209 -1.791,4 -4,4 z"
         inkscape:connector-curvature="0"
         style="fill:#ccd1d9" />
      <circle
         id="circle1851"
         r="8"
         cy="10"
         cx="10"
         style="fill:#ffeaa7" />
      <path
         id="path1853"
         d="m 10,12 c 2.52,0 4.67,1.55 5.56,3.75 C 14.12,17.14 12.16,18 10,18 7.84,18 5.88,17.14 4.44,15.75 5.33,13.55 7.48,12 10,12 Z"
         inkscape:connector-curvature="0"
         style="fill:#ff826e" />
      <path
         id="path1855"
         d="M 37,46 H 7 C 6.448,46 6,45.552 6,45 V 27 c 0,-0.552 0.448,-1 1,-1 h 30 c 0.552,0 1,0.448 1,1 v 18 c 0,0.552 -0.448,1 -1,1 z"
         inkscape:connector-curvature="0"
         style="fill:#69d6f4" />
      <circle
         id="circle1857"
         r="8"
         cy="26"
         cx="26"
         style="fill:#ffeaa7" />
      <path
         id="path1859"
         d="m 26,28 c 2.52,0 4.67,1.55 5.56,3.75 C 30.12,33.14 28.16,34 26,34 23.84,34 21.88,33.14 20.44,31.75 21.33,29.55 23.48,28 26,28 Z"
         inkscape:connector-curvature="0"
         style="fill:#ff826e" />
      <circle
         id="circle1861"
         r="3"
         cy="9"
         cx="10"
         style="fill:#f0d0b4" />
      <circle
         id="circle1863"
         r="3"
         cy="25"
         cx="26"
         style="fill:#f0d0b4" />
      <path
         id="path1865"
         d="m 59,11 v 4 l -2.4,0.66 c -0.17,0.53 -0.38,1.05 -0.64,1.54 l 1.23,2.16 -2.83,2.83 -2.16,-1.23 C 51.71,21.22 50.54,21.83 50,22 v -4 c 0,-0.13 -0.01,-0.27 -0.04,-0.39 V 17.6 C 51.74,16.84 53,15.07 53,13 53,10.24 50.76,8 48,8 c -2.76,0 -5,2.24 -5,5 0,2.07 1.25,3.84 3.04,4.6 C 46.01,17.73 46,17.86 46,18 v 4 C 45.46,21.83 44.29,21.22 43.8,20.96 L 41.64,22.19 41.45,22 38.81,19.36 40.04,17.2 C 39.78,16.71 39.57,16.19 39.4,15.66 L 37,15 v -2 -2 l 2.4,-0.66 C 39.57,9.81 39.78,9.29 40.04,8.8 L 38.81,6.64 41.64,3.81 43.8,5.04 C 44.29,4.78 44.81,4.57 45.34,4.4 L 46,2 h 4 l 0.66,2.4 c 0.53,0.17 1.05,0.38 1.54,0.64 l 2.16,-1.23 2.83,2.83 -1.23,2.16 c 0.26,0.49 0.47,1.01 0.64,1.54 z"
         inkscape:connector-curvature="0"
         style="fill:#ffc729" />
      <path
         id="path1867"
         d="m 61,54 v 8 H 41 v -8 h 2 16 z"
         inkscape:connector-curvature="0"
         style="fill:#b4dd7f" />
      <path
         id="path1869"
         d="m 58,32 c 0,-1.1 0.9,-2 2,-2 0.55,0 1.05,0.22 1.41,0.59 C 61.78,30.95 62,31.45 62,32 v 13 c 0,1.3 -0.42,2.56 -1.2,3.6 L 59,51 v 3 H 43 V 51 L 41.5,47.91 39.6,44 C 39.2,43.31 38.95,42.55 38.85,41.77 L 38.16,36.23 C 38.13,35.97 38.08,35.72 38,35.48 37.86,34.91 37.62,34.38 37.29,33.89 L 36.26,32.34 C 36.09,32.09 36,31.8 36,31.49 c 0,-0.85 0.69,-1.53 1.54,-1.53 0.16,0 0.31,0.01 0.46,0.02 1.12,0.09 2.15,0.53 2.99,1.21 0.33,0.27 0.62,0.57 0.88,0.91 0.49,0.64 0.84,1.4 1,2.23 0.54,2.69 1.13,5.63 1.13,5.63 h 1 L 45.58,38.8 C 45.86,38.25 46,37.63 46,37.01 V 22 18 c 0,-0.14 0.01,-0.27 0.04,-0.4 0.19,-0.91 1,-1.6 1.96,-1.6 0.55,0 1.05,0.22 1.41,0.59 0.28,0.27 0.47,0.62 0.55,1.01 v 0.01 C 49.99,17.73 50,17.87 50,18 v 4 8 c 0,-1.1 0.9,-2 2,-2 0.55,0 1.05,0.22 1.41,0.59 0.37,0.36 0.59,0.86 0.59,1.41 0,-1.1 0.9,-2 2,-2 0.55,0 1.05,0.22 1.41,0.59 C 57.78,28.95 58,29.45 58,30 Z"
         inkscape:connector-curvature="0"
         style="fill:#f0d0b4" />
      <path
         id="path1871"
         d="M 61.6,49.2 C 62.503,47.997 63,46.506 63,45 V 32 c 0,-1.654 -1.346,-3 -3,-3 -0.395,0 -0.77,0.081 -1.116,0.22 C 58.539,27.945 57.383,27 56,27 55.229,27 54.532,27.301 54,27.78 53.468,27.3 52.771,27 52,27 c -0.352,0 -0.686,0.072 -1,0.184 v -4.511 c 0.362,-0.163 0.767,-0.364 1.179,-0.576 l 2.354,1.342 3.907,-3.908 -1.351,-2.365 c 0.104,-0.226 0.2,-0.455 0.286,-0.685 L 60,15.763 V 10.237 L 57.375,9.519 C 57.289,9.289 57.193,9.06 57.089,8.834 L 58.44,6.469 54.533,2.561 52.166,3.911 C 51.939,3.807 51.711,3.711 51.482,3.625 L 50.764,1 H 45.237 L 44.519,3.625 C 44.29,3.711 44.061,3.806 43.834,3.911 l -2.366,-1.35 -3.907,3.908 1.351,2.365 c -0.104,0.226 -0.2,0.455 -0.286,0.685 L 36,10.237 V 12 h -6 c -1.654,0 -3,1.346 -3,3 v 2.059 C 26.671,17.022 26.338,17 26,17 c -0.338,0 -0.671,0.022 -1,0.059 V 12 C 25,10.346 23.654,9 22,9 H 18.941 C 18.442,4.507 14.625,1 10,1 5.037,1 1,5.038 1,10 c 0,4.962 4.037,9 9,9 4.625,0 8.442,-3.507 8.941,-8 H 22 c 0.552,0 1,0.449 1,1 v 5.525 C 21.161,18.178 19.592,19.405 18.522,21 H 6 c -2.757,0 -5,2.243 -5,5 v 20 c 0,2.757 2.243,5 5,5 h 8 v 2 h -1 c -2.206,0 -4,1.794 -4,4 0,1.103 0.897,2 2,2 h 22 c 1.103,0 2,-0.897 2,-2 0,-2.206 -1.794,-4 -4,-4 h -1 v -2 h 8 c 1.225,0 2.38,-0.464 3.277,-1.256 L 42,51.23 V 53 H 40 V 63 H 62 V 53 H 60 V 51.333 Z M 5.678,15.496 C 6.564,13.961 8.192,13 10,13 c 1.808,0 3.436,0.961 4.322,2.496 C 13.13,16.435 11.631,17 10,17 8.369,17 6.87,16.435 5.678,15.496 Z M 8,9 c 0,-1.103 0.897,-2 2,-2 1.103,0 2,0.897 2,2 0,1.103 -0.897,2 -2,2 C 8.897,11 8,10.103 8,9 Z m 7.729,5.01 C 15.021,12.989 14.074,12.176 12.966,11.659 13.602,10.951 14,10.025 14,9 14,6.794 12.206,5 10,5 7.794,5 6,6.794 6,9 6,10.025 6.398,10.951 7.034,11.659 5.926,12.176 4.979,12.989 4.271,14.01 3.473,12.873 3,11.492 3,10 3,6.14 6.141,3 10,3 c 3.859,0 7,3.14 7,7 0,1.492 -0.473,2.873 -1.271,4.01 z m 19.697,18.889 1.029,1.544 c 0.239,0.359 0.419,0.756 0.545,1.169 V 45 H 7 V 27 h 10.059 c 0.499,4.493 4.316,8 8.941,8 4.625,0 8.442,-3.507 8.941,-8 H 37 v 2.017 c -1.141,0.247 -2,1.262 -2,2.476 0,0.502 0.147,0.988 0.426,1.406 z M 24,25 c 0,-1.103 0.897,-2 2,-2 1.103,0 2,0.897 2,2 0,1.103 -0.897,2 -2,2 -1.103,0 -2,-0.897 -2,-2 z m 2,4 c 1.808,0 3.436,0.961 4.322,2.496 C 29.13,32.435 27.631,33 26,33 24.369,33 22.87,32.435 21.678,31.496 22.564,29.961 24.192,29 26,29 Z m 11,-4 h -2.059 c -0.077,-0.694 -0.24,-1.362 -0.466,-2 H 38 c 1.654,0 3,1.346 3,3 v 3.997 C 40.391,29.606 39.719,29.318 39,29.149 V 27 c 0,-1.103 -0.897,-2 -2,-2 z m 5.059,-1.898 1.763,-1.005 c 0.401,0.208 0.811,0.41 1.179,0.576 v 14.341 c 0,0.455 -0.105,0.911 -0.306,1.319 L 43.856,34.139 C 43.7,33.362 43.401,32.643 42.999,32 H 43 v -6 c 0,-1.082 -0.354,-2.079 -0.941,-2.898 z M 45.615,16.2 C 44.616,15.456 44,14.283 44,13 c 0,-2.206 1.794,-4 4,-4 2.206,0 4,1.794 4,4 0,1.285 -0.616,2.457 -1.615,3.201 C 49.837,15.476 48.977,15 48,15 c -0.976,0 -1.837,0.476 -2.385,1.2 z M 38,11.763 l 2.193,-0.6 0.161,-0.525 c 0.144,-0.463 0.336,-0.924 0.572,-1.369 l 0.258,-0.486 -1.13,-1.979 1.749,-1.75 1.979,1.129 0.486,-0.257 c 0.447,-0.237 0.908,-0.429 1.37,-0.571 L 46.162,5.193 46.764,3 h 2.473 l 0.601,2.193 0.524,0.162 c 0.459,0.142 0.921,0.334 1.371,0.572 l 0.485,0.256 1.979,-1.129 1.749,1.75 -1.13,1.979 0.258,0.486 c 0.236,0.445 0.429,0.906 0.572,1.369 l 0.161,0.525 2.193,0.6 v 2.474 l -2.193,0.6 -0.161,0.525 c -0.144,0.463 -0.336,0.924 -0.572,1.369 l -0.258,0.486 1.13,1.979 -1.749,1.75 -1.979,-1.129 -0.485,0.256 c -0.269,0.142 -0.512,0.268 -0.732,0.38 v -2.266 c 1.84,-1.063 3,-3.022 3,-5.187 0,-3.309 -2.691,-6 -6,-6 -3.309,0 -6,2.691 -6,6 0,2.163 1.16,4.123 3,5.187 v 2.266 C 44.788,20.345 44.55,20.222 44.27,20.074 l -0.486,-0.257 -1.979,1.129 -1.749,-1.75 1.13,-1.979 -0.258,-0.486 C 40.692,16.286 40.499,15.825 40.356,15.362 L 40.195,14.837 38,14.237 Z M 29,15 c 0,-0.551 0.448,-1 1,-1 h 6 v 1.763 l 2.625,0.718 c 0.086,0.23 0.182,0.459 0.286,0.685 l -1.351,2.365 1.627,1.627 C 38.805,21.064 38.411,21 38,21 H 33.478 C 32.408,19.405 30.839,18.178 29,17.525 Z m -3,4 c 3.859,0 7,3.14 7,7 0,1.492 -0.473,2.873 -1.271,4.01 C 31.021,28.989 30.074,28.176 28.966,27.659 29.602,26.951 30,26.025 30,25 c 0,-2.206 -1.794,-4 -4,-4 -2.206,0 -4,1.794 -4,4 0,1.025 0.398,1.951 1.034,2.659 -1.108,0.517 -2.055,1.33 -2.763,2.351 C 19.473,28.873 19,27.492 19,26 c 0,-3.86 3.141,-7 7,-7 z m 7,38 -22,0.002 V 57 c 0,-1.103 0.897,-2 2,-2 h 18 c 1.103,0 2,0.897 2,2 z M 28,53 H 16 V 51 H 28 Z M 38,49 H 6 C 4.346,49 3,47.654 3,46 V 26 c 0,-1.654 1.346,-3 3,-3 h 11.525 c -0.227,0.638 -0.389,1.306 -0.466,2 H 7 c -1.103,0 -2,0.897 -2,2 v 18 c 0,1.103 0.897,2 2,2 h 30 c 1.085,0 1.967,-0.87 1.995,-1.949 l 1.342,2.76 C 39.773,48.543 38.925,49 38,49 Z M 60,61 H 42 V 55 H 60 Z M 44,53 v -2.23 l -3.536,-7.267 c -0.33,-0.575 -0.538,-1.2 -0.62,-1.859 L 39.152,36.11 C 39.029,35.123 38.673,34.163 38.12,33.335 L 37.09,31.79 C 37.031,31.702 37,31.599 37,31.493 c 0,-0.295 0.24,-0.535 0.535,-0.535 2.111,0 3.944,1.503 4.359,3.573 l 1.286,6.427 h 2.438 l 0.854,-1.709 C 46.817,38.559 47,37.785 47,37.014 V 18 c 0,-0.551 0.448,-1 1,-1 0.552,0 1,0.449 1,1 v 12 4 h 2 v -4 c 0,-0.551 0.448,-1 1,-1 0.552,0 1,0.449 1,1 v 4 h 2 v -4 c 0,-0.551 0.448,-1 1,-1 0.552,0 1,0.449 1,1 v 2 2 h 2 v -2 c 0,-0.551 0.448,-1 1,-1 0.552,0 1,0.449 1,1 v 13 c 0,1.075 -0.355,2.141 -1,3 l -2,2.667 V 53 Z"
         inkscape:connector-curvature="0" />
      <path
         id="path1873"
         d="m 31,37 h -2 v 4 h -2 v -2 h -2 v 2 h -2 v -4 h -2 v 4 h -2 v -8 h -2 v 8 H 15 V 31 H 13 V 41 H 11 V 29 H 9 v 14 h 24 v -2 h -2 z"
         inkscape:connector-curvature="0" />
    </g>
  </g>
</svg>
