<?xml version="1.0" encoding="UTF-8" standalone="no"?>
<!-- Created with Inkscape (http://www.inkscape.org/) -->

<svg
   xmlns:dc="http://purl.org/dc/elements/1.1/"
   xmlns:cc="http://creativecommons.org/ns#"
   xmlns:rdf="http://www.w3.org/1999/02/22-rdf-syntax-ns#"
   xmlns:svg="http://www.w3.org/2000/svg"
   xmlns="http://www.w3.org/2000/svg"
   xmlns:sodipodi="http://sodipodi.sourceforge.net/DTD/sodipodi-0.dtd"
   xmlns:inkscape="http://www.inkscape.org/namespaces/inkscape"
   width="128"
   height="128"
   viewBox="0 0 33.866666 33.866668"
   version="1.1"
   id="svg8"
   inkscape:version="0.92.4 (5da689c313, 2019-01-14)"
   sodipodi:docname="services-botton-1-wordpress.svg">
  <defs
     id="defs2" />
  <sodipodi:namedview
     id="base"
     pagecolor="#ffffff"
     bordercolor="#666666"
     borderopacity="1.0"
     inkscape:pageopacity="0.0"
     inkscape:pageshadow="2"
     inkscape:zoom="1.63"
     inkscape:cx="-70.07362"
     inkscape:cy="91.336241"
     inkscape:document-units="mm"
     inkscape:current-layer="layer2"
     showgrid="false"
     units="px"
     inkscape:window-width="1920"
     inkscape:window-height="1001"
     inkscape:window-x="-9"
     inkscape:window-y="-9"
     inkscape:window-maximized="1" />
  <metadata
     id="metadata5">
    <rdf:RDF>
      <cc:Work
         rdf:about="">
        <dc:format>image/svg+xml</dc:format>
        <dc:type
           rdf:resource="http://purl.org/dc/dcmitype/StillImage" />
        <dc:title></dc:title>
      </cc:Work>
    </rdf:RDF>
  </metadata>
  <g
     inkscape:label="Capa 1"
     inkscape:groupmode="layer"
     id="layer1"
     transform="translate(0,-263.13332)">
    <rect
       style="opacity:1;fill:none;fill-opacity:1;stroke:none;stroke-width:0.66705376;stroke-miterlimit:4;stroke-dasharray:none;stroke-opacity:1"
       id="rect817"
       width="33.866665"
       height="33.866665"
       x="0"
       y="263.13333" />
  </g>
  <g
     inkscape:groupmode="layer"
     id="layer2"
     inkscape:label="Capa 2">
    <g
       id="g896"
       transform="matrix(0.0502688,0,0,0.04688214,4.4638259,4.7597575)">
      <path
         id="path853"
         d="M 512,46 C 512,21.147 491.853,1 467,1 H 45 C 20.147,1 0,21.147 0,46 v 90 l 10,10 h 492 c 3.905,-3.905 6.095,-6.095 10,-10 z"
         inkscape:connector-curvature="0"
         style="fill:#0052c2" />
      <path
         id="path855"
         d="m 512,46 v 90 c -3.91,3.91 -6.09,6.09 -10,10 H 256 V 1 h 211 c 24.85,0 45,20.15 45,45 z"
         inkscape:connector-curvature="0"
         style="fill:#003481" />
      <path
         id="path857"
         d="m 436,61 h -90 c -8.284,0 -15,6.716 -15,15 0,8.284 6.716,15 15,15 h 90 c 8.284,0 15,-6.716 15,-15 0,-8.284 -6.716,-15 -15,-15 z"
         inkscape:connector-curvature="0"
         style="fill:#0052c2" />
      <circle
         id="circle859"
         r="15"
         cy="76"
         cx="196"
         style="fill:#f03800" />
      <circle
         id="circle861"
         r="15"
         cy="76"
         cx="136"
         style="fill:#fdbf00" />
      <circle
         id="circle863"
         r="15"
         cy="76"
         cx="76"
         style="fill:#37d742" />
      <path
         id="path865"
         d="m 0,136 v 330 c 0,24.813 20.187,45 45,45 h 422 c 24.813,0 45,-20.187 45,-45 V 136 Z"
         inkscape:connector-curvature="0"
         style="fill:#e0f4ff" />
      <path
         id="path867"
         d="m 512,136 v 330 c 0,24.81 -20.19,45 -45,45 H 256 V 136 Z"
         inkscape:connector-curvature="0"
         style="fill:#b8e0f5" />
      <path
         id="path869"
         d="m 306.909,197.213 c -7.614,-3.263 -16.433,0.264 -19.696,7.878 l -90,210 c -3.264,7.614 0.264,16.433 7.878,19.696 7.617,3.264 16.434,-0.266 19.696,-7.878 l 90,-210 c 3.264,-7.615 -0.264,-16.433 -7.878,-19.696 z"
         inkscape:connector-curvature="0"
         style="fill:#ff641a" />
      <path
         id="path871"
         d="M 314.79,216.91 256,354.09 v -76.18 l 31.21,-72.82 c 3.27,-7.61 12.08,-11.14 19.7,-7.88 7.61,3.27 11.14,12.08 7.88,19.7 z"
         inkscape:connector-curvature="0"
         style="fill:#f03800" />
      <path
         id="path873"
         d="M 175.37,364.287 115.012,316 175.37,267.713 c 6.47,-5.175 7.518,-14.614 2.343,-21.083 -5.176,-6.469 -14.617,-7.517 -21.083,-2.342 l -75,60 c -7.499,5.997 -7.504,17.424 0,23.426 l 75,60 c 6.469,5.176 15.91,4.126 21.083,-2.342 5.175,-6.471 4.127,-15.91 -2.343,-21.085 z"
         inkscape:connector-curvature="0"
         style="fill:#ff641a" />
      <path
         id="path875"
         d="m 430.37,304.287 -75,-60 c -6.469,-5.176 -15.909,-4.127 -21.083,2.342 -5.175,6.469 -4.127,15.909 2.343,21.083 L 396.988,316 336.63,364.287 c -6.47,5.175 -7.518,14.614 -2.343,21.083 5.182,6.476 14.623,7.512 21.083,2.342 l 75,-60 c 7.499,-5.997 7.504,-17.423 0,-23.425 z"
         inkscape:connector-curvature="0"
         style="fill:#f03800" />
    </g>
  </g>
</svg>
