<?xml version="1.0" encoding="UTF-8" standalone="no"?>
<!-- Created with Inkscape (http://www.inkscape.org/) -->

<svg
   xmlns:dc="http://purl.org/dc/elements/1.1/"
   xmlns:cc="http://creativecommons.org/ns#"
   xmlns:rdf="http://www.w3.org/1999/02/22-rdf-syntax-ns#"
   xmlns:svg="http://www.w3.org/2000/svg"
   xmlns="http://www.w3.org/2000/svg"
   xmlns:sodipodi="http://sodipodi.sourceforge.net/DTD/sodipodi-0.dtd"
   xmlns:inkscape="http://www.inkscape.org/namespaces/inkscape"
   width="258"
   height="116"
   viewBox="0 0 68.262498 30.691668"
   version="1.1"
   id="svg2529"
   inkscape:version="0.92.4 (5da689c313, 2019-01-14)"
   sodipodi:docname="logo-tech-html.svg">
  <defs
     id="defs2523" />
  <sodipodi:namedview
     id="base"
     pagecolor="#ffffff"
     bordercolor="#666666"
     borderopacity="1.0"
     inkscape:pageopacity="0.0"
     inkscape:pageshadow="2"
     inkscape:zoom="1.08"
     inkscape:cx="-53.340292"
     inkscape:cy="189.62963"
     inkscape:document-units="mm"
     inkscape:current-layer="layer1"
     showgrid="false"
     units="px"
     inkscape:window-width="1920"
     inkscape:window-height="1001"
     inkscape:window-x="-9"
     inkscape:window-y="-9"
     inkscape:window-maximized="1" />
  <metadata
     id="metadata2526">
    <rdf:RDF>
      <cc:Work
         rdf:about="">
        <dc:format>image/svg+xml</dc:format>
        <dc:type
           rdf:resource="http://purl.org/dc/dcmitype/StillImage" />
        <dc:title></dc:title>
      </cc:Work>
    </rdf:RDF>
  </metadata>
  <g
     inkscape:label="Capa 1"
     inkscape:groupmode="layer"
     id="layer1"
     transform="translate(0,-266.3083)">
    <g
       id="g3324"
       transform="matrix(0.04348396,0,0,0.04886347,42.947006,270.4468)">
      <path
         id="path3269"
         d="M 426.981,0 H 43.701 C 34.52,0 27.632,7.769 28.442,16.949 L 63.45,409.254 c 0.811,9.173 8.745,18.774 17.644,21.253 L 219.1,468.842 c 8.887,2.463 23.413,2.479 32.313,0.032 L 389.59,430.593 c 8.901,-2.472 16.835,-11.986 17.645,-21.175 L 442.258,16.949 C 443.068,7.769 436.209,0 426.981,0 Z M 360.51,141.611 c -0.006,0.06 -0.053,0.107 -0.112,0.117 -0.06,0.01 -0.118,-0.021 -0.144,-0.077 L 252.13,185.96 c -1.54,0.631 -2.418,2.264 -2.098,3.897 0.322,1.633 1.754,2.811 3.419,2.811 h 84.103 c 4.474,0 8.736,1.9 11.728,5.227 2.991,3.327 4.429,7.768 3.954,12.216 l -13.141,123.273 c -0.645,6.048 -4.709,11.186 -10.447,13.205 l -89.269,31.41 c -3.362,1.184 -7.027,1.193 -10.397,0.025 L 141.13,347.246 c -5.773,-2 -9.871,-7.153 -10.52,-13.228 l -5.957,-55.828 c -0.313,-2.931 0.634,-5.857 2.604,-8.048 1.971,-2.192 4.779,-3.444 7.727,-3.444 h 24.725 c 5.313,0 9.769,4.007 10.331,9.289 l 3.655,34.316 61.521,21.385 61.803,-21.58 7.559,-71.17 H 129.835 c -5.297,0 -9.746,-3.985 -10.327,-9.25 l -3.327,-30.164 c -0.508,-4.601 2.088,-8.982 6.366,-10.745 L 234.384,142.67 c 1.269,-0.523 1.99,-1.868 1.724,-3.214 -0.267,-1.345 -1.446,-2.314 -2.817,-2.314 H 115.542 c -3.545,0 -6.518,-2.677 -6.888,-6.201 L 105.248,98.52 c -0.205,-1.951 0.428,-3.898 1.741,-5.357 1.313,-1.458 3.184,-2.291 5.146,-2.291 h 246.379 c 1.973,0 3.852,0.842 5.166,2.313 1.314,1.472 1.938,3.434 1.715,5.394 z"
         inkscape:connector-curvature="0" />
      <g
         id="g3271">
</g>
      <g
         id="g3273">
</g>
      <g
         id="g3275">
</g>
      <g
         id="g3277">
</g>
      <g
         id="g3279">
</g>
      <g
         id="g3281">
</g>
      <g
         id="g3283">
</g>
      <g
         id="g3285">
</g>
      <g
         id="g3287">
</g>
      <g
         id="g3289">
</g>
      <g
         id="g3291">
</g>
      <g
         id="g3293">
</g>
      <g
         id="g3295">
</g>
      <g
         id="g3297">
</g>
      <g
         id="g3299">
</g>
    </g>
    <g
       id="g3421"
       transform="matrix(0.06826722,0,0,0.07686825,5.4254129,270.4468)">
      <g
         id="XMLID_106_">
	<path
   d="m 22.347,0 c -2.75,0 -4.799,2.241 -4.555,4.98 l 23.184,260.047 c 0.244,2.739 2.611,5.582 5.262,6.318 l 98.381,27.316 c 2.65,0.736 6.986,0.736 9.637,0.002 l 98.68,-27.361 c 2.65,-0.735 5.02,-3.578 5.264,-6.316 L 281.422,4.98 C 281.668,2.241 279.617,0 276.867,0 Z m 209.702,59.641 c -0.219,2.443 -0.598,6.684 -0.842,9.423 l -0.611,6.823 c -0.246,2.738 -0.596,6.654 -0.781,8.701 -0.184,2.048 -0.359,3.723 -0.391,3.723 -0.031,0 -2.307,0 -5.057,0 h -69.76 c -2.75,0 -5.023,0 -5.053,0 -0.03,0 -2.305,0 -5.055,0 h -36.74 c -2.75,0 -4.799,2.241 -4.555,4.98 l 2.143,23.955 c 0.244,2.738 2.695,4.98 5.445,4.98 H 144.5 c 2.75,0 5.025,0 5.055,0 0.03,0 2.303,0 5.053,0 h 57.939 c 2.75,0 7.006,0 9.457,0 2.449,0 4.273,1.999 4.051,4.442 -0.223,2.443 -0.604,6.685 -0.848,9.423 l -6.891,77.228 c -0.246,2.739 -0.557,6.238 -0.691,7.776 -0.137,1.537 -2.416,3.396 -5.066,4.131 l -58.133,16.119 c -2.65,0.734 -4.852,1.342 -4.893,1.351 -0.041,0.009 -2.242,-0.586 -4.893,-1.321 L 86.445,225.227 c -2.65,-0.735 -5.018,-3.578 -5.262,-6.317 l -3.746,-42.045 c -0.244,-2.739 1.807,-4.98 4.557,-4.98 h 5.311 c 2.75,0 7.25,0 10,0 h 7.92 c 2.75,0 5.199,2.241 5.445,4.98 l 1.469,16.459 c 0.244,2.739 2.615,5.566 5.271,6.283 l 27.221,7.351 c 2.654,0.717 4.836,1.304 4.848,1.304 0.012,0 2.193,-0.588 4.848,-1.305 l 27.27,-7.369 c 2.654,-0.717 5.027,-3.545 5.273,-6.283 l 2.957,-32.976 c 0.246,-2.739 -1.803,-4.98 -4.553,-4.98 h -30.666 c -2.75,0 -5.023,0 -5.053,0 -0.03,0 -2.305,0 -5.055,0 H 80.511 c -2.75,0 -5.199,-2.242 -5.443,-4.98 L 67.812,69.063 C 67.568,66.324 67.189,62.084 66.97,59.64 66.753,57.197 68.824,55.198 71.574,55.198 H 144.5 c 2.75,0 5.025,0 5.055,0 0.03,0 2.303,0 5.053,0 h 72.838 c 2.749,0 4.821,1.999 4.603,4.443 z"
   id="XMLID_107_"
   inkscape:connector-curvature="0" />

</g>
      <g
         id="g3367">
</g>
      <g
         id="g3369">
</g>
      <g
         id="g3371">
</g>
      <g
         id="g3373">
</g>
      <g
         id="g3375">
</g>
      <g
         id="g3377">
</g>
      <g
         id="g3379">
</g>
      <g
         id="g3381">
</g>
      <g
         id="g3383">
</g>
      <g
         id="g3385">
</g>
      <g
         id="g3387">
</g>
      <g
         id="g3389">
</g>
      <g
         id="g3391">
</g>
      <g
         id="g3393">
</g>
      <g
         id="g3395">
</g>
    </g>
  </g>
</svg>
