<?xml version="1.0" encoding="UTF-8" standalone="no"?>
<!-- Created with Inkscape (http://www.inkscape.org/) -->

<svg
   xmlns:dc="http://purl.org/dc/elements/1.1/"
   xmlns:cc="http://creativecommons.org/ns#"
   xmlns:rdf="http://www.w3.org/1999/02/22-rdf-syntax-ns#"
   xmlns:svg="http://www.w3.org/2000/svg"
   xmlns="http://www.w3.org/2000/svg"
   xmlns:sodipodi="http://sodipodi.sourceforge.net/DTD/sodipodi-0.dtd"
   xmlns:inkscape="http://www.inkscape.org/namespaces/inkscape"
   width="258"
   height="116"
   viewBox="0 0 68.262498 30.691668"
   version="1.1"
   id="svg2529"
   inkscape:version="0.92.4 (5da689c313, 2019-01-14)"
   sodipodi:docname="logo-tech-aws.svg">
  <defs
     id="defs2523">
	
</defs>
  <sodipodi:namedview
     id="base"
     pagecolor="#ffffff"
     bordercolor="#666666"
     borderopacity="1.0"
     inkscape:pageopacity="0.0"
     inkscape:pageshadow="2"
     inkscape:zoom="1.08"
     inkscape:cx="-92.051652"
     inkscape:cy="152.59259"
     inkscape:document-units="mm"
     inkscape:current-layer="g12"
     showgrid="false"
     units="px"
     inkscape:window-width="1920"
     inkscape:window-height="1001"
     inkscape:window-x="-9"
     inkscape:window-y="-9"
     inkscape:window-maximized="1" />
  <metadata
     id="metadata2526">
    <rdf:RDF>
      <cc:Work
         rdf:about="">
        <dc:format>image/svg+xml</dc:format>
        <dc:type
           rdf:resource="http://purl.org/dc/dcmitype/StillImage" />
        <dc:title></dc:title>
      </cc:Work>
    </rdf:RDF>
  </metadata>
  <g
     inkscape:label="Capa 1"
     inkscape:groupmode="layer"
     id="layer1"
     transform="translate(0,-266.3083)">
    <g
       id="g3515"
       transform="matrix(0.26458333,0,0,0.26458333,-71.437499,217.83016)">
      <g
         id="Layer_1">
</g>
      <g
         style="fill:#000000"
         id="g3488">
		
		
		
		
		
		
		
		
	<g
   id="XMLID_141_"
   transform="matrix(0.25895832,0,0,0.28257554,7.682284,122.89296)">
  <g
     id="g10"
     transform="matrix(4.8270317,0,0,-4.423596,-875.64812,-0.3668976)"
     style="fill:#000000">
    <g
       id="g12"
       transform="scale(0.1)"
       style="fill:#000000">
      <path
         d="m 4563.1133,-813.83906 -103.0635,38.27584 v 165.86212 l 103.1897,-34.02302 -0.1262,-170.11494"
         style="fill:#4d4d4d;fill-opacity:1;fill-rule:nonzero;stroke:none;stroke-width:0.40316001"
         id="path14"
         inkscape:connector-curvature="0" />
      <path
         d="m 4589.9923,-643.72412 103.1897,34.02302 -0.3593,-165.7473 -102.8304,-38.39066 v 170.11494"
         style="fill:#4d4d4d;fill-opacity:1;fill-rule:nonzero;stroke:none;stroke-width:0.40316001"
         id="path16"
         inkscape:connector-curvature="0" />
      <path
         d="m 4672.1619,-591.74128 -96.1728,33.07463 -94.9191,-33.07463 95.0567,-28.35387 96.0352,28.35387"
         style="fill:#4d4d4d;fill-opacity:1;fill-rule:nonzero;stroke:none;stroke-width:0.40316001"
         id="path18"
         inkscape:connector-curvature="0" />
      <path
         d="m 4822.9984,-813.83906 -103.0635,38.27584 v 165.86212 l 103.1896,-34.02302 -0.1261,-170.11494"
         style="fill:#4d4d4d;fill-opacity:1;fill-rule:nonzero;stroke:none;stroke-width:0.40316001"
         id="path20"
         inkscape:connector-curvature="0" />
      <path
         d="m 4849.8774,-643.72412 103.1896,34.02302 -0.3592,-165.7473 -102.8304,-38.39066 v 170.11494"
         style="fill:#4d4d4d;fill-opacity:1;fill-rule:nonzero;stroke:none;stroke-width:0.40316001"
         id="path22"
         inkscape:connector-curvature="0" />
      <path
         d="m 4932.0469,-591.74128 -96.1728,33.07463 -94.9191,-33.07463 95.0568,-28.35387 96.0351,28.35387"
         style="fill:#4d4d4d;fill-opacity:1;fill-rule:nonzero;stroke:none;stroke-width:0.40316001"
         id="path24"
         inkscape:connector-curvature="0" />
      <path
         d="m 4173.4119,-886.13792 -103.1897,34.02303 V -1017.977 l 103.0643,-38.2758 0.1254,170.11488"
         style="fill:#4d4d4d;fill-opacity:1;fill-rule:nonzero;stroke:none;stroke-width:0.40316001"
         id="path26"
         inkscape:connector-curvature="0" />
      <path
         d="m 4200.1648,-886.13792 103.1896,34.02303 -0.3581,-165.75061 -102.8315,-38.3873 v 170.11488"
         style="fill:#4d4d4d;fill-opacity:1;fill-rule:nonzero;stroke:none;stroke-width:0.40316001"
         id="path28"
         inkscape:connector-curvature="0" />
      <path
         d="m 4282.3343,-834.15508 -96.1731,33.07463 -94.9188,-33.07463 95.0579,-28.35387 96.034,28.35387"
         style="fill:#4d4d4d;fill-opacity:1;fill-rule:nonzero;stroke:none;stroke-width:0.40316001"
         id="path30"
         inkscape:connector-curvature="0" />
      <path
         d="m 4433.1716,-1056.2528 -103.0643,38.2758 v 165.86211 l 103.1897,-34.02303 -0.1254,-170.11488"
         style="fill:#4d4d4d;fill-opacity:1;fill-rule:nonzero;stroke:none;stroke-width:0.40316001"
         id="path32"
         inkscape:connector-curvature="0" />
      <path
         d="m 4460.0498,-886.13792 103.1897,34.02303 -0.3593,-165.75061 -102.8304,-38.3873 v 170.11488"
         style="fill:#4d4d4d;fill-opacity:1;fill-rule:nonzero;stroke:none;stroke-width:0.40316001"
         id="path34"
         inkscape:connector-curvature="0" />
      <path
         d="m 4542.2193,-834.15508 -96.1731,33.07463 -94.9188,-33.07463 95.0579,-28.35387 96.034,28.35387"
         style="fill:#4d4d4d;fill-opacity:1;fill-rule:nonzero;stroke:none;stroke-width:0.40316001"
         id="path36"
         inkscape:connector-curvature="0" />
      <path
         d="m 4303.2291,-1298.6667 -103.0643,38.2759 v 165.8621 l 103.1896,-34.023 -0.1253,-170.115"
         style="fill:#4d4d4d;fill-opacity:1;fill-rule:nonzero;stroke:none;stroke-width:0.40316001"
         id="path38"
         inkscape:connector-curvature="0" />
      <path
         d="m 4330.1073,-1128.5517 103.1897,34.023 -0.3582,-165.7508 -102.8315,-38.3872 v 170.115"
         style="fill:#4d4d4d;fill-opacity:1;fill-rule:nonzero;stroke:none;stroke-width:0.40316001"
         id="path40"
         inkscape:connector-curvature="0" />
      <path
         d="m 4412.2768,-1076.5688 -96.1731,33.0746 -94.9188,-33.0746 95.0579,-28.3544 96.034,28.3544"
         style="fill:#4d4d4d;fill-opacity:1;fill-rule:nonzero;stroke:none;stroke-width:0.40316001"
         id="path42"
         inkscape:connector-curvature="0" />
      <path
         d="m 4759.6438,-1152.0489 -7.5825,-0.029 c -2.7824,0 -6.329,-2.0916 -7.2004,-5.4823 l -23.0036,-90.1826 -22.7514,89.9865 c -0.6841,2.8209 -3.0728,5.6784 -6.3214,5.6784 h -8.9775 c -3.2332,0 -5.5913,-2.8958 -6.2449,-5.7367 l -21.1653,-89.0509 -21.8686,89.3269 c -0.8637,3.2663 -4.4983,5.4607 -7.3493,5.4607 l -10.9114,0.021 c -2.3313,0 -4.4983,-1.1147 -5.6601,-2.9085 -0.7874,-1.2164 -1.0052,-2.5952 -0.6421,-3.7944 l 33.785,-133.0968 c 0.7453,-2.7993 2.9237,-5.6185 6.1112,-5.6185 h 10.8501 c 2.9314,0 5.4997,2.3773 6.2412,5.7497 l 20.7945,88.6591 22.6291,-88.7605 c 0.6803,-2.7178 2.8702,-5.6483 6.073,-5.6483 h 10.6743 c 2.9696,0 5.4691,2.2959 6.2029,5.66 l 32.52,133.0004 c 0.3823,1.2809 0.1605,2.7044 -0.6153,3.9041 -1.1427,1.7658 -3.2829,2.8622 -5.5875,2.8622"
         style="fill:#000000;fill-opacity:1;fill-rule:nonzero;stroke:none;stroke-width:0.40316001"
         id="path44"
         inkscape:connector-curvature="0" />
      <path
         d="m 4853.4623,-1208.5572 h -57.3199 c 1.3185,17.9003 11.7635,36.4599 29.4587,37.1743 18.8302,-0.6843 27.4446,-18.8188 27.8612,-37.1743 z m -27.9032,57.4601 c -38.7191,0 -56.3531,-38.0913 -56.3531,-73.4798 0,-44.1669 21.9221,-72.7026 55.8485,-72.7026 24.2802,0 42.7894,13.6507 50.7847,37.5017 0.428,1.3639 0.2943,2.8441 -0.3746,4.1716 -0.814,1.6113 -2.3581,2.8272 -4.1849,3.2742 l -10.747,2.2877 c -2.8855,0.5034 -6.1914,-1.3989 -7.2844,-4.1582 -5.2207,-13.252 -14.737,-20.771 -26.6803,-21.1631 -11.4922,0.3955 -22.0444,7.9924 -26.879,19.3425 -3.9289,9.2713 -4.5097,18.4103 -4.5747,27.7032 l 77.8164,0.029 c 1.632,0 3.3212,0.7991 4.5136,2.1434 0.9976,1.1147 1.5402,2.4998 1.5287,3.8872 -0.191,34.4053 -14.3204,71.1625 -53.4139,71.1625"
         style="fill:#000000;fill-opacity:1;fill-rule:nonzero;stroke:none;stroke-width:0.40316001"
         id="path46"
         inkscape:connector-curvature="0" />
      <path
         d="m 4974.7063,-1224.7896 c 0,-8.1484 -1.3262,-48.8367 -27.3033,-49.8782 -8.7061,0.3704 -17.5039,6.0653 -22.4188,14.4846 -3.6193,6.3677 -5.7327,15.1707 -6.2755,26.0623 v 23.9392 c 0.4243,18.3387 12.0235,38.4633 28.6103,39.2425 26.0649,-1.1445 27.3873,-45.0555 27.3873,-53.8504 z m -23.2291,74.9271 h -2.0601 c -12.8527,0 -22.9539,-5.9408 -30.7084,-18.118 l -0.011,56.1081 c 0,3.1515 -2.9237,6.0222 -6.1531,6.0222 h -11.1904 c -2.9237,0 -6.1952,-2.5769 -6.2028,-6.0222 v -175.1504 c 0.011,-3.1813 2.9351,-6.0719 6.1608,-6.0719 l 3.2868,0.02 c 3.1033,0 5.3123,2.7827 6.0576,5.3676 l 3.5008,12.3632 c 8.1328,-12.8517 20.3818,-20.4004 33.4907,-20.4004 h 2.0065 c 34.5303,0 49.9858,37.3738 49.9858,74.412 0,18.4366 -4.0856,36.0648 -11.2056,48.3632 -8.2284,14.2519 -22.3922,23.1068 -36.9572,23.1068"
         style="fill:#000000;fill-opacity:1;fill-rule:nonzero;stroke:none;stroke-width:0.40316001"
         id="path48"
         inkscape:connector-curvature="0" />
      <path
         d="m 5122.1719,-1220.8476 c -7.2767,5.818 -16.0249,7.7615 -24.7884,9.7089 l -16.8047,3.467 c -12.0578,2.2059 -19.0365,5.8043 -19.0365,17.6442 0,12.5163 11.6566,17.3008 21.5399,17.598 12.0693,-0.3389 21.1462,-6.3311 25.5528,-16.8703 1.0472,-2.4836 3.367,-4.1546 5.7786,-4.1546 0.4128,0 0.8332,0.052 1.2307,0.1476 l 10.4871,2.5785 c 1.7122,0.4201 3.3097,1.7258 4.1657,3.424 0.6841,1.3473 0.8333,2.8187 0.4243,4.133 -6.4169,20.8007 -22.7093,31.7935 -47.3564,31.7935 -22.2698,-0.054 -46.0685,-11.0741 -46.0685,-41.8508 0,-21.0351 11.8783,-34.3934 35.3291,-39.7094 l 18.8112,-3.9888 c 10.3265,-2.1997 20.8863,-6.1119 20.8863,-18.4503 0,-18.2658 -19.1015,-20.128 -24.8764,-20.261 -12.956,0.3108 -27.6242,6.7415 -31.1862,20.3592 -0.7147,2.9936 -4.1008,5.1115 -7.0704,4.4239 l -10.9687,-2.5185 c -1.651,-0.3871 -3.1607,-1.5816 -4.0397,-3.1947 -0.7376,-1.344 -0.9478,-2.8491 -0.6076,-4.2229 5.6601,-22.5951 25.2623,-36.221 52.4356,-36.4502 l 0.6038,-0.01 c 24.2688,0 50.1999,11.5642 50.1999,44.0042 0,13.2052 -5.3391,25.0119 -14.6415,32.3945"
         style="fill:#000000;fill-opacity:1;fill-rule:nonzero;stroke:none;stroke-width:0.40316001"
         id="path50"
         inkscape:connector-curvature="0" />
      <path
         d="m 5233.1123,-1208.6886 h -57.3352 c 1.3108,17.9169 11.756,36.485 29.451,37.1663 18.8226,-0.6648 27.4485,-18.7974 27.8842,-37.1663 z m -27.9147,57.4686 c -38.7267,0 -56.3645,-38.093 -56.3645,-73.4798 0,-44.1635 21.9259,-72.696 55.8562,-72.696 24.284,0 42.7931,13.6524 50.796,37.4984 0.4243,1.3656 0.2905,2.8491 -0.3821,4.1797 -0.8141,1.6131 -2.3619,2.8294 -4.185,3.2678 l -10.7623,2.2876 c -2.5186,0.4552 -6.0308,-0.9951 -7.2691,-4.1631 -5.2245,-13.2438 -14.7446,-20.7627 -26.6765,-21.1714 -11.5037,0.4087 -22.052,8.0041 -26.8675,19.3505 -3.9365,9.2498 -4.5212,18.397 -4.5785,27.7121 l 77.8088,0.021 c 1.6204,0 3.2982,0.7945 4.4907,2.1298 1.0013,1.1197 1.544,2.5053 1.5325,3.9007 -0.1796,34.4019 -14.2975,71.1625 -53.3987,71.1625"
         style="fill:#000000;fill-opacity:1;fill-rule:nonzero;stroke:none;stroke-width:0.40316001"
         id="path52"
         inkscape:connector-curvature="0" />
      <path
         d="m 5332.075,-1152.8395 c -1.5173,0.1859 -2.9772,0.2757 -4.3952,0.2757 -13.0592,0 -23.6647,-7.901 -31.0256,-22.9953 l 0.027,13.2188 c -0.011,3.2011 -2.8816,6.0134 -6.1416,6.0134 h -9.719 c -3.1874,0 -6.0003,-2.8238 -6.0232,-6.065 l -0.015,-128.407 c 0,-3.2228 2.8129,-6.052 6.0232,-6.052 l 11.3394,0.01 c 2.9505,0 6.2717,2.5766 6.2985,6.047 l 0.01,64.7368 c 0,10.6752 0.8943,18.7174 5.4767,28.2319 6.5468,13.5527 15.6886,20.2012 27.9491,20.3075 3.0728,0.025 5.771,3.0102 5.771,6.3908 v 12.011 c 0,3.1433 -2.4498,5.9025 -5.5722,6.2814"
         style="fill:#000000;fill-opacity:1;fill-rule:nonzero;stroke:none;stroke-width:0.40316001"
         id="path54"
         inkscape:connector-curvature="0" />
      <path
         d="m 5451.1291,-1150.3179 -8.9546,-0.01 c -2.8052,0 -6.4016,-2.2412 -7.273,-5.5287 l -29.0268,-101.5193 -29.6422,101.4176 c -0.8752,3.3674 -4.4791,5.6304 -7.2997,5.6304 l -12.7878,0.013 c -2.3466,0 -4.6168,-1.1645 -5.7787,-2.9638 -0.7796,-1.2044 -0.9937,-2.5701 -0.6076,-3.8442 l 40.5688,-133.9191 c 0.7796,-2.6497 2.8472,-5.7462 6.1187,-5.7462 h 15.4747 c 2.8396,0 5.1671,2.1513 6.2333,5.7579 l 39.3497,133.864 c 0.3937,1.2712 0.1834,2.6414 -0.5923,3.8493 -1.1696,1.816 -3.4359,2.9935 -5.7825,2.9935"
         style="fill:#000000;fill-opacity:1;fill-rule:nonzero;stroke:none;stroke-width:0.40316001"
         id="path56"
         inkscape:connector-curvature="0" />
      <path
         d="m 5480.5496,-1098.8415 c -8.2475,0 -14.9548,-7.4838 -14.9548,-16.6925 0,-9.2067 6.7073,-16.6875 14.9548,-16.6875 8.2514,0 14.9663,7.4808 14.9663,16.6875 0,9.2087 -6.7149,16.6925 -14.9663,16.6925"
         style="fill:#000000;fill-opacity:1;fill-rule:nonzero;stroke:none;stroke-width:0.40316001"
         id="path58"
         inkscape:connector-curvature="0" />
      <path
         d="m 5486.7066,-1149.5023 -12.2796,0.013 c -3.3403,0 -6.3825,-3.0071 -6.3825,-6.3031 l -0.061,-136.3427 c 0,-1.6497 0.7643,-3.2877 2.0866,-4.5037 1.2115,-1.1048 2.7594,-1.7428 4.3149,-1.7428 l 12.3675,-0.021 h 0.01 c 3.39,0.034 6.3671,2.9588 6.3671,6.2597 v 136.351 c 0,3.3508 -3.0039,6.2895 -6.4206,6.2895"
         style="fill:#000000;fill-opacity:1;fill-rule:nonzero;stroke:none;stroke-width:0.40316001"
         id="path60"
         inkscape:connector-curvature="0" />
      <path
         d="m 5601.465,-1241.9589 -10.254,-0.043 c -2.8626,0 -5.2627,-1.9138 -6.329,-5.2378 -3.7454,-17.9818 -12.2298,-27.2999 -25.0942,-27.7119 -25.056,0.8289 -27.0013,39.6913 -27.0013,51.5828 0,23.7131 7.38,49.3032 27.9835,49.9793 12.4363,-0.4253 21.4826,-10.348 24.1961,-26.517 0.5121,-3.2994 2.7899,-5.7963 5.9009,-6.2301 l 10.9725,-0.1195 c 3.2791,0.3956 5.8513,3.1565 5.8283,6.5805 -3.8829,29.2202 -22.0787,48.1072 -46.3972,48.1072 l -0.8407,-0.025 -0.9517,0.025 c -35.3673,0 -51.2012,-36.7308 -51.2012,-73.1312 0,-33.3735 13.3497,-72.342 51.0025,-72.342 h 1.8039 c 23.7107,0 41.6084,18.495 46.7335,48.4825 0.1146,1.4291 -0.3287,2.8576 -1.2383,4.0191 -1.1771,1.5051 -3.0537,2.4701 -5.1136,2.5815"
         style="fill:#000000;fill-opacity:1;fill-rule:nonzero;stroke:none;stroke-width:0.40316001"
         id="path62"
         inkscape:connector-curvature="0" />
      <path
         d="m 5702.736,-1208.6886 h -57.3428 c 1.3109,17.922 11.7598,36.485 29.4664,37.1663 18.8263,-0.6648 27.4485,-18.7974 27.8764,-37.1663 z m -27.9147,57.4686 c -38.7228,0 -56.3568,-38.093 -56.3568,-73.4798 0,-44.1635 21.9259,-72.696 55.8562,-72.696 24.2725,0 42.774,13.6441 50.7845,37.4934 0.4166,1.3739 0.2791,2.8624 -0.3898,4.1847 -0.8254,1.625 -2.3274,2.8128 -4.181,3.2678 l -10.747,2.2876 c -2.5301,0.4552 -6.031,-0.9951 -7.2692,-4.1631 -5.2397,-13.2438 -14.7638,-20.7627 -26.6917,-21.1764 -11.4999,0.4137 -22.0444,8.0091 -26.8599,19.3555 -3.9403,9.2635 -4.5251,18.4106 -4.5862,27.7121 l 77.8165,0.013 c 1.6357,0 3.3249,0.8025 4.5212,2.1511 0.9937,1.1265 1.5287,2.5139 1.5096,3.8876 -0.1796,34.4019 -14.3013,71.1624 -53.4064,71.1624"
         style="fill:#000000;fill-opacity:1;fill-rule:nonzero;stroke:none;stroke-width:0.40316001"
         id="path64"
         inkscape:connector-curvature="0" />
      <path
         d="m 5825.7113,-1220.8476 c -7.2882,5.8231 -16.0478,7.7649 -24.796,9.7089 l -16.8047,3.467 c -12.0464,2.2059 -19.0212,5.8043 -19.0212,17.6442 0,16.1445 18.0047,17.4934 21.5169,17.598 12.0809,-0.3389 21.1577,-6.3311 25.5567,-16.8754 1.0547,-2.4833 3.3823,-4.1495 5.7977,-4.1495 0.4166,0 0.8331,0.052 1.2382,0.1476 l 10.4795,2.5785 c 1.7123,0.4201 3.3059,1.731 4.162,3.427 0.6803,1.349 0.8294,2.8157 0.4205,4.13 -6.4093,20.8007 -22.7056,31.7935 -47.3641,31.7935 -22.2622,-0.054 -46.0532,-11.0741 -46.0532,-41.8508 0,-21.0403 11.8745,-34.3985 35.3214,-39.7094 l 18.8188,-3.9888 c 10.3266,-2.1997 20.8863,-6.1119 20.8863,-18.4503 0,-18.2658 -19.1015,-20.128 -24.8763,-20.261 -12.0121,0.2859 -27.3874,5.8062 -31.1824,20.3422 -0.6956,3.0106 -4.0779,5.1251 -7.101,4.4409 l -10.9495,-2.5185 c -1.6587,-0.3921 -3.1722,-1.5949 -4.0512,-3.2113 -0.73,-1.3473 -0.9401,-2.8408 -0.5962,-4.2063 5.6449,-22.5951 25.2432,-36.221 52.4204,-36.4502 l 0.6038,-0.01 c 24.2725,0 50.2075,11.5642 50.2075,44.0042 0,13.2137 -5.3353,25.0234 -14.6339,32.3945"
         style="fill:#000000;fill-opacity:1;fill-rule:nonzero;stroke:none;stroke-width:0.40316001"
         id="path66"
         inkscape:connector-curvature="0" />
      <path
         d="m 5326.5181,-886.99703 v 30.96096 c 0.015,4.69515 3.218,7.84656 7.0627,7.84226 l 124.6493,0.008 c 3.9785,0 7.1889,-3.22797 7.1889,-7.81258 v -26.55067 c -0.038,-4.44427 -3.413,-10.25534 -9.3903,-19.48371 l -64.5623,-102.58223 c 23.9553,0.6329 49.317,-3.3589 71.0862,-16.9783 4.9187,-3.0698 6.2258,-7.625 6.6271,-12.0722 v -33.0363 c 0,-4.5553 -4.4793,-9.8199 -9.1801,-7.0772 -38.3674,22.3693 -89.2858,24.8112 -131.7197,-0.259 -4.3302,-2.5735 -8.8705,2.61 -8.8705,7.1653 v 31.3912 c 0,5.0086 0.092,13.6126 4.6359,21.2759 l 74.8125,119.41297 -65.128,0.0164 c -3.9861,0 -7.1735,3.1565 -7.2117,7.78275"
         style="fill:#000000;fill-opacity:1;fill-rule:evenodd;stroke:none;stroke-width:0.40316001"
         id="path68"
         inkscape:connector-curvature="0" />
      <path
         d="m 4871.8339,-1080.2982 h -37.9317 c -3.6041,0.2625 -6.4896,3.2875 -6.7762,7.1453 l 0.027,216.58945 c 0,4.33366 3.2791,7.79555 7.315,7.79555 l 35.3176,0.0211 c 3.6995,-0.22963 6.6576,-3.33426 6.9098,-7.27239 v -28.2999 h 0.7033 c 9.1953,27.35995 26.5427,40.10161 49.9018,40.10161 23.7144,0 38.5852,-12.74166 49.2061,-40.10161 9.2106,27.35995 30.0893,40.10161 52.4088,40.10161 15.9295,0 33.2539,-7.2809 43.8748,-23.68005 12.0349,-18.24053 9.5546,-44.65811 9.5546,-67.91286 l -0.023,-136.68481 c 0,-4.3213 -3.2754,-7.8031 -7.3074,-7.8031 H 5037.14 c -3.8142,0.2624 -6.8143,3.648 -6.8143,7.7831 v 114.831 c 0,9.11012 0.6994,31.9081 -1.0663,40.56011 -2.8396,14.59759 -11.3394,18.67607 -22.2966,18.67607 -9.2145,0 -18.7768,-6.83647 -22.6712,-17.75103 -3.8906,-10.95589 -3.5314,-29.18534 -3.5314,-41.48515 v -114.811 c 0,-4.3213 -3.2753,-7.8031 -7.315,-7.8031 h -37.882 c -3.7951,0.2624 -6.8029,3.648 -6.8029,7.7831 l -0.05,114.83102 c 0,24.15807 3.5506,59.69295 -23.3476,59.69295 -27.2573,0 -26.1949,-34.62945 -26.1949,-59.69295 l -0.023,-114.81102 c 0.016,-4.3213 -3.2638,-7.8031 -7.3111,-7.8031"
         style="fill:#000000;fill-opacity:1;fill-rule:evenodd;stroke:none;stroke-width:0.40316001"
         id="path70"
         inkscape:connector-curvature="0" />
      <path
         d="m 5573.0801,-888.41063 c -27.9797,0 -29.7415,-42.38243 -29.7415,-68.8268 0,-26.42904 -0.3516,-82.93917 29.3976,-82.93917 29.3861,0 30.7964,45.57719 30.7964,73.37525 0,18.22742 -0.6994,40.09825 -5.6564,57.41891 -4.2613,15.04624 -12.7496,20.97181 -24.7961,20.97181 z m -0.3439,44.1933 c 56.2804,0 86.729,-53.77377 86.729,-122.11366 0,-66.10061 -33.6436,-118.51731 -86.729,-118.51731 -55.2294,0 -85.3264,53.7886 -85.3264,120.78495 0,67.451 30.4372,119.84602 85.3264,119.84602"
         style="fill:#000000;fill-opacity:1;fill-rule:evenodd;stroke:none;stroke-width:0.40316001"
         id="path72"
         inkscape:connector-curvature="0" />
      <path
         d="m 5732.4624,-1080.2982 h -37.7866 c -3.8066,0.2625 -6.8067,3.6481 -6.8067,7.7832 l -0.053,216.68732 c 0.3134,3.94664 3.4626,7.05978 7.2691,7.05978 l 35.1877,0.0211 c 3.3174,-0.20417 6.0385,-2.7133 6.7341,-6.06882 v -33.14142 h 0.7185 c 10.6056,29.62851 25.484,43.73956 51.6674,43.73956 16.9958,0 33.6437,-6.81733 44.2569,-25.50878 9.9062,-17.31215 9.9062,-46.47279 9.9062,-67.44118 v -136.30106 c -0.4242,-3.8413 -3.5008,-6.8298 -7.2462,-6.8298 h -38.0349 c -3.5085,0.2543 -6.329,3.1382 -6.7532,6.8298 v 117.60672 c 0,23.69786 2.4842,58.34386 -23.7221,58.34386 -9.1993,0 -17.6837,-6.85264 -21.9374,-17.32191 -5.3162,-13.21242 -6.0194,-26.4278 -6.0194,-41.02195 v -116.63342 c -0.065,-4.3213 -3.3441,-7.8031 -7.3799,-7.8031"
         style="fill:#000000;fill-opacity:1;fill-rule:evenodd;stroke:none;stroke-width:0.40316001"
         id="path74"
         inkscape:connector-curvature="0" />
      <path
         d="m 5265.3839,-1079.7499 c -2.5147,-2.4969 -6.115,-2.6632 -8.9508,-0.982 -12.5929,11.649 -14.8554,17.0497 -21.7386,28.1289 -20.8175,-23.595 -35.5584,-30.6722 -62.5138,-30.6722 -31.9391,0 -56.7658,21.9274 -56.7658,65.775 0,34.24707 16.667,57.54344 40.4351,68.96962 20.5768,10.05084 49.317,11.8813 71.3078,14.63078 v 5.47387 c 0,10.04273 0.7071,21.92396 -4.6206,30.59768 -4.5976,7.76494 -13.4681,10.95456 -21.2838,10.95456 -14.4656,0 -27.3185,-8.25179 -30.4829,-25.34625 -0.6421,-3.79612 -3.1492,-7.56717 -6.5851,-7.75003 l -36.747,4.43068 c -3.1109,0.77741 -6.5544,3.53875 -5.6563,8.80979 8.4463,49.63022 48.7132,64.62584 84.8028,64.62584 18.4365,0 42.5715,-5.4777 57.1174,-21.00492 18.4404,-19.19198 16.6632,-44.76708 16.6632,-72.63192 v -65.7434 c 0,-19.7759 7.3876,-28.456 14.3319,-39.1145 2.404,-3.8441 2.9466,-8.3995 -0.1414,-11.2187 -7.743,-7.2217 -21.5055,-20.512 -29.0689,-28.026 z m -38.2261,102.90285 c 0,-16.4467 0.3517,-30.16215 -7.1009,-44.76655 -6.0309,-11.8864 -15.616,-19.1876 -26.2599,-19.1876 -14.5306,0 -23.0419,12.3282 -23.0419,30.6075 0,35.93328 28.9773,42.47544 56.4027,42.47544 v -9.12879"
         style="fill:#000000;fill-opacity:1;fill-rule:evenodd;stroke:none;stroke-width:0.40316001"
         id="path76"
         inkscape:connector-curvature="0" />
      <path
         d="m 4768.262,-1079.7499 c -2.5071,-2.4969 -6.134,-2.6632 -8.9698,-0.982 -12.593,11.649 -14.8479,17.0497 -21.7386,28.1289 -20.8062,-23.595 -35.5546,-30.6722 -62.5254,-30.6722 -31.9276,0 -56.7619,21.9274 -56.7619,65.775 0,34.24707 16.6824,57.54344 40.4504,68.96962 20.5805,10.05084 49.317,11.8813 71.3079,14.63078 v 5.47387 c 0,10.04273 0.7146,21.92396 -4.613,30.59768 -4.6092,7.76494 -13.4873,10.95456 -21.28,10.95456 -14.4657,0 -27.3338,-8.25179 -30.4869,-25.34625 -0.6573,-3.79612 -3.153,-7.56717 -6.585,-7.75003 l -36.7622,4.43068 c -3.1033,0.77741 -6.5507,3.53875 -5.6602,8.80979 8.4463,49.63022 48.717,64.62584 84.8028,64.62584 18.4595,0 42.5753,-5.4777 57.1251,-21.00492 18.4479,-19.19198 16.667,-44.76708 16.667,-72.63192 v -65.7434 c 0,-19.7759 7.3914,-28.456 14.3165,-39.1145 2.4154,-3.8441 2.962,-8.3995 -0.1184,-11.2187 -7.7507,-7.2217 -21.5208,-20.512 -29.0803,-28.026 z m -38.2374,102.90285 c 0,-16.4467 0.3478,-30.16215 -7.0896,-44.76655 -6.027,-11.8864 -15.6199,-19.1876 -26.2484,-19.1876 -14.5612,0 -23.0686,12.3282 -23.0686,30.6075 0,35.93328 28.9695,42.47544 56.4066,42.47544 v -9.12879"
         style="fill:#000000;fill-opacity:1;fill-rule:evenodd;stroke:none;stroke-width:0.40316001"
         id="path78"
         inkscape:connector-curvature="0" />
    </g>
  </g>
</g>
</g>
    </g>
  </g>
  <style
     id="style3681"
     type="text/css">
	.st0{fill:#27245D;}
	.st1{fill:#E2066F;}
	.st2{fill:#A0DBE8;}
	.st3{fill:#525353;}
	.st4{fill:#AA9678;}
	.st5{fill:#C0B098;}
	.st6{fill:#786453;}
	.st7{fill:#8B7460;}
	.st8{fill:none;}
	.st9{fill:#FFFFFF;}
	.st10{fill:#BBBCBD;}
	.st11{fill:#676A6A;}
	.st12{fill:#909393;}
	.st13{fill:#E2DDDB;}
	.st14{fill:#FBB040;}
	.st15{fill:#9F2255;}
</style>
</svg>
