<?xml version="1.0" encoding="UTF-8" standalone="no"?>
<!-- Created with Inkscape (http://www.inkscape.org/) -->

<svg
   xmlns:dc="http://purl.org/dc/elements/1.1/"
   xmlns:cc="http://creativecommons.org/ns#"
   xmlns:rdf="http://www.w3.org/1999/02/22-rdf-syntax-ns#"
   xmlns:svg="http://www.w3.org/2000/svg"
   xmlns="http://www.w3.org/2000/svg"
   xmlns:sodipodi="http://sodipodi.sourceforge.net/DTD/sodipodi-0.dtd"
   xmlns:inkscape="http://www.inkscape.org/namespaces/inkscape"
   width="258"
   height="116"
   viewBox="0 0 68.262498 30.691668"
   version="1.1"
   id="svg2529"
   inkscape:version="0.92.4 (5da689c313, 2019-01-14)"
   sodipodi:docname="logo-tech-bootstrap.svg">
  <defs
     id="defs2523">
	
</defs>
  <sodipodi:namedview
     id="base"
     pagecolor="#ffffff"
     bordercolor="#666666"
     borderopacity="1.0"
     inkscape:pageopacity="0.0"
     inkscape:pageshadow="2"
     inkscape:zoom="1.0824912"
     inkscape:cx="-92.051652"
     inkscape:cy="152.59259"
     inkscape:document-units="mm"
     inkscape:current-layer="g4114"
     showgrid="false"
     units="px"
     inkscape:window-width="1920"
     inkscape:window-height="1001"
     inkscape:window-x="-9"
     inkscape:window-y="-9"
     inkscape:window-maximized="1" />
  <metadata
     id="metadata2526">
    <rdf:RDF>
      <cc:Work
         rdf:about="">
        <dc:format>image/svg+xml</dc:format>
        <dc:type
           rdf:resource="http://purl.org/dc/dcmitype/StillImage" />
        <dc:title></dc:title>
      </cc:Work>
    </rdf:RDF>
  </metadata>
  <g
     inkscape:label="Capa 1"
     inkscape:groupmode="layer"
     id="layer1"
     transform="translate(0,-266.3083)">
    <g
       id="g3515"
       transform="matrix(0.26458333,0,0,0.26458333,-71.437499,217.83016)">
      <g
         id="Layer_1">
</g>
      <g
         style="fill:#000000"
         id="g3488">
		
		
		
		
		
		
		
		
	<g
   id="XMLID_141_"
   transform="matrix(0.25895832,0,0,0.28257554,7.682284,122.89296)">
  <g
     id="g10"
     transform="matrix(4.8270317,0,0,-4.423596,-875.64812,-0.3668976)"
     style="fill:#000000">
    <g
       id="g12"
       transform="scale(0.1)"
       style="fill:#000000">
      <g
         id="g4114"
         transform="matrix(8,0,0,-7.9999999,-1905.7778,1784.6666)">
        <path
           id="path4100"
           d="m 902.58289,370.96136 c 0,8.08987 -6.4461,14.70885 -14.32467,14.70885 H 830.9595 c -7.87858,0 -14.32468,-6.61898 -14.32468,-14.70885 v -58.83537 c 0,-8.08987 6.4461,-14.70885 14.32468,-14.70885 h 57.29872 c 7.87857,0 14.32467,6.61898 14.32467,14.70885 z"
           inkscape:connector-curvature="0"
           style="fill:#1a1a1a;stroke-width:0.14230873" />
        <path
           id="path4102"
           d="m 839.98966,316.59631 h 24.366 c 4.49401,0 8.10328,1.0527 10.81373,3.17251 2.71046,2.1198 4.0727,5.30671 4.0727,9.58959 0,2.59567 -0.61793,4.81643 -1.85378,6.66224 -1.23585,1.84581 -3.00538,3.28786 -5.30856,4.29728 v 0.14421 c 3.08964,0.67777 5.43495,2.17748 7.0219,4.49918 1.58695,2.33611 2.38745,5.24903 2.38745,8.76762 0,2.01887 -0.3511,3.90794 -1.05329,5.65281 -0.70218,1.7593 -1.79761,3.27345 -3.30029,4.54244 -1.50269,1.26901 -3.41264,2.27843 -5.75796,3.0283 -2.34532,0.74986 -5.12598,1.12478 -8.35606,1.12478 h -23.03184 z m 8.77738,21.55856 h 14.32468 c 2.10657,0 3.86204,-0.60565 5.26643,-1.84581 1.40437,-1.24016 2.10657,-2.99945 2.10657,-5.30672 0,-2.59568 -0.63198,-4.42708 -1.89592,-5.47977 -1.26394,-1.05269 -3.08963,-1.58624 -5.47708,-1.58624 h -14.32468 z m 0,22.56798 h 15.5184 c 2.66832,0 4.7468,-0.70659 6.20737,-2.13422 1.47459,-1.4132 2.21891,-3.43206 2.21891,-6.02774 0,-2.55241 -0.73028,-4.49918 -2.21891,-5.88354 -1.48865,-1.38436 -3.53905,-2.04769 -6.20737,-2.04769 h -15.5184 z"
           inkscape:connector-curvature="0"
           style="fill:#ffffff;stroke-width:0.14230873" />
      </g>
    </g>
  </g>
</g>
</g>
    </g>
  </g>
  <style
     id="style3681"
     type="text/css">
	.st0{fill:#27245D;}
	.st1{fill:#E2066F;}
	.st2{fill:#A0DBE8;}
	.st3{fill:#525353;}
	.st4{fill:#AA9678;}
	.st5{fill:#C0B098;}
	.st6{fill:#786453;}
	.st7{fill:#8B7460;}
	.st8{fill:none;}
	.st9{fill:#FFFFFF;}
	.st10{fill:#BBBCBD;}
	.st11{fill:#676A6A;}
	.st12{fill:#909393;}
	.st13{fill:#E2DDDB;}
	.st14{fill:#FBB040;}
	.st15{fill:#9F2255;}
</style>
</svg>
