<?xml version="1.0" encoding="UTF-8" standalone="no"?>
<!-- Created with Inkscape (http://www.inkscape.org/) -->

<svg
   xmlns:dc="http://purl.org/dc/elements/1.1/"
   xmlns:cc="http://creativecommons.org/ns#"
   xmlns:rdf="http://www.w3.org/1999/02/22-rdf-syntax-ns#"
   xmlns:svg="http://www.w3.org/2000/svg"
   xmlns="http://www.w3.org/2000/svg"
   xmlns:sodipodi="http://sodipodi.sourceforge.net/DTD/sodipodi-0.dtd"
   xmlns:inkscape="http://www.inkscape.org/namespaces/inkscape"
   width="128"
   height="128"
   viewBox="0 0 33.866666 33.866668"
   version="1.1"
   id="svg8"
   inkscape:version="0.92.4 (5da689c313, 2019-01-14)"
   sodipodi:docname="services-botton-2-ecommerce.svg">
  <defs
     id="defs2" />
  <sodipodi:namedview
     id="base"
     pagecolor="#ffffff"
     bordercolor="#666666"
     borderopacity="1.0"
     inkscape:pageopacity="0.0"
     inkscape:pageshadow="2"
     inkscape:zoom="1.63"
     inkscape:cx="-70.07362"
     inkscape:cy="91.336241"
     inkscape:document-units="mm"
     inkscape:current-layer="layer2"
     showgrid="false"
     units="px"
     inkscape:window-width="1920"
     inkscape:window-height="1001"
     inkscape:window-x="-9"
     inkscape:window-y="-9"
     inkscape:window-maximized="1" />
  <metadata
     id="metadata5">
    <rdf:RDF>
      <cc:Work
         rdf:about="">
        <dc:format>image/svg+xml</dc:format>
        <dc:type
           rdf:resource="http://purl.org/dc/dcmitype/StillImage" />
        <dc:title></dc:title>
      </cc:Work>
    </rdf:RDF>
  </metadata>
  <g
     inkscape:groupmode="layer"
     id="layer2"
     inkscape:label="Capa 2">
    <g
       id="g1113"
       transform="matrix(0.05756056,0,0,0.06047823,2.1397896,2.0618612)">
      <path
         id="path1016"
         d="m 320.129,397.284 h -40.081 l -4.128,16.511 c -2.285,9.141 -10.498,15.554 -19.92,15.554 -9.422,0 -17.636,-6.413 -19.92,-15.554 l -4.128,-16.511 h -40.081 l -8.016,64.129 h 144.29 z"
         style="fill:#dbd9dc"
         inkscape:connector-curvature="0" />
      <g
         id="g1022">
	<path
   id="path1018"
   d="m 269.355,424.339 h 54.156 l -3.382,-27.054 h -40.081 l -4.127,16.511 c -1.06,4.236 -3.43,7.845 -6.566,10.543 z"
   style="fill:#c9c6ca"
   inkscape:connector-curvature="0" />

	<path
   id="path1020"
   d="m 231.952,397.284 h -40.081 l -3.382,27.054 h 54.156 c -3.136,-2.698 -5.506,-6.307 -6.566,-10.544 z"
   style="fill:#c9c6ca"
   inkscape:connector-curvature="0" />

</g>
      <path
         id="path1024"
         d="M 480.452,400.29 H 31.548 C 18.266,400.29 7.5,389.523 7.5,376.242 V 71.629 C 7.5,58.347 18.267,47.581 31.548,47.581 h 448.903 c 13.282,0 24.048,10.767 24.048,24.048 v 304.613 c 10e-4,13.281 -10.766,24.048 -24.047,24.048 z"
         style="fill:#edebed"
         inkscape:connector-curvature="0" />
      <rect
         id="rect1026"
         height="288.57999"
         width="432.87"
         style="fill:#e6646e"
         y="79.639999"
         x="39.564999" />
      <path
         id="path1028"
         d="m 207.903,344.177 c -79.689,0 -144.29,-64.601 -144.29,-144.29 V 79.645 H 39.565 v 288.581 h 432.871 v -24.048 z"
         style="fill:#dc4655"
         inkscape:connector-curvature="0" />
      <g
         id="g1034">
	<circle
   id="circle1030"
   r="16.030001"
   cy="304.10001"
   cx="207.89999"
   style="fill:#6f6571" />

	<circle
   id="circle1032"
   r="16.030001"
   cy="304.10001"
   cx="320.13"
   style="fill:#6f6571" />

</g>
      <path
         id="path1036"
         d="m 170.325,152.532 25.817,90.357 c 2.159,7.559 9.481,12.437 17.289,11.518 l 105.385,-12.398 c 10.344,-1.217 18.729,-8.955 20.771,-19.167 l 12.607,-63.035 z"
         style="fill:#ef9aa1"
         inkscape:connector-curvature="0" />
      <path
         id="path1038"
         d="M 480.451,40.081 H 31.549 C 14.152,40.081 0,54.233 0,71.629 v 304.613 c 0,17.396 14.152,31.548 31.549,31.548 h 151.826 l -6.141,49.129 H 151.79 c -4.143,0 -7.5,3.358 -7.5,7.5 0,4.142 3.357,7.5 7.5,7.5 h 208.42 c 4.143,0 7.5,-3.358 7.5,-7.5 0,-4.142 -3.357,-7.5 -7.5,-7.5 H 334.767 L 328.625,407.79 H 480.451 C 497.847,407.79 512,393.638 512,376.242 V 71.629 C 512,54.233 497.848,40.081 480.451,40.081 Z M 319.649,456.919 H 192.351 l 6.142,-49.129 h 27.603 l 2.708,10.83 c 3.126,12.503 14.31,21.234 27.197,21.234 12.887,0 24.071,-8.731 27.197,-21.234 l 2.708,-10.83 h 27.603 z M 241.557,407.79 h 28.885 l -1.798,7.192 c -1.453,5.813 -6.652,9.872 -12.645,9.872 -5.993,0 -11.191,-4.06 -12.645,-9.872 z M 497,376.242 c 0,9.125 -7.424,16.548 -16.549,16.548 H 31.549 C 22.424,392.79 15,385.367 15,376.242 V 71.629 c 0,-9.125 7.424,-16.548 16.549,-16.548 h 448.902 c 9.125,0 16.549,7.423 16.549,16.548 z"
         inkscape:connector-curvature="0" />
      <path
         id="path1040"
         d="M 55.598,360.726 H 47.065 V 87.146 h 377.273 c 4.143,0 7.5,-3.358 7.5,-7.5 0,-4.143 -3.357,-7.5 -7.5,-7.5 H 39.564 c -4.143,0 -7.5,3.357 -7.5,7.5 v 288.58 c 0,4.143 3.357,7.5 7.5,7.5 h 16.033 c 4.143,0 7.5,-3.357 7.5,-7.5 10e-4,-4.142 -3.357,-7.5 -7.499,-7.5 z"
         inkscape:connector-curvature="0" />
      <path
         id="path1042"
         d="m 472.436,72.146 h -16.033 c -4.143,0 -7.5,3.357 -7.5,7.5 0,4.142 3.357,7.5 7.5,7.5 h 8.533 v 273.58 H 87.662 c -4.143,0 -7.5,3.358 -7.5,7.5 0,4.143 3.357,7.5 7.5,7.5 h 384.773 c 4.143,0 7.5,-3.357 7.5,-7.5 V 79.646 c 10e-4,-4.143 -3.357,-7.5 -7.499,-7.5 z"
         inkscape:connector-curvature="0" />
      <path
         id="path1044"
         d="m 205.636,261.273 c 1.887,0.485 3.853,0.747 5.865,0.747 0.927,0 1.863,-0.055 2.805,-0.165 l 105.386,-12.398 c 13.611,-1.602 24.562,-11.706 27.25,-25.146 l 12.606,-63.034 c 0.429,-2.145 -0.1,-4.37 -1.448,-6.093 -1.348,-1.723 -3.381,-2.771 -5.565,-2.87 l -176.354,-8.017 c -0.138,-0.006 -0.273,-0.009 -0.412,-0.007 -1.044,-3.427 -3.25,-6.399 -6.236,-8.391 l -21.597,-14.398 c -3.446,-2.297 -8.103,-1.366 -10.4,2.081 -2.297,3.447 -1.366,8.103 2.08,10.4 l 21.596,14.396 c 0.102,0.068 0.177,0.171 0.211,0.289 l 27.509,96.281 c 0.858,3.002 2.27,5.7 4.083,8.03 l -10.065,20.13 c -2.423,4.845 -2.169,10.488 0.679,15.096 1.033,1.671 2.343,3.094 3.848,4.234 -1.97,3.439 -3.103,7.417 -3.103,11.657 0,12.976 10.557,23.532 23.532,23.532 12.975,0 23.532,-10.557 23.532,-23.532 0,-3.009 -0.574,-5.885 -1.608,-8.532 h 68.377 c -1.034,2.647 -1.608,5.523 -1.608,8.532 0,12.976 10.557,23.532 23.532,23.532 12.975,0 23.532,-10.557 23.532,-23.532 0,-3.764 -0.893,-7.321 -2.471,-10.479 1.514,-1.372 2.471,-3.348 2.471,-5.553 0,-4.142 -3.357,-7.5 -7.5,-7.5 H 196.825 c -0.107,0 -0.288,0 -0.439,-0.245 -0.151,-0.244 -0.07,-0.405 -0.022,-0.502 z m 6.918,-14.315 c -4.182,0.492 -8.047,-2.087 -9.201,-6.13 l -9.555,-33.441 h 23.972 l 6.301,38.216 z m 58.963,-6.937 v -32.634 h 25.691 l -2.709,29.93 z m 0,-47.634 v -28.74 l 29.529,1.342 -2.48,27.398 z m -15,0 H 230.5 l -5.084,-30.835 31.101,1.414 z m 0,15 v 34.399 l -17.532,2.063 -6.011,-36.461 h 23.543 z m 61.422,27.173 -8.217,0.967 2.547,-28.139 h 22.759 l -2.796,13.983 c -1.41,7.048 -7.154,12.349 -14.293,13.189 z m 20.09,-42.173 h -24.401 l 2.418,-26.716 27.08,1.231 z m -127.931,-31.532 5.199,31.532 h -25.785 l -9.399,-32.895 z m 6.338,143.242 c 0,4.705 -3.827,8.532 -8.532,8.532 -4.705,0 -8.532,-3.827 -8.532,-8.532 0,-4.705 3.827,-8.532 8.532,-8.532 4.705,0 8.532,3.827 8.532,8.532 z m 103.693,8.532 c -4.705,0 -8.532,-3.827 -8.532,-8.532 0,-4.705 3.827,-8.532 8.532,-8.532 4.705,0 8.532,3.828 8.532,8.532 0,4.705 -3.827,8.532 -8.532,8.532 z"
         inkscape:connector-curvature="0" />
      <g
         id="g1046">
</g>
      <g
         id="g1048">
</g>
      <g
         id="g1050">
</g>
      <g
         id="g1052">
</g>
      <g
         id="g1054">
</g>
      <g
         id="g1056">
</g>
      <g
         id="g1058">
</g>
      <g
         id="g1060">
</g>
      <g
         id="g1062">
</g>
      <g
         id="g1064">
</g>
      <g
         id="g1066">
</g>
      <g
         id="g1068">
</g>
      <g
         id="g1070">
</g>
      <g
         id="g1072">
</g>
      <g
         id="g1074">
</g>
    </g>
  </g>
</svg>
