<?xml version="1.0" encoding="UTF-8" standalone="no"?>
<!-- Created with Inkscape (http://www.inkscape.org/) -->

<svg
   xmlns:dc="http://purl.org/dc/elements/1.1/"
   xmlns:cc="http://creativecommons.org/ns#"
   xmlns:rdf="http://www.w3.org/1999/02/22-rdf-syntax-ns#"
   xmlns:svg="http://www.w3.org/2000/svg"
   xmlns="http://www.w3.org/2000/svg"
   xmlns:sodipodi="http://sodipodi.sourceforge.net/DTD/sodipodi-0.dtd"
   xmlns:inkscape="http://www.inkscape.org/namespaces/inkscape"
   width="128"
   height="128"
   viewBox="0 0 33.866666 33.866668"
   version="1.1"
   id="svg8"
   inkscape:version="0.92.4 (5da689c313, 2019-01-14)"
   sodipodi:docname="services-botton-7-seo.svg">
  <defs
     id="defs2" />
  <sodipodi:namedview
     id="base"
     pagecolor="#ffffff"
     bordercolor="#666666"
     borderopacity="1.0"
     inkscape:pageopacity="0.0"
     inkscape:pageshadow="2"
     inkscape:zoom="1.63"
     inkscape:cx="-31.096343"
     inkscape:cy="91.336241"
     inkscape:document-units="mm"
     inkscape:current-layer="layer2"
     showgrid="false"
     units="px"
     inkscape:window-width="1920"
     inkscape:window-height="1001"
     inkscape:window-x="-9"
     inkscape:window-y="-9"
     inkscape:window-maximized="1" />
  <metadata
     id="metadata5">
    <rdf:RDF>
      <cc:Work
         rdf:about="">
        <dc:format>image/svg+xml</dc:format>
        <dc:type
           rdf:resource="http://purl.org/dc/dcmitype/StillImage" />
        <dc:title></dc:title>
      </cc:Work>
    </rdf:RDF>
  </metadata>
  <g
     inkscape:groupmode="layer"
     id="layer2"
     inkscape:label="Capa 2">
    <g
       id="g2521"
       transform="matrix(0.05620039,0,0,0.05553991,2.9083703,3.3766526)">
      <path
         id="path2382"
         d="M 469.453,0 H 22.067 C 9.88,0 0,9.88 0,22.067 v 447.387 c 0,12.187 9.88,22.067 22.067,22.067 h 447.387 c 12.185,0 22.067,-9.88 22.067,-22.067 V 22.067 C 491.52,9.88 481.639,0 469.453,0 Z"
         style="fill:#64798a"
         inkscape:connector-curvature="0" />
      <g
         id="g2388">
	<rect
   id="rect2384"
   height="364.39001"
   width="420.04501"
   style="fill:#ebf0f3"
   y="91.361"
   x="35.748001" />

	<rect
   id="rect2386"
   height="25.405001"
   width="300.33899"
   style="fill:#ebf0f3"
   y="31.702999"
   x="35.748001" />

</g>
      <rect
         id="rect2390"
         height="13.435"
         width="420.04501"
         style="fill:#d5d6db"
         y="442.31699"
         x="35.748001" />
      <circle
         id="circle2392"
         r="12.703"
         cy="44.405998"
         cx="363.827"
         style="fill:#fcd462" />
      <circle
         id="circle2394"
         r="12.703"
         cy="44.405998"
         cx="403.45599"
         style="fill:#44c4a1" />
      <circle
         id="circle2396"
         r="12.703"
         cy="44.405998"
         cx="443.08499"
         style="fill:#e56353" />
      <rect
         id="rect2398"
         height="21.780001"
         width="55.199001"
         style="fill:#27a2db"
         y="122.747"
         x="65.668999" />
      <rect
         id="rect2400"
         height="21.780001"
         width="55.199001"
         style="fill:#e56353"
         y="122.747"
         x="157.67" />
      <rect
         id="rect2402"
         height="21.780001"
         width="118.118"
         style="fill:#44c4a1"
         y="122.747"
         x="258.40601" />
      <rect
         id="rect2404"
         height="21.780001"
         width="55.199001"
         style="fill:#27a2db"
         y="306.30399"
         x="65.668999" />
      <rect
         id="rect2406"
         height="21.780001"
         width="55.199001"
         style="fill:#e56353"
         y="306.30399"
         x="157.67" />
      <rect
         id="rect2408"
         height="21.780001"
         width="118.118"
         style="fill:#44c4a1"
         y="306.30399"
         x="258.40601" />
      <rect
         id="rect2410"
         height="21.780001"
         width="92.005997"
         style="fill:#fcd462"
         y="245.12"
         x="65.668999" />
      <rect
         id="rect2412"
         height="21.780001"
         width="55.199001"
         style="fill:#27a2db"
         y="245.12"
         x="185.754" />
      <rect
         id="rect2414"
         height="21.780001"
         width="107.489"
         style="fill:#d5d6db"
         y="245.12"
         x="269.056" />
      <g
         id="g2420">
	<rect
   id="rect2416"
   height="21.780001"
   width="55.199001"
   style="fill:#64798a"
   y="183.931"
   x="65.668999" />

	<rect
   id="rect2418"
   height="21.780001"
   width="120.09"
   style="fill:#64798a"
   y="183.931"
   x="157.67" />

</g>
      <rect
         id="rect2422"
         height="21.780001"
         width="64.886002"
         style="fill:#e56353"
         y="183.931"
         x="311.65399" />
      <rect
         id="rect2424"
         height="21.780001"
         width="55.199001"
         style="fill:#44c4a1"
         y="367.51401"
         x="65.668999" />
      <rect
         id="rect2426"
         height="21.780001"
         width="120.09"
         style="fill:#64798a"
         y="367.51401"
         x="157.67" />
      <rect
         id="rect2428"
         height="21.780001"
         width="64.886002"
         style="fill:#e56353"
         y="367.51401"
         x="311.65399" />
      <circle
         id="ellipse2430"
         cy="265.23001"
         cx="237.459"
         style="opacity:0.25;fill:#27a2db;enable-background:new"
         r="87.911003" />
      <path
         id="path2432"
         d="m 307.355,356.513 18.335,18.334 21.351,-21.351 -18.335,-18.335 c 34.641,-45.121 31.415,-109.972 -9.896,-151.284 -44.939,-44.939 -117.8,-44.938 -162.74,10e-4 -44.94,44.939 -44.938,117.799 0.001,162.738 41.312,41.312 106.163,44.538 151.284,9.897 z M 175.287,327.401 c -34.327,-34.326 -34.327,-89.981 0,-124.307 34.327,-34.328 89.981,-34.327 124.307,0 34.327,34.326 34.327,89.98 0,124.307 -34.326,34.327 -89.981,34.327 -124.307,0 z"
         style="fill:#3a556a"
         inkscape:connector-curvature="0" />
      <path
         id="path2434"
         d="m 320.053,376.735 28.876,-28.875 c 1.438,-1.438 3.769,-1.438 5.207,-0.001 L 365.083,358.807 331,392.89 320.053,381.942 c -1.438,-1.438 -1.438,-3.769 0,-5.207 z"
         style="fill:#2f4859"
         inkscape:connector-curvature="0" />
      <path
         id="path2436"
         d="m 327.159,400.272 c -0.978,-0.979 -0.978,-2.564 0,-3.542 l 41.765,-41.765 c 0.978,-0.978 2.563,-0.978 3.542,0 l 73.236,73.236 -45.307,45.307 z"
         style="fill:#fcd462"
         inkscape:connector-curvature="0" />
      <path
         id="path2438"
         d="m 445.702,428.202 9.337,9.337 c 0.979,0.979 0.979,2.564 0.001,3.542 l -41.766,41.766 c -0.977,0.977 -2.563,0.977 -3.541,-10e-4 l -9.338,-9.337 z"
         style="fill:#f6c358"
         inkscape:connector-curvature="0" />
      <g
         id="g2440">
</g>
      <g
         id="g2442">
</g>
      <g
         id="g2444">
</g>
      <g
         id="g2446">
</g>
      <g
         id="g2448">
</g>
      <g
         id="g2450">
</g>
      <g
         id="g2452">
</g>
      <g
         id="g2454">
</g>
      <g
         id="g2456">
</g>
      <g
         id="g2458">
</g>
      <g
         id="g2460">
</g>
      <g
         id="g2462">
</g>
      <g
         id="g2464">
</g>
      <g
         id="g2466">
</g>
      <g
         id="g2468">
</g>
    </g>
  </g>
</svg>
