<?xml version="1.0" encoding="UTF-8" standalone="no"?>
<!-- Created with Inkscape (http://www.inkscape.org/) -->

<svg
   xmlns:dc="http://purl.org/dc/elements/1.1/"
   xmlns:cc="http://creativecommons.org/ns#"
   xmlns:rdf="http://www.w3.org/1999/02/22-rdf-syntax-ns#"
   xmlns:svg="http://www.w3.org/2000/svg"
   xmlns="http://www.w3.org/2000/svg"
   xmlns:sodipodi="http://sodipodi.sourceforge.net/DTD/sodipodi-0.dtd"
   xmlns:inkscape="http://www.inkscape.org/namespaces/inkscape"
   width="128"
   height="128"
   viewBox="0 0 33.866666 33.866668"
   version="1.1"
   id="svg8"
   inkscape:version="0.92.4 (5da689c313, 2019-01-14)"
   sodipodi:docname="services-botton-4-web-maintenance.svg">
  <defs
     id="defs2" />
  <sodipodi:namedview
     id="base"
     pagecolor="#ffffff"
     bordercolor="#666666"
     borderopacity="1.0"
     inkscape:pageopacity="0.0"
     inkscape:pageshadow="2"
     inkscape:zoom="1.63"
     inkscape:cx="-31.096343"
     inkscape:cy="91.336241"
     inkscape:document-units="mm"
     inkscape:current-layer="layer2"
     showgrid="false"
     units="px"
     inkscape:window-width="1920"
     inkscape:window-height="1001"
     inkscape:window-x="-9"
     inkscape:window-y="-9"
     inkscape:window-maximized="1" />
  <metadata
     id="metadata5">
    <rdf:RDF>
      <cc:Work
         rdf:about="">
        <dc:format>image/svg+xml</dc:format>
        <dc:type
           rdf:resource="http://purl.org/dc/dcmitype/StillImage" />
        <dc:title></dc:title>
      </cc:Work>
    </rdf:RDF>
  </metadata>
  <g
     inkscape:groupmode="layer"
     id="layer2"
     inkscape:label="Capa 2">
    <g
       data-name="Website optimize"
       id="Website_optimize"
       transform="matrix(0.44475967,0,0,0.4177062,2.2717245,3.996726)">
      <path
         id="path1400"
         style="fill:#ffdaaa"
         d="m 3,13 h 58 v 40 a 2,2 0 0 1 -2,2 H 5 A 2,2 0 0 1 3,53 Z"
         inkscape:connector-curvature="0" />
      <path
         id="path1402"
         style="fill:#ffc477"
         d="m 25,55 h 34 a 2,2 0 0 0 2,-2 V 19 A 36,36 0 0 1 25,55 Z"
         inkscape:connector-curvature="0" />
      <path
         id="path1404"
         style="fill:#005ece"
         d="m 61,5 v 8 H 3 V 5 A 2.006,2.006 0 0 1 5,3 h 54 a 2.006,2.006 0 0 1 2,2 z"
         inkscape:connector-curvature="0" />
      <path
         id="path1406"
         style="fill:#ffcd00"
         d="M 55,6 H 27 a 2,2 0 0 0 0,4 h 28 a 2,2 0 0 0 0,-4 z"
         inkscape:connector-curvature="0" />
      <circle
         id="circle1408"
         style="fill:#57a4ff"
         r="1"
         cy="8"
         cx="8" />
      <circle
         id="circle1410"
         style="fill:#57a4ff"
         r="1"
         cy="8"
         cx="14" />
      <circle
         id="circle1412"
         style="fill:#57a4ff"
         r="1"
         cy="8"
         cx="20" />
      <path
         id="path1414"
         style="fill:#ffcd00"
         d="m 24.22,59.02 3.16,-3.16 A 9.244,9.244 0 0 0 29,56.54 V 61 h 6 v -4.46 a 9.244,9.244 0 0 0 1.62,-0.68 l 3.16,3.16 4.24,-4.24 -3.16,-3.16 A 9.244,9.244 0 0 0 41.54,50 H 46 v -6 h -4.46 a 9.244,9.244 0 0 0 -0.68,-1.62 l 3.16,-3.16 -4.24,-4.24 -3.16,3.16 A 9.244,9.244 0 0 0 35,37.46 V 33 h -6 v 4.46 a 9.244,9.244 0 0 0 -1.62,0.68 l -3.16,-3.16 -4.24,4.24 3.16,3.16 A 9.244,9.244 0 0 0 22.46,44 H 18 v 6 h 4.46 a 9.244,9.244 0 0 0 0.68,1.62 l -3.16,3.16 z M 32,42 a 5,5 0 1 1 -5,5 5,5 0 0 1 5,-5 z"
         inkscape:connector-curvature="0" />
      <circle
         id="circle1416"
         style="fill:#f1f2f2"
         r="5"
         cy="47"
         cx="32" />
      <path
         id="path1418"
         style="fill:#ed1c24"
         d="M 45,25.037 47,22 h 6.32 A 7,7 0 0 0 41.948,20.154 5.97,5.97 0 0 1 37.63,22 H 14 a 3,3 0 0 0 0,6 H 37.63 A 5.97,5.97 0 0 1 41.948,29.846 7,7 0 0 0 53.32,28 H 47 Z"
         inkscape:connector-curvature="0" />
      <path
         id="path1420"
         d="M 59,2 H 5 A 3,3 0 0 0 2,5 v 48 a 3,3 0 0 0 3,3 h 14.786 l 3.727,3.727 a 1,1 0 0 0 1.414,0 l 2.654,-2.654 c 0.136,0.059 0.275,0.117 0.419,0.174 V 61 a 1,1 0 0 0 1,1 h 6 a 1,1 0 0 0 1,-1 v -3.753 c 0.144,-0.057 0.283,-0.115 0.419,-0.174 l 2.654,2.654 a 1.029,1.029 0 0 0 1.414,0 L 44.214,56 H 59 a 3,3 0 0 0 3,-3 V 5 A 3,3 0 0 0 59,2 Z M 39.78,57.606 37.327,55.153 A 1,1 0 0 0 36.139,54.983 8.112,8.112 0 0 1 34.693,55.588 1,1 0 0 0 34,56.54 V 60 h -4 v -3.46 a 1,1 0 0 0 -0.693,-0.952 8.112,8.112 0 0 1 -1.446,-0.605 1,1 0 0 0 -1.188,0.17 L 24.22,57.606 21.4,54.78 23.852,52.327 A 1,1 0 0 0 24.022,51.14 8.225,8.225 0 0 1 23.417,49.694 1,1 0 0 0 22.46,49 H 19 v -4 h 3.46 a 1,1 0 0 0 0.952,-0.694 8.225,8.225 0 0 1 0.605,-1.446 1,1 0 0 0 -0.17,-1.187 L 21.4,39.22 l 2.825,-2.826 2.453,2.453 a 1,1 0 0 0 1.188,0.17 8.112,8.112 0 0 1 1.446,-0.605 A 1,1 0 0 0 30,37.46 V 34 h 4 v 3.46 a 1,1 0 0 0 0.693,0.952 8.112,8.112 0 0 1 1.446,0.605 1,1 0 0 0 1.188,-0.17 l 2.453,-2.453 2.825,2.826 -2.452,2.453 a 1,1 0 0 0 -0.17,1.187 8.225,8.225 0 0 1 0.605,1.446 A 1,1 0 0 0 41.54,45 H 45 v 4 h -3.46 a 1,1 0 0 0 -0.952,0.694 8.225,8.225 0 0 1 -0.605,1.446 1,1 0 0 0 0.17,1.187 l 2.452,2.453 z M 60,53 a 1,1 0 0 1 -1,1 H 44.654 L 42.073,51.418 C 42.133,51.283 42.19,51.144 42.247,51 H 46 a 1,1 0 0 0 1,-1 V 44 A 1,1 0 0 0 46,43 H 42.247 C 42.19,42.856 42.133,42.717 42.073,42.581 l 2.654,-2.654 a 1,1 0 0 0 0,-1.414 l -4.24,-4.24 a 1,1 0 0 0 -1.414,0 l -2.654,2.654 C 36.283,36.868 36.144,36.81 36,36.753 V 33 a 1,1 0 0 0 -1,-1 h -6 a 1,1 0 0 0 -1,1 v 3.753 c -0.144,0.057 -0.283,0.115 -0.419,0.174 l -2.654,-2.654 a 1.029,1.029 0 0 0 -1.414,0 l -4.24,4.24 a 1,1 0 0 0 0,1.414 l 2.654,2.654 C 21.867,42.717 21.81,42.856 21.753,43 H 18 a 1,1 0 0 0 -1,1 v 6 a 1,1 0 0 0 1,1 h 3.753 c 0.057,0.144 0.114,0.283 0.174,0.418 L 19.346,54 H 5 A 1,1 0 0 1 4,53 V 14 H 60 Z M 4,12 V 5 A 1,1 0 0 1 5,4 h 54 a 1,1 0 0 1 1,1 v 7 z"
         inkscape:connector-curvature="0" />
      <path
         id="path1422"
         d="M 55,5 H 27 a 3,3 0 0 0 0,6 h 28 a 3,3 0 0 0 0,-6 z m 0,4 H 27 a 1,1 0 0 1 0,-2 h 28 a 1,1 0 0 1 0,2 z"
         inkscape:connector-curvature="0" />
      <circle
         id="circle1424"
         r="2"
         cy="8"
         cx="8" />
      <circle
         id="circle1426"
         r="2"
         cy="8"
         cx="14" />
      <circle
         id="circle1428"
         r="2"
         cy="8"
         cx="20" />
      <path
         id="path1430"
         d="m 32,41 a 6,6 0 1 0 6,6 6.006,6.006 0 0 0 -6,-6 z m 0,10 a 4,4 0 1 1 4,-4 4,4 0 0 1 -4,4 z"
         inkscape:connector-curvature="0" />
      <path
         id="path1432"
         d="m 14,29 h 23.63 a 5,5 0 0 1 3.6,1.537 8,8 0 0 0 13,-2.11 A 1,1 0 0 0 53.32,27 H 47.531 L 46.2,25.03 47.539,23 h 5.781 a 1,1 0 0 0 0.905,-1.427 8,8 0 0 0 -13,-2.11 A 5,5 0 0 1 37.63,21 H 14 a 4,4 0 0 0 0,8 z m 0,-6 H 37.63 A 7.005,7.005 0 0 0 42.671,20.845 6.007,6.007 0 0 1 51.478,21 H 47 a 1,1 0 0 0 -0.835,0.45 l -2,3.037 a 1,1 0 0 0 0.006,1.109 l 2,2.964 A 1,1 0 0 0 47,29 h 4.478 A 6.007,6.007 0 0 1 42.671,29.155 7.005,7.005 0 0 0 37.63,27 H 14 a 2,2 0 0 1 0,-4 z"
         inkscape:connector-curvature="0" />
      <path
         id="path1434"
         d="m 15,26 h 1 a 1,1 0 0 0 0,-2 h -1 a 1,1 0 0 0 0,2 z"
         inkscape:connector-curvature="0" />
      <path
         id="path1436"
         d="m 19,26 h 14 a 1,1 0 0 0 0,-2 H 19 a 1,1 0 0 0 0,2 z"
         inkscape:connector-curvature="0" />
      <path
         id="path1438"
         d="m 36,26 h 1 a 1,1 0 0 0 0,-2 h -1 a 1,1 0 0 0 0,2 z"
         inkscape:connector-curvature="0" />
    </g>
  </g>
</svg>
