<?xml version="1.0" encoding="UTF-8" standalone="no"?>
<!-- Created with Inkscape (http://www.inkscape.org/) -->

<svg
   xmlns:dc="http://purl.org/dc/elements/1.1/"
   xmlns:cc="http://creativecommons.org/ns#"
   xmlns:rdf="http://www.w3.org/1999/02/22-rdf-syntax-ns#"
   xmlns:svg="http://www.w3.org/2000/svg"
   xmlns="http://www.w3.org/2000/svg"
   xmlns:sodipodi="http://sodipodi.sourceforge.net/DTD/sodipodi-0.dtd"
   xmlns:inkscape="http://www.inkscape.org/namespaces/inkscape"
   width="128"
   height="128"
   viewBox="0 0 33.866666 33.866668"
   version="1.1"
   id="svg8"
   inkscape:version="0.92.4 (5da689c313, 2019-01-14)"
   sodipodi:docname="services-botton-6-hacked-web.svg">
  <defs
     id="defs2" />
  <sodipodi:namedview
     id="base"
     pagecolor="#ffffff"
     bordercolor="#666666"
     borderopacity="1.0"
     inkscape:pageopacity="0.0"
     inkscape:pageshadow="2"
     inkscape:zoom="1.63"
     inkscape:cx="-31.096343"
     inkscape:cy="91.336241"
     inkscape:document-units="mm"
     inkscape:current-layer="layer2"
     showgrid="false"
     units="px"
     inkscape:window-width="1920"
     inkscape:window-height="1001"
     inkscape:window-x="-9"
     inkscape:window-y="-9"
     inkscape:window-maximized="1" />
  <metadata
     id="metadata5">
    <rdf:RDF>
      <cc:Work
         rdf:about="">
        <dc:format>image/svg+xml</dc:format>
        <dc:type
           rdf:resource="http://purl.org/dc/dcmitype/StillImage" />
        <dc:title></dc:title>
      </cc:Work>
    </rdf:RDF>
  </metadata>
  <g
     inkscape:groupmode="layer"
     id="layer2"
     inkscape:label="Capa 2">
    <g
       id="XMLID_646_"
       transform="matrix(0.05085258,0,0,0.06283865,3.7891419,0.99131123)">
	<g
   id="XMLID_647_">
		<g
   id="XMLID_648_">
			<g
   id="XMLID_649_">
				<g
   id="XMLID_650_">
					<path
   d="M 487.42,66.851 H 24.58 c -9.433,0 -17.08,7.647 -17.08,17.08 v 344.138 c 0,9.433 7.647,17.08 17.08,17.08 h 462.84 c 9.433,0 17.08,-7.647 17.08,-17.08 V 83.931 c 0,-9.433 -7.647,-17.08 -17.08,-17.08 z"
   style="fill:#4e7693"
   id="XMLID_2366_"
   inkscape:connector-curvature="0" />

					<path
   d="M 504.5,428.064 V 83.935 c 0,-9.44 -7.65,-17.08 -17.08,-17.08 h -27.5 c 9.43,0 17.08,7.64 17.08,17.08 v 344.13 c 0,9.44 -7.65,17.08 -17.08,17.08 h 27.5 c 9.43,0 17.08,-7.64 17.08,-17.081 z"
   style="fill:#38627c"
   id="XMLID_2363_"
   inkscape:connector-curvature="0" />

					<path
   d="m 504.5,140.814 v -56.88 c 0,-9.44 -7.65,-17.08 -17.08,-17.08 H 24.58 c -9.43,0 -17.08,7.64 -17.08,17.08 v 56.88 z"
   style="fill:#e3f4ff"
   id="XMLID_2360_"
   inkscape:connector-curvature="0" />

					<path
   d="m 504.5,140.814 v -56.88 c 0,-9.44 -7.65,-17.08 -17.08,-17.08 h -27.5 c 9.43,0 17.08,7.64 17.08,17.08 v 56.88 z"
   style="fill:#bddff4"
   id="XMLID_2357_"
   inkscape:connector-curvature="0" />

				</g>

			</g>

		</g>

		<g
   id="XMLID_651_">
			<path
   d="M 397.283,293.717 H 114.717 C 83.945,293.717 59,268.772 59,238 v 0 c 0,-30.772 24.945,-55.717 55.717,-55.717 H 397.283 C 428.055,182.283 453,207.228 453,238 v 0 c 0,30.772 -24.945,55.717 -55.717,55.717 z"
   style="fill:#1fe7a5"
   id="XMLID_2353_"
   inkscape:connector-curvature="0" />

		</g>

	</g>

	<g
   id="XMLID_656_">
		<path
   d="M 487.42,59.352 H 263.261 c -4.142,0 -7.5,3.357 -7.5,7.5 0,4.143 3.358,7.5 7.5,7.5 H 487.42 c 5.283,0 9.58,4.298 9.58,9.58 V 133.32 H 15 V 83.932 c 0,-5.282 4.297,-9.58 9.58,-9.58 h 204.159 c 4.142,0 7.5,-3.357 7.5,-7.5 0,-4.143 -3.358,-7.5 -7.5,-7.5 H 24.58 C 11.026,59.352 0,70.378 0,83.932 v 208.807 c 0,4.143 3.358,7.5 7.5,7.5 4.142,0 7.5,-3.357 7.5,-7.5 v -144.42 h 482 v 279.749 c 0,5.282 -4.297,9.58 -9.58,9.58 H 24.58 c -5.283,0 -9.58,-4.298 -9.58,-9.58 V 327.262 c 0,-4.143 -3.358,-7.5 -7.5,-7.5 -4.142,0 -7.5,3.357 -7.5,7.5 v 100.807 c 0,13.554 11.026,24.58 24.58,24.58 h 462.84 c 13.554,0 24.58,-11.026 24.58,-24.58 V 83.932 c 0,-13.554 -11.026,-24.58 -24.58,-24.58 z"
   id="XMLID_657_"
   inkscape:connector-curvature="0" />

		<path
   d="m 96.012,103.764 c 0,4.143 3.358,7.5 7.5,7.5 h 0.094 c 4.142,0 7.453,-3.357 7.453,-7.5 0,-4.143 -3.405,-7.5 -7.547,-7.5 -4.142,0 -7.5,3.357 -7.5,7.5 z"
   id="XMLID_658_"
   inkscape:connector-curvature="0" />

		<path
   d="m 71.535,103.913 c 0.043,4.115 3.392,7.422 7.498,7.422 0.026,0 0.053,0 0.08,0 l 0.094,-10e-4 c 4.142,-0.044 7.418,-3.436 7.375,-7.578 -0.043,-4.142 -3.512,-7.477 -7.625,-7.421 -4.143,0.044 -7.465,3.436 -7.422,7.578 z"
   id="XMLID_659_"
   inkscape:connector-curvature="0" />

		<path
   d="m 54.479,96.406 c -4.142,0.043 -7.465,3.436 -7.422,7.578 0.042,4.115 3.392,7.422 7.498,7.422 0.026,0 0.053,0 0.079,0 l 0.094,-0.001 c 4.142,-0.043 7.418,-3.436 7.375,-7.577 -0.043,-4.115 -3.438,-7.422 -7.545,-7.422 -0.026,0 -0.053,0 -0.079,0 z"
   id="XMLID_660_"
   inkscape:connector-curvature="0" />

		<path
   d="m 149.253,96.406 c -4.142,0 -7.5,3.357 -7.5,7.5 0,4.143 3.358,7.5 7.5,7.5 h 26.028 c 4.142,0 7.5,-3.357 7.5,-7.5 0,-4.143 -3.358,-7.5 -7.5,-7.5 z"
   id="XMLID_661_"
   inkscape:connector-curvature="0" />

		<path
   d="M 320.739,174.783 H 114.717 c -34.858,0 -63.217,28.36 -63.217,63.217 0,34.857 28.359,63.217 63.217,63.217 h 282.565 c 34.858,0 63.217,-28.359 63.217,-63.217 0,-34.858 -28.359,-63.217 -63.217,-63.217 h -42.021 c -4.142,0 -7.5,3.357 -7.5,7.5 0,4.143 3.358,7.5 7.5,7.5 h 42.021 c 26.587,0 48.217,21.63 48.217,48.217 0,26.587 -21.63,48.217 -48.217,48.217 H 114.717 C 88.13,286.217 66.5,264.587 66.5,238 c 0,-26.587 21.63,-48.217 48.217,-48.217 h 206.021 c 4.142,0 7.5,-3.357 7.5,-7.5 0,-4.143 -3.357,-7.5 -7.499,-7.5 z"
   id="XMLID_662_"
   inkscape:connector-curvature="0" />

		<path
   d="m 377.778,263.969 c 10.875,0 19.722,-8.848 19.722,-19.723 v -12.299 c 0,-10.875 -8.847,-19.723 -19.722,-19.723 H 369 c -7.444,0 -13.5,6.056 -13.5,13.5 v 24.744 c 0,7.444 6.056,13.5 13.5,13.5 h 8.778 z M 370.5,227.225 h 7.278 c 2.604,0 4.722,2.118 4.722,4.723 v 12.299 c 0,2.604 -2.118,4.723 -4.722,4.723 H 370.5 Z"
   id="XMLID_663_"
   inkscape:connector-curvature="0" />

		<path
   d="m 149,263.969 c 4.142,0 7.5,-3.357 7.5,-7.5 v -36.744 c 0,-4.143 -3.358,-7.5 -7.5,-7.5 -4.142,0 -7.5,3.357 -7.5,7.5 v 10.872 h -12 v -10.872 c 0,-4.143 -3.358,-7.5 -7.5,-7.5 -4.142,0 -7.5,3.357 -7.5,7.5 v 36.744 c 0,4.143 3.358,7.5 7.5,7.5 4.142,0 7.5,-3.357 7.5,-7.5 v -10.872 h 12 v 10.872 c 0,4.142 3.358,7.5 7.5,7.5 z"
   id="XMLID_666_"
   inkscape:connector-curvature="0" />

		<path
   d="m 294.857,214.65 c -2.803,-3.05 -7.547,-3.252 -10.597,-0.449 l -10.426,9.578 v -4.054 c 0,-4.143 -3.358,-7.5 -7.5,-7.5 -4.142,0 -7.5,3.357 -7.5,7.5 v 36.744 c 0,4.143 3.358,7.5 7.5,7.5 4.142,0 7.5,-3.357 7.5,-7.5 v -4.054 l 10.426,9.578 c 1.44,1.323 3.259,1.977 5.072,1.977 2.026,0 4.046,-0.816 5.525,-2.426 2.802,-3.051 2.601,-7.795 -0.45,-10.598 l -13.987,-12.849 13.987,-12.849 c 3.051,-2.803 3.252,-7.547 0.45,-10.598 z"
   id="XMLID_667_"
   inkscape:connector-curvature="0" />

		<path
   d="m 201.5,263.969 c 4.142,0 7.5,-3.357 7.5,-7.5 v -23.244 c 0,-11.579 -9.42,-21 -21,-21 -11.58,0 -21,9.421 -21,21 v 23.244 c 0,4.143 3.358,7.5 7.5,7.5 4.142,0 7.5,-3.357 7.5,-7.5 v -3.5 h 12 v 3.5 c 0,4.142 3.358,7.5 7.5,7.5 z m -19.5,-26 v -4.744 c 0,-3.309 2.691,-6 6,-6 3.309,0 6,2.691 6,6 v 4.744 z"
   id="XMLID_668_"
   inkscape:connector-curvature="0" />

		<path
   d="m 242.275,227.225 c 4.142,0 7.5,-3.357 7.5,-7.5 0,-4.143 -3.358,-7.5 -7.5,-7.5 -14.212,0 -25.775,11.563 -25.775,25.775 0,14.212 11.563,25.775 25.775,25.775 4.142,0 7.5,-3.357 7.5,-7.5 0,-4.143 -3.358,-7.5 -7.5,-7.5 -5.941,0 -10.775,-4.834 -10.775,-10.775 0,-5.941 4.833,-10.775 10.775,-10.775 z"
   id="XMLID_671_"
   inkscape:connector-curvature="0" />

		<path
   d="m 338.388,227.225 c 4.142,0 7.5,-3.357 7.5,-7.5 0,-4.143 -3.358,-7.5 -7.5,-7.5 h -17 c -7.444,0 -13.5,6.056 -13.5,13.5 v 24.744 c 0,7.444 6.056,13.5 13.5,13.5 h 17 c 4.142,0 7.5,-3.357 7.5,-7.5 0,-4.143 -3.358,-7.5 -7.5,-7.5 h -15.5 v -3.372 h 15.5 c 4.142,0 7.5,-3.357 7.5,-7.5 0,-4.143 -3.358,-7.5 -7.5,-7.5 h -15.5 v -3.372 z"
   id="XMLID_672_"
   inkscape:connector-curvature="0" />

		<path
   d="m 152.167,327.892 h -81 c -4.142,0 -7.5,3.357 -7.5,7.5 0,4.143 3.358,7.5 7.5,7.5 h 81 c 4.142,0 7.5,-3.357 7.5,-7.5 0,-4.143 -3.358,-7.5 -7.5,-7.5 z"
   id="XMLID_673_"
   inkscape:connector-curvature="0" />

		<path
   d="m 152.167,359.5 h -81 c -4.142,0 -7.5,3.357 -7.5,7.5 0,4.143 3.358,7.5 7.5,7.5 h 81 c 4.142,0 7.5,-3.357 7.5,-7.5 0,-4.143 -3.358,-7.5 -7.5,-7.5 z"
   id="XMLID_674_"
   inkscape:connector-curvature="0" />

		<path
   d="m 152.167,391.108 h -81 c -4.142,0 -7.5,3.357 -7.5,7.5 0,4.143 3.358,7.5 7.5,7.5 h 81 c 4.142,0 7.5,-3.357 7.5,-7.5 0,-4.143 -3.358,-7.5 -7.5,-7.5 z"
   id="XMLID_675_"
   inkscape:connector-curvature="0" />

		<path
   d="m 296.5,327.892 h -81 c -4.142,0 -7.5,3.357 -7.5,7.5 0,4.143 3.358,7.5 7.5,7.5 h 81 c 4.142,0 7.5,-3.357 7.5,-7.5 0,-4.143 -3.358,-7.5 -7.5,-7.5 z"
   id="XMLID_676_"
   inkscape:connector-curvature="0" />

		<path
   d="m 296.5,359.5 h -81 c -4.142,0 -7.5,3.357 -7.5,7.5 0,4.143 3.358,7.5 7.5,7.5 h 81 c 4.142,0 7.5,-3.357 7.5,-7.5 0,-4.143 -3.358,-7.5 -7.5,-7.5 z"
   id="XMLID_677_"
   inkscape:connector-curvature="0" />

		<path
   d="m 296.5,391.108 h -81 c -4.142,0 -7.5,3.357 -7.5,7.5 0,4.143 3.358,7.5 7.5,7.5 h 81 c 4.142,0 7.5,-3.357 7.5,-7.5 0,-4.143 -3.358,-7.5 -7.5,-7.5 z"
   id="XMLID_678_"
   inkscape:connector-curvature="0" />

		<path
   d="m 440.833,327.892 h -81 c -4.142,0 -7.5,3.357 -7.5,7.5 0,4.143 3.358,7.5 7.5,7.5 h 81 c 4.142,0 7.5,-3.357 7.5,-7.5 0,-4.143 -3.357,-7.5 -7.5,-7.5 z"
   id="XMLID_679_"
   inkscape:connector-curvature="0" />

		<path
   d="m 440.833,359.5 h -81 c -4.142,0 -7.5,3.357 -7.5,7.5 0,4.143 3.358,7.5 7.5,7.5 h 81 c 4.142,0 7.5,-3.357 7.5,-7.5 0,-4.143 -3.357,-7.5 -7.5,-7.5 z"
   id="XMLID_680_"
   inkscape:connector-curvature="0" />

		<path
   d="m 440.833,391.108 h -81 c -4.142,0 -7.5,3.357 -7.5,7.5 0,4.143 3.358,7.5 7.5,7.5 h 81 c 4.142,0 7.5,-3.357 7.5,-7.5 0,-4.143 -3.357,-7.5 -7.5,-7.5 z"
   id="XMLID_681_"
   inkscape:connector-curvature="0" />

	</g>

</g>
  </g>
</svg>
