<?xml version="1.0" encoding="UTF-8" standalone="no"?>
<!-- Generator: Adobe Illustrator 15.0.0, SVG Export Plug-In . SVG Version: 6.00 Build 0)  -->

<svg
   version="1.1"
   id="Layer_1"
   x="0px"
   y="0px"
   width="1750"
   height="1300"
   viewBox="0 0 1750 1300"
   enable-background="new 0 0 1987 2441"
   xml:space="preserve"
   sodipodi:docname="004-grafic-poblacio-ciutats-europa-1800.svg"
   inkscape:version="1.2.2 (1:1.2.2+202212051551+b0a8486541)"
   inkscape:export-filename="../../../../../../../Downloads/mapa de bits.png"
   inkscape:export-xdpi="149"
   inkscape:export-ydpi="149"
   xmlns:inkscape="http://www.inkscape.org/namespaces/inkscape"
   xmlns:sodipodi="http://sodipodi.sourceforge.net/DTD/sodipodi-0.dtd"
   xmlns="http://www.w3.org/2000/svg"
   xmlns:svg="http://www.w3.org/2000/svg"><defs
   id="defs4913"><rect
     x="1975.2843"
     y="2490.8157"
     width="314.14597"
     height="44.358299"
     id="rect786" /><rect
     x="1981.4211"
     y="2485.0813"
     width="309.52112"
     height="66.670555"
     id="rect6031" /><rect
     x="1981.4211"
     y="2485.0813"
     width="309.52112"
     height="66.670555"
     id="rect780" /></defs><sodipodi:namedview
   id="namedview4911"
   pagecolor="#ffffff"
   bordercolor="#666666"
   borderopacity="1.0"
   inkscape:showpageshadow="2"
   inkscape:pageopacity="0.0"
   inkscape:pagecheckerboard="0"
   inkscape:deskcolor="#d1d1d1"
   showgrid="false"
   inkscape:zoom="0.54691421"
   inkscape:cx="1076.0371"
   inkscape:cy="714.00595"
   inkscape:window-width="1920"
   inkscape:window-height="1016"
   inkscape:window-x="0"
   inkscape:window-y="27"
   inkscape:window-maximized="1"
   inkscape:current-layer="g8920"
   showguides="true" />
<g
   inkscape:groupmode="layer"
   id="layer3"
   inkscape:label="fons"
   style="display:inline"
   sodipodi:insensitive="true"><rect
     style="display:inline;fill:none;stroke:#020000;stroke-width:5.97137;stroke-miterlimit:4;stroke-dasharray:none;stroke-opacity:1"
     id="rect2240"
     width="1744.0287"
     height="1294.0286"
     x="2.9856851"
     y="2.9856851"
     inkscape:export-filename="/home/elliot/image2027.png"
     inkscape:export-xdpi="149"
     inkscape:export-ydpi="149" /><rect
     style="display:inline;fill:#f2f2f2;fill-opacity:1;stroke:none;stroke-width:2.48843;stroke-linecap:round;stroke-linejoin:round;stroke-miterlimit:4;stroke-dasharray:none;stroke-opacity:1"
     id="rect838-3"
     width="1736.6779"
     height="79.989861"
     x="6.0570841"
     y="5.8198385"
     inkscape:export-filename="/home/elliot/image2027.png"
     inkscape:export-xdpi="149"
     inkscape:export-ydpi="149" /><rect
     style="display:inline;fill:#666666;fill-opacity:1;stroke:none;stroke-width:2.60676;stroke-linecap:round;stroke-linejoin:round;stroke-miterlimit:4;stroke-dasharray:none;stroke-opacity:1"
     id="rect838-3-3"
     width="1738.0665"
     height="87.707336"
     x="5.966949"
     y="1206.3452"
     inkscape:export-filename="/home/elliot/image2027.png"
     inkscape:export-xdpi="149"
     inkscape:export-ydpi="149" /><rect
     style="font-variation-settings:normal;opacity:1;vector-effect:none;fill:#ffffff;fill-opacity:1;stroke-width:1.57562;stroke-linecap:butt;stroke-linejoin:miter;stroke-miterlimit:4;stroke-dasharray:none;stroke-dashoffset:0;stroke-opacity:1;-inkscape-stroke:none;stop-color:#000000;stop-opacity:1"
     id="rect9377"
     width="1737.9653"
     height="1131.0939"
     x="6.0837398"
     y="85.815666" /></g><g
   inkscape:groupmode="layer"
   id="layer4"
   inkscape:label="mapa"
   style="display:inline"
   sodipodi:insensitive="true"><rect
     style="display:inline;fill:#000000;fill-opacity:1;stroke:none;stroke-width:0.936909;stroke-dasharray:none;stop-color:#000000"
     id="rect18326-6-8-36"
     width="3.0108793"
     height="6.5365295"
     x="1066.8042"
     y="-190.01434"
     transform="matrix(-6.8233309e-4,0.99999977,-0.99998265,-0.0058913,0,0)" /><text
     xml:space="preserve"
     style="font-weight:bold;font-size:20px;line-height:1.25;font-family:Arial;-inkscape-font-specification:'Arial Bold';white-space:pre;inline-size:0;display:inline"
     x="56.19099"
     y="751.04047"
     id="text12633"
     transform="translate(112.28977,326.3594)"><tspan
       id="tspan12631"
       x="56.19099"
       y="751.04047"
       style="font-size:20px">0</tspan></text><text
     xml:space="preserve"
     style="font-weight:bold;font-size:20px;line-height:1.25;font-family:Arial;-inkscape-font-specification:'Arial Bold';display:inline"
     x="146.48074"
     y="1001.3998"
     id="text12633-9-0"><tspan
       sodipodi:role="line"
       id="tspan12631-5-4"
       x="146.48074"
       y="1001.3998"
       style="font-size:20px">100</tspan></text><text
     xml:space="preserve"
     style="font-weight:bold;font-size:20px;line-height:1.25;font-family:Arial;-inkscape-font-specification:'Arial Bold';display:inline"
     x="146.48074"
     y="923.39984"
     id="text12633-9-0-5"><tspan
       sodipodi:role="line"
       id="tspan12631-5-4-9"
       x="146.48074"
       y="923.39984"
       style="font-size:20px">200</tspan></text><text
     xml:space="preserve"
     style="font-weight:bold;font-size:20px;line-height:1.25;font-family:Arial;-inkscape-font-specification:'Arial Bold';display:inline"
     x="146.48074"
     y="849.39984"
     id="text12633-2"><tspan
       sodipodi:role="line"
       id="tspan12631-2"
       x="146.48074"
       y="849.39984"
       style="font-size:20px">300</tspan></text><rect
     style="fill:#666666;stroke-width:38.0852;stop-color:#000000"
     id="rect7647"
     width="1480"
     height="3"
     x="183.06123"
     y="993.74396" /><rect
     style="display:inline;fill:#666666;stroke-width:38.0852;stop-color:#000000"
     id="rect7647-1"
     width="1480"
     height="3"
     x="183.06123"
     y="915.7439" /><rect
     style="display:inline;fill:#666666;stroke-width:38.0852;stop-color:#000000"
     id="rect7647-8"
     width="1480"
     height="3"
     x="183.06123"
     y="841.7439" /><rect
     style="display:inline;fill:#666666;stroke-width:38.0852;stop-color:#000000"
     id="rect7647-1-7"
     width="1480"
     height="3"
     x="183.06123"
     y="763.7439" /><rect
     style="display:inline;fill:#666666;stroke-width:38.0852;stop-color:#000000"
     id="rect7647-9"
     width="1480"
     height="3"
     x="183.06123"
     y="685.7439" /><rect
     style="display:inline;fill:#666666;stroke-width:38.0852;stop-color:#000000"
     id="rect7647-1-2"
     width="1480"
     height="3"
     x="183.06123"
     y="607.7439" /><rect
     style="display:inline;fill:#666666;stroke-width:38.0852;stop-color:#000000"
     id="rect7647-8-0"
     width="1480"
     height="3"
     x="183.06123"
     y="533.7439" /><rect
     style="display:inline;fill:#666666;stroke-width:38.0852;stop-color:#000000"
     id="rect7647-1-7-2"
     width="1480"
     height="3"
     x="183.06123"
     y="455.7439" /><rect
     style="display:inline;fill:#666666;stroke-width:38.0852;stop-color:#000000"
     id="rect7647-8-0-3"
     width="1480"
     height="3"
     x="183.06123"
     y="379.7439" /><rect
     style="display:inline;fill:#666666;stroke-width:38.0852;stop-color:#000000"
     id="rect7647-1-7-2-7"
     width="1480"
     height="3"
     x="183.06123"
     y="301.7439" /><path
     style="fill:none;stroke:#000000;stroke-width:6.01677;stroke-linecap:butt;stroke-linejoin:miter;stroke-dasharray:none;stroke-opacity:1"
     d="m 192.39921,1074.1199 1.1303,-774.43043 v 0"
     id="path9699" /><rect
     style="display:inline;fill:#000000;fill-opacity:1;stroke:none;stroke-width:1.60602;stroke-dasharray:none;stop-color:#000000"
     id="rect18326-60"
     width="3.0108845"
     height="19.206663"
     x="337.1011"
     y="1070.1389" /><rect
     style="display:inline;fill:#000000;fill-opacity:1;stroke:none;stroke-width:1.60602;stroke-dasharray:none;stop-color:#000000"
     id="rect18326-9-2"
     width="3.0108845"
     height="19.206663"
     x="635.10101"
     y="1070.1389" /><rect
     style="display:inline;fill:#000000;fill-opacity:1;stroke:none;stroke-width:1.60602;stroke-dasharray:none;stop-color:#000000"
     id="rect18326-60-4-3-8"
     width="3.0108845"
     height="19.206663"
     x="935.10107"
     y="1070.1389" /><rect
     style="display:inline;fill:#000000;fill-opacity:1;stroke:none;stroke-width:1.60602;stroke-dasharray:none;stop-color:#000000"
     id="rect18326-60-4-3-8-0"
     width="3.0108845"
     height="19.206663"
     x="1221.1011"
     y="1070.1389" /><rect
     style="display:inline;fill:#000000;fill-opacity:1;stroke:none;stroke-width:1.60602;stroke-dasharray:none;stop-color:#000000"
     id="rect18326-60-4-3-8-0-6"
     width="3.0108845"
     height="19.206663"
     x="1511.1011"
     y="1070.1389" /><path
     style="fill:none;stroke:#000000;stroke-width:7.56211;stroke-linecap:butt;stroke-linejoin:miter;stroke-dasharray:none;stroke-opacity:1"
     d="m 193.27076,1070.3779 1468.96584,-0.1105 v 0"
     id="path10261" /><text
     xml:space="preserve"
     style="font-weight:bold;font-size:20px;line-height:1.25;font-family:Arial;-inkscape-font-specification:'Arial Bold';display:inline"
     x="146.48074"
     y="771.39984"
     id="text12633-9-0-2"><tspan
       sodipodi:role="line"
       id="tspan12631-5-4-2"
       x="146.48074"
       y="771.39984"
       style="font-size:20px">400</tspan></text><text
     xml:space="preserve"
     style="font-weight:bold;font-size:20px;line-height:1.25;font-family:Arial;-inkscape-font-specification:'Arial Bold';display:inline"
     x="146.48074"
     y="693.39984"
     id="text12633-9-0-5-8"><tspan
       sodipodi:role="line"
       id="tspan12631-5-4-9-9"
       x="146.48074"
       y="693.39984"
       style="font-size:20px">500</tspan></text><text
     xml:space="preserve"
     style="font-weight:bold;font-size:20px;line-height:1.25;font-family:Arial;-inkscape-font-specification:'Arial Bold';display:inline"
     x="146.48074"
     y="619.39984"
     id="text12633-2-7"><tspan
       sodipodi:role="line"
       id="tspan12631-2-3"
       x="146.48074"
       y="619.39984"
       style="font-size:20px">600</tspan></text><text
     xml:space="preserve"
     style="font-weight:bold;font-size:20px;line-height:1.25;font-family:Arial;-inkscape-font-specification:'Arial Bold';display:inline"
     x="146.48074"
     y="541.39984"
     id="text12633-9-0-5-6"><tspan
       sodipodi:role="line"
       id="tspan12631-5-4-9-1"
       x="146.48074"
       y="541.39984"
       style="font-size:20px">700</tspan></text><text
     xml:space="preserve"
     style="font-weight:bold;font-size:20px;line-height:1.25;font-family:Arial;-inkscape-font-specification:'Arial Bold';display:inline"
     x="146.48074"
     y="467.39984"
     id="text12633-2-2"><tspan
       sodipodi:role="line"
       id="tspan12631-2-9"
       x="146.48074"
       y="467.39984"
       style="font-size:20px">800</tspan></text><text
     xml:space="preserve"
     style="font-weight:bold;font-size:20px;line-height:1.25;font-family:Arial;-inkscape-font-specification:'Arial Bold';display:inline"
     x="146.48074"
     y="389.39984"
     id="text12633-9-0-2-3"><tspan
       sodipodi:role="line"
       id="tspan12631-5-4-2-1"
       x="146.48074"
       y="389.39984"
       style="font-size:20px">900</tspan></text><text
     xml:space="preserve"
     style="font-weight:bold;font-size:20px;line-height:1.25;font-family:Arial;-inkscape-font-specification:'Arial Bold';display:inline"
     x="136.48074"
     y="311.39984"
     id="text12633-9-0-5-8-9"><tspan
       sodipodi:role="line"
       id="tspan12631-5-4-9-9-4"
       x="136.48074"
       y="311.39984"
       style="font-size:20px">1000</tspan></text><rect
     style="fill:#5f8dd3;stroke-width:2;stop-color:#000000"
     id="rect8026"
     width="115.9804"
     height="660.81079"
     x="280.50504"
     y="405.28607" /><rect
     style="display:inline;fill:#5f8dd3;stroke-width:1.5816;stop-color:#000000"
     id="rect8026-4"
     width="115.9804"
     height="413.24585"
     x="578.505"
     y="652.85101" /><rect
     style="font-variation-settings:normal;display:inline;opacity:1;vector-effect:none;fill:#5f8dd3;fill-opacity:1;stroke-width:1.5816;stroke-linecap:butt;stroke-linejoin:miter;stroke-miterlimit:4;stroke-dasharray:none;stroke-dashoffset:0;stroke-opacity:1;-inkscape-stroke:none;stop-color:#000000;stop-opacity:1"
     id="rect8026-4-5"
     width="115.9804"
     height="323.35599"
     x="878.505"
     y="742.74091" /><rect
     style="display:inline;fill:#5f8dd3;stroke-width:1.06292;stop-color:#000000"
     id="rect8026-4-3"
     width="115.9804"
     height="186.64369"
     x="1164.505"
     y="879.45319" /><rect
     style="display:inline;fill:#5f8dd3;stroke-width:1.04168;stop-color:#000000"
     id="rect8026-4-3-6"
     width="115.9804"
     height="179.25867"
     x="1454.505"
     y="886.8382" /></g><g
   inkscape:groupmode="layer"
   id="layer8"
   inkscape:label="noms"
   style="display:inline"><g
     inkscape:groupmode="layer"
     id="layer9"
     inkscape:label="catalan"
     style="display:none"
     sodipodi:insensitive="true"><text
       xml:space="preserve"
       style="font-weight:bold;font-size:28px;line-height:1.25;font-family:Arial;-inkscape-font-specification:'Arial Bold';white-space:pre;inline-size:197.512;display:inline"
       x="-41.143143"
       y="692.4303"
       id="text8150-0"
       transform="translate(877.10959,427.59882)"><tspan
         x="-41.143143"
         y="692.4303"
         id="tspan14388"><tspan
           style="text-align:center;text-anchor:middle"
           id="tspan14386">Nàpols </tspan></tspan><tspan
         x="-41.143143"
         y="727.43029"
         id="tspan14392"><tspan
           style="text-align:center;text-anchor:middle"
           id="tspan14390">(430.000 hab.)</tspan></tspan></text><text
       xml:space="preserve"
       style="font-weight:bold;font-size:28px;line-height:1.25;font-family:Arial;-inkscape-font-specification:'Arial Bold';white-space:pre;inline-size:197.512;display:inline"
       x="-41.143143"
       y="692.4303"
       id="text8150-0-6"
       transform="translate(1165.1096,427.59882)"><tspan
         x="-41.143143"
         y="692.4303"
         id="tspan14396"><tspan
           style="text-align:center;text-anchor:middle"
           id="tspan14394">Moscou </tspan></tspan><tspan
         x="-41.143143"
         y="727.43029"
         id="tspan14400"><tspan
           style="text-align:center;text-anchor:middle"
           id="tspan14398">(248.000 hab.)</tspan></tspan></text><text
       xml:space="preserve"
       style="font-weight:bold;font-size:28px;line-height:1.25;font-family:Arial;-inkscape-font-specification:'Arial Bold';white-space:pre;inline-size:213.42;display:inline"
       x="-41.143143"
       y="692.4303"
       id="text8150"
       transform="translate(271.10959,427.5988)"><tspan
         x="-41.143143"
         y="692.4303"
         id="tspan14404"><tspan
           style="text-align:center;text-anchor:middle"
           id="tspan14402">Londres </tspan></tspan><tspan
         x="-41.143143"
         y="727.43029"
         id="tspan14408"><tspan
           style="text-align:center;text-anchor:middle"
           id="tspan14406">(861.000 hab.)</tspan></tspan></text><text
       xml:space="preserve"
       style="font-weight:bold;font-size:28px;line-height:1.25;font-family:Arial;-inkscape-font-specification:'Arial Bold';text-align:center;text-anchor:middle;white-space:pre;inline-size:186.406;display:inline"
       x="50.000412"
       y="692.4303"
       id="text8150-1"
       transform="translate(587.10959,427.59882)"><tspan
         x="50.000412"
         y="692.4303"
         id="tspan14410">Paris<tspan
   y="692.4303"
   id="tspan14412"> </tspan></tspan><tspan
         x="50.000412"
         y="727.43029"
         id="tspan14414">(547.000 hab.)</tspan></text><text
       xml:space="preserve"
       style="font-weight:bold;font-size:28px;line-height:1.25;font-family:Arial;-inkscape-font-specification:'Arial Bold';white-space:pre;inline-size:197.512;display:inline"
       x="-41.143143"
       y="692.4303"
       id="text8150-0-3"
       transform="translate(1455.1096,427.59882)"><tspan
         x="-41.143143"
         y="692.4303"
         id="tspan14418"><tspan
           style="text-align:center;text-anchor:middle"
           id="tspan14416">Lisboa </tspan></tspan><tspan
         x="-41.143143"
         y="727.43029"
         id="tspan14422"><tspan
           style="text-align:center;text-anchor:middle"
           id="tspan14420">(237.000 hab.)</tspan></tspan></text></g><g
     inkscape:groupmode="layer"
     id="g19412"
     inkscape:label="english"
     style="display:none"
     sodipodi:insensitive="true"><text
       xml:space="preserve"
       style="font-weight:bold;font-size:28px;line-height:1.25;font-family:Arial;-inkscape-font-specification:'Arial Bold';white-space:pre;inline-size:210.826;display:inline"
       x="-41.143143"
       y="692.4303"
       id="text19372"
       transform="translate(873.10959,427.59882)"><tspan
         x="-41.143143"
         y="692.4303"
         id="tspan14426"><tspan
           style="text-align:center;text-anchor:middle"
           id="tspan14424">Naples
</tspan></tspan><tspan
         x="-41.143143"
         y="727.43029"
         id="tspan14430"><tspan
           style="text-align:center;text-anchor:middle"
           id="tspan14428">(430.000 inhab.)</tspan></tspan></text><text
       xml:space="preserve"
       style="font-weight:bold;font-size:28px;line-height:1.25;font-family:Arial;-inkscape-font-specification:'Arial Bold';white-space:pre;inline-size:214.696;display:inline"
       x="-41.143143"
       y="692.4303"
       id="text19382"
       transform="translate(1159.1096,427.59882)"><tspan
         x="-41.143143"
         y="692.4303"
         id="tspan14434"><tspan
           style="text-align:center;text-anchor:middle"
           id="tspan14432">Moscow </tspan></tspan><tspan
         x="-41.143143"
         y="727.43029"
         id="tspan14438"><tspan
           style="text-align:center;text-anchor:middle"
           id="tspan14436">(248.000 inhab.)</tspan></tspan></text><text
       xml:space="preserve"
       style="font-weight:bold;font-size:28px;line-height:1.25;font-family:Arial;-inkscape-font-specification:'Arial Bold';white-space:pre;inline-size:213.42;display:inline"
       x="-41.143143"
       y="692.4303"
       id="text19392"
       transform="translate(271.10959,427.5988)"><tspan
         x="-41.143143"
         y="692.4303"
         id="tspan14442"><tspan
           style="text-align:center;text-anchor:middle"
           id="tspan14440">London </tspan></tspan><tspan
         x="-41.143143"
         y="727.43029"
         id="tspan14446"><tspan
           style="text-align:center;text-anchor:middle"
           id="tspan14444">(861.000 inhab.)</tspan></tspan></text><text
       xml:space="preserve"
       style="font-weight:bold;font-size:28px;line-height:1.25;font-family:Arial;-inkscape-font-specification:'Arial Bold';text-align:center;text-anchor:middle;white-space:pre;inline-size:211.828;display:inline"
       x="50.000412"
       y="692.4303"
       id="text19400"
       transform="translate(585.10959,427.59882)"><tspan
         x="50.000412"
         y="692.4303"
         id="tspan14448">Paris 
</tspan><tspan
         x="50.000412"
         y="727.43029"
         id="tspan14450">(547.000 inhab.)</tspan></text><text
       xml:space="preserve"
       style="font-weight:bold;font-size:28px;line-height:1.25;font-family:Arial;-inkscape-font-specification:'Arial Bold';white-space:pre;inline-size:213.098;display:inline"
       x="-41.143143"
       y="692.4303"
       id="text19410"
       transform="translate(1449.1096,427.59882)"><tspan
         x="-41.143143"
         y="692.4303"
         id="tspan14454"><tspan
           style="text-align:center;text-anchor:middle"
           id="tspan14452">Lisbon
</tspan></tspan><tspan
         x="-41.143143"
         y="727.43029"
         id="tspan14458"><tspan
           style="text-align:center;text-anchor:middle"
           id="tspan14456">(237.000 inhab.)</tspan></tspan></text></g><g
     inkscape:groupmode="layer"
     id="g9426"
     inkscape:label="spanish"
     style="display:inline"><text
       xml:space="preserve"
       style="font-weight:bold;font-size:28px;line-height:1.25;font-family:Arial;-inkscape-font-specification:'Arial Bold';white-space:pre;inline-size:210.826;display:inline"
       x="-41.143143"
       y="692.4303"
       id="text9388"
       transform="translate(873.10959,427.59882)"><tspan
         x="-41.143143"
         y="692.4303"
         id="tspan14462"><tspan
           style="text-align:center;text-anchor:middle"
           id="tspan14460">Nápoles
</tspan></tspan><tspan
         x="-41.143143"
         y="727.43029"
         id="tspan14466"><tspan
           style="text-align:center;text-anchor:middle"
           id="tspan14464">(430.000 hab.)</tspan></tspan></text><text
       xml:space="preserve"
       style="font-weight:bold;font-size:28px;line-height:1.25;font-family:Arial;-inkscape-font-specification:'Arial Bold';white-space:pre;inline-size:214.696;display:inline"
       x="-41.143143"
       y="692.4303"
       id="text9398"
       transform="translate(1159.1096,427.59882)"><tspan
         x="-41.143143"
         y="692.4303"
         id="tspan14470"><tspan
           style="text-align:center;text-anchor:middle"
           id="tspan14468">Moscú
</tspan></tspan><tspan
         x="-41.143143"
         y="727.43029"
         id="tspan14476"><tspan
           style="text-align:center;text-anchor:middle"
           id="tspan14472"> </tspan><tspan
           style="text-align:center;text-anchor:middle"
           id="tspan14474">(248.000 hab.)</tspan></tspan></text><text
       xml:space="preserve"
       style="font-weight:bold;font-size:28px;line-height:1.25;font-family:Arial;-inkscape-font-specification:'Arial Bold';white-space:pre;inline-size:213.42;display:inline"
       x="-41.143143"
       y="692.4303"
       id="text9408"
       transform="translate(271.10959,427.5988)"><tspan
         x="-41.143143"
         y="692.4303"
         id="tspan14480"><tspan
           style="text-align:center;text-anchor:middle"
           id="tspan14478">Londres </tspan></tspan><tspan
         x="-41.143143"
         y="727.43029"
         id="tspan14484"><tspan
           style="text-align:center;text-anchor:middle"
           id="tspan14482">(861.000 hab.)</tspan></tspan></text><text
       xml:space="preserve"
       style="font-weight:bold;font-size:28px;line-height:1.25;font-family:Arial;-inkscape-font-specification:'Arial Bold';text-align:center;text-anchor:middle;white-space:pre;inline-size:211.828;display:inline"
       x="50.000412"
       y="692.4303"
       id="text9414"
       transform="translate(585.10959,427.59882)"><tspan
         x="50.000412"
         y="692.4303"
         id="tspan14486">París 
</tspan><tspan
         x="50.000412"
         y="727.43029"
         id="tspan14488">(547.000 hab.)</tspan></text><text
       xml:space="preserve"
       style="font-weight:bold;font-size:28px;line-height:1.25;font-family:Arial;-inkscape-font-specification:'Arial Bold';white-space:pre;inline-size:213.098;display:inline"
       x="-41.143143"
       y="692.4303"
       id="text9424"
       transform="translate(1449.1096,427.59882)"><tspan
         x="-41.143143"
         y="692.4303"
         id="tspan14492"><tspan
           style="text-align:center;text-anchor:middle"
           id="tspan14490">Lisboa
</tspan></tspan><tspan
         x="-41.143143"
         y="727.43029"
         id="tspan14496"><tspan
           style="text-align:center;text-anchor:middle"
           id="tspan14494">(237.000 hab.)</tspan></tspan></text></g></g><g
   id="g940"
   transform="matrix(2.5472238,0,0,2.8207094,-7.8008018,1212.815)"
   inkscape:transform-center-x="-569.58931"
   inkscape:transform-center-y="-325.261"
   inkscape:export-filename="/home/elliot/image2027.png"
   inkscape:export-xdpi="149"
   inkscape:export-ydpi="149"
   style="display:inline"
   inkscape:label="public_domain"
   sodipodi:insensitive="true"><path
     id="path898"
     d="m 9.5066475,4.1723746 61.3100845,0.107515 c 0.857051,0 1.621904,-0.124832 1.621904,1.6834434 L 72.362666,25.8457 H 7.9592355 V 5.889732 c 0,-0.8911492 0.08704,-1.7173574 1.547412,-1.7173574 z"
     inkscape:connector-curvature="0"
     style="fill:#ffffff;stroke-width:0.729528" /><g
     transform="matrix(0.73756499,0,0,0.72157824,7.4392525,3.1037174)"
     id="g902"><ellipse
       id="ellipse900"
       ry="11.172"
       rx="11.101"
       cy="16.500999"
       cx="14.887"
       style="fill:#ffffff" /></g><path
     style="stroke-width:0.729528"
     id="path904"
     d="m 25.340687,6.7549042 c 2.569681,1.8703314 4.243952,4.8663238 4.244692,8.2548558 -7.4e-4,3.082582 -1.386628,5.841176 -3.571289,7.723052 H 72.37226 V 6.7549042 Z"
     inkscape:connector-curvature="0" /><path
     style="stroke-width:0.729528"
     id="path906"
     d="m 18.681213,6.4965792 c -4.774253,0 -8.644994,3.8113768 -8.644994,8.5131808 0,4.701082 3.870741,8.51318 8.645734,8.51318 4.774262,0 8.644999,-3.812098 8.644999,-8.51318 -7.4e-4,-4.701804 -3.871477,-8.5131808 -8.645739,-8.5131808 z m 0,15.4302298 c -3.873686,0 -7.024564,-3.10423 -7.024564,-6.917049 0,-0.798066 0.1394,-1.565103 0.39386,-2.278744 l 2.747429,1.204314 c -0.07376,0.362954 -0.113584,0.74034 -0.113584,1.130713 0,3.397912 2.575574,4.355446 4.196004,4.355446 0.956623,0 1.783428,-0.304506 2.431018,-0.74972 0.06786,-0.04763 0.13202,-0.09597 0.193242,-0.143594 l -1.296642,-1.333476 c -0.472039,0.401198 -0.96842,0.281415 -1.08422,0.281415 -1.318767,0 -1.871204,-1.370276 -1.878579,-2.468519 l 7.571844,3.320703 c 0.0089,0.0015 0.01623,0.0015 0.02363,0.0029 -1.194858,2.140201 -3.507865,3.595625 -6.15941,3.595625 z m 6.76864,-5.150626 -7.808603,-3.431104 c 0.281749,-0.503662 0.729451,-0.881047 1.399902,-0.881047 0.389426,0 0.697728,0.127719 0.941126,0.286467 0.101052,0.07216 0.188079,0.144315 0.261837,0.216473 l 1.407271,-1.427282 c -0.944818,-0.799508 -2.020184,-0.943825 -2.723083,-0.943825 -1.651411,0 -2.820449,0.704261 -3.510072,1.771475 L 12.80725,11.220031 c 1.256811,-1.8818762 3.419352,-3.1294846 5.873232,-3.1294846 3.872948,0 7.023826,3.1027856 7.023826,6.9177696 0,0.616229 -0.08337,1.21586 -0.238235,1.785186 -0.0053,-0.0051 -0.0096,-0.01082 -0.01623,-0.01731 z"
     inkscape:connector-curvature="0" /><g
     transform="matrix(0.73756499,0,0,0.72157824,7.4392525,3.1037174)"
     id="g932"><path
       id="path908"
       d="m 36.739,8.557 c 0.392,0 0.728,0.059 1.002,0.173 0.276,0.116 0.5,0.268 0.674,0.456 0.173,0.189 0.299,0.405 0.379,0.647 0.079,0.241 0.118,0.493 0.118,0.753 0,0.253 -0.039,0.503 -0.118,0.749 -0.08,0.244 -0.206,0.462 -0.379,0.65 -0.174,0.188 -0.397,0.341 -0.674,0.456 -0.274,0.115 -0.61,0.173 -1.002,0.173 h -1.452 v 2.267 H 33.905 V 8.557 Z m -0.379,2.976 c 0.158,0 0.312,-0.012 0.457,-0.035 0.147,-0.023 0.276,-0.069 0.388,-0.137 0.111,-0.068 0.201,-0.164 0.269,-0.288 0.068,-0.124 0.101,-0.287 0.101,-0.487 0,-0.201 -0.033,-0.363 -0.101,-0.488 C 37.407,9.975 37.317,9.878 37.205,9.812 37.094,9.743 36.965,9.698 36.817,9.674 36.671,9.65 36.518,9.638 36.36,9.638 h -1.073 v 1.896 z"
       inkscape:connector-curvature="0"
       style="fill:#ffffff" /><path
       id="path910"
       d="m 44.751,14.398 c -0.476,0.417 -1.133,0.625 -1.972,0.625 -0.851,0 -1.509,-0.207 -1.976,-0.62 C 40.337,13.99 40.104,13.351 40.104,12.49 V 8.557 h 1.381 v 3.934 c 0,0.171 0.016,0.339 0.045,0.506 0.029,0.165 0.091,0.311 0.185,0.438 0.094,0.125 0.225,0.229 0.392,0.309 0.167,0.08 0.392,0.119 0.673,0.119 0.493,0 0.833,-0.109 1.021,-0.332 0.188,-0.221 0.282,-0.568 0.282,-1.04 V 8.557 h 1.382 v 3.934 c -0.001,0.855 -0.239,1.491 -0.714,1.907 z"
       inkscape:connector-curvature="0"
       style="fill:#ffffff" /><path
       id="path912"
       d="m 50.069,8.557 c 0.301,0 0.572,0.027 0.817,0.081 0.246,0.053 0.459,0.14 0.636,0.26 0.176,0.121 0.312,0.282 0.407,0.483 0.099,0.201 0.146,0.45 0.146,0.745 0,0.318 -0.071,0.584 -0.217,0.796 -0.144,0.212 -0.355,0.388 -0.637,0.522 0.387,0.112 0.676,0.309 0.865,0.589 0.191,0.281 0.286,0.619 0.286,1.015 0,0.319 -0.062,0.595 -0.185,0.829 -0.123,0.232 -0.289,0.422 -0.498,0.57 -0.207,0.148 -0.445,0.257 -0.713,0.328 -0.269,0.07 -0.541,0.105 -0.822,0.105 H 47.11 V 8.557 Z m -0.173,2.56 c 0.246,0 0.447,-0.059 0.606,-0.178 0.157,-0.118 0.237,-0.309 0.237,-0.576 0,-0.147 -0.026,-0.269 -0.08,-0.362 C 50.606,9.906 50.537,9.833 50.448,9.779 50.36,9.726 50.26,9.689 50.145,9.67 50.03,9.648 49.912,9.638 49.789,9.638 h -1.294 v 1.479 z m 0.078,2.685 c 0.135,0 0.264,-0.014 0.387,-0.04 0.125,-0.026 0.231,-0.072 0.326,-0.133 0.094,-0.062 0.168,-0.147 0.227,-0.254 0.056,-0.104 0.083,-0.241 0.083,-0.406 0,-0.325 -0.093,-0.557 -0.271,-0.696 -0.184,-0.138 -0.425,-0.208 -0.724,-0.208 h -1.505 v 1.737 z"
       inkscape:connector-curvature="0"
       style="fill:#ffffff" /><path
       id="path914"
       d="m 55.142,8.557 v 5.155 h 3.062 v 1.169 H 53.76 V 8.557 Z"
       inkscape:connector-curvature="0"
       style="fill:#ffffff" /><path
       id="path916"
       d="m 60.748,8.557 v 6.324 H 59.366 V 8.557 Z"
       inkscape:connector-curvature="0"
       style="fill:#ffffff" /><path
       id="path918"
       d="M 66.45,10.244 C 66.368,10.112 66.266,9.996 66.143,9.895 66.018,9.794 65.878,9.716 65.722,9.66 65.569,9.603 65.407,9.575 65.235,9.575 c -0.312,0 -0.574,0.062 -0.791,0.183 -0.217,0.12 -0.396,0.283 -0.527,0.486 -0.137,0.204 -0.232,0.436 -0.296,0.695 -0.062,0.26 -0.093,0.529 -0.093,0.806 0,0.267 0.031,0.525 0.093,0.776 0.062,0.251 0.159,0.477 0.296,0.677 0.134,0.201 0.311,0.361 0.527,0.483 0.217,0.12 0.479,0.181 0.791,0.181 0.424,0 0.754,-0.129 0.99,-0.389 0.236,-0.26 0.383,-0.602 0.437,-1.028 h 1.337 c -0.034,0.396 -0.126,0.753 -0.271,1.072 -0.146,0.318 -0.34,0.591 -0.58,0.815 -0.24,0.224 -0.521,0.395 -0.846,0.513 -0.322,0.119 -0.678,0.178 -1.064,0.178 -0.48,0 -0.914,-0.084 -1.299,-0.252 -0.383,-0.17 -0.709,-0.399 -0.972,-0.696 -0.265,-0.295 -0.468,-0.641 -0.606,-1.04 -0.143,-0.399 -0.213,-0.829 -0.213,-1.29 0,-0.472 0.07,-0.91 0.213,-1.314 0.141,-0.404 0.344,-0.757 0.606,-1.058 0.263,-0.302 0.589,-0.537 0.972,-0.709 0.385,-0.172 0.816,-0.258 1.299,-0.258 0.347,0 0.675,0.051 0.98,0.15 0.309,0.102 0.583,0.248 0.827,0.439 0.243,0.191 0.444,0.43 0.603,0.713 0.16,0.283 0.258,0.608 0.301,0.974 H 66.61 c -0.024,-0.159 -0.078,-0.305 -0.16,-0.438 z"
       inkscape:connector-curvature="0"
       style="fill:#ffffff" /><path
       id="path920"
       d="m 36.615,17.415 c 0.405,0 0.782,0.064 1.131,0.193 0.35,0.131 0.651,0.326 0.906,0.586 0.255,0.26 0.455,0.584 0.599,0.975 0.144,0.389 0.216,0.848 0.216,1.372 0,0.462 -0.059,0.888 -0.176,1.274 -0.118,0.391 -0.295,0.728 -0.532,1.012 -0.238,0.283 -0.534,0.506 -0.89,0.668 -0.354,0.162 -0.772,0.244 -1.254,0.244 h -2.71 v -6.324 z m -0.096,5.154 c 0.199,0 0.393,-0.031 0.581,-0.097 0.188,-0.066 0.354,-0.174 0.502,-0.323 0.146,-0.151 0.264,-0.349 0.352,-0.59 0.088,-0.242 0.132,-0.537 0.132,-0.887 0,-0.316 -0.031,-0.605 -0.093,-0.863 -0.062,-0.257 -0.162,-0.478 -0.304,-0.658 -0.141,-0.186 -0.326,-0.324 -0.559,-0.422 -0.231,-0.099 -0.517,-0.146 -0.858,-0.146 h -0.984 v 3.984 h 1.231 z"
       inkscape:connector-curvature="0"
       style="fill:#ffffff" /><path
       id="path922"
       d="m 40.8,19.289 c 0.141,-0.405 0.344,-0.759 0.606,-1.06 0.265,-0.304 0.589,-0.537 0.973,-0.709 0.385,-0.172 0.816,-0.258 1.298,-0.258 0.487,0 0.921,0.086 1.303,0.258 0.383,0.172 0.705,0.405 0.969,0.709 0.265,0.301 0.467,0.652 0.605,1.06 0.143,0.403 0.213,0.843 0.213,1.313 0,0.461 -0.07,0.892 -0.213,1.288 -0.141,0.397 -0.343,0.746 -0.605,1.041 -0.264,0.296 -0.586,0.526 -0.969,0.694 -0.382,0.168 -0.814,0.253 -1.303,0.253 -0.481,0 -0.913,-0.085 -1.298,-0.253 -0.384,-0.168 -0.708,-0.398 -0.973,-0.694 -0.263,-0.295 -0.466,-0.644 -0.606,-1.041 -0.141,-0.396 -0.211,-0.827 -0.211,-1.288 0,-0.47 0.07,-0.91 0.211,-1.313 z m 1.262,2.089 c 0.062,0.252 0.16,0.479 0.295,0.68 0.135,0.199 0.312,0.36 0.527,0.48 0.218,0.121 0.481,0.184 0.792,0.184 0.312,0 0.576,-0.062 0.792,-0.184 0.219,-0.12 0.395,-0.281 0.529,-0.48 0.134,-0.201 0.232,-0.428 0.295,-0.68 0.062,-0.25 0.092,-0.509 0.092,-0.773 0,-0.276 -0.029,-0.547 -0.092,-0.807 -0.062,-0.261 -0.161,-0.49 -0.295,-0.695 -0.137,-0.203 -0.312,-0.365 -0.529,-0.486 -0.216,-0.12 -0.48,-0.182 -0.792,-0.182 -0.311,0 -0.574,0.062 -0.792,0.182 -0.216,0.121 -0.393,0.283 -0.527,0.486 -0.135,0.205 -0.233,0.437 -0.295,0.695 -0.062,0.258 -0.093,0.527 -0.093,0.807 10e-4,0.264 0.032,0.523 0.093,0.773 z"
       inkscape:connector-curvature="0"
       style="fill:#ffffff" /><path
       id="path924"
       d="m 50.092,17.415 1.47,4.35 h 0.021 l 1.391,-4.35 h 1.944 v 6.324 h -1.294 v -4.482 h -0.019 l -1.541,4.482 h -1.062 l -1.54,-4.438 h -0.019 v 4.438 h -1.295 v -6.324 z"
       inkscape:connector-curvature="0"
       style="fill:#ffffff" /><path
       id="path926"
       d="m 59.765,17.415 2.35,6.324 h -1.436 l -0.475,-1.408 h -2.35 l -0.494,1.408 h -1.392 l 2.377,-6.324 z m 0.079,3.88 -0.793,-2.321 h -0.019 l -0.816,2.321 z"
       inkscape:connector-curvature="0"
       style="fill:#ffffff" /><path
       id="path928"
       d="m 64.547,17.415 v 6.324 h -1.382 v -6.324 z"
       inkscape:connector-curvature="0"
       style="fill:#ffffff" /><path
       id="path930"
       d="m 67.603,17.415 2.623,4.242 h 0.018 v -4.242 h 1.295 v 6.324 h -1.383 l -2.613,-4.234 h -0.018 v 4.234 H 66.23 v -6.324 z"
       inkscape:connector-curvature="0"
       style="fill:#ffffff" /></g><path
     style="stroke-width:0.729528"
     id="path934"
     d="M 71.498981,3.8252956 H 9.0228035 c -0.669708,0 -1.2147689,0.536133 -1.2147689,1.1956552 V 25.925074 c 0,0.148645 0.1231739,0.269149 0.2743739,0.269149 H 72.439376 c 0.1512,0 0.274374,-0.120504 0.274374,-0.269149 V 5.0209508 c 0,-0.6595222 -0.545057,-1.1956552 -1.214769,-1.1956552 z M 9.0228035,4.3657586 H 71.49751 c 0.367304,0 0.66602,0.2936822 0.66602,0.6551922 0,0 0,14.5195992 0,20.6061112 H 8.3575205 v -6.078575 c 0,-6.087234 0,-14.5275362 0,-14.5275362 0,-0.36151 0.298713,-0.6551922 0.665283,-0.6551922 z"
     inkscape:connector-curvature="0" /></g>

































<g
   inkscape:groupmode="layer"
   id="layer5"
   inkscape:label="copyright"
   style="display:inline"><g
     inkscape:groupmode="layer"
     id="layer6"
     inkscape:label="english"
     style="display:none"
     sodipodi:insensitive="true"><text
       id="text938"
       y="1247.6326"
       x="1726.8851"
       style="font-style:italic;font-variant:normal;font-weight:bold;font-stretch:normal;font-size:28px;line-height:1.1;font-family:Arial;-inkscape-font-specification:'Arial, Bold Italic';font-variant-ligatures:normal;font-variant-caps:normal;font-variant-numeric:normal;font-feature-settings:normal;text-align:end;letter-spacing:0px;word-spacing:0px;writing-mode:lr-tb;text-anchor:end;display:inline;fill:#000000;fill-opacity:1;stroke:none;stroke-width:1"
       xml:space="preserve"><tspan
         style="font-style:normal;font-variant:normal;font-weight:normal;font-stretch:normal;font-size:28px;font-family:Arial;-inkscape-font-specification:Arial;text-align:end;text-anchor:end;fill:#ffffff;stroke-width:1"
         y="1247.6326"
         x="1726.8851"
         id="tspan936"
         sodipodi:role="line">This work has been identified as being free of known restrictions </tspan><tspan
         style="font-style:normal;font-variant:normal;font-weight:normal;font-stretch:normal;font-size:28px;font-family:Arial;-inkscape-font-specification:Arial;text-align:end;text-anchor:end;fill:#ffffff;stroke-width:1"
         y="1278.4326"
         x="1734.6644"
         sodipodi:role="line"
         id="tspan944">under copyright law, including all related and neighboring rights. </tspan></text></g><g
     inkscape:groupmode="layer"
     id="g5923"
     inkscape:label="catalan"
     style="display:none"><text
       xml:space="preserve"
       style="font-style:normal;font-weight:normal;font-size:32px;line-height:1.05;font-family:sans-serif;display:inline;fill:#000000;fill-opacity:1;stroke:none"
       x="1740.8086"
       y="1244.4712"
       id="text5921"
       inkscape:export-filename="/home/elliot/image2027.png"
       inkscape:export-xdpi="149"
       inkscape:export-ydpi="149"><tspan
         sodipodi:role="line"
         x="1740.8086"
         y="1244.4712"
         id="tspan5919"
         style="font-style:normal;font-variant:normal;font-weight:normal;font-stretch:normal;font-size:32px;font-family:Arial;-inkscape-font-specification:Arial;text-align:end;text-anchor:end;fill:#ffffff">Aquesta obra està lliure de restriccions conegudes segons la llei de drets d'autor, </tspan><tspan
         sodipodi:role="line"
         x="1740.8086"
         y="1278.5829"
         style="font-style:normal;font-variant:normal;font-weight:normal;font-stretch:normal;font-size:32px;font-family:Arial;-inkscape-font-specification:Arial;text-align:end;text-anchor:end;fill:#ffffff"
         id="tspan6035">inclosos tots els drets relacionats i veïns.</tspan></text><text
       xml:space="preserve"
       id="text6029"
       style="font-weight:bold;font-size:40px;line-height:1.25;font-family:Arial;-inkscape-font-specification:'Arial Bold';white-space:pre;shape-inside:url(#rect6031);display:inline" /></g><g
     inkscape:groupmode="layer"
     id="g778"
     inkscape:label="spanish"
     style="display:inline"><text
       xml:space="preserve"
       style="font-style:normal;font-weight:normal;font-size:32px;line-height:1.05;font-family:sans-serif;display:inline;fill:#000000;fill-opacity:1;stroke:none"
       x="1729.0035"
       y="1248.9495"
       id="text774"
       inkscape:export-filename="/home/elliot/image2027.png"
       inkscape:export-xdpi="149"
       inkscape:export-ydpi="149"><tspan
         sodipodi:role="line"
         x="1729.0035"
         y="1248.9495"
         style="font-style:normal;font-variant:normal;font-weight:normal;font-stretch:normal;font-size:32px;font-family:Arial;-inkscape-font-specification:Arial;text-align:end;text-anchor:end;fill:#ffffff"
         id="tspan772">Esta obra está libre de restricciones conocidas según la ley de copyright, </tspan><tspan
         sodipodi:role="line"
         x="1729.0035"
         y="1283.0612"
         style="font-style:normal;font-variant:normal;font-weight:normal;font-stretch:normal;font-size:32px;font-family:Arial;-inkscape-font-specification:Arial;text-align:end;text-anchor:end;fill:#ffffff"
         id="tspan790">incluidos todos los derechos relacionados y vecinos.</tspan></text></g></g><g
   inkscape:groupmode="layer"
   id="layer7"
   inkscape:label="titular"
   style="display:inline"><g
     inkscape:groupmode="layer"
     id="g6039"
     inkscape:label="catalan"
     style="display:none"
     sodipodi:insensitive="true"><text
       xml:space="preserve"
       style="font-style:normal;font-weight:normal;font-size:44px;line-height:1.25;font-family:sans-serif;display:inline;fill:#000000;fill-opacity:1;stroke:none"
       x="20.710297"
       y="57.201488"
       id="text233859-6"
       inkscape:export-filename="/home/elliot/image2027.png"
       inkscape:export-xdpi="149"
       inkscape:export-ydpi="149"><tspan
         sodipodi:role="line"
         id="tspan233857-7"
         x="20.710297"
         y="57.201488"
         style="font-style:normal;font-variant:normal;font-weight:bold;font-stretch:normal;font-size:44px;font-family:Arial;-inkscape-font-specification:'Arial Bold'">Població urbana a les principals ciutats europees, any 1800</tspan></text><text
       xml:space="preserve"
       style="font-weight:bold;font-size:32px;line-height:1.25;font-family:Arial;-inkscape-font-specification:'Arial Bold';display:inline"
       x="-746.07166"
       y="68.53183"
       id="text36937"
       transform="rotate(-89.957509)"><tspan
         sodipodi:role="line"
         id="tspan36935"
         x="-746.07166"
         y="68.53183"
         style="font-style:italic;font-variant:normal;font-weight:normal;font-stretch:normal;font-size:32px;font-family:Arial;-inkscape-font-specification:'Arial Italic'">Població (en milers)</tspan></text></g><g
     inkscape:groupmode="layer"
     id="g6992"
     inkscape:label="english"
     style="display:none"><text
       xml:space="preserve"
       style="font-style:normal;font-weight:normal;font-size:40px;line-height:1.25;font-family:sans-serif;display:inline;fill:#000000;fill-opacity:1;stroke:none"
       x="17.771076"
       y="58.378311"
       id="text6990"
       inkscape:export-filename="/home/elliot/image2027.png"
       inkscape:export-xdpi="149"
       inkscape:export-ydpi="149"><tspan
         sodipodi:role="line"
         id="tspan6988"
         x="17.771076"
         y="58.378311"
         style="font-style:normal;font-variant:normal;font-weight:bold;font-stretch:normal;font-family:Arial;-inkscape-font-specification:'Arial Bold'">Urban population in the main European cities in 1800</tspan></text><text
       xml:space="preserve"
       style="font-weight:bold;font-size:32px;line-height:1.25;font-family:Arial;-inkscape-font-specification:'Arial Bold';display:inline"
       x="-842.07166"
       y="68.603012"
       id="text36937-5"
       transform="rotate(-89.957509)"><tspan
         sodipodi:role="line"
         id="tspan36935-6"
         x="-842.07166"
         y="68.603012"
         style="font-style:italic;font-variant:normal;font-weight:normal;font-stretch:normal;font-size:32px;font-family:Arial;-inkscape-font-specification:'Arial Italic'">Population (in thousands)</tspan></text></g><g
     inkscape:groupmode="layer"
     id="g516"
     inkscape:label="spanish"
     style="display:inline"><text
       xml:space="preserve"
       style="font-style:normal;font-weight:normal;font-size:40px;line-height:1.25;font-family:sans-serif;display:inline;fill:#000000;fill-opacity:1;stroke:none"
       x="21.745588"
       y="58.599892"
       id="text6990-6"
       inkscape:export-filename="/home/elliot/image2027.png"
       inkscape:export-xdpi="149"
       inkscape:export-ydpi="149"><tspan
         sodipodi:role="line"
         id="tspan6988-2"
         x="21.745588"
         y="58.599892"
         style="font-style:normal;font-variant:normal;font-weight:bold;font-stretch:normal;font-family:Arial;-inkscape-font-specification:'Arial Bold'">Población urbana en las principales ciudades europeas en 1800</tspan></text></g></g><g
   inkscape:groupmode="layer"
   id="layer15"
   inkscape:label="boto-imatge-ampliar"
   style="display:inline"><g
     inkscape:groupmode="layer"
     id="layer14"
     inkscape:label="boton"
     transform="translate(555.90154,7.4516978)"
     sodipodi:insensitive="true"><rect
       style="fill:#ececec;fill-opacity:1;stroke:#000000;stroke-width:2;stroke-dasharray:none;stroke-opacity:1;stop-color:#000000"
       id="rect2298"
       width="412.50937"
       height="144.2083"
       x="757.05005"
       y="100.18288"
       ry="49.096062" /><polygon
       points="12,18 14,18 14,14 18,14 18,12 14,12 14,8 12,8 12,12 8,12 8,14 12,14 "
       id="polygon2433"
       transform="matrix(2.7893482,0,0,2.8662589,778.32273,125.37065)" /><path
       d="m 838.14833,182.69584 a 30.281164,31.116107 0 0 0 7.1187,-20.06383 30.682829,31.528849 0 1 0 -30.6828,31.52886 30.281164,31.116107 0 0 0 19.5255,-7.31498 l 21.1597,21.64628 3.9444,-4.05319 z m -23.5641,5.73251 a 25.104134,25.79633 0 1 1 25.1041,-25.79634 25.132027,25.824993 0 0 1 -25.1041,25.79634 z"
       id="path2435"
       style="stroke-width:2.82754" /><rect
       id="_Transparent_Rectangle_-5"
       data-name="&lt;Transparent Rectangle&gt;"
       class="cls-1"
       width="89.25914"
       height="91.720284"
       style="fill:none;stroke-width:2.82754"
       x="778.32275"
       y="125.37064" /></g><g
     inkscape:groupmode="layer"
     id="layer16"
     inkscape:label="catalan"
     style="display:none"
     sodipodi:insensitive="true"><text
       xml:space="preserve"
       style="font-weight:bold;font-size:32px;line-height:1.25;font-family:Arial;-inkscape-font-specification:'Arial Bold';white-space:pre;inline-size:309.042;display:inline"
       x="1879.8468"
       y="119.13715"
       id="text2607"
       transform="translate(-469.67754,48.882818)"><tspan
         x="1879.8468"
         y="119.13715"
         id="tspan14500"><tspan
           style="text-align:center;text-anchor:middle"
           id="tspan14498">Clica per augmentar 
</tspan></tspan><tspan
         x="1879.8468"
         y="159.13716"
         id="tspan14504"><tspan
           style="text-align:center;text-anchor:middle"
           id="tspan14502">la imatge</tspan></tspan></text></g><g
     inkscape:groupmode="layer"
     id="g7004"
     inkscape:label="english"
     style="display:none"
     sodipodi:insensitive="true"><text
       xml:space="preserve"
       style="font-weight:bold;font-size:32px;line-height:1.25;font-family:Arial;-inkscape-font-specification:'Arial Bold';text-align:center;text-anchor:middle;white-space:pre;inline-size:309.042;display:inline"
       x="2026.6827"
       y="119.13715"
       id="text7002"
       transform="translate(-463.47533,48.882816)"><tspan
         x="2026.6827"
         y="119.13715"
         id="tspan14506">Click to enlarge the<tspan
   y="119.13715"
   id="tspan14508"> </tspan></tspan><tspan
         x="2026.6827"
         y="159.13716"
         id="tspan14510">image</tspan></text></g><g
     inkscape:groupmode="layer"
     id="g8920"
     inkscape:label="spanish"
     style="display:inline"><text
       xml:space="preserve"
       style="font-weight:bold;font-size:28px;line-height:1.25;font-family:Arial;-inkscape-font-specification:'Arial Bold';white-space:pre;inline-size:311.318;display:inline"
       x="1567.5404"
       y="169.17526"
       id="text8542"
       transform="translate(-157.41126,0.9192902)"><tspan
         x="1567.5404"
         y="169.17526"
         id="tspan14514"><tspan
           style="text-align:center;text-anchor:middle"
           id="tspan14512">Clica aquí para </tspan></tspan><tspan
         x="1567.5404"
         y="204.17526"
         id="tspan14518"><tspan
           style="text-align:center;text-anchor:middle"
           id="tspan14516">aumentar la imagen</tspan></tspan></text></g></g></svg>
