<?xml version="1.0" encoding="UTF-8" standalone="no"?>
<!-- Generator: Adobe Illustrator 15.1.0, SVG Export Plug-In . SVG Version: 6.00 Build 0)  -->

<svg
   version="1.1"
   id="svg1948"
   sodipodi:docname="Hispania_1a_division_provincial.svg"
   inkscape:version="1.2 (1:1.2.1+202207142221+cd75a1ee6d)"
   sodipodi:version="0.32"
   x="0px"
   y="0px"
   width="548.3407"
   height="455.04395"
   viewBox="23.893 1199.893 548.3407 455.04395"
   enable-background="new 23.893 1199.893 672 566"
   xml:space="preserve"
   inkscape:export-filename="../../../../../../../Downloads/Hispania_1a_division_provincial.png"
   inkscape:export-xdpi="149"
   inkscape:export-ydpi="149"
   xmlns:inkscape="http://www.inkscape.org/namespaces/inkscape"
   xmlns:sodipodi="http://sodipodi.sourceforge.net/DTD/sodipodi-0.dtd"
   xmlns:xlink="http://www.w3.org/1999/xlink"
   xmlns="http://www.w3.org/2000/svg"
   xmlns:svg="http://www.w3.org/2000/svg"
   xmlns:rdf="http://www.w3.org/1999/02/22-rdf-syntax-ns#"
   xmlns:cc="http://creativecommons.org/ns#"
   xmlns:dc="http://purl.org/dc/elements/1.1/"><metadata
     id="metadata4256"><rdf:RDF><cc:Work
         rdf:about=""><dc:format>image/svg+xml</dc:format><dc:type
           rdf:resource="http://purl.org/dc/dcmitype/StillImage" /><dc:title /></cc:Work></rdf:RDF></metadata><defs
     id="defs4254"><clipPath
       id="SVGID_2_"><use
         height="100%"
         width="100%"
         y="0"
         x="0"
         style="overflow:visible"
         xlink:href="#SVGID_1_"
         overflow="visible"
         id="use4225" /></clipPath></defs><sodipodi:namedview
     inkscape:window-width="1920"
     inkscape:cy="166.75936"
     pagecolor="#ffffff"
     id="base"
     inkscape:window-height="1016"
     bordercolor="#666666"
     inkscape:window-x="0"
     inkscape:current-layer="g2377"
     inkscape:cx="119.48033"
     inkscape:zoom="1.3642413"
     inkscape:pageopacity="0.0"
     inkscape:pageshadow="2"
     borderopacity="1.0"
     inkscape:window-y="27"
     objecttolerance="10.0"
     inkscape:showpageshadow="true"
     gridtolerance="10.0"
     showborder="true"
     guidetolerance="10.0"
     showgrid="false"
     inkscape:window-maximized="1"
     fit-margin-top="0"
     fit-margin-left="0"
     fit-margin-right="0"
     fit-margin-bottom="0"
     inkscape:pagecheckerboard="0"
     inkscape:deskcolor="#d1d1d1"
     showguides="false" /><g
     transform="matrix(0.81972374,0,0,0.98782238,-4.37007,29.8618)"
     id="g4217"
     inkscape:label="fons_mar"
     style="display:inline"
     sodipodi:insensitive="true"><defs
       id="defs4219"><rect
         id="SVGID_1_"
         x="19.893"
         y="1193.8929"
         width="690"
         height="588" /></defs><clipPath
       id="clipPath4304"><use
         height="100%"
         width="100%"
         y="0"
         x="0"
         style="overflow:visible"
         xlink:href="#SVGID_1_"
         overflow="visible"
         id="use4306" /></clipPath><path
       inkscape:connector-curvature="0"
       id="path2308"
       clip-path="url(#SVGID_2_)"
       d="M 2.447,1462.687 V 1008.092 H 492.293 982.14 v 454.595 454.595 H 492.293 2.447 Z"
       style="fill:#c6ecff;fill-opacity:1" /></g><g
     inkscape:groupmode="layer"
     id="layer1"
     inkscape:label="Mapa"
     transform="translate(-122.85898,-99.016479)"
     style="display:inline"
     sodipodi:insensitive="true"><path
       inkscape:connector-curvature="0"
       id="path2294"
       d="m 933.402,1778.782 c -3.66,0 -6.17,2.11 -5.28,4.44 0.43,1.11 1.27,1.25 3.58,0.59 4.07,-1.17 5.08,-1.88 5.08,-3.59 10e-4,-0.969 -1.099,-1.44 -3.38,-1.44 z m 119.151,-129 c -0.69,-1.1 -2.04,-2 -3.01,-2 -1.09,0 -1.76,0.761 -1.76,2 0,1.561 0.67,2 3.01,2 2.76,0 2.91,-0.159 1.76,-2 z m 13.23,-54.769 c -1.27,-0.79 -2,-2.33 -2,-4.24 0,-2.56 -0.37,-2.99 -2.64,-2.99 -1.63,0 -3.93,-1.239 -5.99,-3.25 -3.03,-2.939 -3.35,-3.8 -3.36,-8.989 -0.01,-4.66 0.37,-5.971 1.99,-6.99 1.2,-0.75 2,-2.33 2,-3.95 0,-1.59 0.85,-3.29 2.05,-4.14 1.78,-1.25 2.01,-2.32 1.75,-8.24 l -0.3,-6.8 -2.99,3.18 c -2.75,2.92 -3.52,3.18 -9.24,3.18 h -6.23 l -5.77,6 -5.77,5.99 -6.51,0.01 c -5.42,0 -6.71,0.341 -7.76,2 -0.91,1.46 -2.33,2 -5.23,2 -2.9,0 -4.32,-0.54 -5.23,-2 -0.76,-1.21 -2.33,-2 -4,-2 -1.67,0 -3.24,-0.779 -4,-2 -0.69,-1.1 -1.93,-2 -2.77,-2 -0.83,0 -2.08,0.9 -2.77,2 -0.75,1.221 -2.33,2 -4,2 -1.66,0 -3.24,0.79 -4,2 -0.91,1.46 -2.33,2 -5.23,2 -2.9,0 -4.32,-0.54 -5.23,-2 -1.66,-2.649 -3.15,-2.52 -6.22,0.551 -3.07,3.069 -3.2,4.56 -0.55,6.22 1.12,0.7 2,2.33 2,3.7 0,4.08 4.37,7.529 9.54,7.529 3.36,0 4.75,0.49 5.69,2 1.05,1.681 2.34,2 8,2 5.67,0 6.96,0.32 8,2 0.76,1.221 2.34,2 4,2 1.67,0 3.25,0.79 4,2 0.76,1.221 2.34,2 4,2 1.67,0 3.25,0.79 4,2 1.1,1.75 2.34,2 10,2 7.67,0 8.91,0.25 10,2 0.76,1.221 2.34,2 4,2 1.67,0 3.25,0.79 4,2 0.76,1.221 2.34,2 4,2 1.67,0 3.25,0.79 4,2 0.69,1.101 1.94,2 2.77,2 0.84,0 2.08,-0.899 2.77,-2 0.8,-1.27 2.33,-2 4.24,-2 2.66,0 2.99,-0.33 2.99,-2.989 0,-1.91 0.73,-3.44 2,-4.24 1.1,-0.69 2,-1.93 2,-2.771 0,-0.832 -0.9,-2.082 -2,-2.771 z m -505,-35.231 c -0.55,0 -1,0.48 -1,1.061 0,0.581 0.45,0.78 1,0.439 0.55,-0.34 1,-0.81 1,-1.06 0,-0.24 -0.45,-0.44 -1,-0.44 z m 285,-92.769 c -1.21,-0.75 -2,-2.33 -2,-4 0,-1.66 -0.78,-3.24 -2,-4 -1.11,-0.69 -2,-2.33 -2,-3.69 0,-1.35 -1.14,-3.59 -2.54,-4.989 -2.11,-2.11 -3.49,-2.551 -8,-2.551 -5.23,0 -5.46,0.11 -5.46,2.65 0,1.95 -1.92,4.57 -7.35,10 -7.03,7.03 -7.56,7.35 -12,7.35 -3.77,0 -4.65,0.341 -4.65,1.761 0,0.97 0.9,2.319 2,3.01 1.22,0.76 2,2.33 2,4 0,1.67 0.79,3.24 2,4 1.22,0.76 2,2.33 2,4 0,1.67 0.79,3.24 2,4 1.68,1.05 2,2.33 2,8 0,5.67 0.32,6.95 2,8 1.1,0.689 2,2.14 2,3.229 0,1.091 -0.9,2.551 -2,3.23 -1.1,0.689 -2,1.939 -2,2.77 0,0.841 0.9,2.08 2,2.771 1.76,1.09 2,2.33 2,10 0,7.67 0.25,8.91 2,10 1.28,0.8 2,2.33 2,4.24 0,1.949 0.51,2.989 1.46,2.989 2.18,0 6.54,-4.79 6.54,-7.189 0,-1.15 1.47,-3.601 3.25,-5.44 2.91,-3 3.83,-3.35 8.8,-3.359 3.06,0 6.09,0.529 6.75,1.189 0.94,0.94 1.2,-5.68 1.2,-29.76 0,-29.871 -0.071,-31.001 -2,-32.211 z m -223.79,60.769 c -3.11,0 -4.51,-0.51 -5.44,-2 -1.63,-2.6 -3.16,-2.52 -5.97,0.32 -4.76,4.81 -5.02,5.35 -3.61,7.6 0.75,1.21 2.34,2.08 3.81,2.08 1.53,0 3.68,1.25 5.51,3.19 2.88,3.06 3.01,3.1 3.32,0.96 0.18,-1.22 1.19,-2.76 2.25,-3.43 1.08,-0.67 1.92,-2.32 1.92,-3.761 0,-1.409 0.54,-3.1 1.2,-3.76 0.939,-0.928 0.269,-1.199 -2.99,-1.199 z m -21.21,4 c -0.55,0 -1,0.48 -1,1.061 0,0.581 0.45,0.78 1,0.439 0.55,-0.34 1,-0.81 1,-1.06 0,-0.24 -0.45,-0.44 -1,-0.44 z m 53.239,-20 c -0.96,0 -2.32,0.9 -3.01,2 -1.14,1.841 -0.99,2 1.76,2 2.35,0 3.01,-0.439 3.01,-2 10e-4,-1.239 -0.659,-2 -1.76,-2 z m 175.761,-116.769 c -1.54,-0.96 -2,-2.33 -2,-6 0,-3.66 -0.45,-5.03 -2,-6 -1.1,-0.68 -2,-2.23 -2,-3.44 0,-1.699 -0.26,-1.92 -1.2,-0.989 -0.66,0.659 -2.2,1.199 -3.42,1.199 -3.07,0 -11.38,8.45 -11.38,11.57 0,1.33 -0.89,2.98 -2,3.66 -1.59,1 -2,2.34 -2,6.54 0,4.899 0.3,5.57 4,8.97 2.36,2.17 4,4.59 4,5.89 0,3.03 8.45,11.37 11.52,11.37 1.3,0 2.73,0.57 3.17,1.25 0.45,0.7 0.94,-3.31 1.1,-9.01 0.25,-8.939 0.54,-10.42 2.25,-11.49 2.869,-1.801 2.849,-11.711 -0.04,-13.52 z m 126.409,410.42 c -8.88,-0.16 -11.41,-1.34 -11.41,-5.32 0,-3.22 -2.5,-7.92 -4.64,-8.739 -1.17,-0.45 -2.4,0.189 -3.85,2 -2.56,3.22 -5.67,2.689 -8.23,-1.41 -0.92,-1.471 -1.76,-2.82 -1.88,-3 -0.11,-0.17 -1.08,0.229 -2.15,0.899 -2.68,1.67 -6.06,0.61 -11.95,-3.739 -5.08,-3.761 -15.3,-16.37 -15.3,-18.891 0,-0.75 3.49,-5.46 7.75,-10.47 10.99,-12.89 17.98,-21.9 22.06,-28.4 1.45,-2.319 0.98,-13.359 -0.85,-19.85 -1.05,-3.72 -5.7,-8.08 -14.12,-13.23 -1.8,-1.1 -5.29,-4.89 -7.75,-8.43 -3.79,-5.43 -4.55,-7.33 -4.91,-12.27 l -0.42,-5.851 5.01,-5.3 c 2.76,-2.91 5.91,-7.06 7,-9.22 3,-5.92 5.61,-14.99 4.87,-16.931 -1.02,-2.659 -5.54,-1.01 -9.77,3.57 -2,2.16 -4.13,3.93 -4.73,3.93 -0.6,0 -2.02,1.801 -3.14,4 -1.51,2.96 -2.65,4 -4.39,4 -3.26,0 -4.78,-2.189 -5.73,-8.29 -0.69,-4.42 -1.47,-5.77 -5.1,-8.93 -4.5,-3.91 -6.6,-4.479 -9.94,-2.689 -1.64,0.88 -2.47,0.67 -4.38,-1.12 -1.85,-1.75 -3.04,-2.07 -5.65,-1.551 -1.82,0.36 -6.23,1.08 -9.81,1.591 -6.92,0.989 -8.94,2.529 -14.47,10.989 -1.26,1.931 -3.35,4.48 -4.66,5.67 -2.93,2.69 -12.87,5.33 -20.04,5.33 -3.36,0 -6.26,0.62 -7.71,1.63 -4.3,3.021 -9.47,3.54 -14.28,1.461 -2.38,-1.04 -6.18,-2.19 -8.42,-2.551 -3.68,-0.59 -4.51,-0.31 -8.35,2.9 -3.56,2.979 -5.03,3.56 -9,3.56 -2.61,0 -6.96,-0.67 -9.66,-1.489 -2.7,-0.82 -6.71,-1.49 -8.91,-1.49 -3.38,-0.01 -4.58,0.609 -7.76,3.979 -3.65,3.88 -3.96,4 -10.32,4 -7.77,0 -8.76,0.46 -16.19,7.551 -3.15,3 -6.29,5.449 -6.99,5.449 -0.7,0 -3.72,-2 -6.73,-4.449 -6.2,-5.051 -10.04,-6.131 -16.51,-4.641 -2.47,0.58 -9.45,1.061 -15.5,1.09 -6.05,0.021 -14.11,0.49 -17.92,1.04 -7.79,1.13 -22.12,7.051 -24.94,10.311 -1.7,1.97 -3.14,2.2 -17,2.74 -11.27,0.43 -15.95,1.01 -18.34,2.25 -2.62,1.359 -6.29,1.659 -20.2,1.659 -18.6,0 -21.27,0.601 -23.16,5.16 -1.53,3.681 -5.07,6.19 -13.91,9.83 -8,3.3 -17.49,11.57 -18.38,16.021 -0.8,4.02 -5.47,5.699 -10.85,3.93 -3.87,-1.28 -4.36,-1.21 -8.95,1.35 -2.93,1.641 -6.37,2.71 -8.7,2.71 -2.69,0 -5.1,0.91 -8.02,3.03 -4.6,3.33 -12.52,6.47 -18.48,7.33 -2.12,0.3 -6.78,1.92 -10.36,3.6 l -6.51,3.04 h -23.49 c -22.75,0 -23.58,-0.069 -26.63,-2.25 -2.61,-1.859 -5.05,-2.37 -14.16,-2.949 -29.09,-1.841 -37.31,-2.65 -41.07,-4.061 -13.92,-5.21 -22.11,-12.71 -28.59,-26.21 l -4.09,-8.53 h -7.17 c -7.81,0 -9.58,0.92 -9.58,4.95 0,1.41 -0.98,4.13 -2.18,6.05 -1.19,1.931 -2.48,5.771 -2.88,8.53 -0.46,3.32 -2.64,8.5 -6.37,15.18 -3.12,5.58 -5.94,11.87 -6.28,13.971 -0.38,2.41 -2.02,5.439 -4.45,8.21 -2.11,2.42 -3.84,4.93 -3.84,5.58 0,0.649 -1.17,2.27 -2.59,3.609 -1.43,1.33 -3.34,3.87 -4.26,5.641 -3.17,6.14 -13.8,13.93 -30.5,22.319 -8.72,4.38 -16.4,7.96 -17.06,7.96 -0.66,0 -2.72,1.13 -4.59,2.5 -1.97,1.46 -4.74,2.5 -6.64,2.5 -2.14,0 -3.73,0.7 -4.68,2.061 -0.8,1.13 -2.73,2.399 -4.31,2.81 -2.44,0.65 -2.94,1.38 -3.37,4.87 -0.63,5.2 -4.62,9.771 -9.9,11.351 -2.19,0.659 -5.59,2.51 -7.54,4.13 -3.31,2.729 -3.56,3.319 -3.56,8.6 0,4.66 -0.72,7.07 -3.98,13.42 -2.2,4.25 -5.73,9.48 -7.87,11.61 -2.13,2.14 -4.66,6.08 -5.62,8.77 -0.96,2.69 -3.5,8.521 -5.64,12.96 -3.58,7.44 -3.89,8.74 -3.86,16.5 0,1.54 0.02,2.82 0.07,3.931 h 844.81 v -100.721 c -6.069,-1.632 -13.65,-2.471 -23.5,-2.641 z m -363.359,-796.73 c -1.52,0.96 -3.48,2.69 -5.78,5.08 -4.03,4.19 -6.52,5.99 -8.28,6 -1.42,0 -3.05,0.87 -3.76,2 -0.69,1.12 -2.33,2 -3.69,2 -1.35,0 -3.59,1.15 -4.99,2.55 -2.49,2.49 -2.55,2.86 -2.55,16.8 0,15.41 -0.38,16.65 -5.2,16.65 -2.36,0 -2.8,0.42 -2.8,2.65 0,1.63 -1.24,3.92 -3.25,5.99 -2.73,2.81 -3.96,3.34 -7.76,3.35 -3.42,0.01 -4.81,0.5 -5.76,2.01 -0.94,1.51 -2.33,2 -5.66,2 -3.9,0 -4.93,0.53 -8.99,4.58 -5.09,5.1 -5.5,6.37 -2.58,8.19 3.12,1.95 2.42,4.09 -3.25,9.85 -4.47,4.54 -5.8,5.34 -8.99,5.36 -2.67,0.02 -4.1,-0.55 -4.99,-1.98 -0.96,-1.54 -2.33,-2 -6,-2 -3.67,0 -5.04,-0.449 -6,-2 -0.86,-1.38 -2.33,-2 -4.77,-2 -2.43,0 -3.9,0.62 -4.77,2 -1.79,2.88 -4.26,2.46 -7.98,-1.359 -2.52,-2.6 -3.25,-4.21 -3.25,-7.19 0,-2.99 -0.26,-3.58 -1.2,-2.65 -0.66,0.66 -2.46,1.2 -4,1.2 -2.6,0 -2.8,0.29 -2.8,4 0,3.72 0.2,4 2.8,4 5.03,0 7.14,4.78 3.2,7.23 -2.76,1.729 -2.76,7.82 0,9.54 1.55,0.96 2,2.33 2,6 0,3.67 0.46,5.04 2,6 2.24,1.399 2.62,4.22 0.8,6.03 -0.66,0.659 -3.8,1.199 -6.99,1.199 -4.71,0 -6.02,-0.37 -7.04,-2 -1.6,-2.55 -3.94,-2.55 -5.54,0 -1.39,2.24 -4.21,2.62 -6.03,0.801 -0.93,-0.931 -1.46,-0.931 -2.4,0 -0.66,0.659 -2.35,1.199 -3.76,1.199 -1.47,0 -3.09,0.851 -3.81,2 -0.68,1.101 -2,2 -2.92,2 -0.92,0 -5.22,-3.6 -9.55,-8 -4.33,-4.399 -8.41,-8 -9.07,-8 -0.66,0 -1.77,0.9 -2.46,2 -0.96,1.551 -2.33,2 -6,2 -3.66,0 -5.03,0.46 -6,2 -0.91,1.46 -2.33,2 -5.23,2 -2.9,0 -4.32,-0.54 -5.23,-2 -1.7,-2.71 -7.81,-2.76 -9.49,-0.069 -0.66,1.06 -2.18,2.069 -3.38,2.25 -1.96,0.29 -1.64,0.859 3.01,5.46 5.2,5.13 5.2,5.14 4.9,10.89 -0.35,6.63 -2.31,8.89 -5.8,6.71 -1.11,-0.689 -2.01,-0.91 -2.01,-0.49 0,0.431 0.9,1.33 2,2.021 1.1,0.689 2,2.24 2,3.439 0,1.71 0.27,1.931 1.2,0.99 0.66,-0.66 3.81,-1.2 6.99,-1.2 4.71,0 6.03,0.38 7.04,2 0.97,1.551 2.34,2 6,2 3.67,0 5.04,0.46 6,2 0.72,1.15 2.34,2 3.8,2 1.7,0 3.79,1.341 6.23,4 3.25,3.54 4.21,4 8.2,4 3.44,0 4.82,0.48 5.77,2 0.72,1.16 2.34,2 3.81,2 4.81,0 6.79,4.841 2.96,7.23 -2.98,1.87 -2.59,4.77 0.64,4.77 1.84,0 4.26,1.591 7.98,5.25 5.74,5.65 6.54,8.011 3.38,9.98 -1.38,0.87 -2,2.34 -2,4.77 0,2.44 0.62,3.91 2,4.771 1.12,0.7 2,2.33 2,3.7 0,3.149 4.39,7.529 7.54,7.529 1.36,0 3,0.891 3.69,2 0.71,1.13 2.35,2.011 3.76,2.011 1.53,0.01 3.79,1.33 5.76,3.359 l 3.25,3.351 v 24.25 l 6,5.76 c 5.91,5.689 5.99,5.85 6,11.32 0.01,8.529 -3.24,10.35 -8.5,4.779 l -3,-3.18 -0.27,20.18 c -0.25,18.87 -0.4,20.261 -2.25,21.42 -1.65,1.03 -1.98,2.341 -1.98,7.98 0,5.67 -0.32,6.96 -2,8 -1.68,1.05 -2,2.34 -2,8 0,5.67 -0.32,6.96 -2,8 -1.1,0.689 -2,2.34 -2,3.66 0,1.35 -1.41,3.85 -3.25,5.75 -2.73,2.81 -3.96,3.34 -7.76,3.35 -3.42,0.01 -4.81,0.5 -5.76,2.01 -1.11,1.79 -2.33,2 -11.23,2 -8.9,0 -10.12,-0.21 -11.23,-2 -1.82,-2.909 -11.72,-2.909 -13.54,0 -0.68,1.101 -2.14,2 -3.23,2 -1.09,0 -2.54,-0.899 -3.23,-2 -0.76,-1.21 -2.33,-2 -4,-2 -1.67,0 -3.24,-0.779 -4,-2 -0.69,-1.1 -1.93,-2 -2.77,-2 -0.83,0 -2.08,0.9 -2.77,2 -0.68,1.101 -2.14,2 -3.23,2 -1.09,0 -2.54,-0.899 -3.23,-2 -0.69,-1.1 -1.93,-2 -2.77,-2 -0.83,0 -2.08,0.9 -2.77,2 -1.08,1.73 -2.33,2 -9.23,2 -6.9,0 -8.15,-0.27 -9.23,-2 -1.05,-1.68 -2.33,-2 -8,-2 -5.67,0 -6.95,-0.319 -8,-2 -0.96,-1.54 -2.33,-2 -6,-2 -3.67,0 -5.04,-0.449 -6,-2 -0.96,-1.54 -2.33,-2 -6,-2 -3.67,0 -5.04,-0.449 -6,-2 -1.19,-1.909 -2.33,-2 -26,-2 -23.67,0 -24.81,-0.09 -26,-2 -0.76,-1.21 -2.33,-2 -4,-2 -1.67,0 -3.24,-0.779 -4,-2 -1,-1.6 -2.33,-2 -6.77,-2 -4.43,0 -5.76,0.4 -6.77,2 -0.79,1.28 -2.33,2 -4.24,2 -2.61,0 -2.99,0.36 -2.99,2.801 0,4.6 -1.48,5.199 -12.73,5.199 h -10.33 l -3.68,4 c -2.6,2.841 -4.49,4 -6.47,4 -2.71,0 -2.79,0.15 -2.79,5.48 0,5.39 0.1,5.58 6,11.25 4.19,4.04 5.99,6.53 6,8.28 0,1.42 0.87,3.05 2,3.76 2.57,1.6 2.57,4.859 0,6.46 -1.21,0.76 -2,2.34 -2,4 0,1.67 -0.78,3.25 -2,4 -1.9,1.189 -2,2.34 -2,22.77 0,20.44 0.1,21.58 2,22.771 2.93,1.83 2.93,12.63 0,14.46 -1.68,1.05 -2,2.34 -2,8 0,5.67 -0.32,6.96 -2,8 -1.68,1.05 -2,2.34 -2,8 0,5.67 -0.32,6.96 -2,8 -1.15,0.72 -2,2.34 -2,3.8 0,1.7 -1.34,3.79 -4,6.23 -2.64,2.43 -4,4.54 -4,6.199 0,1.44 -0.86,3.061 -2,3.771 -1.1,0.689 -2,2.34 -2,3.66 0,3.39 -5.79,9.09 -9.25,9.1 -3.33,0.01 -3.78,2.88 -0.75,4.78 2.57,1.6 2.57,4.859 0,6.46 -1.21,0.76 -2,2.34 -2,4 0,1.67 -0.79,3.25 -2,4 -3.53,2.21 -2.65,7.229 2,11.51 2.2,2.03 4,4.58 4,5.67 0,1.55 0.27,1.73 1.2,0.79 0.66,-0.66 2.8,-1.189 4.75,-1.189 7.5,0.029 13.68,11.71 8.05,15.22 -1.15,0.72 -2,2.34 -2,3.81 0,1.41 -0.54,3.101 -1.2,3.761 -0.93,0.939 -0.93,1.47 0,2.399 0.66,0.66 1.2,2.351 1.2,3.76 0,1.48 0.85,3.091 2,3.811 2.57,1.6 2.57,4.859 0,6.46 -1.21,0.76 -2,2.34 -2,4 0,1.67 -0.78,3.25 -2,4 -1.21,0.76 -2,2.34 -2,4 0,1.67 -0.79,3.25 -2,4 -1.42,0.89 -2,2.34 -2,5.01 v 3.76 h 8.99 c 7.91,0 9.15,0.24 10.24,2 0.97,1.551 2.34,2 6,2 3.67,0 5.04,0.46 6,2 1.82,2.91 3.38,2.49 7.51,-2 l 3.68,-4 h 11.78 c 2.16,0 3.94,0.011 5.4,0.03 1.54,-3.18 3.9,-8.04 5.18,-10.59 2,-4 8,0.67 10,-8.66 4.66,-8 11.33,-15.34 16,-16 2.66,-2.67 18.66,-6 23.33,-6 4.67,0 26.67,6.66 30.67,6.66 4,0 21.33,-4.66 24.66,-4 5.34,2.67 10,0.67 12.67,5.34 5.33,2 18.67,2.66 23.33,2 3.59,-0.51 22.54,-2.21 32.63,-4.78 3.04,-0.779 5.27,-1.63 6.04,-2.56 2.67,6.67 6,17.34 9.33,20 3.34,5.34 9.34,15.34 14.67,14.67 0.97,-0.12 1.88,-0.02 2.71,0.23 2.96,-2.66 5.07,-4.341 5.54,-4.341 0.89,0 2.19,0.9 2.87,2 0.98,1.57 2.34,2 6.21,2 3.86,0 4.7,-0.26 3.76,-1.199 -2.01,-2.011 -1.49,-8.601 0.8,-10.03 1.22,-0.76 2,-2.33 2,-4 0,-1.67 0.79,-3.24 2,-4 1.22,-0.76 2,-2.33 2,-4 0,-1.67 0.79,-3.24 2,-4 1.12,-0.7 2.01,-2.351 2.03,-3.76 0.02,-3.141 9.73,-13.011 12.79,-13.011 1.92,0 4.63,-2.109 7.99,-6.239 1.85,-2.271 -0.44,-5.75 -3.8,-5.771 -1.52,0 -3.79,-1.33 -5.76,-3.35 l -3.25,-3.351 v -13.64 c 0,-12.55 0.16,-13.73 2,-14.88 1.22,-0.76 2,-2.33 2,-4 0,-1.67 0.79,-3.24 2,-4 1.14,-0.71 2,-2.34 2.01,-3.76 0,-1.75 1.8,-4.24 6,-8.28 3.7,-3.561 5.99,-6.59 5.99,-7.93 0,-1.381 2.89,-5.011 8,-10.04 5.66,-5.561 8,-8.58 8,-10.311 0,-1.35 0.89,-2.99 2,-3.68 1.1,-0.69 2,-2.33 2,-3.65 0,-1.55 1.86,-4.29 5.25,-7.729 4.79,-4.87 5.65,-5.34 9.76,-5.36 3.41,-0.02 4.82,-0.51 5.76,-2.03 0.76,-1.21 2.33,-2 4,-2 1.67,0 3.24,-0.779 4,-2 1.04,-1.659 2.33,-2 7.68,-2 h 6.44 l 7.87,-8 c 5.58,-5.67 8.59,-8 10.32,-8 1.36,0 2.99,-0.88 3.69,-2 0.71,-1.13 2.33,-2 3.74,-2 1.58,0 3.78,-1.35 5.99,-3.71 0.71,-0.76 1.3,-1.399 1.78,-1.949 1.58,-1.83 1.92,-2.66 1.37,-3.32 -0.15,-0.18 -0.37,-0.351 -0.65,-0.521 -0.55,-0.34 -1,-1.83 -1,-3.319 0,-1.61 -0.8,-3.2 -2,-3.95 -3.56,-2.22 -2.15,-6.521 2.43,-7.37 1.71,-0.32 1.57,-0.69 -1.25,-3.35 -1.4,-1.33 -2.19,-2.181 -2.62,-3.37 -0.49,-1.29 -0.56,-2.99 -0.56,-6.141 0,-5.43 -0.33,-6.72 -2,-7.77 -2.81,-1.75 -2.81,-8.7 0,-10.46 1.22,-0.76 2,-2.33 2,-4 0,-1.67 0.79,-3.24 2,-4 1.1,-0.69 2,-2.33 2,-3.65 0,-3.24 5.79,-9.09 9.01,-9.109 1.42,0 3.06,-0.881 3.76,-2.011 0.76,-1.21 2.33,-2 4,-2 1.67,0 3.24,-0.779 4,-2 1.15,-1.84 2.33,-2 15.23,-2 12.9,0 14.08,0.16 15.23,2 1.05,1.681 2.34,2 8,2 5.67,0 6.96,0.32 8,2 0.97,1.551 2.34,2 6,2 3.67,0 5.04,0.46 6,2 0.97,1.551 2.34,2 6,2 3.67,0 5.04,0.46 6,2 0.69,1.101 1.94,2 2.77,2 0.84,0 2.08,-0.899 2.77,-2 0.96,-1.54 2.33,-2 6,-2 3.67,0 5.04,-0.449 6,-2 0.7,-1.109 2.33,-2 3.7,-2 3.03,0 7.52,-4.33 7.56,-7.29 0.03,-3.069 9.96,-12.71 13.09,-12.71 1.32,0 2.96,-0.899 3.65,-2 0.76,-1.21 2.33,-2 4,-2 1.67,0 3.24,-0.779 4,-2 0.69,-1.1 2.33,-2 3.66,-2 3.01,0 11.57,-8.3 11.57,-11.22 0,-3.05 18.02,-20.78 21.12,-20.78 1.32,0 2.96,-0.899 3.65,-2 0.69,-1.1 2.14,-2 3.23,-2 1.09,0 2.55,0.9 3.23,2 0.76,1.221 2.34,2 4,2 1.67,0 3.25,0.79 4,2 0.76,1.221 2.34,2 4,2 1.67,0 3.25,0.79 4,2 0.72,1.16 2.34,2 3.81,2 1.41,0 3.1,0.54 3.76,1.2 0.94,0.94 1.47,0.94 2.4,0 2.22,-2.22 4.06,-1.229 11.45,6.16 6.91,6.91 7.35,7.62 7.35,11.76 0,3.32 0.49,4.71 2,5.65 1.14,0.71 2,2.33 2,3.77 0,1.67 1.36,3.78 4,6.2 2.39,2.2 4,4.59 4,5.93 0,2.9 4.44,7.33 7.35,7.33 2.86,0 4.65,1.78 4.65,4.61 0,1.39 2.45,4.66 6.6,8.8 6.12,6.12 6.9,6.59 10.99,6.59 3.31,0 4.7,0.49 5.64,2 0.72,1.15 2.34,2 3.8,2 1.7,0 3.79,1.341 6.23,4 2.27,2.471 4.57,4 6,4 1.43,0 3.74,1.54 6,4 2.43,2.641 4.54,4 6.2,4 1.44,0 3.06,0.86 3.77,2 0.76,1.221 2.34,2 4,2 1.67,0 3.25,0.79 4,2 0.76,1.221 2.34,2 4,2 1.67,0 3.25,0.79 4,2 0.71,1.141 2.34,2 3.77,2 1.49,0 3.65,1.221 5.34,3 3,3.181 4.16,3.63 5.16,2 0.34,-0.55 2.3,-1 4.35,-1 3.08,0 4.38,0.71 7.41,4 3.48,3.78 5.13,4.67 6.65,3.13 v -410.209 h -386.86 z"
       style="fill:#e0e0e0;fill-opacity:1;stroke:none;stroke-opacity:1"
       sodipodi:nodetypes="scccscsssccsscccsccccscccccscscscscscccsscscscscscscscscsscscsscsscscscssssscscscscscscscsssccsscscccscccscssscssscscscscscsscscsscccccsccccccscccccccccccscsccccccccsccccscccscscccccccscccccsccccscccccsscccccscccscscccccsccsccccccccccssssscccscccccscsccscsssccsccsccccscscscscsccccccscscscscscscscsccscsscccccccccccscscscccsccscscscscscscscscscscscscsssccssccccscsccscscscscscccsccscccsccsccscscscscscccsccccssccccccccscsccscsccsccccscscccscscscccscsccscsccscsccccsccscsccscscscscscscscscscscssscscscscssccscscssscscscscscscscsccsccccc" /><path
       inkscape:connector-curvature="0"
       d="m 621.993,1527.782 c -3.11,0 -4.51,-0.51 -5.44,-2 -1.63,-2.6 -3.16,-2.52 -5.97,0.32 -4.76,4.81 -5.02,5.35 -3.61,7.6 0.75,1.21 2.34,2.08 3.81,2.08 1.53,0 3.68,1.25 5.51,3.19 2.88,3.06 3.01,3.1 3.32,0.96 0.18,-1.22 1.19,-2.76 2.25,-3.43 1.08,-0.67 1.92,-2.32 1.92,-3.761 0,-1.409 0.54,-3.1 1.2,-3.76 0.939,-0.928 0.269,-1.199 -2.99,-1.199 z"
       id="path4246"
       style="fill:#fc8d59;fill-opacity:1" /><path
       inkscape:connector-curvature="0"
       d="m 654.022,1511.782 c -0.96,0 -2.32,0.9 -3.01,2 -1.14,1.841 -0.99,2 1.76,2 2.35,0 3.01,-0.439 3.01,-2 10e-4,-1.239 -0.659,-2 -1.76,-2 z"
       id="path4248"
       style="fill:#fc8d59;fill-opacity:1" /><path
       inkscape:connector-curvature="0"
       d="m 600.783,1531.782 c -0.55,0 -1,0.48 -1,1.061 0,0.581 0.45,0.78 1,0.439 0.55,-0.34 1,-0.81 1,-1.06 0,-0.24 -0.45,-0.44 -1,-0.44 z"
       id="path4250"
       style="fill:#fc8d59;fill-opacity:1" /><path
       inkscape:connector-curvature="0"
       d="m 560.783,1559.782 c -0.55,0 -1,0.48 -1,1.061 0,0.581 0.45,0.78 1,0.439 0.55,-0.34 1,-0.81 1,-1.06 0,-0.24 -0.45,-0.44 -1,-0.44 z"
       id="path4252"
       style="fill:#fc8d59;fill-opacity:1" /><path
       style="fill:none;fill-opacity:1;stroke:#0978ab;stroke-opacity:1"
       d="m 593.56546,1007.767 c -1.52,0.96 -3.47929,2.6901 -5.77929,5.0801 -4.03,4.19 -6.5193,5.99 -8.2793,6 -1.42,0 -3.05172,0.87 -3.76172,2 -0.69,1.12 -2.32945,2 -3.68945,2 -1.35,0 -3.59024,1.1488 -4.99024,2.5488 -2.49,2.49 -2.54883,2.8608 -2.54883,16.8008 0,15.41 -0.38117,16.6504 -5.20117,16.6504 -2.36,0 -2.79883,0.4204 -2.79883,2.6504 0,1.63 -1.24,3.9183 -3.25,5.9883 -2.73,2.81 -3.95976,3.3415 -7.75976,3.3515 -3.42,0.01 -4.81172,0.4998 -5.76172,2.0098 -0.94,1.51 -2.3282,2 -5.6582,2 -3.9,0 -4.93024,0.5301 -8.99024,4.5801 -5.09,5.1 -5.50007,6.3694 -2.58008,8.1894 3.12001,1.95 2.42,4.0897 -3.25,9.8497 -4.47,4.5399 -5.80023,5.3393 -8.99023,5.3593 -2.67,0.02 -4.10023,-0.5485 -4.99023,-1.9785 -0.96,-1.54 -2.33,-2 -6,-2 -3.67,0 -5.04,-0.449 -6,-2 -0.86,-1.38 -2.32954,-2 -4.76954,-2 -2.43,0 -3.90148,0.62 -4.77148,2 -1.79,2.88 -4.25852,2.4596 -7.97852,-1.3594 -2.51999,-2.6 -3.25,-4.2094 -3.25,-7.1894 0,-2.99 -0.26117,-3.5804 -1.20117,-2.6504 -0.66,0.66 -2.46,1.1992 -4,1.1992 -2.6,0 -2.79882,0.29 -2.79883,4 0,3.72 0.19883,4 2.79883,4 5.03,0 7.14117,4.7805 3.20117,7.2305 -2.75999,1.729 -2.75999,7.819 0,9.539 1.55001,0.96 2,2.33 2,6 0,3.67 0.46,5.04 2,6 2.24001,1.399 2.61883,4.2213 0.79883,6.0313 -0.66,0.659 -3.80023,1.1992 -6.99023,1.1992 -4.71,0 -6.01906,-0.37 -7.03906,-2 -1.6,-2.55 -3.94102,-2.55 -5.54102,0 -1.39,2.24 -4.2093,2.6198 -6.0293,0.8008 -0.93,-0.931 -1.46039,-0.931 -2.40039,0 -0.66,0.659 -2.34976,1.1992 -3.75976,1.1992 -1.47,0 -3.09055,0.851 -3.81055,2 -0.68,1.101 -1.99992,2 -2.91992,2 -0.92,0 -5.21883,-3.6 -9.54883,-8 -4.33,-4.399 -8.41031,-8 -9.07031,-8 -0.66,0 -1.77094,0.9 -2.46094,2 -0.96,1.551 -2.33,2 -6,2 -3.66,0 -5.03,0.46 -6,2 -0.91,1.46 -2.32851,2 -5.22852,2 -2.89999,0 -4.32046,-0.54 -5.23046,-2 -1.7,-2.71 -7.81024,-2.7613 -9.49024,-0.07 -0.66,1.06 -2.18086,2.069 -3.38086,2.25 -1.96,0.29 -1.63828,0.8599 3.01172,5.4609 5.2,5.13 5.19844,5.1407 4.89844,10.8907 -0.35,6.63 -2.30883,8.8889 -5.79883,6.7089 -1.11,-0.689 -2.00977,-0.9102 -2.00977,-0.4902 0,0.431 0.90001,1.3305 2,2.0215 1.10001,0.689 2,2.2404 2,3.4394 0,1.71 0.26922,1.9313 1.19922,0.9903 0.66,-0.66 3.81024,-1.2012 6.99024,-1.2012 4.71,0 6.02906,0.38 7.03906,2 0.97,1.551 2.34,2 6,2 3.67,0 5.04,0.46 6,2 0.72,1.15 2.34078,2 3.80078,2 1.7,0 3.79047,1.341 6.23047,4 3.25,3.54 4.20922,4 8.19922,4 3.44,0 4.81953,0.48 5.76953,2 0.72,1.16 2.34055,2 3.81055,2 4.81,0 6.79094,4.8415 2.96093,7.2305 -2.98,1.87 -2.59132,4.7695 0.63868,4.7695 1.84,0 4.26047,1.591 7.98047,5.25 5.74,5.65 6.54086,8.0115 3.38085,9.9805 -1.37999,0.87 -2,2.3395 -2,4.7695 0,2.44 0.62,3.9105 2,4.7715 1.12001,0.7 2,2.3292 2,3.6992 0,3.149 4.38907,7.5293 7.53907,7.5293 1.36,0 2.99945,0.891 3.68945,2 0.71,1.13 2.35172,2.0117 3.76172,2.0117 1.53,0.01 3.78976,1.3304 5.75976,3.3594 l 3.25,3.3496 v 24.25 l 6,5.7598 c 5.91001,5.689 5.99001,5.8503 6,11.3203 0.01,8.529 -3.24,10.3503 -8.5,4.7793 l -3,-3.1797 -0.27148,20.1797 c -0.25,18.87 -0.4,20.2609 -2.25,21.4199 -1.65,1.03 -1.97852,2.3415 -1.97852,7.9805 0,5.67 -0.31999,6.96 -2,8 -1.68,1.05 -1.99999,2.34 -2,8 0,5.67 -0.31999,6.96 -2,8 -1.1,0.689 -2,2.3401 -2,3.6601 0,1.35 -1.41,3.85 -3.25,5.75 -2.73,2.81 -3.95976,3.3396 -7.75976,3.3496 -3.42,0.01 -4.81172,0.4998 -5.76172,2.0098 -1.11,1.79 -2.32851,2 -11.22852,2 -8.89999,0 -10.12046,-0.21 -11.23046,-2 -1.82,-2.909 -11.72102,-2.909 -13.54102,0 -0.68,1.101 -2.13851,2 -3.22852,2 -1.08999,0 -2.54046,-0.899 -3.23046,-2 -0.76,-1.21 -2.33,-2 -4,-2 -1.67,0 -3.24,-0.779 -4,-2 -0.69,-1.1 -1.92953,-2 -2.76954,-2 -0.82999,0 -2.08148,0.9 -2.77148,2 -0.68,1.101 -2.13851,2 -3.22852,2 -1.08999,0 -2.54046,-0.899 -3.23046,-2 -0.69,-1.1 -1.92953,-2 -2.76954,-2 -0.82999,0 -2.08148,0.9 -2.77148,2 -1.08,1.73 -2.32851,2 -9.22852,2 -6.89999,0 -8.15046,-0.27 -9.23046,-2 -1.05,-1.68 -2.33,-2 -8,-2 -5.67,0 -6.95,-0.319 -8,-2 -0.96,-1.54 -2.33,-2 -6,-2 -3.67,0 -5.04,-0.449 -6,-2 -0.96,-1.54 -2.33,-2 -6,-2 -3.67,0 -5.04,-0.449 -6,-2 -1.19,-1.909 -2.33,-2 -26,-2 -23.67,0 -24.81,-0.09 -26,-2 -0.76,-1.21 -2.33,-2 -4,-2 -1.67,0 -3.24,-0.779 -4,-2 -1,-1.6 -2.32954,-2 -6.76954,-2 -4.43,0 -5.76148,0.4 -6.77148,2 -0.79,1.28 -2.32828,2 -4.23828,2 -2.61,0 -2.99024,0.3598 -2.99024,2.8008 0,4.6 -1.48046,5.1992 -12.73046,5.1992 h -10.33008 l -3.67969,4 c -2.6,2.841 -4.4907,4 -6.4707,4 -2.71,0 -2.78906,0.1505 -2.78907,5.4805 0,5.39 0.10001,5.58 6,11.25 4.19,4.04 5.99001,6.5293 6,8.2793 0,1.42 0.87001,3.0497 2,3.7597 2.57,1.6 2.57,4.86 0,6.461 -1.21,0.76 -1.99999,2.34 -2,4 0,1.67 -0.77999,3.25 -2,4 -1.9,1.189 -2,2.3395 -2,22.7695 0,20.44 0.10001,21.5805 2,22.7715 2.93001,1.83 2.93001,12.629 0,14.459 -1.68,1.05 -2,2.34 -2,8 0,5.67 -0.31999,6.96 -2,8 -1.68,1.05 -2,2.34 -2,8 0,5.67 -0.31999,6.96 -2,8 -1.15,0.72 -2,2.3408 -2,3.8008 0,1.7 -1.34,3.7904 -4,6.2304 -2.63999,2.43 -4,4.5402 -4,6.1992 0,1.44 -0.86,3.0596 -2,3.7696 -1.09999,0.689 -1.99999,2.3401 -2,3.6601 0,3.39 -5.78999,9.0916 -9.25,9.1016 -3.33,0.01 -3.77999,2.8793 -0.75,4.7793 2.57,1.6 2.57,4.858 0,6.459 -1.21,0.76 -2,2.34 -2,4 0,1.67 -0.78999,3.25 -2,4 -3.53,2.21 -2.64999,7.2307 2,11.5117 2.2,2.03 4,4.5799 4,5.6699 0,1.55 0.26922,1.7291 1.19922,0.7891 0.66,-0.66 2.8,-1.1895 4.75,-1.1895 7.5,0.029 13.68079,11.7107 8.05078,15.2207 -1.15,0.72 -2,2.3406 -2,3.8106 0,1.41 -0.54117,3.0997 -1.20117,3.7597 -0.93,0.939 -0.93,1.4714 0,2.4004 0.66,0.66 1.20118,2.3508 1.20117,3.7598 0,1.48 0.85001,3.0905 2,3.8105 2.57,1.6 2.57,4.86 0,6.461 -1.21,0.76 -1.99999,2.34 -2,4 0,1.67 -0.77999,3.25 -2,4 -1.21,0.76 -1.99999,2.34 -2,4 0,1.67 -0.78999,3.25 -2,4 -1.41999,0.89 -2,2.3398 -2,5.0098 v 3.7597 h 8.99024 c 7.91,0 9.14828,0.24 10.23828,2 0.97,1.551 2.34,2 6,2 3.67,0 5.04,0.46 6,2 1.82,2.91 3.38172,2.49 7.51172,-2 l 3.67969,-4 h 11.77929 c 2.16,0 3.94039,0.01 5.40039,0.029 5.7e-4,-10e-4 0.001,0 0.002,0 5.77807,0.1111 6.72706,0.5319 7.62695,1.9707 0.69,1.101 2.33039,2 3.65039,2 1.55,0 4.29024,1.86 7.74024,5.25 l 5.33984,5.25 0.0195,8.1504 0.0215,8.1387 12.60938,12.6113 c 15.74,15.741 15.28039,15.6606 26.15039,4.5996 5.58,-5.67 8.59031,-8 10.32031,-8 1.36,0 2.98946,-0.88 3.68946,-2 0.96,-1.54 2.33,-2 6,-2 3.67,0 5.04,-0.449 6,-2 0.76,-1.21 2.33,-2 4,-2 1.67,0 3.24,-0.779 4,-2 1.18,-1.89 2.33047,-2 21.23046,-2 18.9,0 20.04852,0.11 21.22852,2 1.1,1.75 2.34,2 10,2 7.67,0 8.91,0.25 10,2 1.82,2.91 3.38172,2.49 7.51172,-2 3.45,-3.75 4.02953,-4 9.26953,-4 3.08,0 6.07992,0.4901 6.66992,1.0801 0.78,0.781 1.68922,0.7088 3.19922,-0.2402 1.64,-1.021 2.12109,-2.32 2.12109,-5.711 0,-4.31 0.26915,-4.6697 13.36915,-17.7597 0.7,-0.701 1.39031,-1.3806 2.07031,-2.0606 2.71841,-2.6584 5.26767,-5.0663 7.37695,-6.9648 10e-4,3e-4 0.003,-4e-4 0.004,0 2.96,-2.66 5.06906,-4.3418 5.53906,-4.3418 0.89,0 2.18914,0.9 2.86914,2 0.98,1.57 2.34094,2 6.21094,2 3.86,0 4.69976,-0.2602 3.75976,-1.1992 -2.01,-2.011 -1.48922,-8.6003 0.80078,-10.0293 1.22001,-0.76 2,-2.33 2,-4 0,-1.67 0.79001,-3.24 2,-4 1.22001,-0.76 2,-2.33 2,-4 0,-1.67 0.79001,-3.24 2,-4 1.12001,-0.7 2.0093,-2.3508 2.0293,-3.7598 0.02,-3.141 9.73102,-13.0117 12.79102,-13.0117 1.92,0 4.62828,-2.1083 7.98828,-6.2383 1.85,-2.271 -0.43883,-5.7505 -3.79883,-5.7715 -1.52,0 -3.78976,-1.3296 -5.75977,-3.3496 l -3.25,-3.3516 v -13.6386 c 0,-12.55 0.16001,-13.7309 2,-14.8809 1.22001,-0.76 2,-2.33 2,-4 0,-1.67 0.79,-3.24 2,-4 1.14,-0.71 1.99977,-2.3398 2.00977,-3.7598 0,-1.75 1.8,-4.2412 6,-8.2812 3.7,-3.561 5.99023,-6.5897 5.99023,-7.9297 0,-1.381 2.89,-5.0101 8,-10.0391 5.66,-5.561 8,-8.5795 8,-10.3105 0,-1.35 0.89,-2.9916 2,-3.6816 1.10001,-0.69 2,-2.3285 2,-3.6485 0,-1.55 1.86001,-4.2915 5.25,-7.7305 4.79,-4.87 5.64977,-5.3393 9.75977,-5.3593 3.41,-0.02 4.81977,-0.5093 5.75977,-2.0293 0.76,-1.21 2.33,-2 4,-2 1.67,0 3.24,-0.779 4,-2 1.04,-1.659 2.32968,-2 7.67968,-2 h 6.43946 l 7.87109,-8 c 5.58,-5.67 8.59031,-8 10.32031,-8 1.36,0 2.98946,-0.88 3.68946,-2 0.71,-1.13 2.33023,-2 3.74023,-2 1.58,0 3.78023,-1.351 5.99023,-3.711 0.71001,-0.76 1.2993,-1.3992 1.7793,-1.9492 1.58,-1.83 1.91914,-2.6603 1.36914,-3.3203 -0.15,-0.18 -0.36844,-0.3495 -0.64844,-0.5195 -0.54999,-0.34 -1,-1.8313 -1,-3.3203 0,-1.61 -0.79999,-3.1993 -2,-3.9493 -3.55999,-2.22 -2.15031,-6.5201 2.42969,-7.3691 1.71,-0.32 1.57,-0.6916 -1.25,-3.3516 -1.4,-1.33 -2.19109,-2.1801 -2.62109,-3.3691 -0.49,-1.29 -0.5586,-2.9896 -0.5586,-6.1406 0,-5.43 -0.32999,-6.7215 -2,-7.7715 -2.80999,-1.75 -2.80999,-8.699 0,-10.459 1.22001,-0.76 2,-2.33 2,-4 0,-1.67 0.79,-3.24 2,-4 1.10001,-0.69 2,-2.3304 2,-3.6504 0,-3.24 5.78977,-9.0904 9.00977,-9.1094 1.42,0 3.05977,-0.8797 3.75977,-2.0097 0.76,-1.21 2.33,-2 4,-2 1.67,0 3.24,-0.779 4,-2 1.15,-1.84 2.33046,-2 15.23046,-2 12.9,0 14.07852,0.16 15.22852,2 1.05,1.681 2.34,2 8,2 5.67,0 6.96,0.32 8,2 0.97,1.551 2.34,2 6,2 3.67,0 5.04,0.46 6,2 0.97,1.551 2.34,2 6,2 3.67,0 5.04,0.46 6,2 0.69,1.101 1.94149,2 2.77148,2 0.84001,0 2.07954,-0.899 2.76954,-2 0.96,-1.54 2.33,-2 6,-2 3.67,0 5.04,-0.449 6,-2 0.7,-1.109 2.32922,-2 3.69922,-2 3.02999,0 7.52054,-4.331 7.56054,-7.291 0.03,-3.069 9.95985,-12.709 13.08985,-12.709 1.32,0 2.96039,-0.899 3.65039,-2 0.76,-1.21 2.33,-2 4,-2 1.67,0 3.24,-0.779 4,-2 0.69,-1.1 2.33015,-2 3.66015,-2 3.01,0 11.57032,-8.3007 11.57031,-11.2207 0,-3.05 18.01915,-20.7793 21.11915,-20.7793 1.32,0 2.96039,-0.899 3.65039,-2 0.69,-1.1 2.14046,-2 3.23046,-2 1.09001,0 2.54852,0.9 3.22852,2 0.76,1.221 2.34,2 4,2 1.67,0 3.25,0.79 4,2 0.76,1.221 2.34,2 4,2 1.67,0 3.25,0.79 4,2 0.72,1.16 2.34055,2 3.81055,2 1.41,0 3.09976,0.5392 3.75976,1.1992 0.94,0.94 1.47039,0.94 2.40039,0 2.22,-2.22 4.05922,-1.2289 11.44922,6.1601 6.91,6.91 7.35157,7.6198 7.35156,11.7598 0,3.32 0.49,4.7104 2,5.6504 1.14,0.71 2.00001,2.3295 2,3.7695 0,1.67 1.36001,3.7812 4,6.2012 2.39,2.2 4.00001,4.5897 4,5.9297 0,2.9 4.43961,7.3301 7.34961,7.3301 2.86,0 4.65039,1.7793 4.65039,4.6093 0,1.39 2.44961,4.6608 6.59961,8.8008 6.12,6.12 6.90024,6.5899 10.99024,6.5899 3.31,0 4.69867,0.49 5.63867,2 0.72,1.15 2.34078,2 3.80078,2 1.7,0 3.79047,1.341 6.23047,4 2.27,2.471 4.57,4 6,4 1.43,0 3.74,1.54 6,4 2.43,2.641 4.53922,4 6.19922,4 1.44,0 3.05953,0.86 3.76953,2 0.76,1.221 2.34,2 4,2 1.67,0 3.25,0.79 4,2 0.76,1.221 2.34,2 4,2 1.67,0 3.25,0.79 4,2 0.71,1.141 2.34149,2 3.77148,2 1.49001,0 3.64985,1.221 5.33985,3 3,3.181 4.16015,3.63 5.16015,2 0.34001,-0.55 2.29961,-1 4.34961,-1 3.08,0 4.38016,0.71 7.41016,4 3.48,3.78 5.13039,4.6689 6.65039,3.1289 v -410.209 H 593.56558 v 0 z m 230.54297,369.336 c -0.1834,0.01 -0.44047,0.1958 -0.79297,0.5449 -0.66,0.659 -2.19992,1.1992 -3.41992,1.1992 -3.07,0 -11.3789,8.4503 -11.37891,11.5703 0,1.33 -0.88999,2.9782 -2,3.6582 -1.59,1 -1.99999,2.341 -2,6.541 0,4.899 0.30001,5.5707 4,8.9707 2.36001,2.17 4,4.5887 4,5.8887 0,3.03 8.44954,11.3711 11.51954,11.3711 1.3,0 2.72992,0.57 3.16992,1.25 0.45,0.7 0.93961,-3.3098 1.09961,-9.0098 0.25,-8.939 0.54,-10.4202 2.25,-11.4902 2.869,-1.801 2.84994,-11.7125 -0.0391,-13.5215 -1.53999,-0.96 -2,-2.33 -2,-6 0,-3.66 -0.44999,-5.03 -2,-6 -1.1,-0.68 -2,-2.2294 -2,-3.4394 0,-1.0619 -0.10253,-1.5465 -0.4082,-1.5332 z m 5.86719,69.7441 c -5.23,0 -5.45899,0.1104 -5.45899,2.6504 0,1.95 -1.92156,4.57 -7.35156,10 -7.03,7.03 -7.56,7.3496 -12,7.3496 -3.77,0 -4.64843,0.3398 -4.64844,1.7598 0,0.97 0.9,2.3187 2,3.0097 1.22001,0.76 2,2.33 2,4 0,1.67 0.79,3.24 2,4 1.22001,0.76 2,2.33 2,4 0,1.67 0.79,3.24 2,4 1.68,1.05 2.00001,2.33 2,8 0,5.67 0.32001,6.95 2,8 1.10001,0.689 2.00001,2.1415 2,3.2305 0,1.091 -0.89999,2.5495 -2,3.2285 -1.1,0.689 -2,1.9405 -2,2.7715 0,0.841 0.9,2.0785 2,2.7695 1.76,1.09 2,2.33 2,10 0,7.67 0.25,8.91 2,10 1.28,0.8 2,2.3303 2,4.2403 0,1.949 0.50899,2.9902 1.45899,2.9902 2.18,0 6.54102,-4.7904 6.54101,-7.1894 0,-1.15 1.47001,-3.6005 3.25,-5.4395 2.91,-3 3.82883,-3.3504 8.79883,-3.3594 3.06,0 6.09,0.5295 6.75,1.1895 0.94,0.94 1.20118,-5.6798 1.20117,-29.7598 0,-29.871 -0.071,-31.0029 -2,-32.2129 -1.21,-0.75 -2,-2.33 -2,-4 0,-1.66 -0.77999,-3.24 -2,-4 -1.11,-0.69 -1.99999,-2.3294 -2,-3.6894 0,-1.35 -1.14101,-3.5893 -2.54101,-4.9883 -2.11,-2.11 -3.49,-2.5508 -8,-2.5508 z m -175.2207,63.9981 c -0.96,0 -2.31977,0.9 -3.00977,2 -1.14,1.841 -0.99023,2 1.75977,2 2.35,0 3.00976,-0.439 3.00976,-2 10e-4,-1.239 -0.65876,-2 -1.75976,-2 z m -40.01172,12.1211 c -0.9375,0.05 -2.02274,0.7792 -3.42774,2.1992 -4.76,4.81 -5.01937,5.3496 -3.60937,7.5996 0.75,1.21 2.34055,2.0801 3.81054,2.0801 1.53,0 3.67977,1.2494 5.50977,3.1894 2.88,3.06 3.01031,3.1009 3.32031,0.9609 0.18,-1.22 1.19,-2.7596 2.25,-3.4296 1.08,-0.67 1.91992,-2.3208 1.91992,-3.7618 0,-1.409 0.53922,-3.0997 1.19922,-3.7597 0.939,-0.928 0.26877,-1.1992 -2.99023,-1.1992 -3.11,0 -4.50945,-0.51 -5.43945,-2 -0.815,-1.3 -1.60547,-1.9289 -2.54297,-1.8789 z m -13.22657,7.8789 c -0.54999,0 -1,0.4795 -1,1.0605 0,0.581 0.45001,0.7805 1,0.4395 0.55,-0.34 1,-0.8106 1,-1.0606 0,-0.24 -0.45,-0.4394 -1,-0.4394 z m 458.49997,13.6425 -2.9902,3.1797 c -2.75,2.92 -3.5202,3.1797 -9.2402,3.1797 h -6.2305 l -5.7695,6 -5.7696,5.9902 -6.5097,0.01 c -5.42,0 -6.7118,0.341 -7.7618,2 -0.91,1.4601 -2.3285,2 -5.2285,2 -2.9,0 -4.3204,-0.5399 -5.2304,-2 -0.76,-1.21 -2.33,-2 -4,-2 -1.67003,0 -3.24003,-0.7789 -4.00003,-2 -0.69,-1.0999 -1.92953,-2 -2.76954,-2 -0.83,0 -2.08148,0.9001 -2.77148,2 -0.75,1.2211 -2.33,2 -4,2 -1.66,0 -3.24,0.79 -4,2 -0.91,1.4601 -2.32851,2 -5.22852,2 -2.89999,0 -4.32046,-0.5399 -5.23046,-2 -1.66,-2.6489 -3.15071,-2.5202 -6.22071,0.5508 -3.07,3.069 -3.19883,4.5607 -0.54883,6.2207 1.12001,0.7 2.00001,2.3293 2,3.6993 0,4.08 4.36907,7.5292 9.53907,7.5292 3.36,0 4.74945,0.4901 5.68945,2 1.05,1.6811 2.34,2 8,2 5.67,0 6.96,0.32 8,2 0.75995,1.2211 2.33995,2 3.99995,2 1.67,0 3.25,0.79 4,2 0.76,1.2211 2.34,2 4,2 1.67,0 3.25,0.79 4,2 1.1,1.75 2.34,2 10,2 7.67,0 8.91,0.25 10,2 0.76,1.2211 2.34,2 4,2 1.67,0 3.25,0.79 4,2 0.76,1.2211 2.34,2 4,2 1.67,0 3.25,0.79 4,2 0.69,1.1011 1.9415,2 2.7715,2 0.84,0 2.0796,-0.8989 2.7696,-2 0.8,-1.2699 2.3302,-2 4.2402,-2 2.66,0 2.9902,-0.3292 2.9902,-2.9882 0,-1.91 0.73,-3.4403 2,-4.2403 1.1,-0.69 2,-1.9305 2,-2.7715 0,-0.832 -0.9,-2.0824 -2,-2.7714 -1.27,-0.79 -2,-2.3283 -2,-4.2383 0,-2.56 -0.3706,-2.9903 -2.6406,-2.9903 -1.63,0 -3.9302,-1.239 -5.9902,-3.25 -3.03,-2.939 -3.3494,-3.8012 -3.3594,-8.9902 -0.01,-4.66 0.3702,-5.9712 1.9902,-6.9902 1.2,-0.75 2,-2.3292 2,-3.9492 0,-1.59 0.8489,-3.2907 2.0489,-4.1407 1.78,-1.25 2.01,-2.3182 1.75,-8.2382 l -0.2989,-6.8008 z m -498.49997,14.3575 c -0.54999,0 -1,0.4795 -1,1.0605 0,0.581 0.45001,0.7805 1,0.4395 0.55,-0.34 1,-0.8106 1,-1.0606 0,-0.24 -0.45,-0.4394 -1,-0.4394 z m 303.53126,70.1972 c -0.50751,0.016 -1.07016,0.093 -1.72266,0.2227 -1.82,0.36 -6.23055,1.0788 -9.81055,1.5898 -6.92,0.989 -8.93875,2.5303 -14.46875,10.9903 -1.26,1.931 -3.35015,4.4799 -4.66015,5.6699 -2.93,2.69 -12.87102,5.3301 -20.04102,5.3301 -3.36,0 -6.25898,0.6189 -7.70898,1.6289 -4.3,3.021 -9.47125,3.5399 -14.28125,1.4609 -2.38,-1.04 -6.17993,-2.1898 -8.41993,-2.5508 -3.68,-0.59 -4.50961,-0.3096 -8.34961,2.9004 -3.56,2.979 -5.03,3.5606 -9,3.5606 -2.61,0 -6.96015,-0.6713 -9.66015,-1.4903 -2.7,-0.82 -6.71016,-1.4902 -8.91016,-1.4902 -3.38,-0.01 -4.57976,0.6105 -7.75976,3.9805 -3.65,3.88 -3.96032,4 -10.32032,4 -7.77,0 -8.75945,0.4597 -16.18945,7.5507 -3.15,3 -6.29023,5.4493 -6.99023,5.4493 -0.7,0 -3.72047,-2.0003 -6.73047,-4.4493 -6.2,-5.051 -10.03977,-6.1306 -16.50977,-4.6406 -2.47,0.58 -9.45,1.0609 -15.5,1.0899 -6.05,0.021 -14.10992,0.489 -17.91992,1.039 -7.79,1.13 -22.11945,7.0506 -24.93945,10.3106 -1.7,1.97 -3.14,2.2002 -17,2.7402 -11.27,0.43 -15.94985,1.01 -18.33985,2.25 -2.62,1.359 -6.29117,1.6602 -20.20117,1.6602 -18.6,0 -21.27016,0.6011 -23.16016,5.1601 -1.52999,3.681 -5.0682,6.1901 -13.9082,9.8301 -8,3.3 -17.49086,11.5685 -18.38086,16.0195 -0.8,4.02 -5.46961,5.6987 -10.84961,3.9297 -3.87,-1.28 -4.36117,-1.2084 -8.95117,1.3516 -2.93,1.641 -6.36922,2.709 -8.69922,2.709 -2.69,0 -5.09953,0.9112 -8.01953,3.0312 -4.6,3.33 -12.52047,6.4701 -18.48047,7.3301 -2.12,0.3 -6.77937,1.9196 -10.35937,3.5996 l -6.50977,3.0391 H 418.8057 c -22.75,0 -23.58086,-0.069 -26.63086,-2.25 -2.61,-1.859 -5.05016,-2.3703 -14.16016,-2.9493 -29.09,-1.841 -37.31031,-2.6495 -41.07031,-4.0605 -13.92,-5.21 -22.10984,-12.709 -28.58984,-26.209 l -4.08985,-8.5312 h -7.16992 c -7.81,0 -9.58008,0.9211 -9.58008,4.9511 0,1.41 -0.97969,4.1289 -2.17969,6.0489 -1.19,1.931 -2.48085,5.7722 -2.88086,8.5312 -0.45999,3.32 -2.63914,8.4997 -6.36914,15.1797 -3.12,5.58 -5.93929,11.8697 -6.27929,13.9707 -0.38,2.41 -2.02117,5.438 -4.45117,8.209 -2.11,2.42 -3.83985,4.9301 -3.83985,5.5801 0,0.649 -1.16984,2.2703 -2.58984,3.6093 -1.43,1.33 -3.33977,3.8697 -4.25977,5.6407 -3.17,6.14 -13.8,13.9313 -30.5,22.3203 -8.72,4.38 -16.40054,7.959 -17.06054,7.959 -0.66,0 -2.71985,1.13 -4.58985,2.5 -1.97,1.46 -4.74062,2.5 -6.64062,2.5 -2.14,0 -3.72969,0.6995 -4.67969,2.0605 -0.8,1.13 -2.72859,2.3996 -4.30859,2.8106 -2.44,0.65 -2.9411,1.381 -3.3711,4.871 -0.63,5.2 -4.62039,9.7697 -9.90039,11.3497 -2.19,0.659 -5.58906,2.5108 -7.53906,4.1308 -3.31,2.729 -3.56055,3.3186 -3.56055,8.5996 0,4.66 -0.72047,7.0699 -3.98047,13.4199 -2.2,4.25 -5.72914,9.4794 -7.86914,11.6094 -2.13,2.14 -4.65914,6.0815 -5.61914,8.7715 -0.96,2.69 -3.50062,8.52 -5.64062,12.959 -3.58,7.44 -3.88938,8.74 -3.85938,16.5 0,1.54 0.0184,2.8206 0.0684,3.9316 h 844.81055 v -100.7207 c -6.069,-1.632 -13.65,-2.4706 -23.5,-2.6406 -8.88,-0.16 -11.41016,-1.3403 -11.41016,-5.3203 0,-3.22 -2.50062,-7.9212 -4.64062,-8.7402 -1.17,-0.45 -2.39961,0.189 -3.84961,2 -2.56,3.22 -5.66852,2.6888 -8.22852,-1.4102 -0.92,-1.471 -1.76086,-2.82 -1.88086,-3 -0.11,-0.17 -1.08039,0.2304 -2.15039,0.9004 -2.68,1.67 -6.05922,0.6088 -11.94922,-3.7402 -5.08,-3.761 -15.30078,-16.3697 -15.30078,-18.8907 0,-0.75 3.49,-5.4607 7.75,-10.4707 10.99,-12.89 17.98055,-21.8984 22.06055,-28.3984 1.45,-2.319 0.98039,-13.3606 -0.84961,-19.8516 -1.05,-3.72 -5.70109,-8.0785 -14.12109,-13.2285 -1.8,-1.1 -5.29,-4.8897 -7.75,-8.4297 -3.79,-5.43 -4.55016,-7.3315 -4.91016,-12.2715 l -0.41992,-5.8496 5.00976,-5.3008 c 2.76,-2.91 5.91,-7.0607 7,-9.2207 3,-5.92 5.6111,-14.9886 4.8711,-16.9296 -1.02,-2.659 -5.53953,-1.0097 -9.76953,3.5703 -2,2.16 -4.13047,3.9297 -4.73047,3.9297 -0.6,0 -2.02063,1.801 -3.14063,4 -1.51,2.96 -2.65062,4 -4.39062,4 -3.26,0 -4.77852,-2.1901 -5.72852,-8.2911 -0.69,-4.42 -1.46961,-5.7696 -5.09961,-8.9296 -4.5,-3.91 -6.6014,-4.4795 -9.9414,-2.6895 -1.64,0.88 -2.46891,0.6709 -4.37891,-1.1191 -1.3875,-1.3125 -2.40523,-1.8204 -3.92773,-1.7735 z m 185.22851,17.8028 c -1.09,0 -1.7598,0.761 -1.7598,2 0,1.561 0.6698,2 3.0098,2 2.76,0 2.9098,-0.159 1.7598,-2 -0.69,-1.1 -2.0398,-2 -3.0098,-2 z m -116.14062,131 c -3.66,0 -6.17125,2.1094 -5.28125,4.4394 0.43,1.11 1.27007,1.2518 3.58007,0.5918 4.07,-1.17 5.08008,-1.8818 5.08008,-3.5918 10e-4,-0.969 -1.0979,-1.4394 -3.3789,-1.4394 z"
       id="path4356"
       inkscape:connector-curvature="0" /></g><g
     inkscape:groupmode="layer"
     id="layer4"
     inkscape:label="fons"
     transform="matrix(1.0009842,0,0,0.45267329,432.99827,661.2077)"
     style="fill:none"><rect
       style="display:inline;fill:none;fill-opacity:1;stroke:#000000;stroke-width:3.66313;stroke-linecap:round;stroke-linejoin:round;stroke-miterlimit:4;stroke-dasharray:none;stroke-opacity:1"
       id="rect1625"
       width="563.40747"
       height="1425.7815"
       x="-419.67252"
       y="1148.5254" /><rect
       style="opacity:1;fill:#ececec;fill-opacity:1;stroke:none;stroke-width:8.92924;stop-color:#000000"
       id="rect3697"
       width="559.84662"
       height="66.222359"
       x="-417.95682"
       y="1150.553" /><rect
       style="fill:#666666;fill-opacity:1;stroke:none;stroke-width:9.86671;stop-color:#000000"
       id="rect3697-3"
       width="559.84662"
       height="80.85759"
       x="-417.73001"
       y="2492.4214" /></g><g
     inkscape:groupmode="layer"
     id="layer5"
     inkscape:label="limits_provincials"
     sodipodi:insensitive="true"><path
       style="display:inline;fill:#917c6f;stroke:#000000;stroke-width:1px;stroke-linecap:butt;stroke-linejoin:miter;stroke-opacity:1"
       d="m 287.12486,1702.5776 3.66569,-1.272 12.50179,-0.5447 2.84682,4.648 4.78746,9.8829 5.20767,7.5405 5.90093,5.1933 8.11601,4.9347 12.2527,4.0835 11.85564,0.7304 33.54774,2.8477 6.65883,3.3363 11.92547,0.8871 15.56875,-0.3062 -2.88625,4.5906 1.7594,3.652 -2.60428,5.2769 3.33852,5.4896 4.85758,2.3526 2.67251,3.5615 v 1.2181 l 3.32171,1.6673 c 0,0 2.84802,4.7465 3.80288,4.6291 0.95487,-0.1174 3.07624,8.8024 3.07624,8.8024 l -3.3017,6.8269 -1.48356,3.4537 3.72098,6.9402 -11.00559,8.7219 -12.34214,9.0559 -7.95416,1.9063 -2.39638,-2.032 -13.09591,0.822 -17.24567,3.742 -8.1147,6.8916 -13.12157,3.9586 -10.67325,5.7032 -12.05047,3.786 -5.65084,4.9796 -0.67747,3.3381 -22.19487,9.7287 -12.90553,-4.6746 -10.00019,-4.07 -11.81437,-0.3888 -31.87244,7.0515 -32.35569,12.8884 -36.46234,12.455 -9.69038,-3.5944 -12.37506,-8.1228 6.07139,-8.7298 4.68515,-6.5246 5.55397,-9.3667 1.60745,-10.1835 0.12216,-4.9548 4.51324,-3.6346 11.76626,-5.6009 2.66817,-4.0931 2.46236,-7.9693 5.31513,-2.4788 3.30505,-3.7076 4.25928,-0.5246 6.67378,-3.1666 39.74309,-20.312 9.72683,-8.4264 8.52941,-12.1739 5.63028,-8.9925 9.96352,-21.6062 4.76987,-10.3841 1.33637,-7.7368 3.78142,-7.0858 z"
       id="path2093"
       transform="translate(-122.85898,-99.0165)" /><path
       style="fill:#d45500;stroke:#000000;stroke-width:1px;stroke-linecap:butt;stroke-linejoin:miter;stroke-opacity:1"
       d="m 96.755093,1359.3847 6.207767,0.7594 3.31516,5.1381 5.70708,-1.5805 3.56306,0.6776 3.86203,-0.065 1.60313,-2.5961 8.61562,1.6884 3.22046,1.531 2.87246,-4.3434 2.43963,-0.5315 4.57467,5.3377 3.56671,1.5888 7.93642,2.4114 3.90543,1.3363 3.28937,-1.542 1.56173,-2.5182 2.18663,-6.7923 5.01738,-0.808 4.29979,-3.5401 4.12544,-3.7327 1.94077,-3.6348 6.0384,4.0176 7.62688,-6.91 1.48999,-8.2536 5.07892,-4.7735 3.65903,-1.9188 10.1874,-11.4644 -6.9e-4,-6.6555 6.20524,-1.2104 5.44933,-6.6458 -1.67459,-3.9356 1.84938,-2.517 -2.35781,-4.2564 2.1788,-3.2744 -3.30981,-6.9949 5.40665,-3.1855 1.46988,-2.9418 -2.1397,-2.3481 -0.23554,-2.4029 -1.64683,-2.5228 6.443,-8.9682 -4.7549,-0.8001 -2.82364,-2.4531 -4.7486,-0.8151 -3.32126,-0.3244 -1.79726,-0.6297 -1.47984,-2.256 -1.87784,-0.5072 -8.33777,-1.0563 -2.86857,-2.6837 -4.60731,-0.1534 -18.93352,-0.6425 -25.49167,-0.3421 -2.72951,-2.4312 -5.27493,-1.9993 -2.61266,-2.459 -11.10959,-0.3995 -2.33731,2.9453 -5.73217,1.7203 -1.84712,5.4902 -5.39595,1.8619 -16.437863,-0.909 -7.44022,8.5983 -4.950855,0.044 0.281464,11.7808 7.984895,7.0968 4.120872,6.952 -0.525038,1.9189 4.453385,4.1638 -3.472686,4.1473 -2.126763,5.6479 -3.193036,3.901 0.138436,42.2546 3.937363,5.5671 z"
       id="path8568" /><path
       style="fill:#ac9393;stroke:#000000;stroke-width:1px;stroke-linecap:butt;stroke-linejoin:miter;stroke-opacity:1"
       d="m 249.36669,1627.9031 2.24085,-2.9185 -0.68101,-2.2204 v -3.5345 l 2.1408,-6.447 3.61886,-5.5698 6.49058,0.1356 -0.002,-6.8921 4.73366,-1.8536 v -4.9134 l 4.26897,-1.354 -4.11928,-5.2178 4.22882,-8.104 2.19111,-8.3702 3.03006,-3.9799 4.32379,-1.1444 3.62465,-2.3926 7.07993,0.1802 2.86742,-1.9981 5.68229,1.8182 4.10206,0.951 3.41905,-1.2457 6.57356,-0.4926 5.76902,0.9142 1.07398,-4.793 5.90023,-2.8761 4.55884,-3.0294 1.02864,-3.5842 -1.3499,-1.1384 3.68524,-2.6191 2.76273,-4.7852 0.57211,-6.8147 4.92851,-3.2365 1.15528,-2.647 -0.5084,-4.1713 -0.77989,-4.4879 -0.86586,-4.1015 -1.78592,-4.1035 -1.78113,-1.5196 -3.79664,1.7274 -2.90343,-0.4882 -2.85194,-3.2843 -1.265,-1.5034 -2.70893,-0.7488 -2.9179,-0.2768 -3.41612,-2.9861 v -5.446 -3.7804 l 4.04061,-1.1948 5.39639,-2.7426 1.66967,-5.0114 -4.43142,-7.6436 -5.36027,-6.4439 -4.42664,-6.0504 -2.97246,-6.1642 -4.35464,-6.3348 -5.09455,-3.707 -2.67199,3.406 -3.38063,3.2885 -4.56888,3.9536 -5.91242,1.1718 -1.46502,5.6793 -1.09007,2.7963 -3.47491,2.2377 -14.23262,-4.3421 -2.3494,-1.0061 -3.46062,-5.52 -2.70732,0.8401 -3.03304,3.9622 -3.98233,-1.5092 -7.49403,-1.5116 -1.94735,2.7204 -4.03147,-0.204 -3.43089,-0.4459 -5.58456,1.5367 -3.13724,-5.2836 -6.4901,-0.6695 -1.30771,4.2908 -2.59688,2.0863 -0.0921,8.6716 -0.97212,4.8207 -2.26418,1.8793 -0.479,3.6128 -0.24143,7.9325 -1.40258,3.023 -1.79274,1.6705 -1.36726,4.4872 -2.25923,3.1747 -3.45971,3.2679 -1.85009,2.8804 v 2.7832 l -1.67313,1.9896 -1.55124,1.6787 -1.4027,3.7592 -1.1346,2.5336 -2.54728,2.4306 -2.29386,1.9077 -2.93304,0.9842 -2.20206,0.719 0.43947,2.6322 1.74652,1.2722 1.58114,1.4992 -0.42042,2.7429 -2.69577,3.4362 -1.23843,5.0091 -2.91713,2.7817 -0.70859,3.0709 0.78504,3.1291 6.49856,7.3972 1.25461,3.6798 2.73633,-1.4573 3.57365,0.01 2.5629,0.5312 2.64484,1.7167 2.58485,3.3514 2.11373,4.3871 -1.22498,3.9331 -2.35297,1.8589 -1.09021,2.7037 -0.71809,3.508 -0.95073,1.3782 1.36228,3.3421 0.39345,3.226 1.55151,2.4068 2.61137,2.6168 -0.92284,3.0891 -2.04189,1.6945 -1.38158,2.5349 -0.0945,3.0971 -2.24844,1.6437 -0.99058,1.7816 -1.13744,4.4343 -1.29312,1.5679 -2.02228,2.0809 -0.0137,6.7935 16.70648,0.5636 2.42507,0.7054 1.18153,1.9949 2.60603,0.6394 4.32298,-0.1232 2.99872,0.8389 1.57051,1.9133 1.50153,1.3539 2.52885,-0.5278 6.45403,-7.2426 z"
       id="path8604"
       transform="translate(-122.85898,-99.0165)" /><path
       style="fill:#ff9955;stroke:#000000;stroke-width:1px;stroke-linecap:butt;stroke-linejoin:miter;stroke-opacity:1"
       d="m 233.12452,1261.0712 4.90669,-0.1942 2.70457,0.5059 1.31554,1.4092 1.8102,1.7293 2.86518,0.4391 4.78209,-0.6284 3.48762,0.3803 3.79926,-0.1832 1.82607,-2.6154 2.21192,-1.2916 2.00413,0.3352 2.29396,2.8456 1.95856,1.1579 2.89203,-1.5763 1.51655,-1.8514 1.31943,-0.6352 2.68475,0.5769 1.57267,2.7636 3.03568,0.1147 2.85742,1.0724 2.46097,2.3656 1.59505,0.9793 2.8833,-1.5584 2.18418,-1.8243 2.59794,-0.3093 3.79854,-0.1879 2.82785,0.4083 1.75614,0.4485 1.47845,1.9821 1.11151,0.5525 3.51958,0.3912 15.26188,-0.1412 1.90529,-1.5815 0.87895,-1.3622 1.79302,-0.7451 2.46387,-0.1156 3.12436,-0.2677 1.59465,-0.092 2.22323,-1.3954 1.87065,-2.3255 1.42042,-1.853 1.5254,-2.854 5.09865,0.5176 1.65529,-0.048 17.47291,14.5062 3.85085,0.4968 5.24845,1.5438 4.20643,2.0991 9.9792,14.9463 0.87648,4.7412 1.85023,2.4265 3.2906,-0.025 9.71233,9.4381 14.75825,4.0836 2.39855,1.3989 8.472,-0.4226 2.3525,-2.1884 6.53941,-0.2183 2.586,2.0724 10.56443,-0.5764 2.91856,-2.5068 4.44518,-0.5551 7.19077,-5.3061 3.90107,-6.4324 5.87624,-1.532 8.38189,0.013 0.53225,11.9236 3.94082,3.9361 1.41102,1.9799 -4.00148,1.5905 -1.59416,2.0909 0.0758,2.1432 1.92267,2.1487 1.93731,2.07 v 3.3053 l 0.50578,1.3721 1.13317,1.4114 -1.93199,4.0698 -5.22962,3.8267 -4.27154,0.9039 -3.26006,3.558 -3.09294,0.3365 -2.34421,1.3965 -9.47144,8.5988 -5.22535,5.6712 -12.23133,0.44 -2.72838,2.7129 -2.59865,0.9525 -3.87436,0.6414 -2.13096,2.8875 -4.60618,0.5703 -3.73954,0.1708 -6.26016,5.345 -4.70614,6.0174 -0.51248,2.9063 -1.1348,2.0069 -2.18558,1.7516 -0.39038,2.2889 -0.21836,1.3717 -8.80764,10.0776 -5.18945,5.0323 -2.10061,4.1549 -0.51201,1.8287 -3.59709,4.3674 -5.21019,4.9756 -1.85042,3.298 -0.80129,3.0429 -2.21606,2.6808 -1.44636,2.1981 v 2.7087 l -2.11539,2.9599 -1.52749,1.3345 -0.38975,7.5597 -0.10835,8.0631 -0.10297,2.4392 0.0358,2.5354 -7.54766,-9.0485 -5.5146,-2.8207 -3.52668,-2.2626 -1.82741,-1.2771 -3.27775,-0.5645 -2.64084,-5.6991 -0.54329,-2.8609 1.12892,-2.7802 -1.62739,-6.4166 -3.25691,-3.4887 -1.83641,-5.8358 -0.98497,-6.7929 -0.35627,-6.1825 1.57204,-3.7242 1.01719,-2.2052 -0.83009,-3.5596 3.90547,-2.3594 -1.57014,-5.9633 -6.65928,-10.747 -3.03265,-4.8435 -4.363,-5.2005 -3.51981,-3.8495 -7.59173,-0.4737 -6.55597,-0.1652 -4.02965,1.3683 -4.75692,0.3174 -2.73748,1.1646 -3.66705,-2.0528 -3.58123,-2.0528 -2.3438,0.372 -2.62276,0.1863 -3.47599,1.8802 -2.42474,0.4467 -2.0018,-2.1963 0.54885,-4.4239 -4.28382,-1.6192 -3.5768,-3.2723 -4.49494,-3.7048 -6.7113,1.5522 -2.72704,-0.2525 -1.17679,-2.6099 -3.12897,-1.1359 -3.24258,-1.0109 -3.3838,-3.403 -3.27698,-0.9368 -2.23087,-5.0504 -2.25815,-4.7293 -1.98087,-1.4201 -3.06007,-0.087 -2.45426,-3.5691 -7.55543,1.2809 -2.70944,-1.8267 -2.2967,-2.6856 -1.69468,-2.6235 -0.085,-0.9495 c 0,0 -1.34597,-0.5789 -2.13696,-0.7541 -0.79098,-0.1752 -0.24412,-1.9728 -0.66519,-1.8911 -0.42106,0.082 4.97152,-6.6388 4.97152,-6.6388 l -0.99249,-3.8544 1.66689,-3.0261 -2.54263,-3.8548 2.19976,-3.8451 -3.20117,-6.4735 4.62045,-3.0939 1.8191,-3.2271 -1.8717,-2.612 -0.0594,-2.3374 -1.72155,-2.1631 6.19263,-8.7312 z"
       id="path2002" /><path
       style="fill:#a05a2c;stroke:#000000;stroke-width:1px;stroke-linecap:butt;stroke-linejoin:miter;stroke-opacity:1"
       d="m 377.2191,1457.1012 -0.37323,5.064 2.68763,2.5543 2.88624,2.8106 2.99605,1.3339 h 1.87173 l 2.24199,1.3578 1.10428,2.4041 -0.79303,2.2162 -2.88788,2.9768 -5.08708,3.4129 -0.87297,-0.2159 -4.11534,2.2219 -3.5643,3.77 -3.40116,4.7083 -1.12473,2.2162 v 2.0528 l -2.86544,2.5355 -1.37148,2.735 -0.2445,2.7995 -1.90609,1.7996 -1.59486,2.8661 -0.80778,3.9092 -1.52952,1.3063 -1.11719,1.8693 -0.71937,2.7468 0.43798,1.896 0.3956,2.4642 0.9651,1.1668 -1.9441,0.9338 -3.13562,-0.2527 -3.16257,-0.2502 -1.45628,-1.1877 -1.87031,-1.7706 -1.86281,-0.6929 -7.55761,6.1482 -17.61106,17.9808 -1.90981,2.3627 -0.80501,1.5211 -0.26163,2.1304 -0.12419,2.9066 -0.62693,2.3798 -0.90612,1.1968 -1.97389,0.687 -1.18388,0.1703 -1.44882,-0.9353 -2.10579,-0.4263 -3.31404,-0.097 -4.88802,0.1271 -2.19283,1.1791 -5.11069,5.132 -2.2913,1.4632 -1.56499,-0.7981 -1.89218,-2.2954 -1.757,-0.7385 -2.38393,0.3937 -2.58826,-9.8252 -2.66473,0.257 -3.49079,-3.7969 0.54911,-5.1409 -2.8288,-4.6227 -1.5229,-3.785 -4.03043,-4.719 -5.65455,-3.6518 -0.42111,-9.2396 -5.00468,-0.3559 -1.77278,2.5993 -4.08909,1.682 -3.97678,-5.0015 -2.23128,-1.8214 1.03837,-6.3378 -1.71508,-3.1721 -7.80836,-5.3539 1.11039,-4.1655 5.45153,-5.8949 0.61356,-6.2943 -3.47284,-8.3217 -5.73084,-6.411 -4.05157,-2.8659 -7.96875,0.6644 -5.22938,0.1221 -3.98108,0.018 -3.60882,-1.1089 -3.90672,-1.027 -6.02268,0.5048 1.19059,-4.8384 5.41045,-3.0561 4.56091,-2.8813 1.36878,-3.4069 -1.40567,-1.1005 3.35781,-2.5482 2.56667,-4.0592 0.52355,-0.8602 0.54856,-7.1514 4.7792,-2.8807 1.63254,-3.1429 -2.53221,-13.748 -1.49909,-2.9527 -1.90823,-1.3272 -3.74942,1.5272 -3.01247,-0.333 -3.99997,-4.5294 -4.84358,-1.4207 -4.09728,-3.0073 -0.12574,-9.0142 4.59617,-1.6523 4.81731,-2.0487 1.46988,-5.2379 -3.62255,-7.2539 -9.78254,-12.4558 -6.07183,-10.384 -1.41265,-1.8592 -0.51273,-0.6073 7.84429,-6.4822 1.56818,-8.6022 4.90658,-4.6555 4.13489,-2.0733 10.05043,-11.2312 -0.40047,-6.6958 6.40889,-1.1631 0.65429,1.7476 2.7926,1.3033 1.0536,2.6636 3.9878,4.4027 1.35081,0.7495 7.45181,-1.3743 2.79121,3.7735 3.2422,0.076 1.71411,1.4229 4.63093,9.688 3.38088,1.148 2.81265,2.7319 7.00996,2.6922 0.48383,2.4049 3.08621,0.4141 6.60193,-1.4037 7.94128,6.3932 4.90998,2.2188 -0.68111,4.3646 1.30946,1.7917 2.81912,-0.02 3.49525,-1.8289 4.09781,-0.5348 8.07991,3.9943 2.74482,-1.4046 4.06562,-0.2821 4.74079,-1.5737 14.3576,0.9473 7.69837,8.885 5.97004,10.0112 3.08821,5.2214 2.1402,6.2307 -4.06732,2.5931 1.12304,3.5425 -2.90415,6.0573 1.41228,12.4443 1.75616,5.9672 3.73558,4.2775 1.34734,6.0631 -1.31874,2.3967 1.05704,4.346 2.63534,4.6124 3.22512,0.5187 10.63848,6.3411 3.47273,4.7383 z"
       id="path2040" /><path
       style="display:inline;fill:#deaa87;stroke:#000000;stroke-width:1px;stroke-linecap:butt;stroke-linejoin:miter;stroke-opacity:1"
       d="m 405.62327,1660.3043 -12.16649,-0.6217 -2.62168,-2.0507 -1.09,-1.2277 -9.67608,-0.3472 -22.46883,-0.2408 -7.20068,0.5931 -1.97324,0.7153 -1.42103,2.1818 -3.85119,0.8663 -2.21256,1.2354 -1.90373,1.7755 -8.64528,1.1501 -2.63554,2.6994 -2.53248,1.0841 -1.83785,0.2988 -8.86376,7.0353 -4.96082,5.6079 -4.13498,2.4961 -3.16362,-0.3495 -3.44738,-1.8304 -23.12248,-22.9933 -0.17984,-15.9118 0.12181,-0.7467 -9.62725,-8.6973 -2.68425,-1.3296 -3.18735,-0.5941 -2.33364,-2.7121 -8.10356,-0.3271 1.71511,-3.087 -0.59138,-2.9333 0.10729,-3.3005 1.71511,-5.3981 3.93347,-6.1143 6.7027,0.095 -0.0647,-6.9754 4.73415,-1.7194 0.0488,-4.889 4.32563,-1.5037 -4.41233,-5.2175 4.13679,-7.2251 2.2498,-7.8321 2.99149,-5.2394 3.98123,-0.956 4.43117,-2.7452 6.51876,0.2081 3.20865,-2.0906 9.84682,3.0543 2.65003,-1.1762 4.47507,-0.305 4.30755,-0.1691 4.53668,0.6651 5.99922,-0.5307 6.7567,1.9308 3.77007,0.3927 13.76789,-0.9408 4.88031,3.7319 5.21903,5.694 3.31468,8.3213 -0.75658,6.391 -5.20029,6.0284 -1.34656,3.9676 7.68963,4.9624 2.14569,4.2489 -1.2858,5.3995 2.99511,2.3884 3.41179,4.5209 4.09025,-1.6307 1.68989,-2.687 4.80579,0.5763 0.63213,9.1237 5.79054,3.7588 4.31311,5.0464 2.12484,5.5809 1.85224,2.5683 -0.87273,4.9376 3.65705,3.7482 3.05842,-0.1238 z"
       id="path2089"
       transform="translate(-122.85898,-99.0165)"
       sodipodi:nodetypes="ccccccccccccccccccccccccccccccccccccccccccccccccccccccccccccccccccccccccccccccc" /></g><g
     inkscape:groupmode="layer"
     id="layer2"
     inkscape:label="llicencia"><g
       inkscape:groupmode="layer"
       id="layer3"
       inkscape:label="english"
       transform="translate(-225.15806,27.401146)"
       sodipodi:insensitive="true"
       style="display:none"><text
         id="text35408"
         y="773.38226"
         x="843.39508"
         style="font-style:italic;font-variant:normal;font-weight:bold;font-stretch:normal;font-size:11.178px;line-height:1.1;font-family:Arial;-inkscape-font-specification:'Arial, Bold Italic';font-variant-ligatures:normal;font-variant-caps:normal;font-variant-numeric:normal;font-feature-settings:normal;text-align:end;letter-spacing:0px;word-spacing:0px;writing-mode:lr-tb;text-anchor:end;white-space:pre;inline-size:410.023;display:inline;fill:#000000;fill-opacity:1;stroke:none;stroke-width:1.49832"
         xml:space="preserve"
         transform="matrix(1.0340973,0,0,0.93648088,-76.767017,1054.2929)"><tspan
           x="843.39508"
           y="773.38226"
           id="tspan2892"><tspan
   style="font-style:normal;font-weight:normal;-inkscape-font-specification:Arial;fill:#ffffff"
   id="tspan2888">This work has been identified as being free of known restrictions under</tspan> <tspan
   style="font-style:normal;font-weight:normal;-inkscape-font-specification:Arial;fill:#ffffff"
   id="tspan2890">copyright</tspan><tspan
   y="773.38226"
   id="tspan2894"> </tspan></tspan><tspan
           x="843.39508"
           y="785.67804"
           id="tspan2898"><tspan
   style="font-style:normal;font-weight:normal;-inkscape-font-specification:Arial;fill:#ffffff"
   id="tspan2896">law, including all related and neighboring rights.</tspan><tspan
   y="785.67804"
   id="tspan2900"> </tspan></tspan></text></g><g
       inkscape:groupmode="layer"
       id="g2183"
       inkscape:label="spanish"
       transform="translate(-225.15806,27.401146)"><text
         id="text2181"
         y="773.38226"
         x="843.39508"
         style="font-style:italic;font-variant:normal;font-weight:bold;font-stretch:normal;font-size:11.178px;line-height:1;font-family:Arial;-inkscape-font-specification:'Arial, Bold Italic';font-variant-ligatures:normal;font-variant-caps:normal;font-variant-numeric:normal;font-feature-settings:normal;text-align:end;letter-spacing:0px;word-spacing:0px;writing-mode:lr-tb;text-anchor:end;white-space:pre;inline-size:410.023;display:inline;fill:#000000;fill-opacity:1;stroke:none;stroke-width:1.49832"
         xml:space="preserve"
         transform="matrix(1.0340973,0,0,0.93648088,-76.767017,1054.2929)"><tspan
           x="843.39508"
           y="773.38226"
           id="tspan2904"><tspan
             style="font-style:normal;font-weight:normal;-inkscape-font-specification:Arial;fill:#ffffff"
             id="tspan2902">Este trabajo ha sido identificado como libre de restricciones conocidas bajo la ley</tspan><tspan
             y="773.38226"
             id="tspan2906"> </tspan></tspan><tspan
           x="843.39508"
           y="784.56024"
           id="tspan2910"><tspan
             style="font-style:normal;font-weight:normal;-inkscape-font-specification:Arial;fill:#ffffff"
             id="tspan2908">de derechos de autor, incluidos todos los derechos relacionados y conexos.</tspan></tspan></text></g></g><g
     id="g1889"
     transform="matrix(1.4916002,0,0,1.5142822,-61.64582,1775.7209)"
     inkscape:label="public_domain"><path
       id="path1847"
       d="m 54.614018,12.771319 49.441902,0.08824 c 0.69114,0 1.30794,-0.102449 1.30794,1.381593 l -0.0613,16.317354 H 53.366148 V 14.180745 c 0,-0.731361 0.07019,-1.409426 1.24787,-1.409426 z"
       inkscape:connector-curvature="0"
       style="fill:#ffffff;stroke-width:0.593491" /><g
       transform="matrix(0.59478986,0,0,0.59219544,52.946821,11.894278)"
       id="g1851"><ellipse
         id="ellipse1849"
         ry="11.172"
         rx="11.101"
         cy="16.500999"
         cx="14.887"
         style="fill:#ffffff" /></g><path
       style="stroke-width:0.593491"
       id="path1853"
       d="m 67.382961,14.890788 c 2.072251,1.534971 3.422424,3.993766 3.42302,6.774716 -5.96e-4,2.529859 -1.118209,4.793823 -2.879971,6.338268 h 37.38432 V 14.890788 Z"
       inkscape:connector-curvature="0" /><path
       style="stroke-width:0.593491"
       id="path1855"
       d="m 62.012603,14.678782 c -3.850069,0 -6.971526,3.127977 -6.971526,6.986722 0,3.858154 3.121457,6.986722 6.972124,6.986722 3.850077,0 6.971531,-3.128568 6.971531,-6.986722 -5.96e-4,-3.858745 -3.12205,-6.986722 -6.972129,-6.986722 z m 0,12.663508 c -3.123831,0 -5.664774,-2.547625 -5.664774,-5.676786 0,-0.654968 0.112415,-1.284471 0.317618,-1.870153 l 2.215593,0.988374 c -0.05948,0.297875 -0.09159,0.607593 -0.09159,0.927971 0,2.788648 2.077005,3.574491 3.383758,3.574491 0.771443,0 1.438198,-0.249906 1.96043,-0.615291 0.05472,-0.03909 0.106462,-0.07876 0.155835,-0.117847 l -1.045647,-1.094377 c -0.380663,0.329261 -0.780956,0.230956 -0.87434,0.230956 -1.063485,0 -1.508983,-1.124578 -1.514931,-2.0259 l 6.106115,2.725283 c 0.0072,0.0012 0.01309,0.0012 0.01905,0.0024 -0.963562,1.756452 -2.828826,2.95091 -4.967095,2.95091 z m 5.458392,-4.227092 -6.297042,-2.815888 c 0.227209,-0.413353 0.588247,-0.723071 1.128914,-0.723071 0.314043,0 0.562665,0.104818 0.758946,0.235102 0.08149,0.05922 0.151672,0.118438 0.211152,0.177658 l 1.134857,-1.171363 c -0.761924,-0.656152 -1.629125,-0.774592 -2.195958,-0.774592 -1.331738,0 -2.274478,0.577983 -2.830606,1.45384 l -2.105557,-0.94159 c 1.013522,-1.544446 2.757447,-2.568352 4.736314,-2.568352 3.123236,0 5.664179,2.54644 5.664179,5.677377 0,0.505736 -0.06723,0.99785 -0.192118,1.465093 -0.0043,-0.0042 -0.0078,-0.0089 -0.01309,-0.01421 z"
       inkscape:connector-curvature="0" /><g
       transform="matrix(0.59478986,0,0,0.59219544,52.946821,11.894278)"
       id="g1881"><path
         id="path1857"
         d="m 36.739,8.557 c 0.392,0 0.728,0.059 1.002,0.173 0.276,0.116 0.5,0.268 0.674,0.456 0.173,0.189 0.299,0.405 0.379,0.647 0.079,0.241 0.118,0.493 0.118,0.753 0,0.253 -0.039,0.503 -0.118,0.749 -0.08,0.244 -0.206,0.462 -0.379,0.65 -0.174,0.188 -0.397,0.341 -0.674,0.456 -0.274,0.115 -0.61,0.173 -1.002,0.173 h -1.452 v 2.267 H 33.905 V 8.557 Z m -0.379,2.976 c 0.158,0 0.312,-0.012 0.457,-0.035 0.147,-0.023 0.276,-0.069 0.388,-0.137 0.111,-0.068 0.201,-0.164 0.269,-0.288 0.068,-0.124 0.101,-0.287 0.101,-0.487 0,-0.201 -0.033,-0.363 -0.101,-0.488 C 37.407,9.975 37.317,9.878 37.205,9.812 37.094,9.743 36.965,9.698 36.817,9.674 36.671,9.65 36.518,9.638 36.36,9.638 h -1.073 v 1.896 z"
         inkscape:connector-curvature="0"
         style="fill:#ffffff" /><path
         id="path1859"
         d="m 44.751,14.398 c -0.476,0.417 -1.133,0.625 -1.972,0.625 -0.851,0 -1.509,-0.207 -1.976,-0.62 C 40.337,13.99 40.104,13.351 40.104,12.49 V 8.557 h 1.381 v 3.934 c 0,0.171 0.016,0.339 0.045,0.506 0.029,0.165 0.091,0.311 0.185,0.438 0.094,0.125 0.225,0.229 0.392,0.309 0.167,0.08 0.392,0.119 0.673,0.119 0.493,0 0.833,-0.109 1.021,-0.332 0.188,-0.221 0.282,-0.568 0.282,-1.04 V 8.557 h 1.382 v 3.934 c -0.001,0.855 -0.239,1.491 -0.714,1.907 z"
         inkscape:connector-curvature="0"
         style="fill:#ffffff" /><path
         id="path1861"
         d="m 50.069,8.557 c 0.301,0 0.572,0.027 0.817,0.081 0.246,0.053 0.459,0.14 0.636,0.26 0.176,0.121 0.312,0.282 0.407,0.483 0.099,0.201 0.146,0.45 0.146,0.745 0,0.318 -0.071,0.584 -0.217,0.796 -0.144,0.212 -0.355,0.388 -0.637,0.522 0.387,0.112 0.676,0.309 0.865,0.589 0.191,0.281 0.286,0.619 0.286,1.015 0,0.319 -0.062,0.595 -0.185,0.829 -0.123,0.232 -0.289,0.422 -0.498,0.57 -0.207,0.148 -0.445,0.257 -0.713,0.328 -0.269,0.07 -0.541,0.105 -0.822,0.105 H 47.11 V 8.557 Z m -0.173,2.56 c 0.246,0 0.447,-0.059 0.606,-0.178 0.157,-0.118 0.237,-0.309 0.237,-0.576 0,-0.147 -0.026,-0.269 -0.08,-0.362 C 50.606,9.906 50.537,9.833 50.448,9.779 50.36,9.726 50.26,9.689 50.145,9.67 50.03,9.648 49.912,9.638 49.789,9.638 h -1.294 v 1.479 z m 0.078,2.685 c 0.135,0 0.264,-0.014 0.387,-0.04 0.125,-0.026 0.231,-0.072 0.326,-0.133 0.094,-0.062 0.168,-0.147 0.227,-0.254 0.056,-0.104 0.083,-0.241 0.083,-0.406 0,-0.325 -0.093,-0.557 -0.271,-0.696 -0.184,-0.138 -0.425,-0.208 -0.724,-0.208 h -1.505 v 1.737 z"
         inkscape:connector-curvature="0"
         style="fill:#ffffff" /><path
         id="path1863"
         d="m 55.142,8.557 v 5.155 h 3.062 v 1.169 H 53.76 V 8.557 Z"
         inkscape:connector-curvature="0"
         style="fill:#ffffff" /><path
         id="path1865"
         d="m 60.748,8.557 v 6.324 H 59.366 V 8.557 Z"
         inkscape:connector-curvature="0"
         style="fill:#ffffff" /><path
         id="path1867"
         d="M 66.45,10.244 C 66.368,10.112 66.266,9.996 66.143,9.895 66.018,9.794 65.878,9.716 65.722,9.66 65.569,9.603 65.407,9.575 65.235,9.575 c -0.312,0 -0.574,0.062 -0.791,0.183 -0.217,0.12 -0.396,0.283 -0.527,0.486 -0.137,0.204 -0.232,0.436 -0.296,0.695 -0.062,0.26 -0.093,0.529 -0.093,0.806 0,0.267 0.031,0.525 0.093,0.776 0.062,0.251 0.159,0.477 0.296,0.677 0.134,0.201 0.311,0.361 0.527,0.483 0.217,0.12 0.479,0.181 0.791,0.181 0.424,0 0.754,-0.129 0.99,-0.389 0.236,-0.26 0.383,-0.602 0.437,-1.028 h 1.337 c -0.034,0.396 -0.126,0.753 -0.271,1.072 -0.146,0.318 -0.34,0.591 -0.58,0.815 -0.24,0.224 -0.521,0.395 -0.846,0.513 -0.322,0.119 -0.678,0.178 -1.064,0.178 -0.48,0 -0.914,-0.084 -1.299,-0.252 -0.383,-0.17 -0.709,-0.399 -0.972,-0.696 -0.265,-0.295 -0.468,-0.641 -0.606,-1.04 -0.143,-0.399 -0.213,-0.829 -0.213,-1.29 0,-0.472 0.07,-0.91 0.213,-1.314 0.141,-0.404 0.344,-0.757 0.606,-1.058 0.263,-0.302 0.589,-0.537 0.972,-0.709 0.385,-0.172 0.816,-0.258 1.299,-0.258 0.347,0 0.675,0.051 0.98,0.15 0.309,0.102 0.583,0.248 0.827,0.439 0.243,0.191 0.444,0.43 0.603,0.713 0.16,0.283 0.258,0.608 0.301,0.974 H 66.61 c -0.024,-0.159 -0.078,-0.305 -0.16,-0.438 z"
         inkscape:connector-curvature="0"
         style="fill:#ffffff" /><path
         id="path1869"
         d="m 36.615,17.415 c 0.405,0 0.782,0.064 1.131,0.193 0.35,0.131 0.651,0.326 0.906,0.586 0.255,0.26 0.455,0.584 0.599,0.975 0.144,0.389 0.216,0.848 0.216,1.372 0,0.462 -0.059,0.888 -0.176,1.274 -0.118,0.391 -0.295,0.728 -0.532,1.012 -0.238,0.283 -0.534,0.506 -0.89,0.668 -0.354,0.162 -0.772,0.244 -1.254,0.244 h -2.71 v -6.324 z m -0.096,5.154 c 0.199,0 0.393,-0.031 0.581,-0.097 0.188,-0.066 0.354,-0.174 0.502,-0.323 0.146,-0.151 0.264,-0.349 0.352,-0.59 0.088,-0.242 0.132,-0.537 0.132,-0.887 0,-0.316 -0.031,-0.605 -0.093,-0.863 -0.062,-0.257 -0.162,-0.478 -0.304,-0.658 -0.141,-0.186 -0.326,-0.324 -0.559,-0.422 -0.231,-0.099 -0.517,-0.146 -0.858,-0.146 h -0.984 v 3.984 h 1.231 z"
         inkscape:connector-curvature="0"
         style="fill:#ffffff" /><path
         id="path1871"
         d="m 40.8,19.289 c 0.141,-0.405 0.344,-0.759 0.606,-1.06 0.265,-0.304 0.589,-0.537 0.973,-0.709 0.385,-0.172 0.816,-0.258 1.298,-0.258 0.487,0 0.921,0.086 1.303,0.258 0.383,0.172 0.705,0.405 0.969,0.709 0.265,0.301 0.467,0.652 0.605,1.06 0.143,0.403 0.213,0.843 0.213,1.313 0,0.461 -0.07,0.892 -0.213,1.288 -0.141,0.397 -0.343,0.746 -0.605,1.041 -0.264,0.296 -0.586,0.526 -0.969,0.694 -0.382,0.168 -0.814,0.253 -1.303,0.253 -0.481,0 -0.913,-0.085 -1.298,-0.253 -0.384,-0.168 -0.708,-0.398 -0.973,-0.694 -0.263,-0.295 -0.466,-0.644 -0.606,-1.041 -0.141,-0.396 -0.211,-0.827 -0.211,-1.288 0,-0.47 0.07,-0.91 0.211,-1.313 z m 1.262,2.089 c 0.062,0.252 0.16,0.479 0.295,0.68 0.135,0.199 0.312,0.36 0.527,0.48 0.218,0.121 0.481,0.184 0.792,0.184 0.312,0 0.576,-0.062 0.792,-0.184 0.219,-0.12 0.395,-0.281 0.529,-0.48 0.134,-0.201 0.232,-0.428 0.295,-0.68 0.062,-0.25 0.092,-0.509 0.092,-0.773 0,-0.276 -0.029,-0.547 -0.092,-0.807 -0.062,-0.261 -0.161,-0.49 -0.295,-0.695 -0.137,-0.203 -0.312,-0.365 -0.529,-0.486 -0.216,-0.12 -0.48,-0.182 -0.792,-0.182 -0.311,0 -0.574,0.062 -0.792,0.182 -0.216,0.121 -0.393,0.283 -0.527,0.486 -0.135,0.205 -0.233,0.437 -0.295,0.695 -0.062,0.258 -0.093,0.527 -0.093,0.807 10e-4,0.264 0.032,0.523 0.093,0.773 z"
         inkscape:connector-curvature="0"
         style="fill:#ffffff" /><path
         id="path1873"
         d="m 50.092,17.415 1.47,4.35 h 0.021 l 1.391,-4.35 h 1.944 v 6.324 h -1.294 v -4.482 h -0.019 l -1.541,4.482 h -1.062 l -1.54,-4.438 h -0.019 v 4.438 h -1.295 v -6.324 z"
         inkscape:connector-curvature="0"
         style="fill:#ffffff" /><path
         id="path1875"
         d="m 59.765,17.415 2.35,6.324 h -1.436 l -0.475,-1.408 h -2.35 l -0.494,1.408 h -1.392 l 2.377,-6.324 z m 0.079,3.88 -0.793,-2.321 h -0.019 l -0.816,2.321 z"
         inkscape:connector-curvature="0"
         style="fill:#ffffff" /><path
         id="path1877"
         d="m 64.547,17.415 v 6.324 h -1.382 v -6.324 z"
         inkscape:connector-curvature="0"
         style="fill:#ffffff" /><path
         id="path1879"
         d="m 67.603,17.415 2.623,4.242 h 0.018 v -4.242 h 1.295 v 6.324 h -1.383 l -2.613,-4.234 h -0.018 v 4.234 H 66.23 v -6.324 z"
         inkscape:connector-curvature="0"
         style="fill:#ffffff" /><path
         style="stroke-width:0.593491"
         id="path1883"
         d="M 104.60611,12.486473 H 54.223834 c -0.540069,0 -0.979618,0.440002 -0.979618,0.981268 v 17.155904 c 0,0.121992 0.09933,0.220889 0.221262,0.220889 h 51.898972 c 0.12193,0 0.22127,-0.0989 0.22127,-0.220889 V 13.467741 c 0,-0.541266 -0.43955,-0.981268 -0.97961,-0.981268 z m -50.382276,0.443555 h 50.381076 c 0.29621,0 0.5371,0.241024 0.5371,0.537713 0,0 0,11.916159 0,16.911327 H 53.687334 v -4.988654 c 0,-4.995761 0,-11.922673 0,-11.922673 0,-0.296689 0.240889,-0.537713 0.5365,-0.537713 z"
         inkscape:connector-curvature="0"
         transform="matrix(1.6812661,0,0,1.6886317,-89.017693,-20.085055)" /></g></g><g
     inkscape:groupmode="layer"
     id="layer6"
     inkscape:label="titular"><g
       inkscape:groupmode="layer"
       id="layer7"
       inkscape:label="english"
       style="display:none"
       sodipodi:insensitive="true"><text
         xml:space="preserve"
         style="font-weight:bold;font-size:20px;line-height:1.25;font-family:Arial;-inkscape-font-specification:'Arial Bold';display:inline;fill:#000000"
         x="19.474564"
         y="1202.1967"
         id="text35394"><tspan
           sodipodi:role="line"
           id="tspan35392"
           x="19.474564"
           y="1202.1967"
           style="font-size:20px;fill:#000000">Provinces of Hispania under the Tetrarchy</tspan></text></g><g
       inkscape:groupmode="layer"
       id="g2377"
       inkscape:label="spanish"><text
         xml:space="preserve"
         style="font-weight:bold;font-size:20px;line-height:1.25;font-family:Arial;-inkscape-font-specification:'Arial Bold';display:inline;fill:#000000"
         x="19.474564"
         y="1202.1967"
         id="text2375"><tspan
           sodipodi:role="line"
           id="tspan2373"
           x="19.474564"
           y="1202.1967"
           style="font-size:20px;fill:#000000">Provincias de la Hispania romana bajo la Tetrarqua</tspan></text></g></g><g
     inkscape:groupmode="layer"
     id="layer8"
     inkscape:label="llegenda"><rect
       style="display:inline;fill:#ececec;fill-opacity:1;stroke:#000000;stroke-width:0.870531;stroke-linecap:round;stroke-linejoin:round;stroke-miterlimit:4;stroke-dasharray:none;stroke-opacity:1"
       id="rect838"
       width="172.33543"
       height="98.650856"
       x="374.6373"
       y="1670.0575" /><g
       inkscape:groupmode="layer"
       id="layer9"
       inkscape:label="english"
       sodipodi:insensitive="true"
       style="display:none"><text
         id="text35468"
         y="1568.2485"
         x="524.02551"
         style="font-style:italic;font-variant:normal;font-weight:bold;font-stretch:normal;font-size:16px;line-height:1;font-family:Arial;-inkscape-font-specification:'Arial, Bold Italic';font-variant-ligatures:normal;font-variant-caps:normal;font-variant-numeric:normal;font-feature-settings:normal;text-align:center;letter-spacing:0px;word-spacing:0px;writing-mode:lr-tb;text-anchor:middle;white-space:pre;inline-size:152.637;display:inline;fill:#000000;fill-opacity:1;stroke:none;stroke-width:0.452394"
         xml:space="preserve"
         transform="matrix(0.93389589,0,0,1.0707832,-29.127348,20.566052)"><tspan
           x="524.02551"
           y="1568.2485"
           id="tspan2914"><tspan
   style="font-style:normal;-inkscape-font-specification:'Arial Bold'"
   id="tspan2912">Provinces of</tspan><tspan
   y="1568.2485"
   id="tspan2916"> </tspan></tspan><tspan
           x="524.02551"
           y="1584.2485"
           id="tspan2920"><tspan
   style="font-style:normal;-inkscape-font-specification:'Arial Bold'"
   id="tspan2918">Roman Hispania in</tspan><tspan
   y="1584.2485"
   id="tspan2922"> </tspan></tspan><tspan
           x="524.02551"
           y="1600.2485"
           id="tspan2926"><tspan
   style="font-style:normal;-inkscape-font-specification:'Arial Bold'"
   id="tspan2924">the times of</tspan><tspan
   y="1600.2485"
   id="tspan2928"> </tspan></tspan><tspan
           x="524.02551"
           y="1616.2485"
           id="tspan2932"><tspan
             style="font-style:normal;-inkscape-font-specification:'Arial Bold'"
             id="tspan2930">Diocletian</tspan></tspan></text></g><g
       inkscape:groupmode="layer"
       id="g2002"
       inkscape:label="spanish"><text
         id="text2000"
         y="1568.2485"
         x="524.02551"
         style="font-style:italic;font-variant:normal;font-weight:bold;font-stretch:normal;font-size:16px;line-height:1;font-family:Arial;-inkscape-font-specification:'Arial, Bold Italic';font-variant-ligatures:normal;font-variant-caps:normal;font-variant-numeric:normal;font-feature-settings:normal;text-align:center;letter-spacing:0px;word-spacing:0px;writing-mode:lr-tb;text-anchor:middle;white-space:pre;inline-size:152.637;display:inline;fill:#000000;fill-opacity:1;stroke:none;stroke-width:0.452394"
         xml:space="preserve"
         transform="matrix(0.93389589,0,0,1.0707832,-29.127348,12.566052)"><tspan
           x="524.02551"
           y="1568.2485"
           id="tspan2936"><tspan
             style="font-style:normal;-inkscape-font-specification:'Arial Bold'"
             id="tspan2934">Provincias de la</tspan><tspan
             y="1568.2485"
             id="tspan2938"> </tspan></tspan><tspan
           x="524.02551"
           y="1584.2485"
           id="tspan2942"><tspan
             style="font-style:normal;-inkscape-font-specification:'Arial Bold'"
             id="tspan2940">Hispania Romana</tspan><tspan
             y="1584.2485"
             id="tspan2944"> </tspan></tspan><tspan
           x="524.02551"
           y="1600.2485"
           id="tspan2948"><tspan
             style="font-style:normal;-inkscape-font-specification:'Arial Bold'"
             id="tspan2946">en tiempos del</tspan><tspan
             y="1600.2485"
             id="tspan2950"> </tspan></tspan><tspan
           x="524.02551"
           y="1616.2485"
           id="tspan2954"><tspan
             style="font-style:normal;-inkscape-font-specification:'Arial Bold'"
             id="tspan2952">emperador</tspan><tspan
             y="1616.2485"
             id="tspan2956"> </tspan></tspan><tspan
           x="524.02551"
           y="1632.2485"
           id="tspan2960"><tspan
             style="font-style:normal;-inkscape-font-specification:'Arial Bold'"
             id="tspan2958">Diocleciano</tspan></tspan></text></g></g><g
     inkscape:groupmode="layer"
     id="layer10"
     inkscape:label="noms-llati"
     sodipodi:insensitive="true"><text
       xml:space="preserve"
       style="font-weight:bold;font-size:22px;line-height:1.25;font-family:Arial;-inkscape-font-specification:'Arial Bold'"
       x="291.06818"
       y="1332.7263"
       id="text5261"><tspan
         sodipodi:role="line"
         id="tspan5259"
         x="291.06818"
         y="1332.7263"
         style="font-size:22px">Tarraconensis</tspan></text><text
       xml:space="preserve"
       style="font-weight:bold;font-size:22px;line-height:1.25;font-family:Arial;-inkscape-font-specification:'Arial Bold'"
       x="217.64268"
       y="1459.3674"
       id="text5261-6"><tspan
         sodipodi:role="line"
         id="tspan5259-7"
         x="217.64268"
         y="1459.3674"
         style="font-size:22px">Cartaginensis</tspan></text><text
       xml:space="preserve"
       style="font-weight:bold;font-size:22px;line-height:1.25;font-family:Arial;-inkscape-font-specification:'Arial Bold'"
       x="160.55058"
       y="1535.738"
       id="text5261-6-5"><tspan
         sodipodi:role="line"
         id="tspan5259-7-3"
         x="160.55058"
         y="1535.738"
         style="font-size:22px">Baetica</tspan></text><text
       xml:space="preserve"
       style="font-weight:bold;font-size:22px;line-height:1.25;font-family:Arial;-inkscape-font-specification:'Arial Bold'"
       x="83.254539"
       y="1430.8196"
       id="text5261-6-56"><tspan
         sodipodi:role="line"
         id="tspan5259-7-2"
         x="83.254539"
         y="1430.8196"
         style="font-size:22px">Lusitania</tspan></text><text
       xml:space="preserve"
       style="font-weight:bold;font-size:22px;line-height:1.25;font-family:Arial;-inkscape-font-specification:'Arial Bold'"
       x="112.20673"
       y="1298.5311"
       id="text5261-6-56-9"><tspan
         sodipodi:role="line"
         id="tspan5259-7-2-1"
         x="112.20673"
         y="1298.5311"
         style="font-size:22px">Gallaecia</tspan></text><text
       xml:space="preserve"
       style="font-weight:bold;font-size:22px;line-height:1.25;font-family:Arial;-inkscape-font-specification:'Arial Bold';text-align:center;text-anchor:middle"
       x="192.13884"
       y="1695.728"
       id="text5261-6-56-2"><tspan
         sodipodi:role="line"
         id="tspan5259-7-2-7"
         x="192.13884"
         y="1695.728"
         style="font-size:22px;text-align:center;text-anchor:middle">Mauretania</tspan><tspan
         sodipodi:role="line"
         x="192.13884"
         y="1723.228"
         style="font-size:22px;text-align:center;text-anchor:middle"
         id="tspan5396">Tingitana</tspan></text><text
       xml:space="preserve"
       style="font-weight:bold;font-size:22px;line-height:1.25;font-family:Arial;-inkscape-font-specification:'Arial Bold'"
       x="456.72058"
       y="1461.9272"
       id="text5261-6-56-0"><tspan
         sodipodi:role="line"
         id="tspan5259-7-2-9"
         x="456.72058"
         y="1461.9272"
         style="font-size:22px">Balearica</tspan></text></g></svg>
